<?xml version="1.0" encoding="UTF-8" standalone="no"?>
<!DOCTYPE svg PUBLIC "-//W3C//DTD SVG 1.1//EN"
 "http://www.w3.org/Graphics/SVG/1.1/DTD/svg11.dtd">
<!-- Generated by graphviz version 12.2.1 (20241206.2353)
 -->
<!-- Title: gimo::BasicAlgorithm&lt; Traits, Action &gt; Pages: 1 -->
<svg width="735pt" height="379pt"
 viewBox="0.00 0.00 734.75 378.67" xmlns="http://www.w3.org/2000/svg" xmlns:xlink="http://www.w3.org/1999/xlink">
<g id="graph0" class="graph" transform="scale(1 1) rotate(0) translate(4 374.67)">
<title>gimo::BasicAlgorithm&lt; Traits, Action &gt;</title>
<!-- Node1 -->
<g id="Node000001" class="node">
<title>Node1</title>
<g id="a_Node000001"><a xlink:title="The basic building block for every monadic operation.">
<polygon fill="#999999" stroke="#666666" points="107.5,-189.38 0,-189.38 0,-158.88 107.5,-158.88 107.5,-189.38"/>
<text text-anchor="start" x="8" y="-175.88" font-family="Helvetica,sans-Serif" font-size="10.00">gimo::BasicAlgorithm</text>
<text text-anchor="middle" x="53.75" y="-164.62" font-family="Helvetica,sans-Serif" font-size="10.00">&lt; Traits, Action &gt;</text>
</a>
</g>
</g>
<!-- Node2 -->
<g id="Node000002" class="node">
<title>Node2</title>
<g id="a_Node000002"><a xlink:href="../../d5/dfb/classgimo_1_1_basic_algorithm.html" target="_top" xlink:title=" ">
<polygon fill="white" stroke="#666666" points="397.62,-337 257.12,-337 257.12,-295.25 397.62,-295.25 397.62,-337"/>
<text text-anchor="start" x="265.12" y="-323.5" font-family="Helvetica,sans-Serif" font-size="10.00">gimo::BasicAlgorithm</text>
<text text-anchor="start" x="265.12" y="-312.25" font-family="Helvetica,sans-Serif" font-size="10.00">&lt; and_then::traits, std</text>
<text text-anchor="middle" x="327.38" y="-301" font-family="Helvetica,sans-Serif" font-size="10.00">::remove_cvref_t&lt; Action &gt; &gt;</text>
</a>
</g>
</g>
<!-- Node1&#45;&gt;Node2 -->
<g id="edge1_Node000001_Node000002" class="edge">
<title>Node1&#45;&gt;Node2</title>
<g id="a_edge1_Node000001_Node000002"><a xlink:title=" ">
<path fill="none" stroke="orange" stroke-dasharray="5,2" d="M62.47,-200.51C72.22,-228.76 91.93,-272.44 125.5,-294.12 164.1,-319.06 215.8,-324.24 257.08,-323.35"/>
<polygon fill="orange" stroke="orange" points="65.88,-199.67 59.46,-191.24 59.22,-201.84 65.88,-199.67"/>
</a>
</g>
<text text-anchor="start" x="131.5" y="-358.17" font-family="Helvetica,sans-Serif" font-size="10.00" fill="grey">&lt; and_then::traits,</text>
<text text-anchor="start" x="131.5" y="-342.92" font-family="Helvetica,sans-Serif" font-size="10.00" fill="grey">   std::remove_cvref_t</text>
<text text-anchor="start" x="131.5" y="-327.67" font-family="Helvetica,sans-Serif" font-size="10.00" fill="grey">  &lt; Action &gt; &gt;</text>
</g>
<!-- Node3 -->
<g id="Node000003" class="node">
<title>Node3</title>
<g id="a_Node000003"><a xlink:href="../../d5/dfb/classgimo_1_1_basic_algorithm.html" target="_top" xlink:title=" ">
<polygon fill="white" stroke="#666666" points="397.62,-266 257.12,-266 257.12,-224.25 397.62,-224.25 397.62,-266"/>
<text text-anchor="start" x="265.12" y="-252.5" font-family="Helvetica,sans-Serif" font-size="10.00">gimo::BasicAlgorithm</text>
<text text-anchor="start" x="265.12" y="-241.25" font-family="Helvetica,sans-Serif" font-size="10.00">&lt; or_else::traits, std</text>
<text text-anchor="middle" x="327.38" y="-230" font-family="Helvetica,sans-Serif" font-size="10.00">::remove_cvref_t&lt; Action &gt; &gt;</text>
</a>
</g>
</g>
<!-- Node1&#45;&gt;Node3 -->
<g id="edge2_Node000001_Node000003" class="edge">
<title>Node1&#45;&gt;Node3</title>
<g id="a_edge2_Node000001_Node000003"><a xlink:title=" ">
<path fill="none" stroke="orange" stroke-dasharray="5,2" d="M80.93,-196.94C93.56,-206.66 109.44,-217.13 125.5,-223.12 167.4,-238.77 217.39,-244.29 257.02,-245.89"/>
<polygon fill="orange" stroke="orange" points="83.12,-194.21 73.13,-190.68 78.74,-199.67 83.12,-194.21"/>
</a>
</g>
<text text-anchor="start" x="131.5" y="-279.26" font-family="Helvetica,sans-Serif" font-size="10.00" fill="grey">&lt; or_else::traits,</text>
<text text-anchor="start" x="131.5" y="-264.01" font-family="Helvetica,sans-Serif" font-size="10.00" fill="grey">   std::remove_cvref_t</text>
<text text-anchor="start" x="131.5" y="-248.76" font-family="Helvetica,sans-Serif" font-size="10.00" fill="grey">  &lt; Action &gt; &gt;</text>
</g>
<!-- Node4 -->
<g id="Node000004" class="node">
<title>Node4</title>
<g id="a_Node000004"><a xlink:href="../../d5/dfb/classgimo_1_1_basic_algorithm.html" target="_top" xlink:title=" ">
<polygon fill="white" stroke="#666666" points="382.25,-200.62 272.5,-200.62 272.5,-147.62 382.25,-147.62 382.25,-200.62"/>
<text text-anchor="start" x="280.5" y="-187.12" font-family="Helvetica,sans-Serif" font-size="10.00">gimo::BasicAlgorithm</text>
<text text-anchor="start" x="280.5" y="-175.88" font-family="Helvetica,sans-Serif" font-size="10.00">&lt; transform::traits,</text>
<text text-anchor="start" x="280.5" y="-164.62" font-family="Helvetica,sans-Serif" font-size="10.00"> std::remove_cvref_t&lt;</text>
<text text-anchor="middle" x="327.38" y="-153.38" font-family="Helvetica,sans-Serif" font-size="10.00"> Action &gt; &gt;</text>
</a>
</g>
</g>
<!-- Node1&#45;&gt;Node4 -->
<g id="edge3_Node000001_Node000004" class="edge">
<title>Node1&#45;&gt;Node4</title>
<g id="a_edge3_Node000001_Node000004"><a xlink:title=" ">
<path fill="none" stroke="orange" stroke-dasharray="5,2" d="M119.25,-174.12C165.84,-174.12 228.05,-174.12 272.1,-174.12"/>
<polygon fill="orange" stroke="orange" points="119.28,-170.63 109.28,-174.13 119.28,-177.63 119.28,-170.63"/>
</a>
</g>
<text text-anchor="start" x="131.5" y="-209.38" font-family="Helvetica,sans-Serif" font-size="10.00" fill="grey">&lt; transform::traits,</text>
<text text-anchor="start" x="131.5" y="-194.12" font-family="Helvetica,sans-Serif" font-size="10.00" fill="grey">   std::remove_cvref_t</text>
<text text-anchor="start" x="131.5" y="-178.88" font-family="Helvetica,sans-Serif" font-size="10.00" fill="grey">  &lt; Action &gt; &gt;</text>
</g>
<!-- Node5 -->
<g id="Node000005" class="node">
<title>Node5</title>
<g id="a_Node000005"><a xlink:href="../../d5/dfb/classgimo_1_1_basic_algorithm.html" target="_top" xlink:title=" ">
<polygon fill="white" stroke="#666666" points="405.5,-124 249.25,-124 249.25,-82.25 405.5,-82.25 405.5,-124"/>
<text text-anchor="start" x="257.25" y="-110.5" font-family="Helvetica,sans-Serif" font-size="10.00">gimo::BasicAlgorithm</text>
<text text-anchor="start" x="257.25" y="-99.25" font-family="Helvetica,sans-Serif" font-size="10.00">&lt; transform_error::traits,</text>
<text text-anchor="middle" x="327.38" y="-88" font-family="Helvetica,sans-Serif" font-size="10.00"> std::remove_cvref_t&lt; Action &gt; &gt;</text>
</a>
</g>
</g>
<!-- Node1&#45;&gt;Node5 -->
<g id="edge4_Node000001_Node000005" class="edge">
<title>Node1&#45;&gt;Node5</title>
<g id="a_edge4_Node000001_Node000005"><a xlink:title=" ">
<path fill="none" stroke="orange" stroke-dasharray="5,2" d="M79.28,-151.08C92.07,-140.47 108.56,-128.82 125.5,-122.38 164.47,-107.55 210.61,-102.35 248.84,-101.03"/>
<polygon fill="orange" stroke="orange" points="77.08,-148.36 71.81,-157.55 81.66,-153.65 77.08,-148.36"/>
</a>
</g>
<text text-anchor="start" x="131.5" y="-157.62" font-family="Helvetica,sans-Serif" font-size="10.00" fill="grey">&lt; transform_error::</text>
<text text-anchor="start" x="131.5" y="-142.38" font-family="Helvetica,sans-Serif" font-size="10.00" fill="grey">  traits, std::remove</text>
<text text-anchor="start" x="131.5" y="-127.12" font-family="Helvetica,sans-Serif" font-size="10.00" fill="grey">  _cvref_t&lt; Action &gt; &gt;</text>
</g>
<!-- Node6 -->
<g id="Node000006" class="node">
<title>Node6</title>
<g id="a_Node000006"><a xlink:href="../../d5/dfb/classgimo_1_1_basic_algorithm.html" target="_top" xlink:title=" ">
<polygon fill="white" stroke="#666666" points="405.5,-53 249.25,-53 249.25,-11.25 405.5,-11.25 405.5,-53"/>
<text text-anchor="start" x="257.25" y="-39.5" font-family="Helvetica,sans-Serif" font-size="10.00">gimo::BasicAlgorithm</text>
<text text-anchor="start" x="257.25" y="-28.25" font-family="Helvetica,sans-Serif" font-size="10.00">&lt; value_or_else::traits,</text>
<text text-anchor="middle" x="327.38" y="-17" font-family="Helvetica,sans-Serif" font-size="10.00"> std::remove_cvref_t&lt; Action &gt; &gt;</text>
</a>
</g>
</g>
<!-- Node1&#45;&gt;Node6 -->
<g id="edge5_Node000001_Node000006" class="edge">
<title>Node1&#45;&gt;Node6</title>
<g id="a_edge5_Node000001_Node000006"><a xlink:title=" ">
<path fill="none" stroke="orange" stroke-dasharray="5,2" d="M61.85,-147.75C71.22,-118.56 90.73,-72.71 125.5,-50.38 161.59,-27.19 209.14,-22.01 248.91,-22.92"/>
<polygon fill="orange" stroke="orange" points="58.5,-146.72 58.98,-157.31 65.21,-148.74 58.5,-146.72"/>
</a>
</g>
<text text-anchor="start" x="128.5" y="-85.62" font-family="Helvetica,sans-Serif" font-size="10.00" fill="grey">&lt; value_or_else::traits,</text>
<text text-anchor="start" x="128.5" y="-70.38" font-family="Helvetica,sans-Serif" font-size="10.00" fill="grey">   std::remove_cvref_t&lt;</text>
<text text-anchor="start" x="128.5" y="-55.12" font-family="Helvetica,sans-Serif" font-size="10.00" fill="grey">   Action &gt; &gt;</text>
</g>
<!-- Node7 -->
<g id="Node000007" class="node">
<title>Node7</title>
<g id="a_Node000007"><a xlink:href="../../d5/dfb/classgimo_1_1_basic_algorithm.html" target="_top" xlink:title=" ">
<polygon fill="white" stroke="#666666" points="726.75,-64.25 587,-64.25 587,0 726.75,0 726.75,-64.25"/>
<text text-anchor="start" x="595" y="-50.75" font-family="Helvetica,sans-Serif" font-size="10.00">gimo::BasicAlgorithm</text>
<text text-anchor="start" x="595" y="-39.5" font-family="Helvetica,sans-Serif" font-size="10.00">&lt; value_or_else::traits,</text>
<text text-anchor="start" x="595" y="-28.25" font-family="Helvetica,sans-Serif" font-size="10.00"> std::remove_cvref_t&lt; Action</text>
<text text-anchor="start" x="595" y="-17" font-family="Helvetica,sans-Serif" font-size="10.00"> &gt; &gt;&lt; ValueStorageFun&lt; std</text>
<text text-anchor="middle" x="656.88" y="-5.75" font-family="Helvetica,sans-Serif" font-size="10.00">::decay_t&lt; Alternative &gt; &gt; &gt;</text>
</a>
</g>
</g>
<!-- Node6&#45;&gt;Node7 -->
<g id="edge6_Node000006_Node000007" class="edge">
<title>Node6&#45;&gt;Node7</title>
<g id="a_edge6_Node000006_Node000007"><a xlink:title=" ">
<path fill="none" stroke="orange" stroke-dasharray="5,2" d="M417.48,-32.12C470.71,-32.12 537.34,-32.12 586.61,-32.12"/>
<polygon fill="orange" stroke="orange" points="417.5,-28.63 407.5,-32.13 417.5,-35.63 417.5,-28.63"/>
</a>
</g>
<text text-anchor="start" x="426.5" y="-52.12" font-family="Helvetica,sans-Serif" font-size="10.00" fill="grey">&lt; ValueStorageFun&lt;</text>
<text text-anchor="start" x="426.5" y="-36.88" font-family="Helvetica,sans-Serif" font-size="10.00" fill="grey">   std::decay_t&lt; Alternative &gt; &gt; &gt;</text>
</g>
</g>
</svg>
