<?xml version="1.0" encoding="UTF-8" standalone="no"?>
<!DOCTYPE svg PUBLIC "-//W3C//DTD SVG 1.1//EN"
 "http://www.w3.org/Graphics/SVG/1.1/DTD/svg11.dtd">
<!-- Generated by graphviz version 12.2.1 (20241206.2353)
 -->
<!-- Title: gimo::BasicAlgorithm&lt; Traits, Action &gt; Pages: 1 -->
<!--zoomable 379 -->

<svg id="main" version="1.1" xmlns="http://www.w3.org/2000/svg" xmlns:xlink="http://www.w3.org/1999/xlink" xml:space="preserve" onload="init(evt)">

<style type="text/css"><![CDATA[
.node, .edge {opacity: 0.7;}
.node.selected, .edge.selected {opacity: 1;}
.edge:hover path { stroke: red; }
.edge:hover polygon { stroke: red; fill: red; }
]]></style>

<defs>
  <circle id="rim" cx="0" cy="0" r="7"/>
  <circle id="rim2" cx="0" cy="0" r="3.5"/>
  <g id="zoomPlus">
    <use xlink:href="#rim" fill="#404040"><set attributeName="fill" to="#808080" begin="zoomplus.mouseover" end="zoomplus.mouseout"/></use>
    <path d="M-4,0h8M0,-4v8" fill="none" stroke="white" stroke-width="1.5" pointer-events="none"/>
  </g>
  <g id="zoomMin">
    <use xlink:href="#rim" fill="#404040"><set attributeName="fill" to="#808080" begin="zoomminus.mouseover" end="zoomminus.mouseout"/></use>
    <path d="M-4,0h8" fill="none" stroke="white" stroke-width="1.5" pointer-events="none"/>
  </g>
  <g id="arrowUp" transform="translate(30 24)">
    <use xlink:href="#rim"/>
    <path pointer-events="none" fill="none" stroke="white" stroke-width="1.5" d="M0,-3.0v7 M-2.5,-0.5L0,-3.0L2.5,-0.5"/>
  </g>
  <g id="arrowRight" transform="rotate(90) translate(36 -43)">
    <use xlink:href="#rim"/>
    <path pointer-events="none" fill="none" stroke="white" stroke-width="1.5" d="M0,-3.0v7 M-2.5,-0.5L0,-3.0L2.5,-0.5"/>
  </g>
  <g id="arrowDown" transform="rotate(180) translate(-30 -48)">
    <use xlink:href="#rim"/>
    <path pointer-events="none" fill="none" stroke="white" stroke-width="1.5" d="M0,-3.0v7 M-2.5,-0.5L0,-3.0L2.5,-0.5"/>
  </g>
  <g id="arrowLeft" transform="rotate(270) translate(-36 17)">
    <use xlink:href="#rim"/>
    <path pointer-events="none" fill="none" stroke="white" stroke-width="1.5" d="M0,-3.0v7 M-2.5,-0.5L0,-3.0L2.5,-0.5"/>
  </g>
  <g id="resetDef">
    <use xlink:href="#rim2" fill="#404040"><set attributeName="fill" to="#808080" begin="reset.mouseover" end="reset.mouseout"/></use>
  </g>
</defs>
<script type="application/ecmascript">
var viewWidth = 735;
var viewHeight = 379;
var sectionId = 'dynsection-0';
</script>
<script type="application/ecmascript" xlink:href="../../svg.min.js"/>
<svg id="graph" class="graph">
<g id="viewport">
<title>gimo::BasicAlgorithm&lt; Traits, Action &gt;</title>
<!-- Node1 -->
<g id="Node000001" class="node">
<title>Node1</title>
<g id="a_Node000001"><a xlink:title="The basic building block for every monadic operation.">
<polygon fill="#999999" stroke="#666666" points="107.5,-189.38 0,-189.38 0,-158.88 107.5,-158.88 107.5,-189.38"/>
<text text-anchor="start" x="8" y="-175.88" font-family="Helvetica,sans-Serif" font-size="10.00">gimo::BasicAlgorithm</text>
<text text-anchor="middle" x="53.75" y="-164.62" font-family="Helvetica,sans-Serif" font-size="10.00">&lt; Traits, Action &gt;</text>
</a>
</g>
</g>
<!-- Node2 -->
<g id="Node000002" class="node">
<title>Node2</title>
<g id="a_Node000002"><a xlink:href="../../d5/dfb/classgimo_1_1_basic_algorithm.html" target="_top" xlink:title=" ">
<polygon fill="white" stroke="#666666" points="397.62,-337 257.12,-337 257.12,-295.25 397.62,-295.25 397.62,-337"/>
<text text-anchor="start" x="265.12" y="-323.5" font-family="Helvetica,sans-Serif" font-size="10.00">gimo::BasicAlgorithm</text>
<text text-anchor="start" x="265.12" y="-312.25" font-family="Helvetica,sans-Serif" font-size="10.00">&lt; and_then::traits, std</text>
<text text-anchor="middle" x="327.38" y="-301" font-family="Helvetica,sans-Serif" font-size="10.00">::remove_cvref_t&lt; Action &gt; &gt;</text>
</a>
</g>
</g>
<!-- Node1&#45;&gt;Node2 -->
<g id="edge1_Node000001_Node000002" class="edge">
<title>Node1&#45;&gt;Node2</title>
<g id="a_edge1_Node000001_Node000002"><a xlink:title=" ">
<path fill="none" stroke="orange" stroke-dasharray="5,2" d="M62.47,-200.51C72.22,-228.76 91.93,-272.44 125.5,-294.12 164.1,-319.06 215.8,-324.24 257.08,-323.35"/>
<polygon fill="orange" stroke="orange" points="65.88,-199.67 59.46,-191.24 59.22,-201.84 65.88,-199.67"/>
</a>
</g>
<text text-anchor="start" x="131.5" y="-358.17" font-family="Helvetica,sans-Serif" font-size="10.00" fill="grey">&lt; and_then::traits,</text>
<text text-anchor="start" x="131.5" y="-342.92" font-family="Helvetica,sans-Serif" font-size="10.00" fill="grey">   std::remove_cvref_t</text>
<text text-anchor="start" x="131.5" y="-327.67" font-family="Helvetica,sans-Serif" font-size="10.00" fill="grey">  &lt; Action &gt; &gt;</text>
</g>
<!-- Node3 -->
<g id="Node000003" class="node">
<title>Node3</title>
<g id="a_Node000003"><a xlink:href="../../d5/dfb/classgimo_1_1_basic_algorithm.html" target="_top" xlink:title=" ">
<polygon fill="white" stroke="#666666" points="397.62,-266 257.12,-266 257.12,-224.25 397.62,-224.25 397.62,-266"/>
<text text-anchor="start" x="265.12" y="-252.5" font-family="Helvetica,sans-Serif" font-size="10.00">gimo::BasicAlgorithm</text>
<text text-anchor="start" x="265.12" y="-241.25" font-family="Helvetica,sans-Serif" font-size="10.00">&lt; or_else::traits, std</text>
<text text-anchor="middle" x="327.38" y="-230" font-family="Helvetica,sans-Serif" font-size="10.00">::remove_cvref_t&lt; Action &gt; &gt;</text>
</a>
</g>
</g>
<!-- Node1&#45;&gt;Node3 -->
<g id="edge2_Node000001_Node000003" class="edge">
<title>Node1&#45;&gt;Node3</title>
<g id="a_edge2_Node000001_Node000003"><a xlink:title=" ">
<path fill="none" stroke="orange" stroke-dasharray="5,2" d="M80.93,-196.94C93.56,-206.66 109.44,-217.13 125.5,-223.12 167.4,-238.77 217.39,-244.29 257.02,-245.89"/>
<polygon fill="orange" stroke="orange" points="83.12,-194.21 73.13,-190.68 78.74,-199.67 83.12,-194.21"/>
</a>
</g>
<text text-anchor="start" x="131.5" y="-279.26" font-family="Helvetica,sans-Serif" font-size="10.00" fill="grey">&lt; or_else::traits,</text>
<text text-anchor="start" x="131.5" y="-264.01" font-family="Helvetica,sans-Serif" font-size="10.00" fill="grey">   std::remove_cvref_t</text>
<text text-anchor="start" x="131.5" y="-248.76" font-family="Helvetica,sans-Serif" font-size="10.00" fill="grey">  &lt; Action &gt; &gt;</text>
</g>
<!-- Node4 -->
<g id="Node000004" class="node">
<title>Node4</title>
<g id="a_Node000004"><a xlink:href="../../d5/dfb/classgimo_1_1_basic_algorithm.html" target="_top" xlink:title=" ">
<polygon fill="white" stroke="#666666" points="382.25,-200.62 272.5,-200.62 272.5,-147.62 382.25,-147.62 382.25,-200.62"/>
<text text-anchor="start" x="280.5" y="-187.12" font-family="Helvetica,sans-Serif" font-size="10.00">gimo::BasicAlgorithm</text>
<text text-anchor="start" x="280.5" y="-175.88" font-family="Helvetica,sans-Serif" font-size="10.00">&lt; transform::traits,</text>
<text text-anchor="start" x="280.5" y="-164.62" font-family="Helvetica,sans-Serif" font-size="10.00"> std::remove_cvref_t&lt;</text>
<text text-anchor="middle" x="327.38" y="-153.38" font-family="Helvetica,sans-Serif" font-size="10.00"> Action &gt; &gt;</text>
</a>
</g>
</g>
<!-- Node1&#45;&gt;Node4 -->
<g id="edge3_Node000001_Node000004" class="edge">
<title>Node1&#45;&gt;Node4</title>
<g id="a_edge3_Node000001_Node000004"><a xlink:title=" ">
<path fill="none" stroke="orange" stroke-dasharray="5,2" d="M119.25,-174.12C165.84,-174.12 228.05,-174.12 272.1,-174.12"/>
<polygon fill="orange" stroke="orange" points="119.28,-170.63 109.28,-174.13 119.28,-177.63 119.28,-170.63"/>
</a>
</g>
<text text-anchor="start" x="131.5" y="-209.38" font-family="Helvetica,sans-Serif" font-size="10.00" fill="grey">&lt; transform::traits,</text>
<text text-anchor="start" x="131.5" y="-194.12" font-family="Helvetica,sans-Serif" font-size="10.00" fill="grey">   std::remove_cvref_t</text>
<text text-anchor="start" x="131.5" y="-178.88" font-family="Helvetica,sans-Serif" font-size="10.00" fill="grey">  &lt; Action &gt; &gt;</text>
</g>
<!-- Node5 -->
<g id="Node000005" class="node">
<title>Node5</title>
<g id="a_Node000005"><a xlink:href="../../d5/dfb/classgimo_1_1_basic_algorithm.html" target="_top" xlink:title=" ">
<polygon fill="white" stroke="#666666" points="405.5,-124 249.25,-124 249.25,-82.25 405.5,-82.25 405.5,-124"/>
<text text-anchor="start" x="257.25" y="-110.5" font-family="Helvetica,sans-Serif" font-size="10.00">gimo::BasicAlgorithm</text>
<text text-anchor="start" x="257.25" y="-99.25" font-family="Helvetica,sans-Serif" font-size="10.00">&lt; transform_error::traits,</text>
<text text-anchor="middle" x="327.38" y="-88" font-family="Helvetica,sans-Serif" font-size="10.00"> std::remove_cvref_t&lt; Action &gt; &gt;</text>
</a>
</g>
</g>
<!-- Node1&#45;&gt;Node5 -->
<g id="edge4_Node000001_Node000005" class="edge">
<title>Node1&#45;&gt;Node5</title>
<g id="a_edge4_Node000001_Node000005"><a xlink:title=" ">
<path fill="none" stroke="orange" stroke-dasharray="5,2" d="M79.28,-151.08C92.07,-140.47 108.56,-128.82 125.5,-122.38 164.47,-107.55 210.61,-102.35 248.84,-101.03"/>
<polygon fill="orange" stroke="orange" points="77.08,-148.36 71.81,-157.55 81.66,-153.65 77.08,-148.36"/>
</a>
</g>
<text text-anchor="start" x="131.5" y="-157.62" font-family="Helvetica,sans-Serif" font-size="10.00" fill="grey">&lt; transform_error::</text>
<text text-anchor="start" x="131.5" y="-142.38" font-family="Helvetica,sans-Serif" font-size="10.00" fill="grey">  traits, std::remove</text>
<text text-anchor="start" x="131.5" y="-127.12" font-family="Helvetica,sans-Serif" font-size="10.00" fill="grey">  _cvref_t&lt; Action &gt; &gt;</text>
</g>
<!-- Node6 -->
<g id="Node000006" class="node">
<title>Node6</title>
<g id="a_Node000006"><a xlink:href="../../d5/dfb/classgimo_1_1_basic_algorithm.html" target="_top" xlink:title=" ">
<polygon fill="white" stroke="#666666" points="405.5,-53 249.25,-53 249.25,-11.25 405.5,-11.25 405.5,-53"/>
<text text-anchor="start" x="257.25" y="-39.5" font-family="Helvetica,sans-Serif" font-size="10.00">gimo::BasicAlgorithm</text>
<text text-anchor="start" x="257.25" y="-28.25" font-family="Helvetica,sans-Serif" font-size="10.00">&lt; value_or_else::traits,</text>
<text text-anchor="middle" x="327.38" y="-17" font-family="Helvetica,sans-Serif" font-size="10.00"> std::remove_cvref_t&lt; Action &gt; &gt;</text>
</a>
</g>
</g>
<!-- Node1&#45;&gt;Node6 -->
<g id="edge5_Node000001_Node000006" class="edge">
<title>Node1&#45;&gt;Node6</title>
<g id="a_edge5_Node000001_Node000006"><a xlink:title=" ">
<path fill="none" stroke="orange" stroke-dasharray="5,2" d="M61.85,-147.75C71.22,-118.56 90.73,-72.71 125.5,-50.38 161.59,-27.19 209.14,-22.01 248.91,-22.92"/>
<polygon fill="orange" stroke="orange" points="58.5,-146.72 58.98,-157.31 65.21,-148.74 58.5,-146.72"/>
</a>
</g>
<text text-anchor="start" x="128.5" y="-85.62" font-family="Helvetica,sans-Serif" font-size="10.00" fill="grey">&lt; value_or_else::traits,</text>
<text text-anchor="start" x="128.5" y="-70.38" font-family="Helvetica,sans-Serif" font-size="10.00" fill="grey">   std::remove_cvref_t&lt;</text>
<text text-anchor="start" x="128.5" y="-55.12" font-family="Helvetica,sans-Serif" font-size="10.00" fill="grey">   Action &gt; &gt;</text>
</g>
<!-- Node7 -->
<g id="Node000007" class="node">
<title>Node7</title>
<g id="a_Node000007"><a xlink:href="../../d5/dfb/classgimo_1_1_basic_algorithm.html" target="_top" xlink:title=" ">
<polygon fill="white" stroke="#666666" points="726.75,-64.25 587,-64.25 587,0 726.75,0 726.75,-64.25"/>
<text text-anchor="start" x="595" y="-50.75" font-family="Helvetica,sans-Serif" font-size="10.00">gimo::BasicAlgorithm</text>
<text text-anchor="start" x="595" y="-39.5" font-family="Helvetica,sans-Serif" font-size="10.00">&lt; value_or_else::traits,</text>
<text text-anchor="start" x="595" y="-28.25" font-family="Helvetica,sans-Serif" font-size="10.00"> std::remove_cvref_t&lt; Action</text>
<text text-anchor="start" x="595" y="-17" font-family="Helvetica,sans-Serif" font-size="10.00"> &gt; &gt;&lt; ValueStorageFun&lt; std</text>
<text text-anchor="middle" x="656.88" y="-5.75" font-family="Helvetica,sans-Serif" font-size="10.00">::decay_t&lt; Alternative &gt; &gt; &gt;</text>
</a>
</g>
</g>
<!-- Node6&#45;&gt;Node7 -->
<g id="edge6_Node000006_Node000007" class="edge">
<title>Node6&#45;&gt;Node7</title>
<g id="a_edge6_Node000006_Node000007"><a xlink:title=" ">
<path fill="none" stroke="orange" stroke-dasharray="5,2" d="M417.48,-32.12C470.71,-32.12 537.34,-32.12 586.61,-32.12"/>
<polygon fill="orange" stroke="orange" points="417.5,-28.63 407.5,-32.13 417.5,-35.63 417.5,-28.63"/>
</a>
</g>
<text text-anchor="start" x="426.5" y="-52.12" font-family="Helvetica,sans-Serif" font-size="10.00" fill="grey">&lt; ValueStorageFun&lt;</text>
<text text-anchor="start" x="426.5" y="-36.88" font-family="Helvetica,sans-Serif" font-size="10.00" fill="grey">   std::decay_t&lt; Alternative &gt; &gt; &gt;</text>
</g>
</g>
</svg>

<g id="navigator" transform="translate(0 0)" fill="#404254">
  <rect fill="#f2f5e9" fill-opacity="0.5" stroke="#606060" stroke-width=".5" x="0" y="0" width="60" height="60"/>
  <use id="zoomplus" xlink:href="#zoomPlus" x="17" y="9" onmousedown="handleZoom(evt,'in')"/>
  <use id="zoomminus" xlink:href="#zoomMin" x="42" y="9" onmousedown="handleZoom(evt,'out')"/>
  <use id="reset" xlink:href="#resetDef" x="30" y="36" onmousedown="handleReset()"/>
   <use id="arrowup" xlink:href="#arrowUp" x="0" y="0" onmousedown="handlePan(0,-1)"/>
  <use id="arrowright" xlink:href="#arrowRight" x="0" y="0" onmousedown="handlePan(1,0)"/>
  <use id="arrowdown" xlink:href="#arrowDown" x="0" y="0" onmousedown="handlePan(0,1)"/>
  <use id="arrowleft" xlink:href="#arrowLeft" x="0" y="0" onmousedown="handlePan(-1,0)"/>
</g>
<svg viewBox="0 0 15 15" width="100%" height="30px" preserveAspectRatio="xMaxYMin meet">
 <g id="arrow_out" transform="scale(0.3 0.3)">
  <a xlink:href="classgimo_1_1_basic_algorithm__inherit__graph_org.svg" target="_base">
   <rect id="button" ry="5" rx="5" y="6" x="6" height="38" width="38"
        fill="#f2f5e9" fill-opacity="0.5" stroke="#606060" stroke-width="1.0"/>
   <path id="arrow"
     d="M 11.500037,31.436501 C 11.940474,20.09759 22.043105,11.32322 32.158766,21.979434 L 37.068811,17.246167 C 37.068811,17.246167 37.088388,32 37.088388,32 L 22.160133,31.978069 C 22.160133,31.978069 26.997745,27.140456 26.997745,27.140456 C 18.528582,18.264221 13.291696,25.230495 11.500037,31.436501 z"
     style="fill:#404040;"/>
  </a>
 </g>
</svg>

<style type='text/css'>
<![CDATA[
[data-mouse-over-selected='false'] { opacity: 0.7; }
[data-mouse-over-selected='true']  { opacity: 1.0; }
]]>
</style>
<script type="application/ecmascript"><![CDATA[
document.addEventListener('DOMContentLoaded', (event) => {
  highlightEdges();
  highlightAdjacentNodes();
});
]]></script>
</svg>
