<?xml version="1.0" encoding="UTF-8" standalone="no"?>
<!DOCTYPE svg PUBLIC "-//W3C//DTD SVG 1.1//EN"
 "http://www.w3.org/Graphics/SVG/1.1/DTD/svg11.dtd">
<!-- Generated by graphviz version 12.2.1 (20241206.2353)
 -->
<!-- Title: gimo/algorithm/BasicAlgorithm.hpp Pages: 1 -->
<svg width="841pt" height="204pt"
 viewBox="0.00 0.00 840.70 204.25" xmlns="http://www.w3.org/2000/svg" xmlns:xlink="http://www.w3.org/1999/xlink">
<g id="graph0" class="graph" transform="scale(1 1) rotate(0) translate(4 200.25)">
<title>gimo/algorithm/BasicAlgorithm.hpp</title>
<!-- Node1 -->
<g id="Node000001" class="node">
<title>Node1</title>
<g id="a_Node000001"><a xlink:title=" ">
<polygon fill="#999999" stroke="#666666" points="431.7,-196.25 264.95,-196.25 264.95,-177 431.7,-177 431.7,-196.25"/>
<text text-anchor="middle" x="348.32" y="-182.75" font-family="Helvetica,sans-Serif" font-size="10.00">gimo/algorithm/BasicAlgorithm.hpp</text>
</a>
</g>
</g>
<!-- Node2 -->
<g id="Node000002" class="node">
<title>Node2</title>
<g id="a_Node000002"><a xlink:href="../../d4/d5a/gimo_8hpp.html" target="_top" xlink:title=" ">
<polygon fill="white" stroke="#666666" points="368.82,-19.25 313.82,-19.25 313.82,0 368.82,0 368.82,-19.25"/>
<text text-anchor="middle" x="341.32" y="-5.75" font-family="Helvetica,sans-Serif" font-size="10.00">gimo.hpp</text>
</a>
</g>
</g>
<!-- Node1&#45;&gt;Node2 -->
<g id="edge1_Node000001_Node000002" class="edge">
<title>Node1&#45;&gt;Node2</title>
<g id="a_edge1_Node000001_Node000002"><a xlink:title=" ">
<path fill="none" stroke="#63b8ff" d="M253.35,-179.73C131.54,-168.72 -55.9,-138.07 16.32,-55.25 54.88,-11.04 241.83,-9.08 313.38,-10.01"/>
<polygon fill="#63b8ff" stroke="#63b8ff" points="252.79,-183.19 263.05,-180.57 253.39,-176.22 252.79,-183.19"/>
</a>
</g>
</g>
<!-- Node3 -->
<g id="Node000003" class="node">
<title>Node3</title>
<g id="a_Node000003"><a xlink:href="../../d1/da8/_pipeline_8hpp.html" target="_top" xlink:title=" ">
<polygon fill="white" stroke="#666666" points="394.57,-141 302.07,-141 302.07,-121.75 394.57,-121.75 394.57,-141"/>
<text text-anchor="middle" x="348.32" y="-127.5" font-family="Helvetica,sans-Serif" font-size="10.00">gimo/Pipeline.hpp</text>
</a>
</g>
</g>
<!-- Node1&#45;&gt;Node3 -->
<g id="edge2_Node000001_Node000003" class="edge">
<title>Node1&#45;&gt;Node3</title>
<g id="a_edge2_Node000001_Node000003"><a xlink:title=" ">
<path fill="none" stroke="#63b8ff" d="M348.32,-165.38C348.32,-157.09 348.32,-147.92 348.32,-141.36"/>
<polygon fill="#63b8ff" stroke="#63b8ff" points="344.82,-165.32 348.32,-175.32 351.82,-165.32 344.82,-165.32"/>
</a>
</g>
</g>
<!-- Node4 -->
<g id="Node000004" class="node">
<title>Node4</title>
<g id="a_Node000004"><a xlink:href="../../d6/d3f/_and_then_8hpp.html" target="_top" xlink:title=" ">
<polygon fill="white" stroke="#666666" points="165.2,-80.12 25.45,-80.12 25.45,-60.88 165.2,-60.88 165.2,-80.12"/>
<text text-anchor="middle" x="95.32" y="-66.62" font-family="Helvetica,sans-Serif" font-size="10.00">gimo/algorithm/AndThen.hpp</text>
</a>
</g>
</g>
<!-- Node1&#45;&gt;Node4 -->
<g id="edge14_Node000001_Node000004" class="edge">
<title>Node1&#45;&gt;Node4</title>
<g id="a_edge14_Node000001_Node000004"><a xlink:title=" ">
<path fill="none" stroke="#63b8ff" d="M318.17,-172.02C265.88,-148.43 159.72,-100.55 115.43,-80.57"/>
<polygon fill="#63b8ff" stroke="#63b8ff" points="316.54,-175.13 327.09,-176.05 319.41,-168.75 316.54,-175.13"/>
</a>
</g>
</g>
<!-- Node5 -->
<g id="Node000005" class="node">
<title>Node5</title>
<g id="a_Node000005"><a xlink:href="../../d4/d96/_or_else_8hpp.html" target="_top" xlink:title=" ">
<polygon fill="white" stroke="#666666" points="313.32,-80.12 183.32,-80.12 183.32,-60.88 313.32,-60.88 313.32,-80.12"/>
<text text-anchor="middle" x="248.32" y="-66.62" font-family="Helvetica,sans-Serif" font-size="10.00">gimo/algorithm/OrElse.hpp</text>
</a>
</g>
</g>
<!-- Node1&#45;&gt;Node5 -->
<g id="edge15_Node000001_Node000005" class="edge">
<title>Node1&#45;&gt;Node5</title>
<g id="a_edge15_Node000001_Node000005"><a xlink:title=" ">
<path fill="none" stroke="#63b8ff" d="M326.03,-170.09C315.44,-162.1 303.01,-151.79 293.32,-141 275.65,-121.32 260.13,-94.03 252.8,-80.23"/>
<polygon fill="#63b8ff" stroke="#63b8ff" points="323.75,-172.76 333.89,-175.83 327.88,-167.11 323.75,-172.76"/>
</a>
</g>
</g>
<!-- Node6 -->
<g id="Node000006" class="node">
<title>Node6</title>
<g id="a_Node000006"><a xlink:href="../../d9/d8c/_transform_8hpp.html" target="_top" xlink:title=" ">
<polygon fill="white" stroke="#666666" points="514.82,-80.12 369.82,-80.12 369.82,-60.88 514.82,-60.88 514.82,-80.12"/>
<text text-anchor="middle" x="442.32" y="-66.62" font-family="Helvetica,sans-Serif" font-size="10.00">gimo/algorithm/Transform.hpp</text>
</a>
</g>
</g>
<!-- Node1&#45;&gt;Node6 -->
<g id="edge16_Node000001_Node000006" class="edge">
<title>Node1&#45;&gt;Node6</title>
<g id="a_edge16_Node000001_Node000006"><a xlink:title=" ">
<path fill="none" stroke="#63b8ff" d="M371.33,-170.05C381.9,-162.16 394.1,-151.94 403.32,-141 419.73,-121.53 432.7,-94.15 438.7,-80.28"/>
<polygon fill="#63b8ff" stroke="#63b8ff" points="369.53,-167.03 363.44,-175.71 373.61,-172.72 369.53,-167.03"/>
</a>
</g>
</g>
<!-- Node7 -->
<g id="Node000007" class="node">
<title>Node7</title>
<g id="a_Node000007"><a xlink:href="../../d9/d45/_transform_error_8hpp.html" target="_top" xlink:title=" ">
<polygon fill="white" stroke="#666666" points="659.82,-85.75 532.82,-85.75 532.82,-55.25 659.82,-55.25 659.82,-85.75"/>
<text text-anchor="start" x="540.82" y="-72.25" font-family="Helvetica,sans-Serif" font-size="10.00">gimo/algorithm/Transform</text>
<text text-anchor="middle" x="596.32" y="-61" font-family="Helvetica,sans-Serif" font-size="10.00">Error.hpp</text>
</a>
</g>
</g>
<!-- Node1&#45;&gt;Node7 -->
<g id="edge17_Node000001_Node000007" class="edge">
<title>Node1&#45;&gt;Node7</title>
<g id="a_edge17_Node000001_Node000007"><a xlink:title=" ">
<path fill="none" stroke="#63b8ff" d="M378.2,-171.88C425.22,-150.24 516.07,-108.43 564.35,-86.21"/>
<polygon fill="#63b8ff" stroke="#63b8ff" points="376.78,-168.68 369.16,-176.04 379.7,-175.04 376.78,-168.68"/>
</a>
</g>
</g>
<!-- Node8 -->
<g id="Node000008" class="node">
<title>Node8</title>
<g id="a_Node000008"><a xlink:href="../../d2/d0b/_value_or_else_8hpp.html" target="_top" xlink:title=" ">
<polygon fill="white" stroke="#666666" points="832.7,-80.12 677.95,-80.12 677.95,-60.88 832.7,-60.88 832.7,-80.12"/>
<text text-anchor="middle" x="755.32" y="-66.62" font-family="Helvetica,sans-Serif" font-size="10.00">gimo/algorithm/ValueOrElse.hpp</text>
</a>
</g>
</g>
<!-- Node1&#45;&gt;Node8 -->
<g id="edge18_Node000001_Node000008" class="edge">
<title>Node1&#45;&gt;Node8</title>
<g id="a_edge18_Node000001_Node000008"><a xlink:title=" ">
<path fill="none" stroke="#63b8ff" d="M391.53,-173.51C473.6,-150.5 650.31,-100.95 723.04,-80.55"/>
<polygon fill="#63b8ff" stroke="#63b8ff" points="390.74,-170.1 382.06,-176.17 392.63,-176.84 390.74,-170.1"/>
</a>
</g>
</g>
<!-- Node3&#45;&gt;Node2 -->
<g id="edge3_Node000003_Node000002" class="edge">
<title>Node3&#45;&gt;Node2</title>
<g id="a_edge3_Node000003_Node000002"><a xlink:title=" ">
<path fill="none" stroke="#63b8ff" d="M347.14,-110.13C345.6,-83.8 342.97,-38.9 341.85,-19.73"/>
<polygon fill="#63b8ff" stroke="#63b8ff" points="343.63,-110.08 347.71,-119.86 350.62,-109.68 343.63,-110.08"/>
</a>
</g>
</g>
<!-- Node3&#45;&gt;Node4 -->
<g id="edge4_Node000003_Node000004" class="edge">
<title>Node3&#45;&gt;Node4</title>
<g id="a_edge4_Node000003_Node000004"><a xlink:title=" ">
<path fill="none" stroke="#63b8ff" d="M298.25,-118.72C250.12,-107.52 178.38,-90.83 134.34,-80.58"/>
<polygon fill="#63b8ff" stroke="#63b8ff" points="297.34,-122.1 307.87,-120.96 298.93,-115.29 297.34,-122.1"/>
</a>
</g>
</g>
<!-- Node3&#45;&gt;Node5 -->
<g id="edge6_Node000003_Node000005" class="edge">
<title>Node3&#45;&gt;Node5</title>
<g id="a_edge6_Node000003_Node000005"><a xlink:title=" ">
<path fill="none" stroke="#63b8ff" d="M323.47,-115.74C304.71,-104.7 279.57,-89.9 263.65,-80.53"/>
<polygon fill="#63b8ff" stroke="#63b8ff" points="321.44,-118.61 331.83,-120.67 324.99,-112.58 321.44,-118.61"/>
</a>
</g>
</g>
<!-- Node3&#45;&gt;Node6 -->
<g id="edge8_Node000003_Node000006" class="edge">
<title>Node3&#45;&gt;Node6</title>
<g id="a_edge8_Node000003_Node000006"><a xlink:title=" ">
<path fill="none" stroke="#63b8ff" d="M372.18,-115.43C389.75,-104.42 413.09,-89.81 427.91,-80.53"/>
<polygon fill="#63b8ff" stroke="#63b8ff" points="370.5,-112.36 363.88,-120.63 374.21,-118.29 370.5,-112.36"/>
</a>
</g>
</g>
<!-- Node3&#45;&gt;Node7 -->
<g id="edge10_Node000003_Node000007" class="edge">
<title>Node3&#45;&gt;Node7</title>
<g id="a_edge10_Node000003_Node000007"><a xlink:title=" ">
<path fill="none" stroke="#63b8ff" d="M397.67,-118.66C436.96,-109.33 492.17,-96.22 534.42,-86.19"/>
<polygon fill="#63b8ff" stroke="#63b8ff" points="396.92,-115.24 388,-120.96 398.54,-122.05 396.92,-115.24"/>
</a>
</g>
</g>
<!-- Node3&#45;&gt;Node8 -->
<g id="edge12_Node000003_Node000008" class="edge">
<title>Node3&#45;&gt;Node8</title>
<g id="a_edge12_Node000003_Node000008"><a xlink:title=" ">
<path fill="none" stroke="#63b8ff" d="M406,-122.82C470.3,-114.28 577.36,-99.76 669.32,-85.75 679.8,-84.15 690.97,-82.37 701.68,-80.61"/>
<polygon fill="#63b8ff" stroke="#63b8ff" points="405.85,-119.31 396.39,-124.09 406.77,-126.25 405.85,-119.31"/>
</a>
</g>
</g>
<!-- Node4&#45;&gt;Node2 -->
<g id="edge5_Node000004_Node000002" class="edge">
<title>Node4&#45;&gt;Node2</title>
<g id="a_edge5_Node000004_Node000002"><a xlink:title=" ">
<path fill="none" stroke="#63b8ff" d="M144.22,-57.8C194.86,-45.68 272.2,-27.17 313.33,-17.32"/>
<polygon fill="#63b8ff" stroke="#63b8ff" points="143.6,-54.35 134.69,-60.08 145.23,-61.15 143.6,-54.35"/>
</a>
</g>
</g>
<!-- Node5&#45;&gt;Node2 -->
<g id="edge7_Node000005_Node000002" class="edge">
<title>Node5&#45;&gt;Node2</title>
<g id="a_edge7_Node000005_Node000002"><a xlink:title=" ">
<path fill="none" stroke="#63b8ff" d="M271.92,-54.56C289.31,-43.55 312.4,-28.93 327.06,-19.65"/>
<polygon fill="#63b8ff" stroke="#63b8ff" points="270.3,-51.44 263.73,-59.75 274.05,-57.36 270.3,-51.44"/>
</a>
</g>
</g>
<!-- Node6&#45;&gt;Node2 -->
<g id="edge9_Node000006_Node000002" class="edge">
<title>Node6&#45;&gt;Node2</title>
<g id="a_edge9_Node000006_Node000002"><a xlink:title=" ">
<path fill="none" stroke="#63b8ff" d="M417.22,-54.87C398.27,-43.82 372.88,-29.02 356.81,-19.65"/>
<polygon fill="#63b8ff" stroke="#63b8ff" points="415.27,-57.78 425.68,-59.8 418.8,-51.74 415.27,-57.78"/>
</a>
</g>
</g>
<!-- Node7&#45;&gt;Node2 -->
<g id="edge11_Node000007_Node000002" class="edge">
<title>Node7&#45;&gt;Node2</title>
<g id="a_edge11_Node000007_Node000002"><a xlink:title=" ">
<path fill="none" stroke="#63b8ff" d="M521.61,-52.25C470.43,-40.43 405.47,-25.44 369.15,-17.05"/>
<polygon fill="#63b8ff" stroke="#63b8ff" points="520.63,-55.62 531.16,-54.45 522.2,-48.79 520.63,-55.62"/>
</a>
</g>
</g>
<!-- Node8&#45;&gt;Node2 -->
<g id="edge13_Node000008_Node000002" class="edge">
<title>Node8&#45;&gt;Node2</title>
<g id="a_edge13_Node000008_Node000002"><a xlink:title=" ">
<path fill="none" stroke="#63b8ff" d="M690.83,-58.61C683.58,-57.44 676.3,-56.3 669.32,-55.25 558.23,-38.49 425.52,-21.3 369.01,-14.12"/>
<polygon fill="#63b8ff" stroke="#63b8ff" points="690.22,-62.05 700.65,-60.2 691.34,-55.14 690.22,-62.05"/>
</a>
</g>
</g>
</g>
</svg>
