<?xml version="1.0" encoding="UTF-8" standalone="no"?>
<!DOCTYPE svg PUBLIC "-//W3C//DTD SVG 1.1//EN"
 "http://www.w3.org/Graphics/SVG/1.1/DTD/svg11.dtd">
<!-- Generated by graphviz version 12.2.1 (20241206.2353)
 -->
<!-- Title: gimo/algorithm/BasicAlgorithm.hpp Pages: 1 -->
<svg width="665pt" height="204pt"
 viewBox="0.00 0.00 665.34 204.25" xmlns="http://www.w3.org/2000/svg" xmlns:xlink="http://www.w3.org/1999/xlink">
<g id="graph0" class="graph" transform="scale(1 1) rotate(0) translate(4 200.25)">
<title>gimo/algorithm/BasicAlgorithm.hpp</title>
<!-- Node1 -->
<g id="Node000001" class="node">
<title>Node1</title>
<g id="a_Node000001"><a xlink:title=" ">
<polygon fill="#999999" stroke="#666666" points="371.22,-196.25 204.47,-196.25 204.47,-177 371.22,-177 371.22,-196.25"/>
<text text-anchor="middle" x="287.84" y="-182.75" font-family="Helvetica,sans-Serif" font-size="10.00">gimo/algorithm/BasicAlgorithm.hpp</text>
</a>
</g>
</g>
<!-- Node2 -->
<g id="Node000002" class="node">
<title>Node2</title>
<g id="a_Node000002"><a xlink:href="../../d4/d5a/gimo_8hpp.html" target="_top" xlink:title=" ">
<polygon fill="white" stroke="#666666" points="319.34,-19.25 264.34,-19.25 264.34,0 319.34,0 319.34,-19.25"/>
<text text-anchor="middle" x="291.84" y="-5.75" font-family="Helvetica,sans-Serif" font-size="10.00">gimo.hpp</text>
</a>
</g>
</g>
<!-- Node1&#45;&gt;Node2 -->
<g id="edge1_Node000001_Node000002" class="edge">
<title>Node1&#45;&gt;Node2</title>
<g id="a_edge1_Node000001_Node000002"><a xlink:title=" ">
<path fill="none" stroke="#63b8ff" d="M198.53,-174.82C97.84,-159.08 -44.7,-123.94 13.84,-55.25 45.87,-17.67 200.44,-11.61 264.23,-10.73"/>
<polygon fill="#63b8ff" stroke="#63b8ff" points="197.76,-178.24 208.17,-176.28 198.81,-171.32 197.76,-178.24"/>
</a>
</g>
</g>
<!-- Node3 -->
<g id="Node000003" class="node">
<title>Node3</title>
<g id="a_Node000003"><a xlink:href="../../d1/da8/_pipeline_8hpp.html" target="_top" xlink:title=" ">
<polygon fill="white" stroke="#666666" points="380.09,-141 287.59,-141 287.59,-121.75 380.09,-121.75 380.09,-141"/>
<text text-anchor="middle" x="333.84" y="-127.5" font-family="Helvetica,sans-Serif" font-size="10.00">gimo/Pipeline.hpp</text>
</a>
</g>
</g>
<!-- Node1&#45;&gt;Node3 -->
<g id="edge2_Node000001_Node000003" class="edge">
<title>Node1&#45;&gt;Node3</title>
<g id="a_edge2_Node000001_Node000003"><a xlink:title=" ">
<path fill="none" stroke="#63b8ff" d="M302.85,-168.26C310.6,-159.28 319.75,-148.7 326.08,-141.36"/>
<polygon fill="#63b8ff" stroke="#63b8ff" points="300.32,-165.83 296.43,-175.69 305.62,-170.41 300.32,-165.83"/>
</a>
</g>
</g>
<!-- Node4 -->
<g id="Node000004" class="node">
<title>Node4</title>
<g id="a_Node000004"><a xlink:href="../../d6/d3f/_and_then_8hpp.html" target="_top" xlink:title=" ">
<polygon fill="white" stroke="#666666" points="162.72,-80.12 22.97,-80.12 22.97,-60.88 162.72,-60.88 162.72,-80.12"/>
<text text-anchor="middle" x="92.84" y="-66.62" font-family="Helvetica,sans-Serif" font-size="10.00">gimo/algorithm/AndThen.hpp</text>
</a>
</g>
</g>
<!-- Node1&#45;&gt;Node4 -->
<g id="edge12_Node000001_Node000004" class="edge">
<title>Node1&#45;&gt;Node4</title>
<g id="a_edge12_Node000001_Node000004"><a xlink:title=" ">
<path fill="none" stroke="#63b8ff" d="M262.81,-170.97C221.91,-147.04 141.98,-100.26 108.34,-80.57"/>
<polygon fill="#63b8ff" stroke="#63b8ff" points="260.84,-173.87 271.24,-175.91 264.37,-167.83 260.84,-173.87"/>
</a>
</g>
</g>
<!-- Node5 -->
<g id="Node000005" class="node">
<title>Node5</title>
<g id="a_Node000005"><a xlink:href="../../d4/d96/_or_else_8hpp.html" target="_top" xlink:title=" ">
<polygon fill="white" stroke="#666666" points="310.84,-80.12 180.84,-80.12 180.84,-60.88 310.84,-60.88 310.84,-80.12"/>
<text text-anchor="middle" x="245.84" y="-66.62" font-family="Helvetica,sans-Serif" font-size="10.00">gimo/algorithm/OrElse.hpp</text>
</a>
</g>
</g>
<!-- Node1&#45;&gt;Node5 -->
<g id="edge13_Node000001_Node000005" class="edge">
<title>Node1&#45;&gt;Node5</title>
<g id="a_edge13_Node000001_Node000005"><a xlink:title=" ">
<path fill="none" stroke="#63b8ff" d="M280.6,-165.93C271.38,-140.89 255.86,-98.71 249.12,-80.41"/>
<polygon fill="#63b8ff" stroke="#63b8ff" points="277.29,-167.07 284.03,-175.25 283.86,-164.66 277.29,-167.07"/>
</a>
</g>
</g>
<!-- Node6 -->
<g id="Node000006" class="node">
<title>Node6</title>
<g id="a_Node000006"><a xlink:href="../../d9/d8c/_transform_8hpp.html" target="_top" xlink:title=" ">
<polygon fill="white" stroke="#666666" points="512.34,-80.12 367.34,-80.12 367.34,-60.88 512.34,-60.88 512.34,-80.12"/>
<text text-anchor="middle" x="439.84" y="-66.62" font-family="Helvetica,sans-Serif" font-size="10.00">gimo/algorithm/Transform.hpp</text>
</a>
</g>
</g>
<!-- Node1&#45;&gt;Node6 -->
<g id="edge14_Node000001_Node000006" class="edge">
<title>Node1&#45;&gt;Node6</title>
<g id="a_edge14_Node000001_Node000006"><a xlink:title=" ">
<path fill="none" stroke="#63b8ff" d="M329.5,-172.82C348.86,-165.53 371.4,-155.02 388.84,-141 410.54,-123.56 427.63,-94.78 435.36,-80.34"/>
<polygon fill="#63b8ff" stroke="#63b8ff" points="328.49,-169.46 320.26,-176.13 330.85,-176.05 328.49,-169.46"/>
</a>
</g>
</g>
<!-- Node7 -->
<g id="Node000007" class="node">
<title>Node7</title>
<g id="a_Node000007"><a xlink:href="../../d9/d45/_transform_error_8hpp.html" target="_top" xlink:title=" ">
<polygon fill="white" stroke="#666666" points="657.34,-85.75 530.34,-85.75 530.34,-55.25 657.34,-55.25 657.34,-85.75"/>
<text text-anchor="start" x="538.34" y="-72.25" font-family="Helvetica,sans-Serif" font-size="10.00">gimo/algorithm/Transform</text>
<text text-anchor="middle" x="593.84" y="-61" font-family="Helvetica,sans-Serif" font-size="10.00">Error.hpp</text>
</a>
</g>
</g>
<!-- Node1&#45;&gt;Node7 -->
<g id="edge15_Node000001_Node000007" class="edge">
<title>Node1&#45;&gt;Node7</title>
<g id="a_edge15_Node000001_Node000007"><a xlink:title=" ">
<path fill="none" stroke="#63b8ff" d="M324.26,-172.73C349,-163.92 382.45,-151.9 411.84,-141 461.79,-122.48 519.17,-100.44 555.93,-86.22"/>
<polygon fill="#63b8ff" stroke="#63b8ff" points="323.22,-169.38 314.97,-176.03 325.57,-175.98 323.22,-169.38"/>
</a>
</g>
</g>
<!-- Node3&#45;&gt;Node2 -->
<g id="edge3_Node000003_Node000002" class="edge">
<title>Node3&#45;&gt;Node2</title>
<g id="a_edge3_Node000003_Node000002"><a xlink:title=" ">
<path fill="none" stroke="#63b8ff" d="M332.13,-109.96C330.34,-94.52 326.78,-73.01 319.84,-55.25 314.65,-41.96 305.39,-28.3 298.95,-19.65"/>
<polygon fill="#63b8ff" stroke="#63b8ff" points="328.64,-110.17 333.1,-119.78 335.6,-109.48 328.64,-110.17"/>
</a>
</g>
</g>
<!-- Node3&#45;&gt;Node4 -->
<g id="edge4_Node000003_Node000004" class="edge">
<title>Node3&#45;&gt;Node4</title>
<g id="a_edge4_Node000003_Node000004"><a xlink:title=" ">
<path fill="none" stroke="#63b8ff" d="M285.57,-118.58C239.72,-107.38 171.78,-90.78 130.01,-80.58"/>
<polygon fill="#63b8ff" stroke="#63b8ff" points="284.7,-121.97 295.25,-120.95 286.36,-115.17 284.7,-121.97"/>
</a>
</g>
</g>
<!-- Node3&#45;&gt;Node5 -->
<g id="edge6_Node000003_Node000005" class="edge">
<title>Node3&#45;&gt;Node5</title>
<g id="a_edge6_Node000003_Node000005"><a xlink:title=" ">
<path fill="none" stroke="#63b8ff" d="M311.05,-115.13C294.65,-104.15 273.08,-89.72 259.34,-80.53"/>
<polygon fill="#63b8ff" stroke="#63b8ff" points="308.96,-117.94 319.22,-120.59 312.86,-112.12 308.96,-117.94"/>
</a>
</g>
</g>
<!-- Node3&#45;&gt;Node6 -->
<g id="edge8_Node000003_Node000006" class="edge">
<title>Node3&#45;&gt;Node6</title>
<g id="a_edge8_Node000003_Node000006"><a xlink:title=" ">
<path fill="none" stroke="#63b8ff" d="M359.91,-115.9C379.83,-104.84 406.65,-89.94 423.59,-80.53"/>
<polygon fill="#63b8ff" stroke="#63b8ff" points="358.31,-112.78 351.27,-120.7 361.71,-118.9 358.31,-112.78"/>
</a>
</g>
</g>
<!-- Node3&#45;&gt;Node7 -->
<g id="edge10_Node000003_Node000007" class="edge">
<title>Node3&#45;&gt;Node7</title>
<g id="a_edge10_Node000003_Node000007"><a xlink:title=" ">
<path fill="none" stroke="#63b8ff" d="M384.87,-118.82C426.41,-109.41 485.28,-96.08 529.96,-85.97"/>
<polygon fill="#63b8ff" stroke="#63b8ff" points="384.36,-115.35 375.38,-120.97 385.9,-122.18 384.36,-115.35"/>
</a>
</g>
</g>
<!-- Node4&#45;&gt;Node2 -->
<g id="edge5_Node000004_Node000002" class="edge">
<title>Node4&#45;&gt;Node2</title>
<g id="a_edge5_Node000004_Node000002"><a xlink:title=" ">
<path fill="none" stroke="#63b8ff" d="M134.46,-57.19C173.36,-45.68 230.38,-28.81 264.04,-18.85"/>
<polygon fill="#63b8ff" stroke="#63b8ff" points="133.55,-53.81 124.95,-60 135.54,-60.52 133.55,-53.81"/>
</a>
</g>
</g>
<!-- Node5&#45;&gt;Node2 -->
<g id="edge7_Node000005_Node000002" class="edge">
<title>Node5&#45;&gt;Node2</title>
<g id="a_edge7_Node000005_Node000002"><a xlink:title=" ">
<path fill="none" stroke="#63b8ff" d="M259.74,-51.71C268.01,-41.13 278.15,-28.15 284.79,-19.65"/>
<polygon fill="#63b8ff" stroke="#63b8ff" points="257.16,-49.33 253.76,-59.37 262.68,-53.64 257.16,-49.33"/>
</a>
</g>
</g>
<!-- Node6&#45;&gt;Node2 -->
<g id="edge9_Node000006_Node000002" class="edge">
<title>Node6&#45;&gt;Node2</title>
<g id="a_edge9_Node000006_Node000002"><a xlink:title=" ">
<path fill="none" stroke="#63b8ff" d="M406.52,-56.24C378.41,-45.06 338.97,-29.37 314.43,-19.61"/>
<polygon fill="#63b8ff" stroke="#63b8ff" points="405.05,-59.43 415.64,-59.87 407.64,-52.92 405.05,-59.43"/>
</a>
</g>
</g>
<!-- Node7&#45;&gt;Node2 -->
<g id="edge11_Node000007_Node000002" class="edge">
<title>Node7&#45;&gt;Node2</title>
<g id="a_edge11_Node000007_Node000002"><a xlink:title=" ">
<path fill="none" stroke="#63b8ff" d="M518.93,-54.68C441.37,-39.5 361.18,-24 319.82,-16.02"/>
<polygon fill="#63b8ff" stroke="#63b8ff" points="517.89,-58.04 528.37,-56.53 519.23,-51.17 517.89,-58.04"/>
</a>
</g>
</g>
</g>
</svg>
