<?xml version="1.0" encoding="UTF-8" standalone="no"?>
<!DOCTYPE svg PUBLIC "-//W3C//DTD SVG 1.1//EN"
 "http://www.w3.org/Graphics/SVG/1.1/DTD/svg11.dtd">
<!-- Generated by graphviz version 12.2.1 (20241206.2353)
 -->
<!-- Title: gimo/algorithm/BasicAlgorithm.hpp Pages: 1 -->
<!--zoomable 204 -->

<svg id="main" version="1.1" xmlns="http://www.w3.org/2000/svg" xmlns:xlink="http://www.w3.org/1999/xlink" xml:space="preserve" onload="init(evt)">

<style type="text/css"><![CDATA[
.node, .edge {opacity: 0.7;}
.node.selected, .edge.selected {opacity: 1;}
.edge:hover path { stroke: red; }
.edge:hover polygon { stroke: red; fill: red; }
]]></style>

<defs>
  <circle id="rim" cx="0" cy="0" r="7"/>
  <circle id="rim2" cx="0" cy="0" r="3.5"/>
  <g id="zoomPlus">
    <use xlink:href="#rim" fill="#404040"><set attributeName="fill" to="#808080" begin="zoomplus.mouseover" end="zoomplus.mouseout"/></use>
    <path d="M-4,0h8M0,-4v8" fill="none" stroke="white" stroke-width="1.5" pointer-events="none"/>
  </g>
  <g id="zoomMin">
    <use xlink:href="#rim" fill="#404040"><set attributeName="fill" to="#808080" begin="zoomminus.mouseover" end="zoomminus.mouseout"/></use>
    <path d="M-4,0h8" fill="none" stroke="white" stroke-width="1.5" pointer-events="none"/>
  </g>
  <g id="arrowUp" transform="translate(30 24)">
    <use xlink:href="#rim"/>
    <path pointer-events="none" fill="none" stroke="white" stroke-width="1.5" d="M0,-3.0v7 M-2.5,-0.5L0,-3.0L2.5,-0.5"/>
  </g>
  <g id="arrowRight" transform="rotate(90) translate(36 -43)">
    <use xlink:href="#rim"/>
    <path pointer-events="none" fill="none" stroke="white" stroke-width="1.5" d="M0,-3.0v7 M-2.5,-0.5L0,-3.0L2.5,-0.5"/>
  </g>
  <g id="arrowDown" transform="rotate(180) translate(-30 -48)">
    <use xlink:href="#rim"/>
    <path pointer-events="none" fill="none" stroke="white" stroke-width="1.5" d="M0,-3.0v7 M-2.5,-0.5L0,-3.0L2.5,-0.5"/>
  </g>
  <g id="arrowLeft" transform="rotate(270) translate(-36 17)">
    <use xlink:href="#rim"/>
    <path pointer-events="none" fill="none" stroke="white" stroke-width="1.5" d="M0,-3.0v7 M-2.5,-0.5L0,-3.0L2.5,-0.5"/>
  </g>
  <g id="resetDef">
    <use xlink:href="#rim2" fill="#404040"><set attributeName="fill" to="#808080" begin="reset.mouseover" end="reset.mouseout"/></use>
  </g>
</defs>
<script type="application/ecmascript">
var viewWidth = 1003;
var viewHeight = 204;
var sectionId = 'dynsection-1';
</script>
<script type="application/ecmascript" xlink:href="../../svg.min.js"/>
<svg id="graph" class="graph">
<g id="viewport">
<title>gimo/algorithm/BasicAlgorithm.hpp</title>
<!-- Node1 -->
<g id="Node000001" class="node">
<title>Node1</title>
<g id="a_Node000001"><a xlink:title=" ">
<polygon fill="#999999" stroke="#666666" points="536,-196.25 369.25,-196.25 369.25,-177 536,-177 536,-196.25"/>
<text text-anchor="middle" x="452.63" y="-182.75" font-family="Helvetica,sans-Serif" font-size="10.00">gimo/algorithm/BasicAlgorithm.hpp</text>
</a>
</g>
</g>
<!-- Node2 -->
<g id="Node000002" class="node">
<title>Node2</title>
<g id="a_Node000002"><a xlink:href="../../d4/d5a/gimo_8hpp.html" target="_top" xlink:title=" ">
<polygon fill="white" stroke="#666666" points="484.13,-19.25 429.13,-19.25 429.13,0 484.13,0 484.13,-19.25"/>
<text text-anchor="middle" x="456.63" y="-5.75" font-family="Helvetica,sans-Serif" font-size="10.00">gimo.hpp</text>
</a>
</g>
</g>
<!-- Node1&#45;&gt;Node2 -->
<g id="edge1_Node000001_Node000002" class="edge">
<title>Node1&#45;&gt;Node2</title>
<g id="a_edge1_Node000001_Node000002"><a xlink:title=" ">
<path fill="none" stroke="#63b8ff" d="M357.73,-178.01C240.07,-166.38 49.75,-139.6 6.63,-85.75 -1.84,-75.17 -2.47,-65.3 6.63,-55.25 35.06,-23.86 335.19,-13.69 428.86,-11.26"/>
<polygon fill="#63b8ff" stroke="#63b8ff" points="357.08,-181.47 367.37,-178.94 357.75,-174.5 357.08,-181.47"/>
</a>
</g>
</g>
<!-- Node3 -->
<g id="Node000003" class="node">
<title>Node3</title>
<g id="a_Node000003"><a xlink:href="../../d1/da8/_pipeline_8hpp.html" target="_top" xlink:title=" ">
<polygon fill="white" stroke="#666666" points="544.88,-141 452.38,-141 452.38,-121.75 544.88,-121.75 544.88,-141"/>
<text text-anchor="middle" x="498.63" y="-127.5" font-family="Helvetica,sans-Serif" font-size="10.00">gimo/Pipeline.hpp</text>
</a>
</g>
</g>
<!-- Node1&#45;&gt;Node3 -->
<g id="edge2_Node000001_Node000003" class="edge">
<title>Node1&#45;&gt;Node3</title>
<g id="a_edge2_Node000001_Node000003"><a xlink:title=" ">
<path fill="none" stroke="#63b8ff" d="M467.63,-168.26C475.39,-159.28 484.53,-148.7 490.87,-141.36"/>
<polygon fill="#63b8ff" stroke="#63b8ff" points="465.1,-165.83 461.21,-175.69 470.4,-170.41 465.1,-165.83"/>
</a>
</g>
</g>
<!-- Node4 -->
<g id="Node000004" class="node">
<title>Node4</title>
<g id="a_Node000004"><a xlink:href="../../d5/d86/_and_forward_8hpp.html" target="_top" xlink:title=" ">
<polygon fill="white" stroke="#666666" points="169.25,-80.12 16,-80.12 16,-60.88 169.25,-60.88 169.25,-80.12"/>
<text text-anchor="middle" x="92.63" y="-66.62" font-family="Helvetica,sans-Serif" font-size="10.00">gimo/algorithm/AndForward.hpp</text>
</a>
</g>
</g>
<!-- Node1&#45;&gt;Node4 -->
<g id="edge16_Node000001_Node000004" class="edge">
<title>Node1&#45;&gt;Node4</title>
<g id="a_edge16_Node000001_Node000004"><a xlink:title=" ">
<path fill="none" stroke="#63b8ff" d="M413.52,-173.23C340.54,-150.09 185.25,-100.86 121.18,-80.55"/>
<polygon fill="#63b8ff" stroke="#63b8ff" points="412.05,-176.43 422.64,-176.12 414.16,-169.76 412.05,-176.43"/>
</a>
</g>
</g>
<!-- Node5 -->
<g id="Node000005" class="node">
<title>Node5</title>
<g id="a_Node000005"><a xlink:href="../../d6/d3f/_and_then_8hpp.html" target="_top" xlink:title=" ">
<polygon fill="white" stroke="#666666" points="327.5,-80.12 187.75,-80.12 187.75,-60.88 327.5,-60.88 327.5,-80.12"/>
<text text-anchor="middle" x="257.63" y="-66.62" font-family="Helvetica,sans-Serif" font-size="10.00">gimo/algorithm/AndThen.hpp</text>
</a>
</g>
</g>
<!-- Node1&#45;&gt;Node5 -->
<g id="edge17_Node000001_Node000005" class="edge">
<title>Node1&#45;&gt;Node5</title>
<g id="a_edge17_Node000001_Node000005"><a xlink:title=" ">
<path fill="none" stroke="#63b8ff" d="M427.59,-170.97C386.7,-147.04 306.76,-100.26 273.13,-80.57"/>
<polygon fill="#63b8ff" stroke="#63b8ff" points="425.62,-173.87 436.02,-175.91 429.16,-167.83 425.62,-173.87"/>
</a>
</g>
</g>
<!-- Node6 -->
<g id="Node000006" class="node">
<title>Node6</title>
<g id="a_Node000006"><a xlink:href="../../d4/d96/_or_else_8hpp.html" target="_top" xlink:title=" ">
<polygon fill="white" stroke="#666666" points="475.63,-80.12 345.63,-80.12 345.63,-60.88 475.63,-60.88 475.63,-80.12"/>
<text text-anchor="middle" x="410.63" y="-66.62" font-family="Helvetica,sans-Serif" font-size="10.00">gimo/algorithm/OrElse.hpp</text>
</a>
</g>
</g>
<!-- Node1&#45;&gt;Node6 -->
<g id="edge18_Node000001_Node000006" class="edge">
<title>Node1&#45;&gt;Node6</title>
<g id="a_edge18_Node000001_Node000006"><a xlink:title=" ">
<path fill="none" stroke="#63b8ff" d="M445.38,-165.93C436.17,-140.89 420.64,-98.71 413.91,-80.41"/>
<polygon fill="#63b8ff" stroke="#63b8ff" points="442.07,-167.07 448.81,-175.25 448.64,-164.66 442.07,-167.07"/>
</a>
</g>
</g>
<!-- Node7 -->
<g id="Node000007" class="node">
<title>Node7</title>
<g id="a_Node000007"><a xlink:href="../../d9/d8c/_transform_8hpp.html" target="_top" xlink:title=" ">
<polygon fill="white" stroke="#666666" points="677.13,-80.12 532.13,-80.12 532.13,-60.88 677.13,-60.88 677.13,-80.12"/>
<text text-anchor="middle" x="604.63" y="-66.62" font-family="Helvetica,sans-Serif" font-size="10.00">gimo/algorithm/Transform.hpp</text>
</a>
</g>
</g>
<!-- Node1&#45;&gt;Node7 -->
<g id="edge19_Node000001_Node000007" class="edge">
<title>Node1&#45;&gt;Node7</title>
<g id="a_edge19_Node000001_Node000007"><a xlink:title=" ">
<path fill="none" stroke="#63b8ff" d="M494.29,-172.82C513.65,-165.53 536.18,-155.02 553.63,-141 575.33,-123.56 592.42,-94.78 600.14,-80.34"/>
<polygon fill="#63b8ff" stroke="#63b8ff" points="493.28,-169.46 485.04,-176.13 495.64,-176.05 493.28,-169.46"/>
</a>
</g>
</g>
<!-- Node8 -->
<g id="Node000008" class="node">
<title>Node8</title>
<g id="a_Node000008"><a xlink:href="../../d9/d45/_transform_error_8hpp.html" target="_top" xlink:title=" ">
<polygon fill="white" stroke="#666666" points="822.13,-85.75 695.13,-85.75 695.13,-55.25 822.13,-55.25 822.13,-85.75"/>
<text text-anchor="start" x="703.13" y="-72.25" font-family="Helvetica,sans-Serif" font-size="10.00">gimo/algorithm/Transform</text>
<text text-anchor="middle" x="758.63" y="-61" font-family="Helvetica,sans-Serif" font-size="10.00">Error.hpp</text>
</a>
</g>
</g>
<!-- Node1&#45;&gt;Node8 -->
<g id="edge20_Node000001_Node000008" class="edge">
<title>Node1&#45;&gt;Node8</title>
<g id="a_edge20_Node000001_Node000008"><a xlink:title=" ">
<path fill="none" stroke="#63b8ff" d="M489.04,-172.73C513.79,-163.92 547.24,-151.9 576.63,-141 626.58,-122.48 683.95,-100.44 720.71,-86.22"/>
<polygon fill="#63b8ff" stroke="#63b8ff" points="488.01,-169.38 479.76,-176.03 490.35,-175.98 488.01,-169.38"/>
</a>
</g>
</g>
<!-- Node9 -->
<g id="Node000009" class="node">
<title>Node9</title>
<g id="a_Node000009"><a xlink:href="../../d2/d0b/_value_or_else_8hpp.html" target="_top" xlink:title=" ">
<polygon fill="white" stroke="#666666" points="995,-80.12 840.25,-80.12 840.25,-60.88 995,-60.88 995,-80.12"/>
<text text-anchor="middle" x="917.63" y="-66.62" font-family="Helvetica,sans-Serif" font-size="10.00">gimo/algorithm/ValueOrElse.hpp</text>
</a>
</g>
</g>
<!-- Node1&#45;&gt;Node9 -->
<g id="edge21_Node000001_Node000009" class="edge">
<title>Node1&#45;&gt;Node9</title>
<g id="a_edge21_Node000001_Node000009"><a xlink:title=" ">
<path fill="none" stroke="#63b8ff" d="M500.57,-173.86C593.69,-151 797.23,-101.05 880.75,-80.55"/>
<polygon fill="#63b8ff" stroke="#63b8ff" points="499.85,-170.43 490.98,-176.21 501.52,-177.23 499.85,-170.43"/>
</a>
</g>
</g>
<!-- Node3&#45;&gt;Node2 -->
<g id="edge3_Node000003_Node000002" class="edge">
<title>Node3&#45;&gt;Node2</title>
<g id="a_edge3_Node000003_Node000002"><a xlink:title=" ">
<path fill="none" stroke="#63b8ff" d="M496.92,-109.96C495.13,-94.52 491.57,-73.01 484.63,-55.25 479.44,-41.96 470.18,-28.3 463.73,-19.65"/>
<polygon fill="#63b8ff" stroke="#63b8ff" points="493.42,-110.17 497.89,-119.78 500.39,-109.48 493.42,-110.17"/>
</a>
</g>
</g>
<!-- Node3&#45;&gt;Node4 -->
<g id="edge4_Node000003_Node000004" class="edge">
<title>Node3&#45;&gt;Node4</title>
<g id="a_edge4_Node000003_Node000004"><a xlink:title=" ">
<path fill="none" stroke="#63b8ff" d="M440.86,-122.77C376.72,-114.23 270.17,-99.72 178.63,-85.75 168.16,-84.15 156.98,-82.36 146.27,-80.61"/>
<polygon fill="#63b8ff" stroke="#63b8ff" points="440.06,-126.2 450.44,-124.05 440.99,-119.26 440.06,-126.2"/>
</a>
</g>
</g>
<!-- Node3&#45;&gt;Node5 -->
<g id="edge6_Node000003_Node000005" class="edge">
<title>Node3&#45;&gt;Node5</title>
<g id="a_edge6_Node000003_Node000005"><a xlink:title=" ">
<path fill="none" stroke="#63b8ff" d="M450.35,-118.58C404.51,-107.38 336.57,-90.78 294.8,-80.58"/>
<polygon fill="#63b8ff" stroke="#63b8ff" points="449.49,-121.97 460.03,-120.95 451.15,-115.17 449.49,-121.97"/>
</a>
</g>
</g>
<!-- Node3&#45;&gt;Node6 -->
<g id="edge8_Node000003_Node000006" class="edge">
<title>Node3&#45;&gt;Node6</title>
<g id="a_edge8_Node000003_Node000006"><a xlink:title=" ">
<path fill="none" stroke="#63b8ff" d="M475.84,-115.13C459.43,-104.15 437.87,-89.72 424.12,-80.53"/>
<polygon fill="#63b8ff" stroke="#63b8ff" points="473.75,-117.94 484.01,-120.59 477.64,-112.12 473.75,-117.94"/>
</a>
</g>
</g>
<!-- Node3&#45;&gt;Node7 -->
<g id="edge10_Node000003_Node000007" class="edge">
<title>Node3&#45;&gt;Node7</title>
<g id="a_edge10_Node000003_Node000007"><a xlink:title=" ">
<path fill="none" stroke="#63b8ff" d="M524.7,-115.9C544.61,-104.84 571.43,-89.94 588.38,-80.53"/>
<polygon fill="#63b8ff" stroke="#63b8ff" points="523.09,-112.78 516.05,-120.7 526.49,-118.9 523.09,-112.78"/>
</a>
</g>
</g>
<!-- Node3&#45;&gt;Node8 -->
<g id="edge12_Node000003_Node000008" class="edge">
<title>Node3&#45;&gt;Node8</title>
<g id="a_edge12_Node000003_Node000008"><a xlink:title=" ">
<path fill="none" stroke="#63b8ff" d="M549.65,-118.82C591.19,-109.41 650.06,-96.08 694.74,-85.97"/>
<polygon fill="#63b8ff" stroke="#63b8ff" points="549.14,-115.35 540.16,-120.97 550.69,-122.18 549.14,-115.35"/>
</a>
</g>
</g>
<!-- Node3&#45;&gt;Node9 -->
<g id="edge14_Node000003_Node000009" class="edge">
<title>Node3&#45;&gt;Node9</title>
<g id="a_edge14_Node000003_Node000009"><a xlink:title=" ">
<path fill="none" stroke="#63b8ff" d="M556.36,-123.19C622.82,-114.79 735.25,-100.19 831.63,-85.75 842.26,-84.16 853.6,-82.35 864.45,-80.58"/>
<polygon fill="#63b8ff" stroke="#63b8ff" points="556.28,-119.67 546.8,-124.4 557.16,-126.62 556.28,-119.67"/>
</a>
</g>
</g>
<!-- Node4&#45;&gt;Node2 -->
<g id="edge5_Node000004_Node000002" class="edge">
<title>Node4&#45;&gt;Node2</title>
<g id="a_edge5_Node000004_Node000002"><a xlink:title=" ">
<path fill="none" stroke="#63b8ff" d="M158.56,-58.54C165.34,-57.42 172.12,-56.31 178.63,-55.25 270.29,-40.3 379.03,-22.96 429,-15.01"/>
<polygon fill="#63b8ff" stroke="#63b8ff" points="158.01,-55.08 148.71,-60.17 159.15,-61.99 158.01,-55.08"/>
</a>
</g>
</g>
<!-- Node5&#45;&gt;Node2 -->
<g id="edge7_Node000005_Node000002" class="edge">
<title>Node5&#45;&gt;Node2</title>
<g id="a_edge7_Node000005_Node000002"><a xlink:title=" ">
<path fill="none" stroke="#63b8ff" d="M299.24,-57.19C338.15,-45.68 395.16,-28.81 428.83,-18.85"/>
<polygon fill="#63b8ff" stroke="#63b8ff" points="298.33,-53.81 289.74,-60 300.32,-60.52 298.33,-53.81"/>
</a>
</g>
</g>
<!-- Node6&#45;&gt;Node2 -->
<g id="edge9_Node000006_Node000002" class="edge">
<title>Node6&#45;&gt;Node2</title>
<g id="a_edge9_Node000006_Node000002"><a xlink:title=" ">
<path fill="none" stroke="#63b8ff" d="M424.53,-51.71C432.8,-41.13 442.93,-28.15 449.58,-19.65"/>
<polygon fill="#63b8ff" stroke="#63b8ff" points="421.95,-49.33 418.55,-59.37 427.46,-53.64 421.95,-49.33"/>
</a>
</g>
</g>
<!-- Node7&#45;&gt;Node2 -->
<g id="edge11_Node000007_Node000002" class="edge">
<title>Node7&#45;&gt;Node2</title>
<g id="a_edge11_Node000007_Node000002"><a xlink:title=" ">
<path fill="none" stroke="#63b8ff" d="M571.3,-56.24C543.2,-45.06 503.75,-29.37 479.21,-19.61"/>
<polygon fill="#63b8ff" stroke="#63b8ff" points="569.84,-59.43 580.42,-59.87 572.42,-52.92 569.84,-59.43"/>
</a>
</g>
</g>
<!-- Node8&#45;&gt;Node2 -->
<g id="edge13_Node000008_Node000002" class="edge">
<title>Node8&#45;&gt;Node2</title>
<g id="a_edge13_Node000008_Node000002"><a xlink:title=" ">
<path fill="none" stroke="#63b8ff" d="M683.72,-54.68C606.15,-39.5 525.96,-24 484.61,-16.02"/>
<polygon fill="#63b8ff" stroke="#63b8ff" points="682.67,-58.04 693.16,-56.53 684.02,-51.17 682.67,-58.04"/>
</a>
</g>
</g>
<!-- Node9&#45;&gt;Node2 -->
<g id="edge15_Node000009_Node000002" class="edge">
<title>Node9&#45;&gt;Node2</title>
<g id="a_edge15_Node000009_Node000002"><a xlink:title=" ">
<path fill="none" stroke="#63b8ff" d="M853.72,-58.58C846.28,-57.4 838.79,-56.27 831.63,-55.25 702.13,-36.83 546.73,-20.02 484.44,-13.49"/>
<polygon fill="#63b8ff" stroke="#63b8ff" points="853.01,-62.01 863.44,-60.14 854.12,-55.1 853.01,-62.01"/>
</a>
</g>
</g>
</g>
</svg>

<g id="navigator" transform="translate(0 0)" fill="#404254">
  <rect fill="#f2f5e9" fill-opacity="0.5" stroke="#606060" stroke-width=".5" x="0" y="0" width="60" height="60"/>
  <use id="zoomplus" xlink:href="#zoomPlus" x="17" y="9" onmousedown="handleZoom(evt,'in')"/>
  <use id="zoomminus" xlink:href="#zoomMin" x="42" y="9" onmousedown="handleZoom(evt,'out')"/>
  <use id="reset" xlink:href="#resetDef" x="30" y="36" onmousedown="handleReset()"/>
   <use id="arrowup" xlink:href="#arrowUp" x="0" y="0" onmousedown="handlePan(0,-1)"/>
  <use id="arrowright" xlink:href="#arrowRight" x="0" y="0" onmousedown="handlePan(1,0)"/>
  <use id="arrowdown" xlink:href="#arrowDown" x="0" y="0" onmousedown="handlePan(0,1)"/>
  <use id="arrowleft" xlink:href="#arrowLeft" x="0" y="0" onmousedown="handlePan(-1,0)"/>
</g>
<svg viewBox="0 0 15 15" width="100%" height="30px" preserveAspectRatio="xMaxYMin meet">
 <g id="arrow_out" transform="scale(0.3 0.3)">
  <a xlink:href="_basic_algorithm_8hpp__dep__incl_org.svg" target="_base">
   <rect id="button" ry="5" rx="5" y="6" x="6" height="38" width="38"
        fill="#f2f5e9" fill-opacity="0.5" stroke="#606060" stroke-width="1.0"/>
   <path id="arrow"
     d="M 11.500037,31.436501 C 11.940474,20.09759 22.043105,11.32322 32.158766,21.979434 L 37.068811,17.246167 C 37.068811,17.246167 37.088388,32 37.088388,32 L 22.160133,31.978069 C 22.160133,31.978069 26.997745,27.140456 26.997745,27.140456 C 18.528582,18.264221 13.291696,25.230495 11.500037,31.436501 z"
     style="fill:#404040;"/>
  </a>
 </g>
</svg>

<style type='text/css'>
<![CDATA[
[data-mouse-over-selected='false'] { opacity: 0.7; }
[data-mouse-over-selected='true']  { opacity: 1.0; }
]]>
</style>
<script type="application/ecmascript"><![CDATA[
document.addEventListener('DOMContentLoaded', (event) => {
  highlightEdges();
  highlightAdjacentNodes();
});
]]></script>
</svg>
