<?xml version="1.0" encoding="UTF-8" standalone="no"?>
<!DOCTYPE svg PUBLIC "-//W3C//DTD SVG 1.1//EN"
 "http://www.w3.org/Graphics/SVG/1.1/DTD/svg11.dtd">
<!-- Generated by graphviz version 12.2.1 (20241206.2353)
 -->
<!-- Title: gimo/Pipeline.hpp Pages: 1 -->
<svg width="491pt" height="248pt"
 viewBox="0.00 0.00 491.00 248.25" xmlns="http://www.w3.org/2000/svg" xmlns:xlink="http://www.w3.org/1999/xlink">
<g id="graph0" class="graph" transform="scale(1 1) rotate(0) translate(4 244.25)">
<title>gimo/Pipeline.hpp</title>
<!-- Node1 -->
<g id="Node000001" class="node">
<title>Node1</title>
<g id="a_Node000001"><a xlink:title=" ">
<polygon fill="#999999" stroke="#666666" points="331.75,-240.25 239.25,-240.25 239.25,-221 331.75,-221 331.75,-240.25"/>
<text text-anchor="middle" x="285.5" y="-226.75" font-family="Helvetica,sans-Serif" font-size="10.00">gimo/Pipeline.hpp</text>
</a>
</g>
</g>
<!-- Node2 -->
<g id="Node000002" class="node">
<title>Node2</title>
<g id="a_Node000002"><a xlink:href="../../d3/d58/_common_8hpp.html" target="_top" xlink:title=" ">
<polygon fill="white" stroke="#666666" points="199,-129.75 102,-129.75 102,-110.5 199,-110.5 199,-129.75"/>
<text text-anchor="middle" x="150.5" y="-116.25" font-family="Helvetica,sans-Serif" font-size="10.00">gimo/Common.hpp</text>
</a>
</g>
</g>
<!-- Node1&#45;&gt;Node2 -->
<g id="edge1_Node000001_Node000002" class="edge">
<title>Node1&#45;&gt;Node2</title>
<g id="a_edge1_Node000001_Node000002"><a xlink:title=" ">
<path fill="none" stroke="#63b8ff" d="M238.84,-229.19C205.03,-226.11 161.38,-215.85 138.5,-185 128.94,-172.11 133.71,-153.84 139.83,-140.13"/>
<polygon fill="#63b8ff" stroke="#63b8ff" points="142.92,-141.77 144.32,-131.27 136.68,-138.6 142.92,-141.77"/>
</a>
</g>
</g>
<!-- Node7 -->
<g id="Node000007" class="node">
<title>Node7</title>
<g id="a_Node000007"><a xlink:title=" ">
<polygon fill="#e0e0e0" stroke="#999999" points="61,-74.5 0,-74.5 0,-55.25 61,-55.25 61,-74.5"/>
<text text-anchor="middle" x="30.5" y="-61" font-family="Helvetica,sans-Serif" font-size="10.00">type_traits</text>
</a>
</g>
</g>
<!-- Node1&#45;&gt;Node7 -->
<g id="edge16_Node000001_Node000007" class="edge">
<title>Node1&#45;&gt;Node7</title>
<g id="a_edge16_Node000001_Node000007"><a xlink:title=" ">
<path fill="none" stroke="#63b8ff" d="M239.07,-221.93C206.91,-215.29 163.88,-203.75 129.5,-185 96.8,-167.17 89.98,-158.66 66.5,-129.75 55.33,-115.99 45.66,-98.31 39.17,-85.04"/>
<polygon fill="#63b8ff" stroke="#63b8ff" points="42.38,-83.65 34.96,-76.09 36.05,-86.63 42.38,-83.65"/>
</a>
</g>
</g>
<!-- Node8 -->
<g id="Node000008" class="node">
<title>Node8</title>
<g id="a_Node000008"><a xlink:title=" ">
<polygon fill="#e0e0e0" stroke="#999999" points="360.75,-74.5 322.25,-74.5 322.25,-55.25 360.75,-55.25 360.75,-74.5"/>
<text text-anchor="middle" x="341.5" y="-61" font-family="Helvetica,sans-Serif" font-size="10.00">utility</text>
</a>
</g>
</g>
<!-- Node1&#45;&gt;Node8 -->
<g id="edge17_Node000001_Node000008" class="edge">
<title>Node1&#45;&gt;Node8</title>
<g id="a_edge17_Node000001_Node000008"><a xlink:title=" ">
<path fill="none" stroke="#63b8ff" d="M295.4,-220.74C304.02,-212.4 316.11,-199.12 322.5,-185 337.22,-152.5 340.76,-110.49 341.49,-86.03"/>
<polygon fill="#63b8ff" stroke="#63b8ff" points="344.98,-86.26 341.63,-76.21 337.98,-86.16 344.98,-86.26"/>
</a>
</g>
</g>
<!-- Node9 -->
<g id="Node000009" class="node">
<title>Node9</title>
<g id="a_Node000009"><a xlink:href="../../de/dca/_basic_algorithm_8hpp.html" target="_top" xlink:title=" ">
<polygon fill="white" stroke="#666666" points="313.88,-185 147.12,-185 147.12,-165.75 313.88,-165.75 313.88,-185"/>
<text text-anchor="middle" x="230.5" y="-171.5" font-family="Helvetica,sans-Serif" font-size="10.00">gimo/algorithm/BasicAlgorithm.hpp</text>
</a>
</g>
</g>
<!-- Node1&#45;&gt;Node9 -->
<g id="edge8_Node000001_Node000009" class="edge">
<title>Node1&#45;&gt;Node9</title>
<g id="a_edge8_Node000001_Node000009"><a xlink:title=" ">
<path fill="none" stroke="#63b8ff" d="M276.42,-220.83C268.66,-213.32 257.29,-202.31 247.8,-193.13"/>
<polygon fill="#63b8ff" stroke="#63b8ff" points="250.49,-190.85 240.87,-186.41 245.62,-195.88 250.49,-190.85"/>
</a>
</g>
</g>
<!-- Node10 -->
<g id="Node000010" class="node">
<title>Node10</title>
<g id="a_Node000010"><a xlink:title=" ">
<polygon fill="#e0e0e0" stroke="#999999" points="427.5,-185 369.5,-185 369.5,-165.75 427.5,-165.75 427.5,-185"/>
<text text-anchor="middle" x="398.5" y="-171.5" font-family="Helvetica,sans-Serif" font-size="10.00">functional</text>
</a>
</g>
</g>
<!-- Node1&#45;&gt;Node10 -->
<g id="edge14_Node000001_Node000010" class="edge">
<title>Node1&#45;&gt;Node10</title>
<g id="a_edge14_Node000001_Node000010"><a xlink:title=" ">
<path fill="none" stroke="#63b8ff" d="M304.67,-220.59C322.28,-212.29 348.66,-199.86 368.96,-190.29"/>
<polygon fill="#63b8ff" stroke="#63b8ff" points="370.31,-193.53 377.87,-186.1 367.33,-187.19 370.31,-193.53"/>
</a>
</g>
</g>
<!-- Node11 -->
<g id="Node000011" class="node">
<title>Node11</title>
<g id="a_Node000011"><a xlink:title=" ">
<polygon fill="#e0e0e0" stroke="#999999" points="483,-185 446,-185 446,-165.75 483,-165.75 483,-185"/>
<text text-anchor="middle" x="464.5" y="-171.5" font-family="Helvetica,sans-Serif" font-size="10.00">tuple</text>
</a>
</g>
</g>
<!-- Node1&#45;&gt;Node11 -->
<g id="edge15_Node000001_Node000011" class="edge">
<title>Node1&#45;&gt;Node11</title>
<g id="a_edge15_Node000001_Node000011"><a xlink:title=" ">
<path fill="none" stroke="#63b8ff" d="M316.47,-220.58C344.81,-212.29 388.17,-199.53 434.63,-185.54"/>
<polygon fill="#63b8ff" stroke="#63b8ff" points="435.52,-188.93 444.08,-182.69 433.5,-182.23 435.52,-188.93"/>
</a>
</g>
</g>
<!-- Node3 -->
<g id="Node000003" class="node">
<title>Node3</title>
<g id="a_Node000003"><a xlink:href="../../d8/dd2/_config_8hpp.html" target="_top" xlink:title=" ">
<polygon fill="white" stroke="#666666" points="231,-74.5 146,-74.5 146,-55.25 231,-55.25 231,-74.5"/>
<text text-anchor="middle" x="188.5" y="-61" font-family="Helvetica,sans-Serif" font-size="10.00">gimo/Config.hpp</text>
</a>
</g>
</g>
<!-- Node2&#45;&gt;Node3 -->
<g id="edge2_Node000002_Node000003" class="edge">
<title>Node2&#45;&gt;Node3</title>
<g id="a_edge2_Node000002_Node000003"><a xlink:title=" ">
<path fill="none" stroke="#63b8ff" d="M156.77,-110.33C161.86,-103.21 169.2,-92.93 175.53,-84.05"/>
<polygon fill="#63b8ff" stroke="#63b8ff" points="178.25,-86.26 181.21,-76.09 172.55,-82.2 178.25,-86.26"/>
</a>
</g>
</g>
<!-- Node5 -->
<g id="Node000005" class="node">
<title>Node5</title>
<g id="a_Node000005"><a xlink:title=" ">
<polygon fill="#e0e0e0" stroke="#999999" points="304.38,-74.5 248.62,-74.5 248.62,-55.25 304.38,-55.25 304.38,-74.5"/>
<text text-anchor="middle" x="276.5" y="-61" font-family="Helvetica,sans-Serif" font-size="10.00">concepts</text>
</a>
</g>
</g>
<!-- Node2&#45;&gt;Node5 -->
<g id="edge4_Node000002_Node000005" class="edge">
<title>Node2&#45;&gt;Node5</title>
<g id="a_edge4_Node000002_Node000005"><a xlink:title=" ">
<path fill="none" stroke="#63b8ff" d="M171.87,-110.09C191.79,-101.68 221.74,-89.02 244.5,-79.4"/>
<polygon fill="#63b8ff" stroke="#63b8ff" points="245.78,-82.66 253.63,-75.54 243.05,-76.21 245.78,-82.66"/>
</a>
</g>
</g>
<!-- Node6 -->
<g id="Node000006" class="node">
<title>Node6</title>
<g id="a_Node000006"><a xlink:title=" ">
<polygon fill="#e0e0e0" stroke="#999999" points="127.62,-74.5 79.38,-74.5 79.38,-55.25 127.62,-55.25 127.62,-74.5"/>
<text text-anchor="middle" x="103.5" y="-61" font-family="Helvetica,sans-Serif" font-size="10.00">cstddef</text>
</a>
</g>
</g>
<!-- Node2&#45;&gt;Node6 -->
<g id="edge5_Node000002_Node000006" class="edge">
<title>Node2&#45;&gt;Node6</title>
<g id="a_edge5_Node000002_Node000006"><a xlink:title=" ">
<path fill="none" stroke="#63b8ff" d="M142.74,-110.33C136.31,-103.05 126.99,-92.48 119.04,-83.48"/>
<polygon fill="#63b8ff" stroke="#63b8ff" points="121.67,-81.18 112.43,-75.99 116.42,-85.81 121.67,-81.18"/>
</a>
</g>
</g>
<!-- Node2&#45;&gt;Node7 -->
<g id="edge6_Node000002_Node000007" class="edge">
<title>Node2&#45;&gt;Node7</title>
<g id="a_edge6_Node000002_Node000007"><a xlink:title=" ">
<path fill="none" stroke="#63b8ff" d="M130.14,-110.09C111.27,-101.72 82.91,-89.13 61.27,-79.53"/>
<polygon fill="#63b8ff" stroke="#63b8ff" points="62.9,-76.42 52.34,-75.57 60.06,-82.82 62.9,-76.42"/>
</a>
</g>
</g>
<!-- Node2&#45;&gt;Node8 -->
<g id="edge7_Node000002_Node000008" class="edge">
<title>Node2&#45;&gt;Node8</title>
<g id="a_edge7_Node000002_Node000008"><a xlink:title=" ">
<path fill="none" stroke="#63b8ff" d="M184.93,-110.04C215.72,-101.84 262.34,-89.24 311.16,-75.12"/>
<polygon fill="#63b8ff" stroke="#63b8ff" points="311.86,-78.56 320.49,-72.41 309.91,-71.84 311.86,-78.56"/>
</a>
</g>
</g>
<!-- Node4 -->
<g id="Node000004" class="node">
<title>Node4</title>
<g id="a_Node000004"><a xlink:title=" ">
<polygon fill="#e0e0e0" stroke="#999999" points="212.62,-19.25 164.38,-19.25 164.38,0 212.62,0 212.62,-19.25"/>
<text text-anchor="middle" x="188.5" y="-5.75" font-family="Helvetica,sans-Serif" font-size="10.00">cassert</text>
</a>
</g>
</g>
<!-- Node3&#45;&gt;Node4 -->
<g id="edge3_Node000003_Node000004" class="edge">
<title>Node3&#45;&gt;Node4</title>
<g id="a_edge3_Node000003_Node000004"><a xlink:title=" ">
<path fill="none" stroke="#63b8ff" d="M188.5,-55.08C188.5,-48.57 188.5,-39.42 188.5,-31.12"/>
<polygon fill="#63b8ff" stroke="#63b8ff" points="192,-31.12 188.5,-21.12 185,-31.12 192,-31.12"/>
</a>
</g>
</g>
<!-- Node9&#45;&gt;Node2 -->
<g id="edge9_Node000009_Node000002" class="edge">
<title>Node9&#45;&gt;Node2</title>
<g id="a_edge9_Node000009_Node000002"><a xlink:title=" ">
<path fill="none" stroke="#63b8ff" d="M216.93,-165.34C205.09,-157.46 187.66,-145.86 173.63,-136.52"/>
<polygon fill="#63b8ff" stroke="#63b8ff" points="175.66,-133.67 165.4,-131.04 171.78,-139.5 175.66,-133.67"/>
</a>
</g>
</g>
<!-- Node9&#45;&gt;Node3 -->
<g id="edge10_Node000009_Node000003" class="edge">
<title>Node9&#45;&gt;Node3</title>
<g id="a_edge10_Node000009_Node000003"><a xlink:title=" ">
<path fill="none" stroke="#63b8ff" d="M227.76,-165.61C223.81,-153.21 216.18,-129.91 208.5,-110.5 205.14,-102.01 201.08,-92.78 197.49,-84.93"/>
<polygon fill="#63b8ff" stroke="#63b8ff" points="200.75,-83.63 193.36,-76.04 194.4,-86.58 200.75,-83.63"/>
</a>
</g>
</g>
<!-- Node9&#45;&gt;Node5 -->
<g id="edge11_Node000009_Node000005" class="edge">
<title>Node9&#45;&gt;Node5</title>
<g id="a_edge11_Node000009_Node000005"><a xlink:title=" ">
<path fill="none" stroke="#63b8ff" d="M234.26,-165.5C241.64,-148.09 258.16,-109.12 268.22,-85.41"/>
<polygon fill="#63b8ff" stroke="#63b8ff" points="271.41,-86.84 272.09,-76.27 264.97,-84.11 271.41,-86.84"/>
</a>
</g>
</g>
<!-- Node9&#45;&gt;Node7 -->
<g id="edge12_Node000009_Node000007" class="edge">
<title>Node9&#45;&gt;Node7</title>
<g id="a_edge12_Node000009_Node000007"><a xlink:title=" ">
<path fill="none" stroke="#63b8ff" d="M184.98,-165.33C157.13,-158.43 121.59,-147.11 93.5,-129.75 73.69,-117.51 55.53,-97.78 43.85,-83.49"/>
<polygon fill="#63b8ff" stroke="#63b8ff" points="46.74,-81.49 37.8,-75.8 41.24,-85.82 46.74,-81.49"/>
</a>
</g>
</g>
<!-- Node9&#45;&gt;Node8 -->
<g id="edge13_Node000009_Node000008" class="edge">
<title>Node9&#45;&gt;Node8</title>
<g id="a_edge13_Node000009_Node000008"><a xlink:title=" ">
<path fill="none" stroke="#63b8ff" d="M239.58,-165.5C258.04,-147.46 300.2,-106.25 324.11,-82.88"/>
<polygon fill="#63b8ff" stroke="#63b8ff" points="326.5,-85.43 331.21,-75.93 321.61,-80.42 326.5,-85.43"/>
</a>
</g>
</g>
</g>
</svg>
