<?xml version="1.0" encoding="UTF-8" standalone="no"?>
<!DOCTYPE svg PUBLIC "-//W3C//DTD SVG 1.1//EN"
 "http://www.w3.org/Graphics/SVG/1.1/DTD/svg11.dtd">
<!-- Generated by graphviz version 12.2.1 (20241206.2353)
 -->
<!-- Title: gimo/Pipeline.hpp Pages: 1 -->
<svg width="624pt" height="149pt"
 viewBox="0.00 0.00 623.83 149.00" xmlns="http://www.w3.org/2000/svg" xmlns:xlink="http://www.w3.org/1999/xlink">
<g id="graph0" class="graph" transform="scale(1 1) rotate(0) translate(4 145)">
<title>gimo/Pipeline.hpp</title>
<!-- Node1 -->
<g id="Node000001" class="node">
<title>Node1</title>
<g id="a_Node000001"><a xlink:title=" ">
<polygon fill="#999999" stroke="#666666" points="288.58,-141 196.08,-141 196.08,-121.75 288.58,-121.75 288.58,-141"/>
<text text-anchor="middle" x="242.33" y="-127.5" font-family="Helvetica,sans-Serif" font-size="10.00">gimo/Pipeline.hpp</text>
</a>
</g>
</g>
<!-- Node2 -->
<g id="Node000002" class="node">
<title>Node2</title>
<g id="a_Node000002"><a xlink:href="../../d4/d5a/gimo_8hpp.html" target="_top" xlink:title=" ">
<polygon fill="white" stroke="#666666" points="269.83,-19.25 214.83,-19.25 214.83,0 269.83,0 269.83,-19.25"/>
<text text-anchor="middle" x="242.33" y="-5.75" font-family="Helvetica,sans-Serif" font-size="10.00">gimo.hpp</text>
</a>
</g>
</g>
<!-- Node1&#45;&gt;Node2 -->
<g id="edge1_Node000001_Node000002" class="edge">
<title>Node1&#45;&gt;Node2</title>
<g id="a_edge1_Node000001_Node000002"><a xlink:title=" ">
<path fill="none" stroke="#63b8ff" d="M184.3,-127.42C122.92,-122.94 31.98,-111.97 10.33,-85.75 -45.62,-18.02 141.55,-10.73 214.48,-10.4"/>
<polygon fill="#63b8ff" stroke="#63b8ff" points="184.05,-130.91 194.26,-128.11 184.53,-123.93 184.05,-130.91"/>
</a>
</g>
</g>
<!-- Node3 -->
<g id="Node000003" class="node">
<title>Node3</title>
<g id="a_Node000003"><a xlink:href="../../d6/d3f/_and_then_8hpp.html" target="_top" xlink:title=" ">
<polygon fill="white" stroke="#666666" points="159.2,-80.12 19.45,-80.12 19.45,-60.88 159.2,-60.88 159.2,-80.12"/>
<text text-anchor="middle" x="89.33" y="-66.62" font-family="Helvetica,sans-Serif" font-size="10.00">gimo/algorithm/AndThen.hpp</text>
</a>
</g>
</g>
<!-- Node1&#45;&gt;Node3 -->
<g id="edge2_Node000001_Node000003" class="edge">
<title>Node1&#45;&gt;Node3</title>
<g id="a_edge2_Node000001_Node000003"><a xlink:title=" ">
<path fill="none" stroke="#63b8ff" d="M208.29,-117.28C179.31,-106.13 138.43,-90.4 112.93,-80.58"/>
<polygon fill="#63b8ff" stroke="#63b8ff" points="206.75,-120.44 217.34,-120.76 209.27,-113.9 206.75,-120.44"/>
</a>
</g>
</g>
<!-- Node4 -->
<g id="Node000004" class="node">
<title>Node4</title>
<g id="a_Node000004"><a xlink:href="../../d4/d96/_or_else_8hpp.html" target="_top" xlink:title=" ">
<polygon fill="white" stroke="#666666" points="307.33,-80.12 177.33,-80.12 177.33,-60.88 307.33,-60.88 307.33,-80.12"/>
<text text-anchor="middle" x="242.33" y="-66.62" font-family="Helvetica,sans-Serif" font-size="10.00">gimo/algorithm/OrElse.hpp</text>
</a>
</g>
</g>
<!-- Node1&#45;&gt;Node4 -->
<g id="edge4_Node000001_Node000004" class="edge">
<title>Node1&#45;&gt;Node4</title>
<g id="a_edge4_Node000001_Node000004"><a xlink:title=" ">
<path fill="none" stroke="#63b8ff" d="M242.33,-109.95C242.33,-99.92 242.33,-88.33 242.33,-80.53"/>
<polygon fill="#63b8ff" stroke="#63b8ff" points="238.83,-109.92 242.33,-119.92 245.83,-109.92 238.83,-109.92"/>
</a>
</g>
</g>
<!-- Node5 -->
<g id="Node000005" class="node">
<title>Node5</title>
<g id="a_Node000005"><a xlink:href="../../d9/d8c/_transform_8hpp.html" target="_top" xlink:title=" ">
<polygon fill="white" stroke="#666666" points="470.83,-80.12 325.83,-80.12 325.83,-60.88 470.83,-60.88 470.83,-80.12"/>
<text text-anchor="middle" x="398.33" y="-66.62" font-family="Helvetica,sans-Serif" font-size="10.00">gimo/algorithm/Transform.hpp</text>
</a>
</g>
</g>
<!-- Node1&#45;&gt;Node5 -->
<g id="edge6_Node000001_Node000005" class="edge">
<title>Node1&#45;&gt;Node5</title>
<g id="a_edge6_Node000001_Node000005"><a xlink:title=" ">
<path fill="none" stroke="#63b8ff" d="M277.03,-117.28C306.58,-106.13 348.26,-90.4 374.27,-80.58"/>
<polygon fill="#63b8ff" stroke="#63b8ff" points="275.9,-113.96 267.78,-120.77 278.37,-120.51 275.9,-113.96"/>
</a>
</g>
</g>
<!-- Node6 -->
<g id="Node000006" class="node">
<title>Node6</title>
<g id="a_Node000006"><a xlink:href="../../d9/d45/_transform_error_8hpp.html" target="_top" xlink:title=" ">
<polygon fill="white" stroke="#666666" points="615.83,-85.75 488.83,-85.75 488.83,-55.25 615.83,-55.25 615.83,-85.75"/>
<text text-anchor="start" x="496.83" y="-72.25" font-family="Helvetica,sans-Serif" font-size="10.00">gimo/algorithm/Transform</text>
<text text-anchor="middle" x="552.33" y="-61" font-family="Helvetica,sans-Serif" font-size="10.00">Error.hpp</text>
</a>
</g>
</g>
<!-- Node1&#45;&gt;Node6 -->
<g id="edge8_Node000001_Node000006" class="edge">
<title>Node1&#45;&gt;Node6</title>
<g id="a_edge8_Node000001_Node000006"><a xlink:title=" ">
<path fill="none" stroke="#63b8ff" d="M300.02,-119.73C348.24,-110.78 418.8,-97.61 480.33,-85.75 482.96,-85.24 485.64,-84.72 488.34,-84.2"/>
<polygon fill="#63b8ff" stroke="#63b8ff" points="299.55,-116.25 290.36,-121.52 300.83,-123.13 299.55,-116.25"/>
</a>
</g>
</g>
<!-- Node3&#45;&gt;Node2 -->
<g id="edge3_Node000003_Node000002" class="edge">
<title>Node3&#45;&gt;Node2</title>
<g id="a_edge3_Node000003_Node000002"><a xlink:title=" ">
<path fill="none" stroke="#63b8ff" d="M123.37,-56.4C152.35,-45.25 193.23,-29.52 218.73,-19.71"/>
<polygon fill="#63b8ff" stroke="#63b8ff" points="122.39,-53.03 114.31,-59.89 124.9,-59.56 122.39,-53.03"/>
</a>
</g>
</g>
<!-- Node4&#45;&gt;Node2 -->
<g id="edge5_Node000004_Node000002" class="edge">
<title>Node4&#45;&gt;Node2</title>
<g id="a_edge5_Node000004_Node000002"><a xlink:title=" ">
<path fill="none" stroke="#63b8ff" d="M242.33,-49.07C242.33,-39.04 242.33,-27.46 242.33,-19.65"/>
<polygon fill="#63b8ff" stroke="#63b8ff" points="238.83,-49.04 242.33,-59.04 245.83,-49.04 238.83,-49.04"/>
</a>
</g>
</g>
<!-- Node5&#45;&gt;Node2 -->
<g id="edge7_Node000005_Node000002" class="edge">
<title>Node5&#45;&gt;Node2</title>
<g id="a_edge7_Node000005_Node000002"><a xlink:title=" ">
<path fill="none" stroke="#63b8ff" d="M363.62,-56.4C334.07,-45.25 292.39,-29.52 266.39,-19.71"/>
<polygon fill="#63b8ff" stroke="#63b8ff" points="362.29,-59.64 372.88,-59.9 364.76,-53.09 362.29,-59.64"/>
</a>
</g>
</g>
<!-- Node6&#45;&gt;Node2 -->
<g id="edge9_Node000006_Node000002" class="edge">
<title>Node6&#45;&gt;Node2</title>
<g id="a_edge9_Node000006_Node000002"><a xlink:title=" ">
<path fill="none" stroke="#63b8ff" d="M477.49,-54.71C396.75,-39.2 312.74,-23.61 270.19,-15.76"/>
<polygon fill="#63b8ff" stroke="#63b8ff" points="476.38,-58.06 486.86,-56.52 477.7,-51.19 476.38,-58.06"/>
</a>
</g>
</g>
</g>
</svg>
