<?xml version="1.0" encoding="UTF-8" standalone="no"?>
<!DOCTYPE svg PUBLIC "-//W3C//DTD SVG 1.1//EN"
 "http://www.w3.org/Graphics/SVG/1.1/DTD/svg11.dtd">
<!-- Generated by graphviz version 12.2.1 (20241206.2353)
 -->
<!-- Title: gimo/Pipeline.hpp Pages: 1 -->
<svg width="793pt" height="149pt"
 viewBox="0.00 0.00 793.03 149.00" xmlns="http://www.w3.org/2000/svg" xmlns:xlink="http://www.w3.org/1999/xlink">
<g id="graph0" class="graph" transform="scale(1 1) rotate(0) translate(4 145)">
<title>gimo/Pipeline.hpp</title>
<!-- Node1 -->
<g id="Node000001" class="node">
<title>Node1</title>
<g id="a_Node000001"><a xlink:title=" ">
<polygon fill="#999999" stroke="#666666" points="362.91,-141 270.41,-141 270.41,-121.75 362.91,-121.75 362.91,-141"/>
<text text-anchor="middle" x="316.66" y="-127.5" font-family="Helvetica,sans-Serif" font-size="10.00">gimo/Pipeline.hpp</text>
</a>
</g>
</g>
<!-- Node2 -->
<g id="Node000002" class="node">
<title>Node2</title>
<g id="a_Node000002"><a xlink:href="../../d4/d5a/gimo_8hpp.html" target="_top" xlink:title=" ">
<polygon fill="white" stroke="#666666" points="344.16,-19.25 289.16,-19.25 289.16,0 344.16,0 344.16,-19.25"/>
<text text-anchor="middle" x="316.66" y="-5.75" font-family="Helvetica,sans-Serif" font-size="10.00">gimo.hpp</text>
</a>
</g>
</g>
<!-- Node1&#45;&gt;Node2 -->
<g id="edge1_Node000001_Node000002" class="edge">
<title>Node1&#45;&gt;Node2</title>
<g id="a_edge1_Node000001_Node000002"><a xlink:title=" ">
<path fill="none" stroke="#63b8ff" d="M258.61,-130.68C178.05,-129.73 38.6,-122.62 6.66,-85.75 -2.22,-75.5 -2.22,-65.5 6.66,-55.25 43.11,-13.18 219.55,-9.86 288.74,-10.22"/>
<polygon fill="#63b8ff" stroke="#63b8ff" points="258.51,-134.18 268.54,-130.77 258.57,-127.18 258.51,-134.18"/>
</a>
</g>
</g>
<!-- Node3 -->
<g id="Node000003" class="node">
<title>Node3</title>
<g id="a_Node000003"><a xlink:href="../../d6/d3f/_and_then_8hpp.html" target="_top" xlink:title=" ">
<polygon fill="white" stroke="#666666" points="155.53,-80.12 15.78,-80.12 15.78,-60.88 155.53,-60.88 155.53,-80.12"/>
<text text-anchor="middle" x="85.66" y="-66.62" font-family="Helvetica,sans-Serif" font-size="10.00">gimo/algorithm/AndThen.hpp</text>
</a>
</g>
</g>
<!-- Node1&#45;&gt;Node3 -->
<g id="edge2_Node000001_Node000003" class="edge">
<title>Node1&#45;&gt;Node3</title>
<g id="a_edge2_Node000001_Node000003"><a xlink:title=" ">
<path fill="none" stroke="#63b8ff" d="M270.1,-118.51C226.17,-107.31 161.23,-90.76 121.29,-80.58"/>
<polygon fill="#63b8ff" stroke="#63b8ff" points="269.05,-121.85 279.6,-120.93 270.78,-115.07 269.05,-121.85"/>
</a>
</g>
</g>
<!-- Node4 -->
<g id="Node000004" class="node">
<title>Node4</title>
<g id="a_Node000004"><a xlink:href="../../d4/d96/_or_else_8hpp.html" target="_top" xlink:title=" ">
<polygon fill="white" stroke="#666666" points="303.66,-80.12 173.66,-80.12 173.66,-60.88 303.66,-60.88 303.66,-80.12"/>
<text text-anchor="middle" x="238.66" y="-66.62" font-family="Helvetica,sans-Serif" font-size="10.00">gimo/algorithm/OrElse.hpp</text>
</a>
</g>
</g>
<!-- Node1&#45;&gt;Node4 -->
<g id="edge4_Node000001_Node000004" class="edge">
<title>Node1&#45;&gt;Node4</title>
<g id="a_edge4_Node000001_Node000004"><a xlink:title=" ">
<path fill="none" stroke="#63b8ff" d="M295.63,-114.5C281.2,-103.61 262.57,-89.55 250.62,-80.53"/>
<polygon fill="#63b8ff" stroke="#63b8ff" points="293.51,-117.29 303.6,-120.52 297.73,-111.7 293.51,-117.29"/>
</a>
</g>
</g>
<!-- Node5 -->
<g id="Node000005" class="node">
<title>Node5</title>
<g id="a_Node000005"><a xlink:href="../../d9/d8c/_transform_8hpp.html" target="_top" xlink:title=" ">
<polygon fill="white" stroke="#666666" points="467.16,-80.12 322.16,-80.12 322.16,-60.88 467.16,-60.88 467.16,-80.12"/>
<text text-anchor="middle" x="394.66" y="-66.62" font-family="Helvetica,sans-Serif" font-size="10.00">gimo/algorithm/Transform.hpp</text>
</a>
</g>
</g>
<!-- Node1&#45;&gt;Node5 -->
<g id="edge6_Node000001_Node000005" class="edge">
<title>Node1&#45;&gt;Node5</title>
<g id="a_edge6_Node000001_Node000005"><a xlink:title=" ">
<path fill="none" stroke="#63b8ff" d="M337.69,-114.5C352.12,-103.61 370.75,-89.55 382.7,-80.53"/>
<polygon fill="#63b8ff" stroke="#63b8ff" points="335.58,-111.7 329.71,-120.52 339.8,-117.29 335.58,-111.7"/>
</a>
</g>
</g>
<!-- Node6 -->
<g id="Node000006" class="node">
<title>Node6</title>
<g id="a_Node000006"><a xlink:href="../../d9/d45/_transform_error_8hpp.html" target="_top" xlink:title=" ">
<polygon fill="white" stroke="#666666" points="612.16,-85.75 485.16,-85.75 485.16,-55.25 612.16,-55.25 612.16,-85.75"/>
<text text-anchor="start" x="493.16" y="-72.25" font-family="Helvetica,sans-Serif" font-size="10.00">gimo/algorithm/Transform</text>
<text text-anchor="middle" x="548.66" y="-61" font-family="Helvetica,sans-Serif" font-size="10.00">Error.hpp</text>
</a>
</g>
</g>
<!-- Node1&#45;&gt;Node6 -->
<g id="edge8_Node000001_Node000006" class="edge">
<title>Node1&#45;&gt;Node6</title>
<g id="a_edge8_Node000001_Node000006"><a xlink:title=" ">
<path fill="none" stroke="#63b8ff" d="M363.3,-118.54C400.02,-109.22 451.4,-96.18 490.75,-86.19"/>
<polygon fill="#63b8ff" stroke="#63b8ff" points="362.7,-115.08 353.87,-120.93 364.42,-121.87 362.7,-115.08"/>
</a>
</g>
</g>
<!-- Node7 -->
<g id="Node000007" class="node">
<title>Node7</title>
<g id="a_Node000007"><a xlink:href="../../d2/d0b/_value_or_else_8hpp.html" target="_top" xlink:title=" ">
<polygon fill="white" stroke="#666666" points="785.03,-80.12 630.28,-80.12 630.28,-60.88 785.03,-60.88 785.03,-80.12"/>
<text text-anchor="middle" x="707.66" y="-66.62" font-family="Helvetica,sans-Serif" font-size="10.00">gimo/algorithm/ValueOrElse.hpp</text>
</a>
</g>
</g>
<!-- Node1&#45;&gt;Node7 -->
<g id="edge10_Node000001_Node000007" class="edge">
<title>Node1&#45;&gt;Node7</title>
<g id="a_edge10_Node000001_Node000007"><a xlink:title=" ">
<path fill="none" stroke="#63b8ff" d="M374.58,-122.23C435.97,-113.53 535.72,-99.16 621.66,-85.75 632.12,-84.12 643.3,-82.31 654.01,-80.55"/>
<polygon fill="#63b8ff" stroke="#63b8ff" points="374.11,-118.76 364.7,-123.63 375.09,-125.69 374.11,-118.76"/>
</a>
</g>
</g>
<!-- Node3&#45;&gt;Node2 -->
<g id="edge3_Node000003_Node000002" class="edge">
<title>Node3&#45;&gt;Node2</title>
<g id="a_edge3_Node000003_Node000002"><a xlink:title=" ">
<path fill="none" stroke="#63b8ff" d="M132.32,-57.61C179.18,-45.66 249.85,-27.65 288.66,-17.76"/>
<polygon fill="#63b8ff" stroke="#63b8ff" points="131.54,-54.19 122.71,-60.06 133.27,-60.98 131.54,-54.19"/>
</a>
</g>
</g>
<!-- Node4&#45;&gt;Node2 -->
<g id="edge5_Node000004_Node000002" class="edge">
<title>Node4&#45;&gt;Node2</title>
<g id="a_edge5_Node000004_Node000002"><a xlink:title=" ">
<path fill="none" stroke="#63b8ff" d="M259.69,-53.63C274.12,-42.73 292.75,-28.67 304.7,-19.65"/>
<polygon fill="#63b8ff" stroke="#63b8ff" points="257.58,-50.83 251.71,-59.65 261.8,-56.42 257.58,-50.83"/>
</a>
</g>
</g>
<!-- Node5&#45;&gt;Node2 -->
<g id="edge7_Node000005_Node000002" class="edge">
<title>Node5&#45;&gt;Node2</title>
<g id="a_edge7_Node000005_Node000002"><a xlink:title=" ">
<path fill="none" stroke="#63b8ff" d="M373.63,-53.63C359.2,-42.73 340.57,-28.67 328.62,-19.65"/>
<polygon fill="#63b8ff" stroke="#63b8ff" points="371.51,-56.42 381.6,-59.65 375.73,-50.83 371.51,-56.42"/>
</a>
</g>
</g>
<!-- Node6&#45;&gt;Node2 -->
<g id="edge9_Node000006_Node000002" class="edge">
<title>Node6&#45;&gt;Node2</title>
<g id="a_edge9_Node000006_Node000002"><a xlink:title=" ">
<path fill="none" stroke="#63b8ff" d="M479.76,-52.02C434.47,-40.52 377.64,-26.1 344.41,-17.67"/>
<polygon fill="#63b8ff" stroke="#63b8ff" points="478.69,-55.36 489.25,-54.42 480.41,-48.57 478.69,-55.36"/>
</a>
</g>
</g>
<!-- Node7&#45;&gt;Node2 -->
<g id="edge11_Node000007_Node000002" class="edge">
<title>Node7&#45;&gt;Node2</title>
<g id="a_edge11_Node000007_Node000002"><a xlink:title=" ">
<path fill="none" stroke="#63b8ff" d="M642.85,-58.63C635.7,-57.47 628.53,-56.32 621.66,-55.25 519.61,-39.33 398.08,-22.05 344.44,-14.51"/>
<polygon fill="#63b8ff" stroke="#63b8ff" points="642.08,-62.05 652.51,-60.21 643.21,-55.14 642.08,-62.05"/>
</a>
</g>
</g>
</g>
</svg>
