<?xml version="1.0" encoding="UTF-8" standalone="no"?>
<!DOCTYPE svg PUBLIC "-//W3C//DTD SVG 1.1//EN"
 "http://www.w3.org/Graphics/SVG/1.1/DTD/svg11.dtd">
<!-- Generated by graphviz version 12.2.1 (20241206.2353)
 -->
<!-- Title: gimo/algorithm/AndThen.hpp Pages: 1 -->
<svg width="493pt" height="304pt"
 viewBox="0.00 0.00 492.67 303.50" xmlns="http://www.w3.org/2000/svg" xmlns:xlink="http://www.w3.org/1999/xlink">
<g id="graph0" class="graph" transform="scale(1 1) rotate(0) translate(4 299.5)">
<title>gimo/algorithm/AndThen.hpp</title>
<!-- Node1 -->
<g id="Node000001" class="node">
<title>Node1</title>
<g id="a_Node000001"><a xlink:title=" ">
<polygon fill="#999999" stroke="#666666" points="397.38,-295.5 257.62,-295.5 257.62,-276.25 397.38,-276.25 397.38,-295.5"/>
<text text-anchor="middle" x="327.5" y="-282" font-family="Helvetica,sans-Serif" font-size="10.00">gimo/algorithm/AndThen.hpp</text>
</a>
</g>
</g>
<!-- Node2 -->
<g id="Node000002" class="node">
<title>Node2</title>
<g id="a_Node000002"><a xlink:href="../../d3/d58/_common_8hpp.html" target="_top" xlink:title=" ">
<polygon fill="white" stroke="#666666" points="270,-129.75 173,-129.75 173,-110.5 270,-110.5 270,-129.75"/>
<text text-anchor="middle" x="221.5" y="-116.25" font-family="Helvetica,sans-Serif" font-size="10.00">gimo/Common.hpp</text>
</a>
</g>
</g>
<!-- Node1&#45;&gt;Node2 -->
<g id="edge1_Node000001_Node000002" class="edge">
<title>Node1&#45;&gt;Node2</title>
<g id="a_edge1_Node000001_Node000002"><a xlink:title=" ">
<path fill="none" stroke="#63b8ff" d="M312.74,-275.83C300.59,-267.76 283.62,-254.97 272.5,-240.25 249.07,-209.23 234.03,-165.81 226.73,-140.86"/>
<polygon fill="#63b8ff" stroke="#63b8ff" points="230.16,-140.1 224.1,-131.41 223.41,-141.98 230.16,-140.1"/>
</a>
</g>
</g>
<!-- Node7 -->
<g id="Node000007" class="node">
<title>Node7</title>
<g id="a_Node000007"><a xlink:title=" ">
<polygon fill="#e0e0e0" stroke="#999999" points="61,-74.5 0,-74.5 0,-55.25 61,-55.25 61,-74.5"/>
<text text-anchor="middle" x="30.5" y="-61" font-family="Helvetica,sans-Serif" font-size="10.00">type_traits</text>
</a>
</g>
</g>
<!-- Node1&#45;&gt;Node7 -->
<g id="edge23_Node000001_Node000007" class="edge">
<title>Node1&#45;&gt;Node7</title>
<g id="a_edge23_Node000001_Node000007"><a xlink:title=" ">
<path fill="none" stroke="#63b8ff" d="M257.2,-280.48C189.74,-272.36 90.01,-249.44 33.5,-185 9.48,-157.61 17.09,-111.53 24.18,-85.44"/>
<polygon fill="#63b8ff" stroke="#63b8ff" points="27.44,-86.73 26.94,-76.15 20.73,-84.73 27.44,-86.73"/>
</a>
</g>
</g>
<!-- Node8 -->
<g id="Node000008" class="node">
<title>Node8</title>
<g id="a_Node000008"><a xlink:title=" ">
<polygon fill="#e0e0e0" stroke="#999999" points="359.75,-74.5 321.25,-74.5 321.25,-55.25 359.75,-55.25 359.75,-74.5"/>
<text text-anchor="middle" x="340.5" y="-61" font-family="Helvetica,sans-Serif" font-size="10.00">utility</text>
</a>
</g>
</g>
<!-- Node1&#45;&gt;Node8 -->
<g id="edge24_Node000001_Node000008" class="edge">
<title>Node1&#45;&gt;Node8</title>
<g id="a_edge24_Node000001_Node000008"><a xlink:title=" ">
<path fill="none" stroke="#63b8ff" d="M359.5,-275.76C397.69,-262.83 459.07,-235 480.5,-185 504.01,-130.14 418.46,-91.86 370.65,-75.22"/>
<polygon fill="#63b8ff" stroke="#63b8ff" points="371.98,-71.97 361.38,-72.11 369.75,-78.61 371.98,-71.97"/>
</a>
</g>
</g>
<!-- Node9 -->
<g id="Node000009" class="node">
<title>Node9</title>
<g id="a_Node000009"><a xlink:href="../../d1/da8/_pipeline_8hpp.html" target="_top" xlink:title=" ">
<polygon fill="white" stroke="#666666" points="373.75,-240.25 281.25,-240.25 281.25,-221 373.75,-221 373.75,-240.25"/>
<text text-anchor="middle" x="327.5" y="-226.75" font-family="Helvetica,sans-Serif" font-size="10.00">gimo/Pipeline.hpp</text>
</a>
</g>
</g>
<!-- Node1&#45;&gt;Node9 -->
<g id="edge8_Node000001_Node000009" class="edge">
<title>Node1&#45;&gt;Node9</title>
<g id="a_edge8_Node000001_Node000009"><a xlink:title=" ">
<path fill="none" stroke="#63b8ff" d="M327.5,-276.08C327.5,-269.57 327.5,-260.42 327.5,-252.12"/>
<polygon fill="#63b8ff" stroke="#63b8ff" points="331,-252.12 327.5,-242.12 324,-252.12 331,-252.12"/>
</a>
</g>
</g>
<!-- Node10 -->
<g id="Node000010" class="node">
<title>Node10</title>
<g id="a_Node000010"><a xlink:href="../../de/dca/_basic_algorithm_8hpp.html" target="_top" xlink:title=" ">
<polygon fill="white" stroke="#666666" points="225.88,-185 59.12,-185 59.12,-165.75 225.88,-165.75 225.88,-185"/>
<text text-anchor="middle" x="142.5" y="-171.5" font-family="Helvetica,sans-Serif" font-size="10.00">gimo/algorithm/BasicAlgorithm.hpp</text>
</a>
</g>
</g>
<!-- Node1&#45;&gt;Node10 -->
<g id="edge20_Node000001_Node000010" class="edge">
<title>Node1&#45;&gt;Node10</title>
<g id="a_edge20_Node000001_Node000010"><a xlink:title=" ">
<path fill="none" stroke="#63b8ff" d="M308.29,-275.91C290.23,-267.3 262.61,-253.66 239.5,-240.25 213.04,-224.89 183.87,-205.3 164.5,-191.89"/>
<polygon fill="#63b8ff" stroke="#63b8ff" points="166.52,-189.03 156.32,-186.18 162.52,-194.78 166.52,-189.03"/>
</a>
</g>
</g>
<!-- Node11 -->
<g id="Node000011" class="node">
<title>Node11</title>
<g id="a_Node000011"><a xlink:title=" ">
<polygon fill="#e0e0e0" stroke="#999999" points="415.5,-185 357.5,-185 357.5,-165.75 415.5,-165.75 415.5,-185"/>
<text text-anchor="middle" x="386.5" y="-171.5" font-family="Helvetica,sans-Serif" font-size="10.00">functional</text>
</a>
</g>
</g>
<!-- Node1&#45;&gt;Node11 -->
<g id="edge21_Node000001_Node000011" class="edge">
<title>Node1&#45;&gt;Node11</title>
<g id="a_edge21_Node000001_Node000011"><a xlink:title=" ">
<path fill="none" stroke="#63b8ff" d="M345.21,-275.76C358,-268.14 374.39,-255.99 382.5,-240.25 389.44,-226.78 390.12,-209.53 389.24,-196.35"/>
<polygon fill="#63b8ff" stroke="#63b8ff" points="392.76,-196.31 388.23,-186.73 385.8,-197.04 392.76,-196.31"/>
</a>
</g>
</g>
<!-- Node12 -->
<g id="Node000012" class="node">
<title>Node12</title>
<g id="a_Node000012"><a xlink:title=" ">
<polygon fill="#e0e0e0" stroke="#999999" points="471,-185 434,-185 434,-165.75 471,-165.75 471,-185"/>
<text text-anchor="middle" x="452.5" y="-171.5" font-family="Helvetica,sans-Serif" font-size="10.00">tuple</text>
</a>
</g>
</g>
<!-- Node1&#45;&gt;Node12 -->
<g id="edge22_Node000001_Node000012" class="edge">
<title>Node1&#45;&gt;Node12</title>
<g id="a_edge22_Node000001_Node000012"><a xlink:title=" ">
<path fill="none" stroke="#63b8ff" d="M345.45,-275.87C360.71,-267.74 382.75,-254.83 399.5,-240.25 415.09,-226.68 429.85,-208.26 439.81,-194.69"/>
<polygon fill="#63b8ff" stroke="#63b8ff" points="442.59,-196.82 445.55,-186.65 436.89,-192.75 442.59,-196.82"/>
</a>
</g>
</g>
<!-- Node3 -->
<g id="Node000003" class="node">
<title>Node3</title>
<g id="a_Node000003"><a xlink:href="../../d8/dd2/_config_8hpp.html" target="_top" xlink:title=" ">
<polygon fill="white" stroke="#666666" points="237,-74.5 152,-74.5 152,-55.25 237,-55.25 237,-74.5"/>
<text text-anchor="middle" x="194.5" y="-61" font-family="Helvetica,sans-Serif" font-size="10.00">gimo/Config.hpp</text>
</a>
</g>
</g>
<!-- Node2&#45;&gt;Node3 -->
<g id="edge2_Node000002_Node000003" class="edge">
<title>Node2&#45;&gt;Node3</title>
<g id="a_edge2_Node000002_Node000003"><a xlink:title=" ">
<path fill="none" stroke="#63b8ff" d="M217.04,-110.33C213.55,-103.44 208.55,-93.59 204.15,-84.91"/>
<polygon fill="#63b8ff" stroke="#63b8ff" points="207.38,-83.55 199.74,-76.21 201.14,-86.71 207.38,-83.55"/>
</a>
</g>
</g>
<!-- Node5 -->
<g id="Node000005" class="node">
<title>Node5</title>
<g id="a_Node000005"><a xlink:title=" ">
<polygon fill="#e0e0e0" stroke="#999999" points="134.38,-74.5 78.62,-74.5 78.62,-55.25 134.38,-55.25 134.38,-74.5"/>
<text text-anchor="middle" x="106.5" y="-61" font-family="Helvetica,sans-Serif" font-size="10.00">concepts</text>
</a>
</g>
</g>
<!-- Node2&#45;&gt;Node5 -->
<g id="edge4_Node000002_Node000005" class="edge">
<title>Node2&#45;&gt;Node5</title>
<g id="a_edge4_Node000002_Node000005"><a xlink:title=" ">
<path fill="none" stroke="#63b8ff" d="M201.99,-110.09C183.98,-101.75 156.98,-89.25 136.27,-79.66"/>
<polygon fill="#63b8ff" stroke="#63b8ff" points="138.02,-76.61 127.48,-75.59 135.08,-82.97 138.02,-76.61"/>
</a>
</g>
</g>
<!-- Node6 -->
<g id="Node000006" class="node">
<title>Node6</title>
<g id="a_Node000006"><a xlink:title=" ">
<polygon fill="#e0e0e0" stroke="#999999" points="303.62,-74.5 255.38,-74.5 255.38,-55.25 303.62,-55.25 303.62,-74.5"/>
<text text-anchor="middle" x="279.5" y="-61" font-family="Helvetica,sans-Serif" font-size="10.00">cstddef</text>
</a>
</g>
</g>
<!-- Node2&#45;&gt;Node6 -->
<g id="edge5_Node000002_Node000006" class="edge">
<title>Node2&#45;&gt;Node6</title>
<g id="a_edge5_Node000002_Node000006"><a xlink:title=" ">
<path fill="none" stroke="#63b8ff" d="M231.34,-110.09C239.55,-102.55 251.48,-91.6 261.41,-82.48"/>
<polygon fill="#63b8ff" stroke="#63b8ff" points="263.69,-85.14 268.69,-75.8 258.96,-79.98 263.69,-85.14"/>
</a>
</g>
</g>
<!-- Node2&#45;&gt;Node7 -->
<g id="edge6_Node000002_Node000007" class="edge">
<title>Node2&#45;&gt;Node7</title>
<g id="a_edge6_Node000002_Node000007"><a xlink:title=" ">
<path fill="none" stroke="#63b8ff" d="M189.1,-110.09C156.93,-101.12 107.46,-87.33 72.33,-77.54"/>
<polygon fill="#63b8ff" stroke="#63b8ff" points="73.51,-74.23 62.93,-74.92 71.63,-80.97 73.51,-74.23"/>
</a>
</g>
</g>
<!-- Node2&#45;&gt;Node8 -->
<g id="edge7_Node000002_Node000008" class="edge">
<title>Node2&#45;&gt;Node8</title>
<g id="a_edge7_Node000002_Node000008"><a xlink:title=" ">
<path fill="none" stroke="#63b8ff" d="M241.69,-110.09C260.63,-101.61 289.21,-88.83 310.76,-79.18"/>
<polygon fill="#63b8ff" stroke="#63b8ff" points="311.93,-82.5 319.62,-75.22 309.07,-76.11 311.93,-82.5"/>
</a>
</g>
</g>
<!-- Node4 -->
<g id="Node000004" class="node">
<title>Node4</title>
<g id="a_Node000004"><a xlink:title=" ">
<polygon fill="#e0e0e0" stroke="#999999" points="218.62,-19.25 170.38,-19.25 170.38,0 218.62,0 218.62,-19.25"/>
<text text-anchor="middle" x="194.5" y="-5.75" font-family="Helvetica,sans-Serif" font-size="10.00">cassert</text>
</a>
</g>
</g>
<!-- Node3&#45;&gt;Node4 -->
<g id="edge3_Node000003_Node000004" class="edge">
<title>Node3&#45;&gt;Node4</title>
<g id="a_edge3_Node000003_Node000004"><a xlink:title=" ">
<path fill="none" stroke="#63b8ff" d="M194.5,-55.08C194.5,-48.57 194.5,-39.42 194.5,-31.12"/>
<polygon fill="#63b8ff" stroke="#63b8ff" points="198,-31.12 194.5,-21.12 191,-31.12 198,-31.12"/>
</a>
</g>
</g>
<!-- Node9&#45;&gt;Node2 -->
<g id="edge9_Node000009_Node000002" class="edge">
<title>Node9&#45;&gt;Node2</title>
<g id="a_edge9_Node000009_Node000002"><a xlink:title=" ">
<path fill="none" stroke="#63b8ff" d="M319.47,-220.83C308.08,-208.39 286.49,-185.05 267.5,-165.75 258.35,-156.45 247.93,-146.31 239.32,-138.04"/>
<polygon fill="#63b8ff" stroke="#63b8ff" points="241.88,-135.65 232.24,-131.27 237.05,-140.71 241.88,-135.65"/>
</a>
</g>
</g>
<!-- Node9&#45;&gt;Node7 -->
<g id="edge18_Node000009_Node000007" class="edge">
<title>Node9&#45;&gt;Node7</title>
<g id="a_edge18_Node000009_Node000007"><a xlink:title=" ">
<path fill="none" stroke="#63b8ff" d="M280.78,-228.48C210.43,-225.74 82.16,-216.45 50.5,-185 24.42,-159.09 24.68,-112.8 27.43,-86.2"/>
<polygon fill="#63b8ff" stroke="#63b8ff" points="30.89,-86.76 28.69,-76.39 23.95,-85.87 30.89,-86.76"/>
</a>
</g>
</g>
<!-- Node9&#45;&gt;Node8 -->
<g id="edge19_Node000009_Node000008" class="edge">
<title>Node9&#45;&gt;Node8</title>
<g id="a_edge19_Node000009_Node000008"><a xlink:title=" ">
<path fill="none" stroke="#63b8ff" d="M328.2,-220.82C330.21,-195.5 336.04,-122 338.9,-86.09"/>
<polygon fill="#63b8ff" stroke="#63b8ff" points="342.38,-86.48 339.68,-76.23 335.4,-85.92 342.38,-86.48"/>
</a>
</g>
</g>
<!-- Node9&#45;&gt;Node10 -->
<g id="edge10_Node000009_Node000010" class="edge">
<title>Node9&#45;&gt;Node10</title>
<g id="a_edge10_Node000009_Node000010"><a xlink:title=" ">
<path fill="none" stroke="#63b8ff" d="M296.12,-220.59C265.55,-211.79 218.88,-198.36 184.99,-188.61"/>
<polygon fill="#63b8ff" stroke="#63b8ff" points="186.07,-185.27 175.49,-185.87 184.13,-192 186.07,-185.27"/>
</a>
</g>
</g>
<!-- Node9&#45;&gt;Node11 -->
<g id="edge16_Node000009_Node000011" class="edge">
<title>Node9&#45;&gt;Node11</title>
<g id="a_edge16_Node000009_Node000011"><a xlink:title=" ">
<path fill="none" stroke="#63b8ff" d="M337.51,-220.59C345.87,-213.05 358,-202.1 368.1,-192.98"/>
<polygon fill="#63b8ff" stroke="#63b8ff" points="370.44,-195.59 375.52,-186.29 365.75,-190.39 370.44,-195.59"/>
</a>
</g>
</g>
<!-- Node9&#45;&gt;Node12 -->
<g id="edge17_Node000009_Node000012" class="edge">
<title>Node9&#45;&gt;Node12</title>
<g id="a_edge17_Node000009_Node000012"><a xlink:title=" ">
<path fill="none" stroke="#63b8ff" d="M348.7,-220.59C369.18,-211.87 400.35,-198.59 423.19,-188.86"/>
<polygon fill="#63b8ff" stroke="#63b8ff" points="424.43,-192.14 432.26,-185 421.68,-185.7 424.43,-192.14"/>
</a>
</g>
</g>
<!-- Node10&#45;&gt;Node2 -->
<g id="edge11_Node000010_Node000002" class="edge">
<title>Node10&#45;&gt;Node2</title>
<g id="a_edge11_Node000010_Node000002"><a xlink:title=" ">
<path fill="none" stroke="#63b8ff" d="M155.9,-165.34C167.59,-157.46 184.8,-145.86 198.66,-136.52"/>
<polygon fill="#63b8ff" stroke="#63b8ff" points="200.44,-139.54 206.78,-131.05 196.53,-133.74 200.44,-139.54"/>
</a>
</g>
</g>
<!-- Node10&#45;&gt;Node3 -->
<g id="edge12_Node000010_Node000003" class="edge">
<title>Node10&#45;&gt;Node3</title>
<g id="a_edge12_Node000010_Node000003"><a xlink:title=" ">
<path fill="none" stroke="#63b8ff" d="M144.79,-165.4C148.2,-152.77 155.2,-129.19 164.5,-110.5 169.07,-101.32 175.24,-91.8 180.8,-83.92"/>
<polygon fill="#63b8ff" stroke="#63b8ff" points="183.59,-86.04 186.67,-75.9 177.94,-81.9 183.59,-86.04"/>
</a>
</g>
</g>
<!-- Node10&#45;&gt;Node5 -->
<g id="edge13_Node000010_Node000005" class="edge">
<title>Node10&#45;&gt;Node5</title>
<g id="a_edge13_Node000010_Node000005"><a xlink:title=" ">
<path fill="none" stroke="#63b8ff" d="M139.55,-165.5C133.81,-148.17 120.97,-109.48 113.09,-85.74"/>
<polygon fill="#63b8ff" stroke="#63b8ff" points="116.43,-84.7 109.96,-76.31 109.79,-86.91 116.43,-84.7"/>
</a>
</g>
</g>
<!-- Node10&#45;&gt;Node7 -->
<g id="edge14_Node000010_Node000007" class="edge">
<title>Node10&#45;&gt;Node7</title>
<g id="a_edge14_Node000010_Node000007"><a xlink:title=" ">
<path fill="none" stroke="#63b8ff" d="M133.33,-165.5C114.71,-147.46 72.17,-106.25 48.05,-82.88"/>
<polygon fill="#63b8ff" stroke="#63b8ff" points="50.5,-80.37 40.88,-75.93 45.63,-85.4 50.5,-80.37"/>
</a>
</g>
</g>
<!-- Node10&#45;&gt;Node8 -->
<g id="edge15_Node000010_Node000008" class="edge">
<title>Node10&#45;&gt;Node8</title>
<g id="a_edge15_Node000010_Node000008"><a xlink:title=" ">
<path fill="none" stroke="#63b8ff" d="M189.07,-165.25C216.81,-158.39 251.87,-147.14 279.5,-129.75 298.9,-117.54 316.45,-97.81 327.69,-83.5"/>
<polygon fill="#63b8ff" stroke="#63b8ff" points="330.25,-85.92 333.49,-75.83 324.67,-81.69 330.25,-85.92"/>
</a>
</g>
</g>
</g>
</svg>
