<?xml version="1.0" encoding="UTF-8" standalone="no"?>
<!DOCTYPE svg PUBLIC "-//W3C//DTD SVG 1.1//EN"
 "http://www.w3.org/Graphics/SVG/1.1/DTD/svg11.dtd">
<!-- Generated by graphviz version 12.2.1 (20241206.2353)
 -->
<!-- Title: gimo/algorithm/Transform.hpp Pages: 1 -->
<!--zoomable 248 -->

<svg id="main" version="1.1" xmlns="http://www.w3.org/2000/svg" xmlns:xlink="http://www.w3.org/1999/xlink" xml:space="preserve" onload="init(evt)">

<style type="text/css"><![CDATA[
.node, .edge {opacity: 0.7;}
.node.selected, .edge.selected {opacity: 1;}
.edge:hover path { stroke: red; }
.edge:hover polygon { stroke: red; fill: red; }
]]></style>

<defs>
  <circle id="rim" cx="0" cy="0" r="7"/>
  <circle id="rim2" cx="0" cy="0" r="3.5"/>
  <g id="zoomPlus">
    <use xlink:href="#rim" fill="#404040"><set attributeName="fill" to="#808080" begin="zoomplus.mouseover" end="zoomplus.mouseout"/></use>
    <path d="M-4,0h8M0,-4v8" fill="none" stroke="white" stroke-width="1.5" pointer-events="none"/>
  </g>
  <g id="zoomMin">
    <use xlink:href="#rim" fill="#404040"><set attributeName="fill" to="#808080" begin="zoomminus.mouseover" end="zoomminus.mouseout"/></use>
    <path d="M-4,0h8" fill="none" stroke="white" stroke-width="1.5" pointer-events="none"/>
  </g>
  <g id="arrowUp" transform="translate(30 24)">
    <use xlink:href="#rim"/>
    <path pointer-events="none" fill="none" stroke="white" stroke-width="1.5" d="M0,-3.0v7 M-2.5,-0.5L0,-3.0L2.5,-0.5"/>
  </g>
  <g id="arrowRight" transform="rotate(90) translate(36 -43)">
    <use xlink:href="#rim"/>
    <path pointer-events="none" fill="none" stroke="white" stroke-width="1.5" d="M0,-3.0v7 M-2.5,-0.5L0,-3.0L2.5,-0.5"/>
  </g>
  <g id="arrowDown" transform="rotate(180) translate(-30 -48)">
    <use xlink:href="#rim"/>
    <path pointer-events="none" fill="none" stroke="white" stroke-width="1.5" d="M0,-3.0v7 M-2.5,-0.5L0,-3.0L2.5,-0.5"/>
  </g>
  <g id="arrowLeft" transform="rotate(270) translate(-36 17)">
    <use xlink:href="#rim"/>
    <path pointer-events="none" fill="none" stroke="white" stroke-width="1.5" d="M0,-3.0v7 M-2.5,-0.5L0,-3.0L2.5,-0.5"/>
  </g>
  <g id="resetDef">
    <use xlink:href="#rim2" fill="#404040"><set attributeName="fill" to="#808080" begin="reset.mouseover" end="reset.mouseout"/></use>
  </g>
</defs>
<script type="application/ecmascript">
var viewWidth = 556;
var viewHeight = 248;
var sectionId = 'dynsection-0';
</script>
<script type="application/ecmascript" xlink:href="../../svg.min.js"/>
<svg id="graph" class="graph">
<g id="viewport">
<title>gimo/algorithm/Transform.hpp</title>
<!-- Node1 -->
<g id="Node000001" class="node">
<title>Node1</title>
<g id="a_Node000001"><a xlink:title=" ">
<polygon fill="#999999" stroke="#666666" points="443.38,-240.25 298.38,-240.25 298.38,-221 443.38,-221 443.38,-240.25"/>
<text text-anchor="middle" x="370.88" y="-226.75" font-family="Helvetica,sans-Serif" font-size="10.00">gimo/algorithm/Transform.hpp</text>
</a>
</g>
</g>
<!-- Node2 -->
<g id="Node000002" class="node">
<title>Node2</title>
<g id="a_Node000002"><a xlink:href="../../d3/d58/_common_8hpp.html" target="_top" xlink:title=" ">
<polygon fill="white" stroke="#666666" points="207.38,-129.75 110.38,-129.75 110.38,-110.5 207.38,-110.5 207.38,-129.75"/>
<text text-anchor="middle" x="158.88" y="-116.25" font-family="Helvetica,sans-Serif" font-size="10.00">gimo/Common.hpp</text>
</a>
</g>
</g>
<!-- Node1&#45;&gt;Node2 -->
<g id="edge1_Node000001_Node000002" class="edge">
<title>Node1&#45;&gt;Node2</title>
<g id="a_edge1_Node000001_Node000002"><a xlink:title=" ">
<path fill="none" stroke="#63b8ff" d="M298.07,-229.28C218.86,-227.17 99.63,-218.35 70.88,-185 52.4,-163.58 85.7,-145.35 116.49,-133.92"/>
<polygon fill="#63b8ff" stroke="#63b8ff" points="117.49,-137.28 125.76,-130.66 115.17,-130.67 117.49,-137.28"/>
</a>
</g>
</g>
<!-- Node7 -->
<g id="Node000007" class="node">
<title>Node7</title>
<g id="a_Node000007"><a xlink:title=" ">
<polygon fill="#e0e0e0" stroke="#999999" points="304.38,-74.5 243.38,-74.5 243.38,-55.25 304.38,-55.25 304.38,-74.5"/>
<text text-anchor="middle" x="273.88" y="-61" font-family="Helvetica,sans-Serif" font-size="10.00">type_traits</text>
</a>
</g>
</g>
<!-- Node1&#45;&gt;Node7 -->
<g id="edge22_Node000001_Node000007" class="edge">
<title>Node1&#45;&gt;Node7</title>
<g id="a_edge22_Node000001_Node000007"><a xlink:title=" ">
<path fill="none" stroke="#63b8ff" d="M355.86,-220.76C343.56,-212.8 326.5,-200.07 315.88,-185 294.14,-154.17 282.65,-110.99 277.45,-85.97"/>
<polygon fill="#63b8ff" stroke="#63b8ff" points="280.9,-85.35 275.57,-76.19 274.02,-86.67 280.9,-85.35"/>
</a>
</g>
</g>
<!-- Node8 -->
<g id="Node000008" class="node">
<title>Node8</title>
<g id="a_Node000008"><a xlink:title=" ">
<polygon fill="#e0e0e0" stroke="#999999" points="384.12,-74.5 345.62,-74.5 345.62,-55.25 384.12,-55.25 384.12,-74.5"/>
<text text-anchor="middle" x="364.88" y="-61" font-family="Helvetica,sans-Serif" font-size="10.00">utility</text>
</a>
</g>
</g>
<!-- Node1&#45;&gt;Node8 -->
<g id="edge23_Node000001_Node000008" class="edge">
<title>Node1&#45;&gt;Node8</title>
<g id="a_edge23_Node000001_Node000008"><a xlink:title=" ">
<path fill="none" stroke="#63b8ff" d="M407.4,-220.52C468.4,-203.59 580.41,-164.03 538.88,-110.5 521.46,-88.05 440.68,-74.95 395.56,-69.26"/>
<polygon fill="#63b8ff" stroke="#63b8ff" points="396.24,-65.82 385.9,-68.1 395.41,-72.77 396.24,-65.82"/>
</a>
</g>
</g>
<!-- Node9 -->
<g id="Node000009" class="node">
<title>Node9</title>
<g id="a_Node000009"><a xlink:href="../../d1/da8/_pipeline_8hpp.html" target="_top" xlink:title=" ">
<polygon fill="white" stroke="#666666" points="417.12,-185 324.62,-185 324.62,-165.75 417.12,-165.75 417.12,-185"/>
<text text-anchor="middle" x="370.88" y="-171.5" font-family="Helvetica,sans-Serif" font-size="10.00">gimo/Pipeline.hpp</text>
</a>
</g>
</g>
<!-- Node1&#45;&gt;Node9 -->
<g id="edge8_Node000001_Node000009" class="edge">
<title>Node1&#45;&gt;Node9</title>
<g id="a_edge8_Node000001_Node000009"><a xlink:title=" ">
<path fill="none" stroke="#63b8ff" d="M370.88,-220.83C370.88,-214.32 370.88,-205.17 370.88,-196.87"/>
<polygon fill="#63b8ff" stroke="#63b8ff" points="374.38,-196.87 370.88,-186.87 367.38,-196.87 374.38,-196.87"/>
</a>
</g>
</g>
<!-- Node10 -->
<g id="Node000010" class="node">
<title>Node10</title>
<g id="a_Node000010"><a xlink:title=" ">
<polygon fill="#e0e0e0" stroke="#999999" points="473.88,-129.75 415.88,-129.75 415.88,-110.5 473.88,-110.5 473.88,-129.75"/>
<text text-anchor="middle" x="444.88" y="-116.25" font-family="Helvetica,sans-Serif" font-size="10.00">functional</text>
</a>
</g>
</g>
<!-- Node1&#45;&gt;Node10 -->
<g id="edge20_Node000001_Node000010" class="edge">
<title>Node1&#45;&gt;Node10</title>
<g id="a_edge20_Node000001_Node000010"><a xlink:title=" ">
<path fill="none" stroke="#63b8ff" d="M386.58,-220.58C398.96,-212.68 415.76,-200.13 425.88,-185 434.64,-171.88 439.46,-154.61 442.05,-141.33"/>
<polygon fill="#63b8ff" stroke="#63b8ff" points="445.48,-142.02 443.66,-131.59 438.58,-140.88 445.48,-142.02"/>
</a>
</g>
</g>
<!-- Node11 -->
<g id="Node000011" class="node">
<title>Node11</title>
<g id="a_Node000011"><a xlink:title=" ">
<polygon fill="#e0e0e0" stroke="#999999" points="529.38,-129.75 492.38,-129.75 492.38,-110.5 529.38,-110.5 529.38,-129.75"/>
<text text-anchor="middle" x="510.88" y="-116.25" font-family="Helvetica,sans-Serif" font-size="10.00">tuple</text>
</a>
</g>
</g>
<!-- Node1&#45;&gt;Node11 -->
<g id="edge21_Node000001_Node000011" class="edge">
<title>Node1&#45;&gt;Node11</title>
<g id="a_edge21_Node000001_Node000011"><a xlink:title=" ">
<path fill="none" stroke="#63b8ff" d="M387.77,-220.65C403,-212.25 425.74,-198.94 443.88,-185 462.69,-170.54 482.09,-151.51 495.14,-138"/>
<polygon fill="#63b8ff" stroke="#63b8ff" points="497.34,-140.77 501.69,-131.11 492.26,-135.95 497.34,-140.77"/>
</a>
</g>
</g>
<!-- Node12 -->
<g id="Node000012" class="node">
<title>Node12</title>
<g id="a_Node000012"><a xlink:href="../../de/dca/_basic_algorithm_8hpp.html" target="_top" xlink:title=" ">
<polygon fill="white" stroke="#666666" points="246.25,-185 79.5,-185 79.5,-165.75 246.25,-165.75 246.25,-185"/>
<text text-anchor="middle" x="162.88" y="-171.5" font-family="Helvetica,sans-Serif" font-size="10.00">gimo/algorithm/BasicAlgorithm.hpp</text>
</a>
</g>
</g>
<!-- Node1&#45;&gt;Node12 -->
<g id="edge14_Node000001_Node000012" class="edge">
<title>Node1&#45;&gt;Node12</title>
<g id="a_edge14_Node000001_Node000012"><a xlink:title=" ">
<path fill="none" stroke="#63b8ff" d="M335.59,-220.59C300.78,-211.68 247.37,-198.01 209.17,-188.23"/>
<polygon fill="#63b8ff" stroke="#63b8ff" points="210.35,-184.92 199.8,-185.83 208.62,-191.7 210.35,-184.92"/>
</a>
</g>
</g>
<!-- Node3 -->
<g id="Node000003" class="node">
<title>Node3</title>
<g id="a_Node000003"><a xlink:href="../../d8/dd2/_config_8hpp.html" target="_top" xlink:title=" ">
<polygon fill="white" stroke="#666666" points="158.38,-74.5 73.38,-74.5 73.38,-55.25 158.38,-55.25 158.38,-74.5"/>
<text text-anchor="middle" x="115.88" y="-61" font-family="Helvetica,sans-Serif" font-size="10.00">gimo/Config.hpp</text>
</a>
</g>
</g>
<!-- Node2&#45;&gt;Node3 -->
<g id="edge2_Node000002_Node000003" class="edge">
<title>Node2&#45;&gt;Node3</title>
<g id="a_edge2_Node000002_Node000003"><a xlink:title=" ">
<path fill="none" stroke="#63b8ff" d="M151.77,-110.33C145.96,-103.13 137.54,-92.71 130.32,-83.76"/>
<polygon fill="#63b8ff" stroke="#63b8ff" points="133.09,-81.62 124.08,-76.04 127.64,-86.02 133.09,-81.62"/>
</a>
</g>
</g>
<!-- Node5 -->
<g id="Node000005" class="node">
<title>Node5</title>
<g id="a_Node000005"><a xlink:title=" ">
<polygon fill="#e0e0e0" stroke="#999999" points="55.75,-74.5 0,-74.5 0,-55.25 55.75,-55.25 55.75,-74.5"/>
<text text-anchor="middle" x="27.88" y="-61" font-family="Helvetica,sans-Serif" font-size="10.00">concepts</text>
</a>
</g>
</g>
<!-- Node2&#45;&gt;Node5 -->
<g id="edge4_Node000002_Node000005" class="edge">
<title>Node2&#45;&gt;Node5</title>
<g id="a_edge4_Node000002_Node000005"><a xlink:title=" ">
<path fill="none" stroke="#63b8ff" d="M136.65,-110.09C115.86,-101.64 84.53,-88.9 60.82,-79.27"/>
<polygon fill="#63b8ff" stroke="#63b8ff" points="62.19,-76.05 51.61,-75.52 59.55,-82.53 62.19,-76.05"/>
</a>
</g>
</g>
<!-- Node6 -->
<g id="Node000006" class="node">
<title>Node6</title>
<g id="a_Node000006"><a xlink:title=" ">
<polygon fill="#e0e0e0" stroke="#999999" points="225,-74.5 176.75,-74.5 176.75,-55.25 225,-55.25 225,-74.5"/>
<text text-anchor="middle" x="200.88" y="-61" font-family="Helvetica,sans-Serif" font-size="10.00">cstddef</text>
</a>
</g>
</g>
<!-- Node2&#45;&gt;Node6 -->
<g id="edge5_Node000002_Node000006" class="edge">
<title>Node2&#45;&gt;Node6</title>
<g id="a_edge5_Node000002_Node000006"><a xlink:title=" ">
<path fill="none" stroke="#63b8ff" d="M165.81,-110.33C171.49,-103.13 179.71,-92.71 186.77,-83.76"/>
<polygon fill="#63b8ff" stroke="#63b8ff" points="189.41,-86.07 192.85,-76.05 183.91,-81.73 189.41,-86.07"/>
</a>
</g>
</g>
<!-- Node2&#45;&gt;Node7 -->
<g id="edge6_Node000002_Node000007" class="edge">
<title>Node2&#45;&gt;Node7</title>
<g id="a_edge6_Node000002_Node000007"><a xlink:title=" ">
<path fill="none" stroke="#63b8ff" d="M178.38,-110.09C196.39,-101.75 223.4,-89.25 244.1,-79.66"/>
<polygon fill="#63b8ff" stroke="#63b8ff" points="245.29,-82.97 252.9,-75.59 242.35,-76.61 245.29,-82.97"/>
</a>
</g>
</g>
<!-- Node2&#45;&gt;Node8 -->
<g id="edge7_Node000002_Node000008" class="edge">
<title>Node2&#45;&gt;Node8</title>
<g id="a_edge7_Node000002_Node000008"><a xlink:title=" ">
<path fill="none" stroke="#63b8ff" d="M193.82,-110.09C233.35,-99.87 297.09,-83.4 334.59,-73.7"/>
<polygon fill="#63b8ff" stroke="#63b8ff" points="335.06,-77.2 343.86,-71.31 333.3,-70.42 335.06,-77.2"/>
</a>
</g>
</g>
<!-- Node4 -->
<g id="Node000004" class="node">
<title>Node4</title>
<g id="a_Node000004"><a xlink:title=" ">
<polygon fill="#e0e0e0" stroke="#999999" points="140,-19.25 91.75,-19.25 91.75,0 140,0 140,-19.25"/>
<text text-anchor="middle" x="115.88" y="-5.75" font-family="Helvetica,sans-Serif" font-size="10.00">cassert</text>
</a>
</g>
</g>
<!-- Node3&#45;&gt;Node4 -->
<g id="edge3_Node000003_Node000004" class="edge">
<title>Node3&#45;&gt;Node4</title>
<g id="a_edge3_Node000003_Node000004"><a xlink:title=" ">
<path fill="none" stroke="#63b8ff" d="M115.88,-55.08C115.88,-48.57 115.88,-39.42 115.88,-31.12"/>
<polygon fill="#63b8ff" stroke="#63b8ff" points="119.38,-31.12 115.88,-21.12 112.38,-31.12 119.38,-31.12"/>
</a>
</g>
</g>
<!-- Node9&#45;&gt;Node2 -->
<g id="edge9_Node000009_Node000002" class="edge">
<title>Node9&#45;&gt;Node2</title>
<g id="a_edge9_Node000009_Node000002"><a xlink:title=" ">
<path fill="none" stroke="#63b8ff" d="M334.91,-165.34C299.43,-156.43 245,-142.76 206.06,-132.98"/>
<polygon fill="#63b8ff" stroke="#63b8ff" points="207.03,-129.61 196.48,-130.57 205.33,-136.4 207.03,-129.61"/>
</a>
</g>
</g>
<!-- Node9&#45;&gt;Node7 -->
<g id="edge12_Node000009_Node000007" class="edge">
<title>Node9&#45;&gt;Node7</title>
<g id="a_edge12_Node000009_Node000007"><a xlink:title=" ">
<path fill="none" stroke="#63b8ff" d="M362.94,-165.5C346.88,-147.53 310.29,-106.61 289.35,-83.19"/>
<polygon fill="#63b8ff" stroke="#63b8ff" points="292.21,-81.13 282.93,-76.01 286.99,-85.79 292.21,-81.13"/>
</a>
</g>
</g>
<!-- Node9&#45;&gt;Node8 -->
<g id="edge13_Node000009_Node000008" class="edge">
<title>Node9&#45;&gt;Node8</title>
<g id="a_edge13_Node000009_Node000008"><a xlink:title=" ">
<path fill="none" stroke="#63b8ff" d="M370.38,-165.5C369.43,-148.25 367.31,-109.83 365.99,-86.06"/>
<polygon fill="#63b8ff" stroke="#63b8ff" points="369.5,-86.18 365.46,-76.39 362.51,-86.57 369.5,-86.18"/>
</a>
</g>
</g>
<!-- Node9&#45;&gt;Node10 -->
<g id="edge10_Node000009_Node000010" class="edge">
<title>Node9&#45;&gt;Node10</title>
<g id="a_edge10_Node000009_Node000010"><a xlink:title=" ">
<path fill="none" stroke="#63b8ff" d="M383.43,-165.34C394.34,-157.49 410.38,-145.95 423.34,-136.62"/>
<polygon fill="#63b8ff" stroke="#63b8ff" points="425.21,-139.59 431.28,-130.91 421.12,-133.91 425.21,-139.59"/>
</a>
</g>
</g>
<!-- Node9&#45;&gt;Node11 -->
<g id="edge11_Node000009_Node000011" class="edge">
<title>Node9&#45;&gt;Node11</title>
<g id="a_edge11_Node000009_Node000011"><a xlink:title=" ">
<path fill="none" stroke="#63b8ff" d="M394.62,-165.34C418.54,-156.24 455.51,-142.18 481.31,-132.37"/>
<polygon fill="#63b8ff" stroke="#63b8ff" points="482.44,-135.68 490.54,-128.86 479.95,-129.14 482.44,-135.68"/>
</a>
</g>
</g>
<!-- Node12&#45;&gt;Node2 -->
<g id="edge15_Node000012_Node000002" class="edge">
<title>Node12&#45;&gt;Node2</title>
<g id="a_edge15_Node000012_Node000002"><a xlink:title=" ">
<path fill="none" stroke="#63b8ff" d="M162.21,-165.58C161.72,-158.99 161.02,-149.71 160.39,-141.32"/>
<polygon fill="#63b8ff" stroke="#63b8ff" points="163.9,-141.33 159.66,-131.62 156.92,-141.85 163.9,-141.33"/>
</a>
</g>
</g>
<!-- Node12&#45;&gt;Node3 -->
<g id="edge16_Node000012_Node000003" class="edge">
<title>Node12&#45;&gt;Node3</title>
<g id="a_edge16_Node000012_Node000003"><a xlink:title=" ">
<path fill="none" stroke="#63b8ff" d="M141.77,-165.28C127.65,-157.94 110.19,-146.13 101.88,-129.75 94.72,-115.66 99.49,-98 105.33,-84.83"/>
<polygon fill="#63b8ff" stroke="#63b8ff" points="108.42,-86.46 109.78,-75.96 102.17,-83.32 108.42,-86.46"/>
</a>
</g>
</g>
<!-- Node12&#45;&gt;Node5 -->
<g id="edge17_Node000012_Node000005" class="edge">
<title>Node12&#45;&gt;Node5</title>
<g id="a_edge17_Node000012_Node000005"><a xlink:title=" ">
<path fill="none" stroke="#63b8ff" d="M146.93,-165.28C132.55,-156.79 111.07,-143.42 93.88,-129.75 75.62,-115.24 56.68,-96.46 43.8,-83.03"/>
<polygon fill="#63b8ff" stroke="#63b8ff" points="46.38,-80.67 36.97,-75.8 41.29,-85.47 46.38,-80.67"/>
</a>
</g>
</g>
<!-- Node12&#45;&gt;Node7 -->
<g id="edge18_Node000012_Node000007" class="edge">
<title>Node12&#45;&gt;Node7</title>
<g id="a_edge18_Node000012_Node000007"><a xlink:title=" ">
<path fill="none" stroke="#63b8ff" d="M174.9,-165.29C186.14,-156.6 203.21,-142.91 216.88,-129.75 232.21,-114.99 248.23,-96.75 259.37,-83.54"/>
<polygon fill="#63b8ff" stroke="#63b8ff" points="261.85,-86.03 265.56,-76.1 256.47,-81.55 261.85,-86.03"/>
</a>
</g>
</g>
<!-- Node12&#45;&gt;Node8 -->
<g id="edge19_Node000012_Node000008" class="edge">
<title>Node12&#45;&gt;Node8</title>
<g id="a_edge19_Node000012_Node000008"><a xlink:title=" ">
<path fill="none" stroke="#63b8ff" d="M179.75,-165.31C214.73,-146.52 295.4,-103.19 337.77,-80.43"/>
<polygon fill="#63b8ff" stroke="#63b8ff" points="339.42,-83.52 346.57,-75.71 336.11,-77.35 339.42,-83.52"/>
</a>
</g>
</g>
</g>
</svg>

<g id="navigator" transform="translate(0 0)" fill="#404254">
  <rect fill="#f2f5e9" fill-opacity="0.5" stroke="#606060" stroke-width=".5" x="0" y="0" width="60" height="60"/>
  <use id="zoomplus" xlink:href="#zoomPlus" x="17" y="9" onmousedown="handleZoom(evt,'in')"/>
  <use id="zoomminus" xlink:href="#zoomMin" x="42" y="9" onmousedown="handleZoom(evt,'out')"/>
  <use id="reset" xlink:href="#resetDef" x="30" y="36" onmousedown="handleReset()"/>
   <use id="arrowup" xlink:href="#arrowUp" x="0" y="0" onmousedown="handlePan(0,-1)"/>
  <use id="arrowright" xlink:href="#arrowRight" x="0" y="0" onmousedown="handlePan(1,0)"/>
  <use id="arrowdown" xlink:href="#arrowDown" x="0" y="0" onmousedown="handlePan(0,1)"/>
  <use id="arrowleft" xlink:href="#arrowLeft" x="0" y="0" onmousedown="handlePan(-1,0)"/>
</g>
<svg viewBox="0 0 15 15" width="100%" height="30px" preserveAspectRatio="xMaxYMin meet">
 <g id="arrow_out" transform="scale(0.3 0.3)">
  <a xlink:href="_transform_8hpp__incl_org.svg" target="_base">
   <rect id="button" ry="5" rx="5" y="6" x="6" height="38" width="38"
        fill="#f2f5e9" fill-opacity="0.5" stroke="#606060" stroke-width="1.0"/>
   <path id="arrow"
     d="M 11.500037,31.436501 C 11.940474,20.09759 22.043105,11.32322 32.158766,21.979434 L 37.068811,17.246167 C 37.068811,17.246167 37.088388,32 37.088388,32 L 22.160133,31.978069 C 22.160133,31.978069 26.997745,27.140456 26.997745,27.140456 C 18.528582,18.264221 13.291696,25.230495 11.500037,31.436501 z"
     style="fill:#404040;"/>
  </a>
 </g>
</svg>

<style type='text/css'>
<![CDATA[
[data-mouse-over-selected='false'] { opacity: 0.7; }
[data-mouse-over-selected='true']  { opacity: 1.0; }
]]>
</style>
<script type="application/ecmascript"><![CDATA[
document.addEventListener('DOMContentLoaded', (event) => {
  highlightEdges();
  highlightAdjacentNodes();
});
]]></script>
</svg>
