<?xml version="1.0" encoding="UTF-8" standalone="no"?>
<!DOCTYPE svg PUBLIC "-//W3C//DTD SVG 1.1//EN"
 "http://www.w3.org/Graphics/SVG/1.1/DTD/svg11.dtd">
<!-- Generated by graphviz version 12.2.1 (20241206.2353)
 -->
<!-- Title: gimo/Common.hpp Pages: 1 -->
<svg width="660pt" height="204pt"
 viewBox="0.00 0.00 660.46 204.25" xmlns="http://www.w3.org/2000/svg" xmlns:xlink="http://www.w3.org/1999/xlink">
<g id="graph0" class="graph" transform="scale(1 1) rotate(0) translate(4 200.25)">
<title>gimo/Common.hpp</title>
<!-- Node1 -->
<g id="Node000001" class="node">
<title>Node1</title>
<g id="a_Node000001"><a xlink:title=" ">
<polygon fill="#999999" stroke="#666666" points="301.96,-196.25 204.96,-196.25 204.96,-177 301.96,-177 301.96,-196.25"/>
<text text-anchor="middle" x="253.46" y="-182.75" font-family="Helvetica,sans-Serif" font-size="10.00">gimo/Common.hpp</text>
</a>
</g>
</g>
<!-- Node2 -->
<g id="Node000002" class="node">
<title>Node2</title>
<g id="a_Node000002"><a xlink:href="../../d4/d5a/gimo_8hpp.html" target="_top" xlink:title=" ">
<polygon fill="white" stroke="#666666" points="280.96,-19.25 225.96,-19.25 225.96,0 280.96,0 280.96,-19.25"/>
<text text-anchor="middle" x="253.46" y="-5.75" font-family="Helvetica,sans-Serif" font-size="10.00">gimo.hpp</text>
</a>
</g>
</g>
<!-- Node1&#45;&gt;Node2 -->
<g id="edge1_Node000001_Node000002" class="edge">
<title>Node1&#45;&gt;Node2</title>
<g id="a_edge1_Node000001_Node000002"><a xlink:title=" ">
<path fill="none" stroke="#63b8ff" d="M193.27,-176.38C104.98,-160.33 -43.43,-122.43 12.46,-55.25 39.33,-22.95 168.18,-13.93 225.66,-11.49"/>
<polygon fill="#63b8ff" stroke="#63b8ff" points="192.56,-179.81 203.02,-178.1 193.78,-172.91 192.56,-179.81"/>
</a>
</g>
</g>
<!-- Node3 -->
<g id="Node000003" class="node">
<title>Node3</title>
<g id="a_Node000003"><a xlink:href="../../d1/da8/_pipeline_8hpp.html" target="_top" xlink:title=" ">
<polygon fill="white" stroke="#666666" points="299.71,-141 207.21,-141 207.21,-121.75 299.71,-121.75 299.71,-141"/>
<text text-anchor="middle" x="253.46" y="-127.5" font-family="Helvetica,sans-Serif" font-size="10.00">gimo/Pipeline.hpp</text>
</a>
</g>
</g>
<!-- Node1&#45;&gt;Node3 -->
<g id="edge2_Node000001_Node000003" class="edge">
<title>Node1&#45;&gt;Node3</title>
<g id="a_edge2_Node000001_Node000003"><a xlink:title=" ">
<path fill="none" stroke="#63b8ff" d="M253.46,-165.38C253.46,-157.09 253.46,-147.92 253.46,-141.36"/>
<polygon fill="#63b8ff" stroke="#63b8ff" points="249.96,-165.32 253.46,-175.32 256.96,-165.32 249.96,-165.32"/>
</a>
</g>
</g>
<!-- Node4 -->
<g id="Node000004" class="node">
<title>Node4</title>
<g id="a_Node000004"><a xlink:href="../../d6/d3f/_and_then_8hpp.html" target="_top" xlink:title=" ">
<polygon fill="white" stroke="#666666" points="323.33,-80.12 183.58,-80.12 183.58,-60.88 323.33,-60.88 323.33,-80.12"/>
<text text-anchor="middle" x="253.46" y="-66.62" font-family="Helvetica,sans-Serif" font-size="10.00">gimo/algorithm/AndThen.hpp</text>
</a>
</g>
</g>
<!-- Node1&#45;&gt;Node4 -->
<g id="edge12_Node000001_Node000004" class="edge">
<title>Node1&#45;&gt;Node4</title>
<g id="a_edge12_Node000001_Node000004"><a xlink:title=" ">
<path fill="none" stroke="#63b8ff" d="M225.99,-170.58C208.28,-158.69 189.99,-140.96 198.46,-121.75 206.44,-103.64 224.52,-89.23 237.79,-80.56"/>
<polygon fill="#63b8ff" stroke="#63b8ff" points="223.98,-173.45 234.32,-175.75 227.67,-167.5 223.98,-173.45"/>
</a>
</g>
</g>
<!-- Node5 -->
<g id="Node000005" class="node">
<title>Node5</title>
<g id="a_Node000005"><a xlink:href="../../d4/d96/_or_else_8hpp.html" target="_top" xlink:title=" ">
<polygon fill="white" stroke="#666666" points="165.46,-80.12 35.46,-80.12 35.46,-60.88 165.46,-60.88 165.46,-80.12"/>
<text text-anchor="middle" x="100.46" y="-66.62" font-family="Helvetica,sans-Serif" font-size="10.00">gimo/algorithm/OrElse.hpp</text>
</a>
</g>
</g>
<!-- Node1&#45;&gt;Node5 -->
<g id="edge19_Node000001_Node000005" class="edge">
<title>Node1&#45;&gt;Node5</title>
<g id="a_edge19_Node000001_Node000005"><a xlink:title=" ">
<path fill="none" stroke="#63b8ff" d="M232.22,-170.22C220.47,-161.65 205.62,-150.79 192.46,-141 163.54,-119.5 129.8,-93.88 112.32,-80.56"/>
<polygon fill="#63b8ff" stroke="#63b8ff" points="229.89,-172.85 240.04,-175.9 234.01,-167.19 229.89,-172.85"/>
</a>
</g>
</g>
<!-- Node6 -->
<g id="Node000006" class="node">
<title>Node6</title>
<g id="a_Node000006"><a xlink:href="../../d9/d8c/_transform_8hpp.html" target="_top" xlink:title=" ">
<polygon fill="white" stroke="#666666" points="630.96,-80.12 485.96,-80.12 485.96,-60.88 630.96,-60.88 630.96,-80.12"/>
<text text-anchor="middle" x="558.46" y="-66.62" font-family="Helvetica,sans-Serif" font-size="10.00">gimo/algorithm/Transform.hpp</text>
</a>
</g>
</g>
<!-- Node1&#45;&gt;Node6 -->
<g id="edge20_Node000001_Node000006" class="edge">
<title>Node1&#45;&gt;Node6</title>
<g id="a_edge20_Node000001_Node000006"><a xlink:title=" ">
<path fill="none" stroke="#63b8ff" d="M313.8,-180.55C379.25,-174.12 478.65,-161.35 510.46,-141 533.68,-126.14 548.68,-95.63 555.01,-80.46"/>
<polygon fill="#63b8ff" stroke="#63b8ff" points="313.53,-177.06 303.91,-181.5 314.2,-184.03 313.53,-177.06"/>
</a>
</g>
</g>
<!-- Node7 -->
<g id="Node000007" class="node">
<title>Node7</title>
<g id="a_Node000007"><a xlink:href="../../d9/d45/_transform_error_8hpp.html" target="_top" xlink:title=" ">
<polygon fill="white" stroke="#666666" points="467.96,-85.75 340.96,-85.75 340.96,-55.25 467.96,-55.25 467.96,-85.75"/>
<text text-anchor="start" x="348.96" y="-72.25" font-family="Helvetica,sans-Serif" font-size="10.00">gimo/algorithm/Transform</text>
<text text-anchor="middle" x="404.46" y="-61" font-family="Helvetica,sans-Serif" font-size="10.00">Error.hpp</text>
</a>
</g>
</g>
<!-- Node1&#45;&gt;Node7 -->
<g id="edge21_Node000001_Node000007" class="edge">
<title>Node1&#45;&gt;Node7</title>
<g id="a_edge21_Node000001_Node000007"><a xlink:title=" ">
<path fill="none" stroke="#63b8ff" d="M313.88,-182.95C377.35,-178.71 471.04,-167.96 493.46,-141 512.06,-118.61 479.14,-98.81 448.2,-86.13"/>
<polygon fill="#63b8ff" stroke="#63b8ff" points="313.68,-179.45 303.91,-183.57 314.11,-186.44 313.68,-179.45"/>
</a>
</g>
</g>
<!-- Node8 -->
<g id="Node000008" class="node">
<title>Node8</title>
<g id="a_Node000008"><a xlink:href="../../de/dca/_basic_algorithm_8hpp.html" target="_top" xlink:title=" ">
<polygon fill="white" stroke="#666666" points="484.83,-141 318.08,-141 318.08,-121.75 484.83,-121.75 484.83,-141"/>
<text text-anchor="middle" x="401.46" y="-127.5" font-family="Helvetica,sans-Serif" font-size="10.00">gimo/algorithm/BasicAlgorithm.hpp</text>
</a>
</g>
</g>
<!-- Node1&#45;&gt;Node8 -->
<g id="edge13_Node000001_Node000008" class="edge">
<title>Node1&#45;&gt;Node8</title>
<g id="a_edge13_Node000001_Node000008"><a xlink:title=" ">
<path fill="none" stroke="#63b8ff" d="M289.09,-172.8C316,-163.12 352.26,-150.07 376.23,-141.45"/>
<polygon fill="#63b8ff" stroke="#63b8ff" points="288.21,-169.4 279.99,-176.08 290.58,-175.99 288.21,-169.4"/>
</a>
</g>
</g>
<!-- Node3&#45;&gt;Node2 -->
<g id="edge3_Node000003_Node000002" class="edge">
<title>Node3&#45;&gt;Node2</title>
<g id="a_edge3_Node000003_Node000002"><a xlink:title=" ">
<path fill="none" stroke="#63b8ff" d="M195.48,-129.8C113.43,-126.95 -21.54,-113.6 26.46,-55.25 51.4,-24.93 170.63,-14.89 225.59,-11.84"/>
<polygon fill="#63b8ff" stroke="#63b8ff" points="195.32,-133.29 205.42,-130.09 195.52,-126.3 195.32,-133.29"/>
</a>
</g>
</g>
<!-- Node3&#45;&gt;Node4 -->
<g id="edge4_Node000003_Node000004" class="edge">
<title>Node3&#45;&gt;Node4</title>
<g id="a_edge4_Node000003_Node000004"><a xlink:title=" ">
<path fill="none" stroke="#63b8ff" d="M253.46,-109.95C253.46,-99.92 253.46,-88.33 253.46,-80.53"/>
<polygon fill="#63b8ff" stroke="#63b8ff" points="249.96,-109.92 253.46,-119.92 256.96,-109.92 249.96,-109.92"/>
</a>
</g>
</g>
<!-- Node3&#45;&gt;Node5 -->
<g id="edge6_Node000003_Node000005" class="edge">
<title>Node3&#45;&gt;Node5</title>
<g id="a_edge6_Node000003_Node000005"><a xlink:title=" ">
<path fill="none" stroke="#63b8ff" d="M219.42,-117.28C190.44,-106.13 149.56,-90.4 124.05,-80.58"/>
<polygon fill="#63b8ff" stroke="#63b8ff" points="217.88,-120.44 228.47,-120.76 220.4,-113.9 217.88,-120.44"/>
</a>
</g>
</g>
<!-- Node3&#45;&gt;Node6 -->
<g id="edge8_Node000003_Node000006" class="edge">
<title>Node3&#45;&gt;Node6</title>
<g id="a_edge8_Node000003_Node000006"><a xlink:title=" ">
<path fill="none" stroke="#63b8ff" d="M311.28,-119.21C369.26,-108.02 457.43,-91 511.3,-80.6"/>
<polygon fill="#63b8ff" stroke="#63b8ff" points="310.75,-115.75 301.6,-121.08 312.08,-122.62 310.75,-115.75"/>
</a>
</g>
</g>
<!-- Node3&#45;&gt;Node7 -->
<g id="edge10_Node000003_Node000007" class="edge">
<title>Node3&#45;&gt;Node7</title>
<g id="a_edge10_Node000003_Node000007"><a xlink:title=" ">
<path fill="none" stroke="#63b8ff" d="M287.27,-117.19C310.87,-107.99 342.37,-95.71 366.77,-86.19"/>
<polygon fill="#63b8ff" stroke="#63b8ff" points="286.17,-113.86 278.13,-120.75 288.72,-120.38 286.17,-113.86"/>
</a>
</g>
</g>
<!-- Node4&#45;&gt;Node2 -->
<g id="edge5_Node000004_Node000002" class="edge">
<title>Node4&#45;&gt;Node2</title>
<g id="a_edge5_Node000004_Node000002"><a xlink:title=" ">
<path fill="none" stroke="#63b8ff" d="M253.46,-49.07C253.46,-39.04 253.46,-27.46 253.46,-19.65"/>
<polygon fill="#63b8ff" stroke="#63b8ff" points="249.96,-49.04 253.46,-59.04 256.96,-49.04 249.96,-49.04"/>
</a>
</g>
</g>
<!-- Node5&#45;&gt;Node2 -->
<g id="edge7_Node000005_Node000002" class="edge">
<title>Node5&#45;&gt;Node2</title>
<g id="a_edge7_Node000005_Node000002"><a xlink:title=" ">
<path fill="none" stroke="#63b8ff" d="M134.49,-56.4C163.47,-45.25 204.35,-29.52 229.86,-19.71"/>
<polygon fill="#63b8ff" stroke="#63b8ff" points="133.51,-53.03 125.44,-59.89 136.03,-59.56 133.51,-53.03"/>
</a>
</g>
</g>
<!-- Node6&#45;&gt;Node2 -->
<g id="edge9_Node000006_Node000002" class="edge">
<title>Node6&#45;&gt;Node2</title>
<g id="a_edge9_Node000006_Node000002"><a xlink:title=" ">
<path fill="none" stroke="#63b8ff" d="M500.49,-58.31C434.91,-45.65 330.8,-25.56 281.33,-16.01"/>
<polygon fill="#63b8ff" stroke="#63b8ff" points="499.5,-61.68 509.98,-60.14 500.83,-54.81 499.5,-61.68"/>
</a>
</g>
</g>
<!-- Node7&#45;&gt;Node2 -->
<g id="edge11_Node000007_Node000002" class="edge">
<title>Node7&#45;&gt;Node2</title>
<g id="a_edge11_Node000007_Node000002"><a xlink:title=" ">
<path fill="none" stroke="#63b8ff" d="M356.08,-50.64C329.48,-40.27 297.69,-27.87 276.61,-19.65"/>
<polygon fill="#63b8ff" stroke="#63b8ff" points="354.74,-53.87 365.33,-54.25 357.29,-47.35 354.74,-53.87"/>
</a>
</g>
</g>
<!-- Node8&#45;&gt;Node2 -->
<g id="edge14_Node000008_Node000002" class="edge">
<title>Node8&#45;&gt;Node2</title>
<g id="a_edge14_Node000008_Node000002"><a xlink:title=" ">
<path fill="none" stroke="#63b8ff" d="M496.51,-128.53C581.74,-123.57 686.78,-107.22 640.46,-55.25 616.58,-28.46 366.27,-15.42 281.41,-11.74"/>
<polygon fill="#63b8ff" stroke="#63b8ff" points="496.48,-125.02 486.68,-129.05 496.85,-132.01 496.48,-125.02"/>
</a>
</g>
</g>
<!-- Node8&#45;&gt;Node4 -->
<g id="edge15_Node000008_Node000004" class="edge">
<title>Node8&#45;&gt;Node4</title>
<g id="a_edge15_Node000008_Node000004"><a xlink:title=" ">
<path fill="none" stroke="#63b8ff" d="M368.13,-117.12C340.03,-105.94 300.58,-90.24 276.04,-80.48"/>
<polygon fill="#63b8ff" stroke="#63b8ff" points="366.66,-120.3 377.25,-120.75 369.25,-113.8 366.66,-120.3"/>
</a>
</g>
</g>
<!-- Node8&#45;&gt;Node5 -->
<g id="edge16_Node000008_Node000005" class="edge">
<title>Node8&#45;&gt;Node5</title>
<g id="a_edge16_Node000008_Node000005"><a xlink:title=" ">
<path fill="none" stroke="#63b8ff" d="M344.05,-119.15C286.79,-107.95 199.93,-90.96 146.88,-80.58"/>
<polygon fill="#63b8ff" stroke="#63b8ff" points="343.11,-122.53 353.6,-121.01 344.46,-115.66 343.11,-122.53"/>
</a>
</g>
</g>
<!-- Node8&#45;&gt;Node6 -->
<g id="edge17_Node000008_Node000006" class="edge">
<title>Node8&#45;&gt;Node6</title>
<g id="a_edge17_Node000008_Node000006"><a xlink:title=" ">
<path fill="none" stroke="#63b8ff" d="M436.38,-117.28C466.12,-106.13 508.07,-90.4 534.24,-80.58"/>
<polygon fill="#63b8ff" stroke="#63b8ff" points="435.19,-113.98 427.06,-120.77 437.65,-120.54 435.19,-113.98"/>
</a>
</g>
</g>
<!-- Node8&#45;&gt;Node7 -->
<g id="edge18_Node000008_Node000007" class="edge">
<title>Node8&#45;&gt;Node7</title>
<g id="a_edge18_Node000008_Node000007"><a xlink:title=" ">
<path fill="none" stroke="#63b8ff" d="M402.49,-110.17C402.89,-102.24 403.34,-93.31 403.71,-86.03"/>
<polygon fill="#63b8ff" stroke="#63b8ff" points="399,-109.76 401.99,-119.92 405.99,-110.11 399,-109.76"/>
</a>
</g>
</g>
</g>
</svg>
