<?xml version="1.0" encoding="UTF-8" standalone="no"?>
<!DOCTYPE svg PUBLIC "-//W3C//DTD SVG 1.1//EN"
 "http://www.w3.org/Graphics/SVG/1.1/DTD/svg11.dtd">
<!-- Generated by graphviz version 12.2.1 (20241206.2353)
 -->
<!-- Title: gimo/Common.hpp Pages: 1 -->
<svg width="884pt" height="260pt"
 viewBox="0.00 0.00 884.36 259.50" xmlns="http://www.w3.org/2000/svg" xmlns:xlink="http://www.w3.org/1999/xlink">
<g id="graph0" class="graph" transform="scale(1 1) rotate(0) translate(4 255.5)">
<title>gimo/Common.hpp</title>
<!-- Node1 -->
<g id="Node000001" class="node">
<title>Node1</title>
<g id="a_Node000001"><a xlink:title=" ">
<polygon fill="#999999" stroke="#666666" points="470.48,-251.5 373.48,-251.5 373.48,-232.25 470.48,-232.25 470.48,-251.5"/>
<text text-anchor="middle" x="421.98" y="-238" font-family="Helvetica,sans-Serif" font-size="10.00">gimo/Common.hpp</text>
</a>
</g>
</g>
<!-- Node2 -->
<g id="Node000002" class="node">
<title>Node2</title>
<g id="a_Node000002"><a xlink:href="../../d4/d5a/gimo_8hpp.html" target="_top" xlink:title=" ">
<polygon fill="white" stroke="#666666" points="423.48,-19.25 368.48,-19.25 368.48,0 423.48,0 423.48,-19.25"/>
<text text-anchor="middle" x="395.98" y="-5.75" font-family="Helvetica,sans-Serif" font-size="10.00">gimo.hpp</text>
</a>
</g>
</g>
<!-- Node1&#45;&gt;Node2 -->
<g id="edge1_Node000001_Node000002" class="edge">
<title>Node1&#45;&gt;Node2</title>
<g id="a_edge1_Node000001_Node000002"><a xlink:title=" ">
<path fill="none" stroke="#63b8ff" d="M361.98,-235.02C226.83,-219.64 -81.85,-171.04 20.98,-55.25 44,-29.33 284.95,-15.78 368.02,-11.85"/>
<polygon fill="#63b8ff" stroke="#63b8ff" points="361.51,-238.49 371.84,-236.11 362.28,-231.53 361.51,-238.49"/>
</a>
</g>
</g>
<!-- Node3 -->
<g id="Node000003" class="node">
<title>Node3</title>
<g id="a_Node000003"><a xlink:href="../../d1/da8/_pipeline_8hpp.html" target="_top" xlink:title=" ">
<polygon fill="white" stroke="#666666" points="449.23,-141 356.73,-141 356.73,-121.75 449.23,-121.75 449.23,-141"/>
<text text-anchor="middle" x="402.98" y="-127.5" font-family="Helvetica,sans-Serif" font-size="10.00">gimo/Pipeline.hpp</text>
</a>
</g>
</g>
<!-- Node1&#45;&gt;Node3 -->
<g id="edge2_Node000001_Node000003" class="edge">
<title>Node1&#45;&gt;Node3</title>
<g id="a_edge2_Node000001_Node000003"><a xlink:title=" ">
<path fill="none" stroke="#63b8ff" d="M403.63,-223.8C396.69,-216.13 389.6,-206.5 385.98,-196.25 379.18,-176.99 390.06,-153.63 397.32,-141.19"/>
<polygon fill="#63b8ff" stroke="#63b8ff" points="400.93,-226.05 410.42,-230.75 405.93,-221.15 400.93,-226.05"/>
</a>
</g>
</g>
<!-- Node4 -->
<g id="Node000004" class="node">
<title>Node4</title>
<g id="a_Node000004"><a xlink:href="../../d6/d3f/_and_then_8hpp.html" target="_top" xlink:title=" ">
<polygon fill="white" stroke="#666666" points="169.86,-80.12 30.11,-80.12 30.11,-60.88 169.86,-60.88 169.86,-80.12"/>
<text text-anchor="middle" x="99.98" y="-66.62" font-family="Helvetica,sans-Serif" font-size="10.00">gimo/algorithm/AndThen.hpp</text>
</a>
</g>
</g>
<!-- Node1&#45;&gt;Node4 -->
<g id="edge14_Node000001_Node000004" class="edge">
<title>Node1&#45;&gt;Node4</title>
<g id="a_edge14_Node000001_Node000004"><a xlink:title=" ">
<path fill="none" stroke="#63b8ff" d="M394.84,-226.6C330.4,-192.7 169.66,-108.15 116.99,-80.45"/>
<polygon fill="#63b8ff" stroke="#63b8ff" points="392.85,-229.51 403.33,-231.06 396.11,-223.31 392.85,-229.51"/>
</a>
</g>
</g>
<!-- Node5 -->
<g id="Node000005" class="node">
<title>Node5</title>
<g id="a_Node000005"><a xlink:href="../../d4/d96/_or_else_8hpp.html" target="_top" xlink:title=" ">
<polygon fill="white" stroke="#666666" points="317.98,-80.12 187.98,-80.12 187.98,-60.88 317.98,-60.88 317.98,-80.12"/>
<text text-anchor="middle" x="252.98" y="-66.62" font-family="Helvetica,sans-Serif" font-size="10.00">gimo/algorithm/OrElse.hpp</text>
</a>
</g>
</g>
<!-- Node1&#45;&gt;Node5 -->
<g id="edge23_Node000001_Node000005" class="edge">
<title>Node1&#45;&gt;Node5</title>
<g id="a_edge23_Node000001_Node000005"><a xlink:title=" ">
<path fill="none" stroke="#63b8ff" d="M403.09,-224.48C381.08,-205.14 343.92,-171.73 313.98,-141 293.59,-120.07 271.36,-93.77 260.22,-80.32"/>
<polygon fill="#63b8ff" stroke="#63b8ff" points="400.55,-226.91 410.38,-230.86 405.16,-221.64 400.55,-226.91"/>
</a>
</g>
</g>
<!-- Node6 -->
<g id="Node000006" class="node">
<title>Node6</title>
<g id="a_Node000006"><a xlink:href="../../d9/d8c/_transform_8hpp.html" target="_top" xlink:title=" ">
<polygon fill="white" stroke="#666666" points="519.48,-80.12 374.48,-80.12 374.48,-60.88 519.48,-60.88 519.48,-80.12"/>
<text text-anchor="middle" x="446.98" y="-66.62" font-family="Helvetica,sans-Serif" font-size="10.00">gimo/algorithm/Transform.hpp</text>
</a>
</g>
</g>
<!-- Node1&#45;&gt;Node6 -->
<g id="edge24_Node000001_Node000006" class="edge">
<title>Node1&#45;&gt;Node6</title>
<g id="a_edge24_Node000001_Node000006"><a xlink:title=" ">
<path fill="none" stroke="#63b8ff" d="M482.1,-239.04C513.64,-234.63 549.81,-223.4 569.98,-196.25 605.81,-148.03 513.15,-99.96 468.93,-80.51"/>
<polygon fill="#63b8ff" stroke="#63b8ff" points="481.76,-235.56 472.23,-240.2 482.57,-242.51 481.76,-235.56"/>
</a>
</g>
</g>
<!-- Node7 -->
<g id="Node000007" class="node">
<title>Node7</title>
<g id="a_Node000007"><a xlink:href="../../d9/d45/_transform_error_8hpp.html" target="_top" xlink:title=" ">
<polygon fill="white" stroke="#666666" points="703.48,-85.75 576.48,-85.75 576.48,-55.25 703.48,-55.25 703.48,-85.75"/>
<text text-anchor="start" x="584.48" y="-72.25" font-family="Helvetica,sans-Serif" font-size="10.00">gimo/algorithm/Transform</text>
<text text-anchor="middle" x="639.98" y="-61" font-family="Helvetica,sans-Serif" font-size="10.00">Error.hpp</text>
</a>
</g>
</g>
<!-- Node1&#45;&gt;Node7 -->
<g id="edge25_Node000001_Node000007" class="edge">
<title>Node1&#45;&gt;Node7</title>
<g id="a_edge25_Node000001_Node000007"><a xlink:title=" ">
<path fill="none" stroke="#63b8ff" d="M482.33,-237.59C516.85,-232.81 558.94,-221.69 587.98,-196.25 621.52,-166.88 633.92,-112.39 638.08,-86.24"/>
<polygon fill="#63b8ff" stroke="#63b8ff" points="481.94,-234.11 472.44,-238.8 482.79,-241.06 481.94,-234.11"/>
</a>
</g>
</g>
<!-- Node8 -->
<g id="Node000008" class="node">
<title>Node8</title>
<g id="a_Node000008"><a xlink:href="../../d2/d0b/_value_or_else_8hpp.html" target="_top" xlink:title=" ">
<polygon fill="white" stroke="#666666" points="876.36,-80.12 721.61,-80.12 721.61,-60.88 876.36,-60.88 876.36,-80.12"/>
<text text-anchor="middle" x="798.98" y="-66.62" font-family="Helvetica,sans-Serif" font-size="10.00">gimo/algorithm/ValueOrElse.hpp</text>
</a>
</g>
</g>
<!-- Node1&#45;&gt;Node8 -->
<g id="edge26_Node000001_Node000008" class="edge">
<title>Node1&#45;&gt;Node8</title>
<g id="a_edge26_Node000001_Node000008"><a xlink:title=" ">
<path fill="none" stroke="#63b8ff" d="M481.93,-232.17C519.73,-225.35 568.97,-213.99 609.98,-196.25 683.96,-164.25 760.65,-103.51 788.28,-80.57"/>
<polygon fill="#63b8ff" stroke="#63b8ff" points="481.34,-228.72 472.08,-233.88 482.53,-235.62 481.34,-228.72"/>
</a>
</g>
</g>
<!-- Node9 -->
<g id="Node000009" class="node">
<title>Node9</title>
<g id="a_Node000009"><a xlink:href="../../de/dca/_basic_algorithm_8hpp.html" target="_top" xlink:title=" ">
<polygon fill="white" stroke="#666666" points="561.36,-196.25 394.61,-196.25 394.61,-177 561.36,-177 561.36,-196.25"/>
<text text-anchor="middle" x="477.98" y="-182.75" font-family="Helvetica,sans-Serif" font-size="10.00">gimo/algorithm/BasicAlgorithm.hpp</text>
</a>
</g>
</g>
<!-- Node1&#45;&gt;Node9 -->
<g id="edge15_Node000001_Node000009" class="edge">
<title>Node1&#45;&gt;Node9</title>
<g id="a_edge15_Node000001_Node000009"><a xlink:title=" ">
<path fill="none" stroke="#63b8ff" d="M439.62,-224.11C449.23,-214.97 460.73,-204.03 468.62,-196.52"/>
<polygon fill="#63b8ff" stroke="#63b8ff" points="437.41,-221.37 432.58,-230.8 442.24,-226.44 437.41,-221.37"/>
</a>
</g>
</g>
<!-- Node3&#45;&gt;Node2 -->
<g id="edge3_Node000003_Node000002" class="edge">
<title>Node3&#45;&gt;Node2</title>
<g id="a_edge3_Node000003_Node000002"><a xlink:title=" ">
<path fill="none" stroke="#63b8ff" d="M384.12,-113.39C377,-105.74 369.71,-96.09 365.98,-85.75 361.38,-73 362.03,-68.22 365.98,-55.25 370.18,-41.5 380.18,-28.14 387.49,-19.68"/>
<polygon fill="#63b8ff" stroke="#63b8ff" points="381.55,-115.77 391.12,-120.32 386.48,-110.8 381.55,-115.77"/>
</a>
</g>
</g>
<!-- Node3&#45;&gt;Node4 -->
<g id="edge4_Node000003_Node000004" class="edge">
<title>Node3&#45;&gt;Node4</title>
<g id="a_edge4_Node000003_Node000004"><a xlink:title=" ">
<path fill="none" stroke="#63b8ff" d="M345.19,-119.15C287.55,-107.95 200.12,-90.96 146.72,-80.58"/>
<polygon fill="#63b8ff" stroke="#63b8ff" points="344.33,-122.54 354.82,-121.02 345.67,-115.67 344.33,-122.54"/>
</a>
</g>
</g>
<!-- Node3&#45;&gt;Node5 -->
<g id="edge6_Node000003_Node000005" class="edge">
<title>Node3&#45;&gt;Node5</title>
<g id="a_edge6_Node000003_Node000005"><a xlink:title=" ">
<path fill="none" stroke="#63b8ff" d="M369.2,-117.12C340.72,-105.94 300.74,-90.24 275.87,-80.48"/>
<polygon fill="#63b8ff" stroke="#63b8ff" points="367.88,-120.36 378.47,-120.75 370.44,-113.84 367.88,-120.36"/>
</a>
</g>
</g>
<!-- Node3&#45;&gt;Node6 -->
<g id="edge8_Node000003_Node000006" class="edge">
<title>Node3&#45;&gt;Node6</title>
<g id="a_edge8_Node000003_Node000006"><a xlink:title=" ">
<path fill="none" stroke="#63b8ff" d="M416.52,-112.26C424.38,-101.74 433.95,-88.94 440.24,-80.53"/>
<polygon fill="#63b8ff" stroke="#63b8ff" points="413.75,-110.12 410.57,-120.22 419.36,-114.31 413.75,-110.12"/>
</a>
</g>
</g>
<!-- Node3&#45;&gt;Node7 -->
<g id="edge10_Node000003_Node000007" class="edge">
<title>Node3&#45;&gt;Node7</title>
<g id="a_edge10_Node000003_Node000007"><a xlink:title=" ">
<path fill="none" stroke="#63b8ff" d="M450.63,-118.54C488.14,-109.22 540.63,-96.18 580.83,-86.19"/>
<polygon fill="#63b8ff" stroke="#63b8ff" points="449.82,-115.13 440.96,-120.94 451.51,-121.93 449.82,-115.13"/>
</a>
</g>
</g>
<!-- Node3&#45;&gt;Node8 -->
<g id="edge12_Node000003_Node000008" class="edge">
<title>Node3&#45;&gt;Node8</title>
<g id="a_edge12_Node000003_Node000008"><a xlink:title=" ">
<path fill="none" stroke="#63b8ff" d="M460.66,-122.44C522.96,-113.79 625.09,-99.36 712.98,-85.75 723.45,-84.13 734.63,-82.33 745.34,-80.57"/>
<polygon fill="#63b8ff" stroke="#63b8ff" points="460.43,-118.94 451.01,-123.78 461.39,-125.88 460.43,-118.94"/>
</a>
</g>
</g>
<!-- Node4&#45;&gt;Node2 -->
<g id="edge5_Node000004_Node000002" class="edge">
<title>Node4&#45;&gt;Node2</title>
<g id="a_edge5_Node000004_Node000002"><a xlink:title=" ">
<path fill="none" stroke="#63b8ff" d="M156.57,-58.24C219.89,-45.65 319.9,-25.76 368.13,-16.16"/>
<polygon fill="#63b8ff" stroke="#63b8ff" points="156.19,-54.75 147.07,-60.13 157.56,-61.62 156.19,-54.75"/>
</a>
</g>
</g>
<!-- Node5&#45;&gt;Node2 -->
<g id="edge7_Node000005_Node000002" class="edge">
<title>Node5&#45;&gt;Node2</title>
<g id="a_edge7_Node000005_Node000002"><a xlink:title=" ">
<path fill="none" stroke="#63b8ff" d="M285.55,-56.09C312.67,-44.92 350.56,-29.33 374.16,-19.61"/>
<polygon fill="#63b8ff" stroke="#63b8ff" points="284.33,-52.81 276.41,-59.85 286.99,-59.28 284.33,-52.81"/>
</a>
</g>
</g>
<!-- Node6&#45;&gt;Node2 -->
<g id="edge9_Node000006_Node000002" class="edge">
<title>Node6&#45;&gt;Node2</title>
<g id="a_edge9_Node000006_Node000002"><a xlink:title=" ">
<path fill="none" stroke="#63b8ff" d="M431.85,-52.03C422.64,-41.39 411.24,-28.24 403.8,-19.65"/>
<polygon fill="#63b8ff" stroke="#63b8ff" points="429.05,-54.15 438.25,-59.41 434.34,-49.56 429.05,-54.15"/>
</a>
</g>
</g>
<!-- Node7&#45;&gt;Node2 -->
<g id="edge11_Node000007_Node000002" class="edge">
<title>Node7&#45;&gt;Node2</title>
<g id="a_edge11_Node000007_Node000002"><a xlink:title=" ">
<path fill="none" stroke="#63b8ff" d="M568,-52.13C519.7,-40.48 458.75,-25.77 423.88,-17.36"/>
<polygon fill="#63b8ff" stroke="#63b8ff" points="567.03,-55.5 577.57,-54.44 568.67,-48.69 567.03,-55.5"/>
</a>
</g>
</g>
<!-- Node8&#45;&gt;Node2 -->
<g id="edge13_Node000008_Node000002" class="edge">
<title>Node8&#45;&gt;Node2</title>
<g id="a_edge13_Node000008_Node000002"><a xlink:title=" ">
<path fill="none" stroke="#63b8ff" d="M734.18,-58.59C727.03,-57.44 719.86,-56.3 712.98,-55.25 606.13,-38.88 478.66,-21.62 423.58,-14.28"/>
<polygon fill="#63b8ff" stroke="#63b8ff" points="733.41,-62.01 743.85,-60.16 734.54,-55.1 733.41,-62.01"/>
</a>
</g>
</g>
<!-- Node9&#45;&gt;Node2 -->
<g id="edge16_Node000009_Node000002" class="edge">
<title>Node9&#45;&gt;Node2</title>
<g id="a_edge16_Node000009_Node000002"><a xlink:title=" ">
<path fill="none" stroke="#63b8ff" d="M494.59,-168.45C517.94,-142.18 554.88,-91.26 528.98,-55.25 505.09,-22.03 455.28,-13.19 423.86,-11.04"/>
<polygon fill="#63b8ff" stroke="#63b8ff" points="492.26,-165.82 488.05,-175.54 497.4,-170.57 492.26,-165.82"/>
</a>
</g>
</g>
<!-- Node9&#45;&gt;Node3 -->
<g id="edge17_Node000009_Node000003" class="edge">
<title>Node9&#45;&gt;Node3</title>
<g id="a_edge17_Node000009_Node000003"><a xlink:title=" ">
<path fill="none" stroke="#63b8ff" d="M455.99,-170.01C442.91,-160.72 426.78,-149.27 415.77,-141.45"/>
<polygon fill="#63b8ff" stroke="#63b8ff" points="453.85,-172.78 464.03,-175.72 457.9,-167.07 453.85,-172.78"/>
</a>
</g>
</g>
<!-- Node9&#45;&gt;Node4 -->
<g id="edge18_Node000009_Node000004" class="edge">
<title>Node9&#45;&gt;Node4</title>
<g id="a_edge18_Node000009_Node000004"><a xlink:title=" ">
<path fill="none" stroke="#63b8ff" d="M431.54,-173.63C398.61,-164.97 353.44,-152.77 313.98,-141 246.04,-120.74 166.87,-94.27 126.54,-80.58"/>
<polygon fill="#63b8ff" stroke="#63b8ff" points="430.63,-177.01 441.19,-176.16 432.4,-170.24 430.63,-177.01"/>
</a>
</g>
</g>
<!-- Node9&#45;&gt;Node5 -->
<g id="edge19_Node000009_Node000005" class="edge">
<title>Node9&#45;&gt;Node5</title>
<g id="a_edge19_Node000009_Node000005"><a xlink:title=" ">
<path fill="none" stroke="#63b8ff" d="M431.47,-173.37C406.04,-165.77 374.42,-154.8 347.98,-141 314.47,-123.5 279.78,-95 263.12,-80.54"/>
<polygon fill="#63b8ff" stroke="#63b8ff" points="430.29,-176.67 440.86,-176.1 432.24,-169.95 430.29,-176.67"/>
</a>
</g>
</g>
<!-- Node9&#45;&gt;Node6 -->
<g id="edge20_Node000009_Node000006" class="edge">
<title>Node9&#45;&gt;Node6</title>
<g id="a_edge20_Node000009_Node000006"><a xlink:title=" ">
<path fill="none" stroke="#63b8ff" d="M472.54,-165.59C465.73,-140.51 454.35,-98.63 449.4,-80.41"/>
<polygon fill="#63b8ff" stroke="#63b8ff" points="469.15,-166.48 475.15,-175.21 475.91,-164.64 469.15,-166.48"/>
</a>
</g>
</g>
<!-- Node9&#45;&gt;Node7 -->
<g id="edge21_Node000009_Node000007" class="edge">
<title>Node9&#45;&gt;Node7</title>
<g id="a_edge21_Node000009_Node000007"><a xlink:title=" ">
<path fill="none" stroke="#63b8ff" d="M499.89,-170.19C531.2,-148.14 588.36,-107.87 619.1,-86.21"/>
<polygon fill="#63b8ff" stroke="#63b8ff" points="498.09,-167.18 491.93,-175.8 502.12,-172.9 498.09,-167.18"/>
</a>
</g>
</g>
<!-- Node9&#45;&gt;Node8 -->
<g id="edge22_Node000009_Node000008" class="edge">
<title>Node9&#45;&gt;Node8</title>
<g id="a_edge22_Node000009_Node000008"><a xlink:title=" ">
<path fill="none" stroke="#63b8ff" d="M514.07,-172.8C579.63,-149.49 716.75,-100.74 773.52,-80.55"/>
<polygon fill="#63b8ff" stroke="#63b8ff" points="513.12,-169.42 504.87,-176.07 515.46,-176.02 513.12,-169.42"/>
</a>
</g>
</g>
</g>
</svg>
