<?xml version="1.0" encoding="UTF-8" standalone="no"?>
<!DOCTYPE svg PUBLIC "-//W3C//DTD SVG 1.1//EN"
 "http://www.w3.org/Graphics/SVG/1.1/DTD/svg11.dtd">
<!-- Generated by graphviz version 12.2.1 (20241206.2353)
 -->
<!-- Title: gimo/Common.hpp Pages: 1 -->
<svg width="691pt" height="260pt"
 viewBox="0.00 0.00 691.50 259.50" xmlns="http://www.w3.org/2000/svg" xmlns:xlink="http://www.w3.org/1999/xlink">
<g id="graph0" class="graph" transform="scale(1 1) rotate(0) translate(4 255.5)">
<title>gimo/Common.hpp</title>
<!-- Node1 -->
<g id="Node000001" class="node">
<title>Node1</title>
<g id="a_Node000001"><a xlink:title=" ">
<polygon fill="#999999" stroke="#666666" points="312.2,-251.5 215.2,-251.5 215.2,-232.25 312.2,-232.25 312.2,-251.5"/>
<text text-anchor="middle" x="263.7" y="-238" font-family="Helvetica,sans-Serif" font-size="10.00">gimo/Common.hpp</text>
</a>
</g>
</g>
<!-- Node2 -->
<g id="Node000002" class="node">
<title>Node2</title>
<g id="a_Node000002"><a xlink:href="../../d4/d5a/gimo_8hpp.html" target="_top" xlink:title=" ">
<polygon fill="white" stroke="#666666" points="383.2,-19.25 328.2,-19.25 328.2,0 383.2,0 383.2,-19.25"/>
<text text-anchor="middle" x="355.7" y="-5.75" font-family="Helvetica,sans-Serif" font-size="10.00">gimo.hpp</text>
</a>
</g>
</g>
<!-- Node1&#45;&gt;Node2 -->
<g id="edge1_Node000001_Node000002" class="edge">
<title>Node1&#45;&gt;Node2</title>
<g id="a_edge1_Node000001_Node000002"><a xlink:title=" ">
<path fill="none" stroke="#63b8ff" d="M219.21,-228.56C130.48,-201.93 -54.2,-134.92 15.7,-55.25 36.23,-31.84 250.36,-16.88 327.88,-12.2"/>
<polygon fill="#63b8ff" stroke="#63b8ff" points="218.01,-231.85 228.59,-231.33 219.99,-225.14 218.01,-231.85"/>
</a>
</g>
</g>
<!-- Node3 -->
<g id="Node000003" class="node">
<title>Node3</title>
<g id="a_Node000003"><a xlink:href="../../d1/da8/_pipeline_8hpp.html" target="_top" xlink:title=" ">
<polygon fill="white" stroke="#666666" points="401.95,-141 309.45,-141 309.45,-121.75 401.95,-121.75 401.95,-141"/>
<text text-anchor="middle" x="355.7" y="-127.5" font-family="Helvetica,sans-Serif" font-size="10.00">gimo/Pipeline.hpp</text>
</a>
</g>
</g>
<!-- Node1&#45;&gt;Node3 -->
<g id="edge2_Node000001_Node000003" class="edge">
<title>Node1&#45;&gt;Node3</title>
<g id="a_edge2_Node000001_Node000003"><a xlink:title=" ">
<path fill="none" stroke="#63b8ff" d="M265.81,-221.13C268.11,-207.57 272.87,-189.78 282.7,-177 295.37,-160.52 316.02,-148.72 332.12,-141.41"/>
<polygon fill="#63b8ff" stroke="#63b8ff" points="262.4,-220.25 264.53,-230.63 269.34,-221.19 262.4,-220.25"/>
</a>
</g>
</g>
<!-- Node4 -->
<g id="Node000004" class="node">
<title>Node4</title>
<g id="a_Node000004"><a xlink:href="../../d6/d3f/_and_then_8hpp.html" target="_top" xlink:title=" ">
<polygon fill="white" stroke="#666666" points="327.57,-80.12 187.82,-80.12 187.82,-60.88 327.57,-60.88 327.57,-80.12"/>
<text text-anchor="middle" x="257.7" y="-66.62" font-family="Helvetica,sans-Serif" font-size="10.00">gimo/algorithm/AndThen.hpp</text>
</a>
</g>
</g>
<!-- Node1&#45;&gt;Node4 -->
<g id="edge12_Node000001_Node000004" class="edge">
<title>Node1&#45;&gt;Node4</title>
<g id="a_edge12_Node000001_Node000004"><a xlink:title=" ">
<path fill="none" stroke="#63b8ff" d="M262.97,-220.45C261.66,-183.32 258.92,-106.2 258.01,-80.24"/>
<polygon fill="#63b8ff" stroke="#63b8ff" points="259.47,-220.39 263.32,-230.26 266.46,-220.14 259.47,-220.39"/>
</a>
</g>
</g>
<!-- Node5 -->
<g id="Node000005" class="node">
<title>Node5</title>
<g id="a_Node000005"><a xlink:href="../../d4/d96/_or_else_8hpp.html" target="_top" xlink:title=" ">
<polygon fill="white" stroke="#666666" points="513.7,-80.12 383.7,-80.12 383.7,-60.88 513.7,-60.88 513.7,-80.12"/>
<text text-anchor="middle" x="448.7" y="-66.62" font-family="Helvetica,sans-Serif" font-size="10.00">gimo/algorithm/OrElse.hpp</text>
</a>
</g>
</g>
<!-- Node1&#45;&gt;Node5 -->
<g id="edge20_Node000001_Node000005" class="edge">
<title>Node1&#45;&gt;Node5</title>
<g id="a_edge20_Node000001_Node000005"><a xlink:title=" ">
<path fill="none" stroke="#63b8ff" d="M323.82,-235.87C377.06,-230.04 449,-218.26 466.7,-196.25 494.67,-161.46 466.63,-102.9 454.08,-80.54"/>
<polygon fill="#63b8ff" stroke="#63b8ff" points="323.52,-232.38 313.94,-236.9 324.25,-239.34 323.52,-232.38"/>
</a>
</g>
</g>
<!-- Node6 -->
<g id="Node000006" class="node">
<title>Node6</title>
<g id="a_Node000006"><a xlink:href="../../d9/d8c/_transform_8hpp.html" target="_top" xlink:title=" ">
<polygon fill="white" stroke="#666666" points="170.2,-80.12 25.2,-80.12 25.2,-60.88 170.2,-60.88 170.2,-80.12"/>
<text text-anchor="middle" x="97.7" y="-66.62" font-family="Helvetica,sans-Serif" font-size="10.00">gimo/algorithm/Transform.hpp</text>
</a>
</g>
</g>
<!-- Node1&#45;&gt;Node6 -->
<g id="edge21_Node000001_Node000006" class="edge">
<title>Node1&#45;&gt;Node6</title>
<g id="a_edge21_Node000001_Node000006"><a xlink:title=" ">
<path fill="none" stroke="#63b8ff" d="M246.91,-223.74C211.96,-188.09 132.48,-106.99 106.26,-80.24"/>
<polygon fill="#63b8ff" stroke="#63b8ff" points="244.21,-226 253.71,-230.69 249.21,-221.1 244.21,-226"/>
</a>
</g>
</g>
<!-- Node7 -->
<g id="Node000007" class="node">
<title>Node7</title>
<g id="a_Node000007"><a xlink:href="../../d9/d45/_transform_error_8hpp.html" target="_top" xlink:title=" ">
<polygon fill="white" stroke="#666666" points="659.2,-85.75 532.2,-85.75 532.2,-55.25 659.2,-55.25 659.2,-85.75"/>
<text text-anchor="start" x="540.2" y="-72.25" font-family="Helvetica,sans-Serif" font-size="10.00">gimo/algorithm/Transform</text>
<text text-anchor="middle" x="595.7" y="-61" font-family="Helvetica,sans-Serif" font-size="10.00">Error.hpp</text>
</a>
</g>
</g>
<!-- Node1&#45;&gt;Node7 -->
<g id="edge22_Node000001_Node000007" class="edge">
<title>Node1&#45;&gt;Node7</title>
<g id="a_edge22_Node000001_Node000007"><a xlink:title=" ">
<path fill="none" stroke="#63b8ff" d="M323.49,-239.16C370.38,-235.47 435.83,-225.02 485.7,-196.25 533.47,-168.69 571.19,-112.81 587.26,-86.21"/>
<polygon fill="#63b8ff" stroke="#63b8ff" points="323.53,-235.65 313.8,-239.83 324.01,-242.63 323.53,-235.65"/>
</a>
</g>
</g>
<!-- Node8 -->
<g id="Node000008" class="node">
<title>Node8</title>
<g id="a_Node000008"><a xlink:href="../../de/dca/_basic_algorithm_8hpp.html" target="_top" xlink:title=" ">
<polygon fill="white" stroke="#666666" points="458.07,-196.25 291.32,-196.25 291.32,-177 458.07,-177 458.07,-196.25"/>
<text text-anchor="middle" x="374.7" y="-182.75" font-family="Helvetica,sans-Serif" font-size="10.00">gimo/algorithm/BasicAlgorithm.hpp</text>
</a>
</g>
</g>
<!-- Node1&#45;&gt;Node8 -->
<g id="edge13_Node000001_Node000008" class="edge">
<title>Node1&#45;&gt;Node8</title>
<g id="a_edge13_Node000001_Node000008"><a xlink:title=" ">
<path fill="none" stroke="#63b8ff" d="M292.88,-226.87C312.77,-217.33 338.52,-204.98 355.77,-196.7"/>
<polygon fill="#63b8ff" stroke="#63b8ff" points="291.39,-223.71 283.89,-231.19 294.42,-230.02 291.39,-223.71"/>
</a>
</g>
</g>
<!-- Node3&#45;&gt;Node2 -->
<g id="edge3_Node000003_Node000002" class="edge">
<title>Node3&#45;&gt;Node2</title>
<g id="a_edge3_Node000003_Node000002"><a xlink:title=" ">
<path fill="none" stroke="#63b8ff" d="M355.7,-110.13C355.7,-83.8 355.7,-38.9 355.7,-19.73"/>
<polygon fill="#63b8ff" stroke="#63b8ff" points="352.2,-109.86 355.7,-119.86 359.2,-109.86 352.2,-109.86"/>
</a>
</g>
</g>
<!-- Node3&#45;&gt;Node4 -->
<g id="edge4_Node000003_Node000004" class="edge">
<title>Node3&#45;&gt;Node4</title>
<g id="a_edge4_Node000003_Node000004"><a xlink:title=" ">
<path fill="none" stroke="#63b8ff" d="M331.08,-115.59C312.73,-104.56 288.24,-89.85 272.72,-80.53"/>
<polygon fill="#63b8ff" stroke="#63b8ff" points="329.14,-118.5 339.51,-120.65 332.74,-112.5 329.14,-118.5"/>
</a>
</g>
</g>
<!-- Node3&#45;&gt;Node5 -->
<g id="edge6_Node000003_Node000005" class="edge">
<title>Node3&#45;&gt;Node5</title>
<g id="a_edge6_Node000003_Node000005"><a xlink:title=" ">
<path fill="none" stroke="#63b8ff" d="M379.3,-115.43C396.69,-104.42 419.77,-89.81 434.44,-80.53"/>
<polygon fill="#63b8ff" stroke="#63b8ff" points="377.68,-112.32 371.1,-120.62 381.42,-118.23 377.68,-112.32"/>
</a>
</g>
</g>
<!-- Node3&#45;&gt;Node6 -->
<g id="edge8_Node000003_Node000006" class="edge">
<title>Node3&#45;&gt;Node6</title>
<g id="a_edge8_Node000003_Node000006"><a xlink:title=" ">
<path fill="none" stroke="#63b8ff" d="M304.95,-118.79C255.86,-107.59 182.49,-90.85 137.49,-80.58"/>
<polygon fill="#63b8ff" stroke="#63b8ff" points="303.94,-122.16 314.47,-120.97 305.5,-115.33 303.94,-122.16"/>
</a>
</g>
</g>
<!-- Node3&#45;&gt;Node7 -->
<g id="edge10_Node000003_Node000007" class="edge">
<title>Node3&#45;&gt;Node7</title>
<g id="a_edge10_Node000003_Node000007"><a xlink:title=" ">
<path fill="none" stroke="#63b8ff" d="M403.45,-118.66C441.47,-109.33 494.91,-96.22 535.79,-86.19"/>
<polygon fill="#63b8ff" stroke="#63b8ff" points="403.02,-115.16 394.14,-120.94 404.69,-121.96 403.02,-115.16"/>
</a>
</g>
</g>
<!-- Node4&#45;&gt;Node2 -->
<g id="edge5_Node000004_Node000002" class="edge">
<title>Node4&#45;&gt;Node2</title>
<g id="a_edge5_Node000004_Node000002"><a xlink:title=" ">
<path fill="none" stroke="#63b8ff" d="M282.31,-54.71C300.66,-43.69 325.15,-28.98 340.67,-19.65"/>
<polygon fill="#63b8ff" stroke="#63b8ff" points="280.65,-51.63 273.88,-59.78 284.25,-57.63 280.65,-51.63"/>
</a>
</g>
</g>
<!-- Node5&#45;&gt;Node2 -->
<g id="edge7_Node000005_Node000002" class="edge">
<title>Node5&#45;&gt;Node2</title>
<g id="a_edge7_Node000005_Node000002"><a xlink:title=" ">
<path fill="none" stroke="#63b8ff" d="M425.1,-54.56C407.7,-43.55 384.62,-28.93 369.95,-19.65"/>
<polygon fill="#63b8ff" stroke="#63b8ff" points="422.97,-57.36 433.29,-59.75 426.71,-51.44 422.97,-57.36"/>
</a>
</g>
</g>
<!-- Node6&#45;&gt;Node2 -->
<g id="edge9_Node000006_Node000002" class="edge">
<title>Node6&#45;&gt;Node2</title>
<g id="a_edge9_Node000006_Node000002"><a xlink:title=" ">
<path fill="none" stroke="#63b8ff" d="M148.44,-57.92C202.15,-45.66 284.95,-26.77 327.83,-16.98"/>
<polygon fill="#63b8ff" stroke="#63b8ff" points="147.89,-54.46 138.92,-60.09 149.45,-61.28 147.89,-54.46"/>
</a>
</g>
</g>
<!-- Node7&#45;&gt;Node2 -->
<g id="edge11_Node000007_Node000002" class="edge">
<title>Node7&#45;&gt;Node2</title>
<g id="a_edge11_Node000007_Node000002"><a xlink:title=" ">
<path fill="none" stroke="#63b8ff" d="M524.63,-52.07C477.31,-40.46 417.73,-25.84 383.45,-17.43"/>
<polygon fill="#63b8ff" stroke="#63b8ff" points="523.74,-55.45 534.28,-54.43 525.4,-48.65 523.74,-55.45"/>
</a>
</g>
</g>
<!-- Node8&#45;&gt;Node2 -->
<g id="edge14_Node000008_Node000002" class="edge">
<title>Node8&#45;&gt;Node2</title>
<g id="a_edge14_Node000008_Node000002"><a xlink:title=" ">
<path fill="none" stroke="#63b8ff" d="M469.83,-176.07C577.86,-161.58 731.51,-127.66 668.7,-55.25 631.83,-12.75 453.29,-9.7 383.62,-10.17"/>
<polygon fill="#63b8ff" stroke="#63b8ff" points="469.5,-172.59 460.04,-177.35 470.41,-179.53 469.5,-172.59"/>
</a>
</g>
</g>
<!-- Node8&#45;&gt;Node3 -->
<g id="edge15_Node000008_Node000003" class="edge">
<title>Node8&#45;&gt;Node3</title>
<g id="a_edge15_Node000008_Node000003"><a xlink:title=" ">
<path fill="none" stroke="#63b8ff" d="M367.78,-166.25C364.74,-157.74 361.33,-148.15 358.9,-141.36"/>
<polygon fill="#63b8ff" stroke="#63b8ff" points="364.39,-167.16 371.05,-175.41 370.99,-164.81 364.39,-167.16"/>
</a>
</g>
</g>
<!-- Node8&#45;&gt;Node4 -->
<g id="edge16_Node000008_Node000004" class="edge">
<title>Node8&#45;&gt;Node4</title>
<g id="a_edge16_Node000008_Node000004"><a xlink:title=" ">
<path fill="none" stroke="#63b8ff" d="M344.15,-171.45C329.84,-163.81 313.23,-153.39 300.7,-141 282.13,-122.65 268.04,-94.77 261.58,-80.54"/>
<polygon fill="#63b8ff" stroke="#63b8ff" points="342.23,-174.4 352.73,-175.83 345.41,-168.17 342.23,-174.4"/>
</a>
</g>
</g>
<!-- Node8&#45;&gt;Node5 -->
<g id="edge17_Node000008_Node000005" class="edge">
<title>Node8&#45;&gt;Node5</title>
<g id="a_edge17_Node000008_Node000005"><a xlink:title=" ">
<path fill="none" stroke="#63b8ff" d="M390.11,-168.02C396.79,-160.02 404.48,-150.29 410.7,-141 424.61,-120.2 437.95,-93.85 444.49,-80.35"/>
<polygon fill="#63b8ff" stroke="#63b8ff" points="387.46,-165.73 383.62,-175.61 392.78,-170.28 387.46,-165.73"/>
</a>
</g>
</g>
<!-- Node8&#45;&gt;Node6 -->
<g id="edge18_Node000008_Node000006" class="edge">
<title>Node8&#45;&gt;Node6</title>
<g id="a_edge18_Node000008_Node000006"><a xlink:title=" ">
<path fill="none" stroke="#63b8ff" d="M342.4,-172.32C285.4,-148.84 168.4,-100.63 119.71,-80.57"/>
<polygon fill="#63b8ff" stroke="#63b8ff" points="340.98,-175.52 351.56,-176.09 343.65,-169.05 340.98,-175.52"/>
</a>
</g>
</g>
<!-- Node8&#45;&gt;Node7 -->
<g id="edge19_Node000008_Node000007" class="edge">
<title>Node8&#45;&gt;Node7</title>
<g id="a_edge19_Node000008_Node000007"><a xlink:title=" ">
<path fill="none" stroke="#63b8ff" d="M402.12,-171.46C444.24,-149.71 524.46,-108.29 567.21,-86.21"/>
<polygon fill="#63b8ff" stroke="#63b8ff" points="400.66,-168.28 393.38,-175.98 403.87,-174.5 400.66,-168.28"/>
</a>
</g>
</g>
</g>
</svg>
