<?xml version="1.0" encoding="UTF-8" standalone="no"?>
<!DOCTYPE svg PUBLIC "-//W3C//DTD SVG 1.1//EN"
 "http://www.w3.org/Graphics/SVG/1.1/DTD/svg11.dtd">
<!-- Generated by graphviz version 12.2.1 (20241206.2353)
 -->
<!-- Title: gimo/algorithm/OrElse.hpp Pages: 1 -->
<svg width="569pt" height="304pt"
 viewBox="0.00 0.00 568.78 303.50" xmlns="http://www.w3.org/2000/svg" xmlns:xlink="http://www.w3.org/1999/xlink">
<g id="graph0" class="graph" transform="scale(1 1) rotate(0) translate(4 299.5)">
<title>gimo/algorithm/OrElse.hpp</title>
<!-- Node1 -->
<g id="Node000001" class="node">
<title>Node1</title>
<g id="a_Node000001"><a xlink:title=" ">
<polygon fill="#999999" stroke="#666666" points="392.88,-295.5 262.88,-295.5 262.88,-276.25 392.88,-276.25 392.88,-295.5"/>
<text text-anchor="middle" x="327.88" y="-282" font-family="Helvetica,sans-Serif" font-size="10.00">gimo/algorithm/OrElse.hpp</text>
</a>
</g>
</g>
<!-- Node2 -->
<g id="Node000002" class="node">
<title>Node2</title>
<g id="a_Node000002"><a xlink:href="../../d3/d58/_common_8hpp.html" target="_top" xlink:title=" ">
<polygon fill="white" stroke="#666666" points="223.38,-129.75 126.38,-129.75 126.38,-110.5 223.38,-110.5 223.38,-129.75"/>
<text text-anchor="middle" x="174.88" y="-116.25" font-family="Helvetica,sans-Serif" font-size="10.00">gimo/Common.hpp</text>
</a>
</g>
</g>
<!-- Node1&#45;&gt;Node2 -->
<g id="edge1_Node000001_Node000002" class="edge">
<title>Node1&#45;&gt;Node2</title>
<g id="a_edge1_Node000001_Node000002"><a xlink:title=" ">
<path fill="none" stroke="#63b8ff" d="M262.59,-277.66C205.48,-267.52 125.75,-243.19 86.88,-185 71.65,-162.21 101.99,-144.73 131.12,-133.86"/>
<polygon fill="#63b8ff" stroke="#63b8ff" points="131.99,-137.26 140.28,-130.66 129.68,-130.66 131.99,-137.26"/>
</a>
</g>
</g>
<!-- Node5 -->
<g id="Node000005" class="node">
<title>Node5</title>
<g id="a_Node000005"><a xlink:title=" ">
<polygon fill="#e0e0e0" stroke="#999999" points="55.75,-74.5 0,-74.5 0,-55.25 55.75,-55.25 55.75,-74.5"/>
<text text-anchor="middle" x="27.88" y="-61" font-family="Helvetica,sans-Serif" font-size="10.00">concepts</text>
</a>
</g>
</g>
<!-- Node1&#45;&gt;Node5 -->
<g id="edge21_Node000001_Node000005" class="edge">
<title>Node1&#45;&gt;Node5</title>
<g id="a_edge21_Node000001_Node000005"><a xlink:title=" ">
<path fill="none" stroke="#63b8ff" d="M262.82,-282.44C219.67,-278.16 163.37,-267.28 120.88,-240.25 64.96,-204.68 40.48,-123.51 31.83,-85.81"/>
<polygon fill="#63b8ff" stroke="#63b8ff" points="35.31,-85.34 29.79,-76.29 28.46,-86.8 35.31,-85.34"/>
</a>
</g>
</g>
<!-- Node7 -->
<g id="Node000007" class="node">
<title>Node7</title>
<g id="a_Node000007"><a xlink:title=" ">
<polygon fill="#e0e0e0" stroke="#999999" points="309.38,-74.5 248.38,-74.5 248.38,-55.25 309.38,-55.25 309.38,-74.5"/>
<text text-anchor="middle" x="278.88" y="-61" font-family="Helvetica,sans-Serif" font-size="10.00">type_traits</text>
</a>
</g>
</g>
<!-- Node1&#45;&gt;Node7 -->
<g id="edge24_Node000001_Node000007" class="edge">
<title>Node1&#45;&gt;Node7</title>
<g id="a_edge24_Node000001_Node000007"><a xlink:title=" ">
<path fill="none" stroke="#63b8ff" d="M323.86,-275.81C320.05,-266.91 314.4,-252.86 310.88,-240.25 295.5,-185.3 285.61,-118.49 281.33,-85.81"/>
<polygon fill="#63b8ff" stroke="#63b8ff" points="284.84,-85.69 280.11,-76.21 277.9,-86.58 284.84,-85.69"/>
</a>
</g>
</g>
<!-- Node8 -->
<g id="Node000008" class="node">
<title>Node8</title>
<g id="a_Node000008"><a xlink:title=" ">
<polygon fill="#e0e0e0" stroke="#999999" points="404.12,-74.5 365.62,-74.5 365.62,-55.25 404.12,-55.25 404.12,-74.5"/>
<text text-anchor="middle" x="384.88" y="-61" font-family="Helvetica,sans-Serif" font-size="10.00">utility</text>
</a>
</g>
</g>
<!-- Node1&#45;&gt;Node8 -->
<g id="edge25_Node000001_Node000008" class="edge">
<title>Node1&#45;&gt;Node8</title>
<g id="a_edge25_Node000001_Node000008"><a xlink:title=" ">
<path fill="none" stroke="#63b8ff" d="M393.17,-277.63C448.52,-267.48 523.72,-243.16 554.88,-185 587.99,-123.18 472.53,-86.51 415.24,-72.48"/>
<polygon fill="#63b8ff" stroke="#63b8ff" points="416.31,-69.13 405.77,-70.25 414.7,-75.95 416.31,-69.13"/>
</a>
</g>
</g>
<!-- Node9 -->
<g id="Node000009" class="node">
<title>Node9</title>
<g id="a_Node000009"><a xlink:href="../../d1/da8/_pipeline_8hpp.html" target="_top" xlink:title=" ">
<polygon fill="white" stroke="#666666" points="412.12,-240.25 319.62,-240.25 319.62,-221 412.12,-221 412.12,-240.25"/>
<text text-anchor="middle" x="365.88" y="-226.75" font-family="Helvetica,sans-Serif" font-size="10.00">gimo/Pipeline.hpp</text>
</a>
</g>
</g>
<!-- Node1&#45;&gt;Node9 -->
<g id="edge8_Node000001_Node000009" class="edge">
<title>Node1&#45;&gt;Node9</title>
<g id="a_edge8_Node000001_Node000009"><a xlink:title=" ">
<path fill="none" stroke="#63b8ff" d="M334.15,-276.08C339.23,-268.96 346.57,-258.68 352.91,-249.8"/>
<polygon fill="#63b8ff" stroke="#63b8ff" points="355.62,-252.01 358.58,-241.84 349.93,-247.95 355.62,-252.01"/>
</a>
</g>
</g>
<!-- Node10 -->
<g id="Node000010" class="node">
<title>Node10</title>
<g id="a_Node000010"><a xlink:href="../../de/dca/_basic_algorithm_8hpp.html" target="_top" xlink:title=" ">
<polygon fill="white" stroke="#666666" points="262.25,-185 95.5,-185 95.5,-165.75 262.25,-165.75 262.25,-185"/>
<text text-anchor="middle" x="178.88" y="-171.5" font-family="Helvetica,sans-Serif" font-size="10.00">gimo/algorithm/BasicAlgorithm.hpp</text>
</a>
</g>
</g>
<!-- Node1&#45;&gt;Node10 -->
<g id="edge20_Node000001_Node000010" class="edge">
<title>Node1&#45;&gt;Node10</title>
<g id="a_edge20_Node000001_Node000010"><a xlink:title=" ">
<path fill="none" stroke="#63b8ff" d="M315.43,-275.81C290.06,-257.34 232.09,-215.13 200.45,-192.09"/>
<polygon fill="#63b8ff" stroke="#63b8ff" points="202.55,-189.29 192.41,-186.23 198.43,-194.94 202.55,-189.29"/>
</a>
</g>
</g>
<!-- Node11 -->
<g id="Node000011" class="node">
<title>Node11</title>
<g id="a_Node000011"><a xlink:title=" ">
<polygon fill="#e0e0e0" stroke="#999999" points="489.88,-185 431.88,-185 431.88,-165.75 489.88,-165.75 489.88,-185"/>
<text text-anchor="middle" x="460.88" y="-171.5" font-family="Helvetica,sans-Serif" font-size="10.00">functional</text>
</a>
</g>
</g>
<!-- Node1&#45;&gt;Node11 -->
<g id="edge22_Node000001_Node000011" class="edge">
<title>Node1&#45;&gt;Node11</title>
<g id="a_edge22_Node000001_Node000011"><a xlink:title=" ">
<path fill="none" stroke="#63b8ff" d="M356.77,-275.83C376.49,-268.57 402.31,-256.84 420.88,-240.25 434.75,-227.85 445.55,-209.52 452.41,-195.67"/>
<polygon fill="#63b8ff" stroke="#63b8ff" points="455.54,-197.24 456.59,-186.7 449.2,-194.28 455.54,-197.24"/>
</a>
</g>
</g>
<!-- Node12 -->
<g id="Node000012" class="node">
<title>Node12</title>
<g id="a_Node000012"><a xlink:title=" ">
<polygon fill="#e0e0e0" stroke="#999999" points="545.38,-185 508.38,-185 508.38,-165.75 545.38,-165.75 545.38,-185"/>
<text text-anchor="middle" x="526.88" y="-171.5" font-family="Helvetica,sans-Serif" font-size="10.00">tuple</text>
</a>
</g>
</g>
<!-- Node1&#45;&gt;Node12 -->
<g id="edge23_Node000001_Node000012" class="edge">
<title>Node1&#45;&gt;Node12</title>
<g id="a_edge23_Node000001_Node000012"><a xlink:title=" ">
<path fill="none" stroke="#63b8ff" d="M357.72,-275.85C381.56,-268.05 415.4,-255.62 442.88,-240.25 467.07,-226.71 492,-206.87 508.36,-192.89"/>
<polygon fill="#63b8ff" stroke="#63b8ff" points="510.53,-195.64 515.78,-186.43 505.94,-190.36 510.53,-195.64"/>
</a>
</g>
</g>
<!-- Node3 -->
<g id="Node000003" class="node">
<title>Node3</title>
<g id="a_Node000003"><a xlink:href="../../d8/dd2/_config_8hpp.html" target="_top" xlink:title=" ">
<polygon fill="white" stroke="#666666" points="158.38,-74.5 73.38,-74.5 73.38,-55.25 158.38,-55.25 158.38,-74.5"/>
<text text-anchor="middle" x="115.88" y="-61" font-family="Helvetica,sans-Serif" font-size="10.00">gimo/Config.hpp</text>
</a>
</g>
</g>
<!-- Node2&#45;&gt;Node3 -->
<g id="edge2_Node000002_Node000003" class="edge">
<title>Node2&#45;&gt;Node3</title>
<g id="a_edge2_Node000002_Node000003"><a xlink:title=" ">
<path fill="none" stroke="#63b8ff" d="M164.87,-110.09C156.51,-102.55 144.38,-91.6 134.27,-82.48"/>
<polygon fill="#63b8ff" stroke="#63b8ff" points="136.63,-79.89 126.86,-75.79 131.94,-85.09 136.63,-79.89"/>
</a>
</g>
</g>
<!-- Node2&#45;&gt;Node5 -->
<g id="edge4_Node000002_Node000005" class="edge">
<title>Node2&#45;&gt;Node5</title>
<g id="a_edge4_Node000002_Node000005"><a xlink:title=" ">
<path fill="none" stroke="#63b8ff" d="M149.94,-110.09C126.18,-101.49 90.17,-88.44 63.41,-78.75"/>
<polygon fill="#63b8ff" stroke="#63b8ff" points="64.95,-75.58 54.36,-75.47 62.57,-82.16 64.95,-75.58"/>
</a>
</g>
</g>
<!-- Node6 -->
<g id="Node000006" class="node">
<title>Node6</title>
<g id="a_Node000006"><a xlink:title=" ">
<polygon fill="#e0e0e0" stroke="#999999" points="225,-74.5 176.75,-74.5 176.75,-55.25 225,-55.25 225,-74.5"/>
<text text-anchor="middle" x="200.88" y="-61" font-family="Helvetica,sans-Serif" font-size="10.00">cstddef</text>
</a>
</g>
</g>
<!-- Node2&#45;&gt;Node6 -->
<g id="edge5_Node000002_Node000006" class="edge">
<title>Node2&#45;&gt;Node6</title>
<g id="a_edge5_Node000002_Node000006"><a xlink:title=" ">
<path fill="none" stroke="#63b8ff" d="M179.17,-110.33C182.5,-103.51 187.24,-93.81 191.44,-85.2"/>
<polygon fill="#63b8ff" stroke="#63b8ff" points="194.58,-86.74 195.82,-76.22 188.29,-83.67 194.58,-86.74"/>
</a>
</g>
</g>
<!-- Node2&#45;&gt;Node7 -->
<g id="edge6_Node000002_Node000007" class="edge">
<title>Node2&#45;&gt;Node7</title>
<g id="a_edge6_Node000002_Node000007"><a xlink:title=" ">
<path fill="none" stroke="#63b8ff" d="M192.52,-110.09C208.5,-101.91 232.33,-89.71 250.91,-80.19"/>
<polygon fill="#63b8ff" stroke="#63b8ff" points="252.49,-83.32 259.8,-75.64 249.3,-77.08 252.49,-83.32"/>
</a>
</g>
</g>
<!-- Node2&#45;&gt;Node8 -->
<g id="edge7_Node000002_Node000008" class="edge">
<title>Node2&#45;&gt;Node8</title>
<g id="a_edge7_Node000002_Node000008"><a xlink:title=" ">
<path fill="none" stroke="#63b8ff" d="M210.5,-110.09C250.9,-99.85 316.12,-83.31 354.3,-73.63"/>
<polygon fill="#63b8ff" stroke="#63b8ff" points="354.93,-77.08 363.76,-71.23 353.21,-70.29 354.93,-77.08"/>
</a>
</g>
</g>
<!-- Node4 -->
<g id="Node000004" class="node">
<title>Node4</title>
<g id="a_Node000004"><a xlink:title=" ">
<polygon fill="#e0e0e0" stroke="#999999" points="140,-19.25 91.75,-19.25 91.75,0 140,0 140,-19.25"/>
<text text-anchor="middle" x="115.88" y="-5.75" font-family="Helvetica,sans-Serif" font-size="10.00">cassert</text>
</a>
</g>
</g>
<!-- Node3&#45;&gt;Node4 -->
<g id="edge3_Node000003_Node000004" class="edge">
<title>Node3&#45;&gt;Node4</title>
<g id="a_edge3_Node000003_Node000004"><a xlink:title=" ">
<path fill="none" stroke="#63b8ff" d="M115.88,-55.08C115.88,-48.57 115.88,-39.42 115.88,-31.12"/>
<polygon fill="#63b8ff" stroke="#63b8ff" points="119.38,-31.12 115.88,-21.12 112.38,-31.12 119.38,-31.12"/>
</a>
</g>
</g>
<!-- Node9&#45;&gt;Node2 -->
<g id="edge9_Node000009_Node000002" class="edge">
<title>Node9&#45;&gt;Node2</title>
<g id="a_edge9_Node000009_Node000002"><a xlink:title=" ">
<path fill="none" stroke="#63b8ff" d="M353.67,-220.51C335.96,-207.49 301.86,-183.23 270.88,-165.75 250.27,-154.13 226.11,-142.91 207.18,-134.63"/>
<polygon fill="#63b8ff" stroke="#63b8ff" points="208.67,-131.46 198.1,-130.71 205.9,-137.88 208.67,-131.46"/>
</a>
</g>
</g>
<!-- Node9&#45;&gt;Node7 -->
<g id="edge18_Node000009_Node000007" class="edge">
<title>Node9&#45;&gt;Node7</title>
<g id="a_edge18_Node000009_Node000007"><a xlink:title=" ">
<path fill="none" stroke="#63b8ff" d="M361.3,-220.61C351.16,-200.66 325.93,-151.32 303.88,-110.5 299.23,-101.91 293.96,-92.46 289.46,-84.48"/>
<polygon fill="#63b8ff" stroke="#63b8ff" points="292.66,-83.01 284.68,-76.04 286.57,-86.46 292.66,-83.01"/>
</a>
</g>
</g>
<!-- Node9&#45;&gt;Node8 -->
<g id="edge19_Node000009_Node000008" class="edge">
<title>Node9&#45;&gt;Node8</title>
<g id="a_edge19_Node000009_Node000008"><a xlink:title=" ">
<path fill="none" stroke="#63b8ff" d="M369.49,-220.57C372.85,-211.67 377.67,-197.64 379.88,-185 385.86,-150.76 386.14,-110.19 385.63,-86.32"/>
<polygon fill="#63b8ff" stroke="#63b8ff" points="389.13,-86.33 385.34,-76.44 382.14,-86.54 389.13,-86.33"/>
</a>
</g>
</g>
<!-- Node9&#45;&gt;Node10 -->
<g id="edge10_Node000009_Node000010" class="edge">
<title>Node9&#45;&gt;Node10</title>
<g id="a_edge10_Node000009_Node000010"><a xlink:title=" ">
<path fill="none" stroke="#63b8ff" d="M334.15,-220.59C303.12,-211.76 255.67,-198.24 221.38,-188.48"/>
<polygon fill="#63b8ff" stroke="#63b8ff" points="222.78,-185.24 212.21,-185.87 220.87,-191.97 222.78,-185.24"/>
</a>
</g>
</g>
<!-- Node9&#45;&gt;Node11 -->
<g id="edge16_Node000009_Node000011" class="edge">
<title>Node9&#45;&gt;Node11</title>
<g id="a_edge16_Node000009_Node000011"><a xlink:title=" ">
<path fill="none" stroke="#63b8ff" d="M381.99,-220.59C396.46,-212.48 417.95,-200.43 434.86,-190.96"/>
<polygon fill="#63b8ff" stroke="#63b8ff" points="436.35,-194.14 443.36,-186.19 432.93,-188.03 436.35,-194.14"/>
</a>
</g>
</g>
<!-- Node9&#45;&gt;Node12 -->
<g id="edge17_Node000009_Node000012" class="edge">
<title>Node9&#45;&gt;Node12</title>
<g id="a_edge17_Node000009_Node000012"><a xlink:title=" ">
<path fill="none" stroke="#63b8ff" d="M393.19,-220.59C422.14,-211.01 467.72,-195.94 497.45,-186.11"/>
<polygon fill="#63b8ff" stroke="#63b8ff" points="498.18,-189.55 506.57,-183.09 495.98,-182.91 498.18,-189.55"/>
</a>
</g>
</g>
<!-- Node10&#45;&gt;Node2 -->
<g id="edge11_Node000010_Node000002" class="edge">
<title>Node10&#45;&gt;Node2</title>
<g id="a_edge11_Node000010_Node000002"><a xlink:title=" ">
<path fill="none" stroke="#63b8ff" d="M178.21,-165.58C177.72,-158.99 177.02,-149.71 176.39,-141.32"/>
<polygon fill="#63b8ff" stroke="#63b8ff" points="179.9,-141.33 175.66,-131.62 172.92,-141.85 179.9,-141.33"/>
</a>
</g>
</g>
<!-- Node10&#45;&gt;Node3 -->
<g id="edge12_Node000010_Node000003" class="edge">
<title>Node10&#45;&gt;Node3</title>
<g id="a_edge12_Node000010_Node000003"><a xlink:title=" ">
<path fill="none" stroke="#63b8ff" d="M158.23,-165.36C144.13,-157.99 126.5,-146.12 117.88,-129.75 110.82,-116.36 110.71,-99.11 112.15,-85.91"/>
<polygon fill="#63b8ff" stroke="#63b8ff" points="115.58,-86.66 113.61,-76.25 108.66,-85.61 115.58,-86.66"/>
</a>
</g>
</g>
<!-- Node10&#45;&gt;Node5 -->
<g id="edge13_Node000010_Node000005" class="edge">
<title>Node10&#45;&gt;Node5</title>
<g id="a_edge13_Node000010_Node000005"><a xlink:title=" ">
<path fill="none" stroke="#63b8ff" d="M163.31,-165.29C148.71,-156.59 126.39,-142.9 107.88,-129.75 86.31,-114.44 62.79,-95.35 46.87,-82.04"/>
<polygon fill="#63b8ff" stroke="#63b8ff" points="49.51,-79.69 39.6,-75.92 45,-85.04 49.51,-79.69"/>
</a>
</g>
</g>
<!-- Node10&#45;&gt;Node7 -->
<g id="edge14_Node000010_Node000007" class="edge">
<title>Node10&#45;&gt;Node7</title>
<g id="a_edge14_Node000010_Node000007"><a xlink:title=" ">
<path fill="none" stroke="#63b8ff" d="M191.67,-165.28C203.14,-156.8 220.08,-143.43 232.88,-129.75 246.14,-115.58 258.84,-97.47 267.53,-84.15"/>
<polygon fill="#63b8ff" stroke="#63b8ff" points="270.33,-86.26 272.75,-75.95 264.43,-82.5 270.33,-86.26"/>
</a>
</g>
</g>
<!-- Node10&#45;&gt;Node8 -->
<g id="edge15_Node000010_Node000008" class="edge">
<title>Node10&#45;&gt;Node8</title>
<g id="a_edge15_Node000010_Node000008"><a xlink:title=" ">
<path fill="none" stroke="#63b8ff" d="M196.08,-165.31C231.83,-146.48 314.38,-103.01 357.51,-80.29"/>
<polygon fill="#63b8ff" stroke="#63b8ff" points="359.01,-83.45 366.23,-75.69 355.75,-77.26 359.01,-83.45"/>
</a>
</g>
</g>
</g>
</svg>
