<?xml version="1.0" encoding="UTF-8" standalone="no"?>
<!DOCTYPE svg PUBLIC "-//W3C//DTD SVG 1.1//EN"
 "http://www.w3.org/Graphics/SVG/1.1/DTD/svg11.dtd">
<!-- Generated by graphviz version 12.2.1 (20241206.2353)
 -->
<!-- Title: gimo/algorithm/BasicAlgorithm.hpp Pages: 1 -->
<svg width="369pt" height="193pt"
 viewBox="0.00 0.00 368.75 193.00" xmlns="http://www.w3.org/2000/svg" xmlns:xlink="http://www.w3.org/1999/xlink">

<svg id="main" version="1.1" xmlns="http://www.w3.org/2000/svg" xmlns:xlink="http://www.w3.org/1999/xlink" xml:space="preserve">

<style type="text/css"><![CDATA[
.node, .edge {opacity: 0.7;}
.node.selected, .edge.selected {opacity: 1;}
.edge:hover path { stroke: red; }
.edge:hover polygon { stroke: red; fill: red; }
]]></style>
<script type="application/ecmascript" xlink:href="../../svg.min.js"/>
<svg id="graph" class="graph">
<g id="graph0" class="graph" transform="scale(1 1) rotate(0) translate(4 189)">
<title>gimo/algorithm/BasicAlgorithm.hpp</title>
<!-- Node1 -->
<g id="Node000001" class="node">
<title>Node1</title>
<g id="a_Node000001"><a xlink:title=" ">
<polygon fill="#999999" stroke="#666666" points="283.88,-185 117.12,-185 117.12,-165.75 283.88,-165.75 283.88,-185"/>
<text text-anchor="middle" x="200.5" y="-171.5" font-family="Helvetica,sans-Serif" font-size="10.00">gimo/algorithm/BasicAlgorithm.hpp</text>
</a>
</g>
</g>
<!-- Node2 -->
<g id="Node000002" class="node">
<title>Node2</title>
<g id="a_Node000002"><a xlink:href="../../d3/d58/_common_8hpp.html" target="_top" xlink:title=" ">
<polygon fill="white" stroke="#666666" points="249,-129.75 152,-129.75 152,-110.5 249,-110.5 249,-129.75"/>
<text text-anchor="middle" x="200.5" y="-116.25" font-family="Helvetica,sans-Serif" font-size="10.00">gimo/Common.hpp</text>
</a>
</g>
</g>
<!-- Node1&#45;&gt;Node2 -->
<g id="edge1_Node000001_Node000002" class="edge">
<title>Node1&#45;&gt;Node2</title>
<g id="a_edge1_Node000001_Node000002"><a xlink:title=" ">
<path fill="none" stroke="#63b8ff" d="M200.5,-165.58C200.5,-159.07 200.5,-149.92 200.5,-141.62"/>
<polygon fill="#63b8ff" stroke="#63b8ff" points="204,-141.62 200.5,-131.62 197,-141.62 204,-141.62"/>
</a>
</g>
</g>
<!-- Node3 -->
<g id="Node000003" class="node">
<title>Node3</title>
<g id="a_Node000003"><a xlink:href="../../d8/dd2/_config_8hpp.html" target="_top" xlink:title=" ">
<polygon fill="white" stroke="#666666" points="85,-74.5 0,-74.5 0,-55.25 85,-55.25 85,-74.5"/>
<text text-anchor="middle" x="42.5" y="-61" font-family="Helvetica,sans-Serif" font-size="10.00">gimo/Config.hpp</text>
</a>
</g>
</g>
<!-- Node1&#45;&gt;Node3 -->
<g id="edge8_Node000001_Node000003" class="edge">
<title>Node1&#45;&gt;Node3</title>
<g id="a_edge8_Node000001_Node000003"><a xlink:title=" ">
<path fill="none" stroke="#63b8ff" d="M186.1,-165.34C172.04,-156.47 150.13,-142.45 131.5,-129.75 108.14,-113.83 81.9,-94.86 64,-81.75"/>
<polygon fill="#63b8ff" stroke="#63b8ff" points="66.1,-78.95 55.97,-75.85 61.95,-84.59 66.1,-78.95"/>
</a>
</g>
</g>
<!-- Node5 -->
<g id="Node000005" class="node">
<title>Node5</title>
<g id="a_Node000005"><a xlink:title=" ">
<polygon fill="#e0e0e0" stroke="#999999" points="158.38,-74.5 102.62,-74.5 102.62,-55.25 158.38,-55.25 158.38,-74.5"/>
<text text-anchor="middle" x="130.5" y="-61" font-family="Helvetica,sans-Serif" font-size="10.00">concepts</text>
</a>
</g>
</g>
<!-- Node1&#45;&gt;Node5 -->
<g id="edge9_Node000001_Node000005" class="edge">
<title>Node1&#45;&gt;Node5</title>
<g id="a_edge9_Node000001_Node000005"><a xlink:title=" ">
<path fill="none" stroke="#63b8ff" d="M183.32,-165.38C170.33,-157.68 153.15,-145.36 143.5,-129.75 135.38,-116.62 132.23,-99.35 131.05,-86.07"/>
<polygon fill="#63b8ff" stroke="#63b8ff" points="134.56,-86.14 130.51,-76.35 127.57,-86.53 134.56,-86.14"/>
</a>
</g>
</g>
<!-- Node7 -->
<g id="Node000007" class="node">
<title>Node7</title>
<g id="a_Node000007"><a xlink:title=" ">
<polygon fill="#e0e0e0" stroke="#999999" points="304,-74.5 243,-74.5 243,-55.25 304,-55.25 304,-74.5"/>
<text text-anchor="middle" x="273.5" y="-61" font-family="Helvetica,sans-Serif" font-size="10.00">type_traits</text>
</a>
</g>
</g>
<!-- Node1&#45;&gt;Node7 -->
<g id="edge10_Node000001_Node000007" class="edge">
<title>Node1&#45;&gt;Node7</title>
<g id="a_edge10_Node000001_Node000007"><a xlink:title=" ">
<path fill="none" stroke="#63b8ff" d="M217.85,-165.37C231,-157.66 248.45,-145.34 258.5,-129.75 266.92,-116.69 270.63,-99.41 272.25,-86.12"/>
<polygon fill="#63b8ff" stroke="#63b8ff" points="275.72,-86.64 273.12,-76.37 268.75,-86.02 275.72,-86.64"/>
</a>
</g>
</g>
<!-- Node8 -->
<g id="Node000008" class="node">
<title>Node8</title>
<g id="a_Node000008"><a xlink:title=" ">
<polygon fill="#e0e0e0" stroke="#999999" points="360.75,-74.5 322.25,-74.5 322.25,-55.25 360.75,-55.25 360.75,-74.5"/>
<text text-anchor="middle" x="341.5" y="-61" font-family="Helvetica,sans-Serif" font-size="10.00">utility</text>
</a>
</g>
</g>
<!-- Node1&#45;&gt;Node8 -->
<g id="edge11_Node000001_Node000008" class="edge">
<title>Node1&#45;&gt;Node8</title>
<g id="a_edge11_Node000001_Node000008"><a xlink:title=" ">
<path fill="none" stroke="#63b8ff" d="M218.8,-165.27C234.71,-156.98 258.04,-143.9 276.5,-129.75 294.87,-115.68 313.46,-96.84 326.03,-83.27"/>
<polygon fill="#63b8ff" stroke="#63b8ff" points="328.54,-85.72 332.67,-75.96 323.36,-81.01 328.54,-85.72"/>
</a>
</g>
</g>
<!-- Node2&#45;&gt;Node3 -->
<g id="edge2_Node000002_Node000003" class="edge">
<title>Node2&#45;&gt;Node3</title>
<g id="a_edge2_Node000002_Node000003"><a xlink:title=" ">
<path fill="none" stroke="#63b8ff" d="M173.7,-110.09C148.05,-101.45 109.11,-88.32 80.31,-78.62"/>
<polygon fill="#63b8ff" stroke="#63b8ff" points="81.46,-75.31 70.87,-75.44 79.23,-81.95 81.46,-75.31"/>
</a>
</g>
</g>
<!-- Node2&#45;&gt;Node5 -->
<g id="edge4_Node000002_Node000005" class="edge">
<title>Node2&#45;&gt;Node5</title>
<g id="a_edge4_Node000002_Node000005"><a xlink:title=" ">
<path fill="none" stroke="#63b8ff" d="M188.63,-110.09C178.41,-102.32 163.43,-90.92 151.24,-81.65"/>
<polygon fill="#63b8ff" stroke="#63b8ff" points="153.48,-78.96 143.4,-75.69 149.24,-84.53 153.48,-78.96"/>
</a>
</g>
</g>
<!-- Node6 -->
<g id="Node000006" class="node">
<title>Node6</title>
<g id="a_Node000006"><a xlink:title=" ">
<polygon fill="#e0e0e0" stroke="#999999" points="224.62,-74.5 176.38,-74.5 176.38,-55.25 224.62,-55.25 224.62,-74.5"/>
<text text-anchor="middle" x="200.5" y="-61" font-family="Helvetica,sans-Serif" font-size="10.00">cstddef</text>
</a>
</g>
</g>
<!-- Node2&#45;&gt;Node6 -->
<g id="edge5_Node000002_Node000006" class="edge">
<title>Node2&#45;&gt;Node6</title>
<g id="a_edge5_Node000002_Node000006"><a xlink:title=" ">
<path fill="none" stroke="#63b8ff" d="M200.5,-110.33C200.5,-103.82 200.5,-94.67 200.5,-86.37"/>
<polygon fill="#63b8ff" stroke="#63b8ff" points="204,-86.37 200.5,-76.37 197,-86.37 204,-86.37"/>
</a>
</g>
</g>
<!-- Node2&#45;&gt;Node7 -->
<g id="edge6_Node000002_Node000007" class="edge">
<title>Node2&#45;&gt;Node7</title>
<g id="a_edge6_Node000002_Node000007"><a xlink:title=" ">
<path fill="none" stroke="#63b8ff" d="M212.88,-110.09C223.65,-102.24 239.47,-90.7 252.25,-81.37"/>
<polygon fill="#63b8ff" stroke="#63b8ff" points="254.06,-84.39 260.08,-75.67 249.94,-78.73 254.06,-84.39"/>
</a>
</g>
</g>
<!-- Node2&#45;&gt;Node8 -->
<g id="edge7_Node000002_Node000008" class="edge">
<title>Node2&#45;&gt;Node8</title>
<g id="a_edge7_Node000002_Node000008"><a xlink:title=" ">
<path fill="none" stroke="#63b8ff" d="M224.42,-110.09C248.37,-101.05 285.32,-87.09 311.28,-77.29"/>
<polygon fill="#63b8ff" stroke="#63b8ff" points="312.48,-80.58 320.6,-73.77 310,-74.03 312.48,-80.58"/>
</a>
</g>
</g>
<!-- Node4 -->
<g id="Node000004" class="node">
<title>Node4</title>
<g id="a_Node000004"><a xlink:title=" ">
<polygon fill="#e0e0e0" stroke="#999999" points="66.62,-19.25 18.38,-19.25 18.38,0 66.62,0 66.62,-19.25"/>
<text text-anchor="middle" x="42.5" y="-5.75" font-family="Helvetica,sans-Serif" font-size="10.00">cassert</text>
</a>
</g>
</g>
<!-- Node3&#45;&gt;Node4 -->
<g id="edge3_Node000003_Node000004" class="edge">
<title>Node3&#45;&gt;Node4</title>
<g id="a_edge3_Node000003_Node000004"><a xlink:title=" ">
<path fill="none" stroke="#63b8ff" d="M42.5,-55.08C42.5,-48.57 42.5,-39.42 42.5,-31.12"/>
<polygon fill="#63b8ff" stroke="#63b8ff" points="46,-31.12 42.5,-21.12 39,-31.12 46,-31.12"/>
</a>
</g>
</g>
</g>
</svg>
</svg>

<style type='text/css'>
<![CDATA[
[data-mouse-over-selected='false'] { opacity: 0.7; }
[data-mouse-over-selected='true']  { opacity: 1.0; }
]]>
</style>
<script type="application/ecmascript"><![CDATA[
document.addEventListener('DOMContentLoaded', (event) => {
  highlightEdges();
  highlightAdjacentNodes();
});
]]></script>
</svg>
