<?xml version="1.0" encoding="UTF-8" standalone="no"?>
<!DOCTYPE svg PUBLIC "-//W3C//DTD SVG 1.1//EN"
 "http://www.w3.org/Graphics/SVG/1.1/DTD/svg11.dtd">
<!-- Generated by graphviz version 12.2.1 (20241206.2353)
 -->
<!-- Title: gimo/Config.hpp Pages: 1 -->
<!--zoomable 315 -->

<svg id="main" version="1.1" xmlns="http://www.w3.org/2000/svg" xmlns:xlink="http://www.w3.org/1999/xlink" xml:space="preserve" onload="init(evt)">

<style type="text/css"><![CDATA[
.node, .edge {opacity: 0.7;}
.node.selected, .edge.selected {opacity: 1;}
.edge:hover path { stroke: red; }
.edge:hover polygon { stroke: red; fill: red; }
]]></style>

<defs>
  <circle id="rim" cx="0" cy="0" r="7"/>
  <circle id="rim2" cx="0" cy="0" r="3.5"/>
  <g id="zoomPlus">
    <use xlink:href="#rim" fill="#404040"><set attributeName="fill" to="#808080" begin="zoomplus.mouseover" end="zoomplus.mouseout"/></use>
    <path d="M-4,0h8M0,-4v8" fill="none" stroke="white" stroke-width="1.5" pointer-events="none"/>
  </g>
  <g id="zoomMin">
    <use xlink:href="#rim" fill="#404040"><set attributeName="fill" to="#808080" begin="zoomminus.mouseover" end="zoomminus.mouseout"/></use>
    <path d="M-4,0h8" fill="none" stroke="white" stroke-width="1.5" pointer-events="none"/>
  </g>
  <g id="arrowUp" transform="translate(30 24)">
    <use xlink:href="#rim"/>
    <path pointer-events="none" fill="none" stroke="white" stroke-width="1.5" d="M0,-3.0v7 M-2.5,-0.5L0,-3.0L2.5,-0.5"/>
  </g>
  <g id="arrowRight" transform="rotate(90) translate(36 -43)">
    <use xlink:href="#rim"/>
    <path pointer-events="none" fill="none" stroke="white" stroke-width="1.5" d="M0,-3.0v7 M-2.5,-0.5L0,-3.0L2.5,-0.5"/>
  </g>
  <g id="arrowDown" transform="rotate(180) translate(-30 -48)">
    <use xlink:href="#rim"/>
    <path pointer-events="none" fill="none" stroke="white" stroke-width="1.5" d="M0,-3.0v7 M-2.5,-0.5L0,-3.0L2.5,-0.5"/>
  </g>
  <g id="arrowLeft" transform="rotate(270) translate(-36 17)">
    <use xlink:href="#rim"/>
    <path pointer-events="none" fill="none" stroke="white" stroke-width="1.5" d="M0,-3.0v7 M-2.5,-0.5L0,-3.0L2.5,-0.5"/>
  </g>
  <g id="resetDef">
    <use xlink:href="#rim2" fill="#404040"><set attributeName="fill" to="#808080" begin="reset.mouseover" end="reset.mouseout"/></use>
  </g>
</defs>
<script type="application/ecmascript">
var viewWidth = 737;
var viewHeight = 315;
var sectionId = 'dynsection-1';
</script>
<script type="application/ecmascript" xlink:href="../../svg.min.js"/>
<svg id="graph" class="graph">
<g id="viewport">
<title>gimo/Config.hpp</title>
<!-- Node1 -->
<g id="Node000001" class="node">
<title>Node1</title>
<g id="a_Node000001"><a xlink:title=" ">
<polygon fill="#999999" stroke="#666666" points="253.5,-306.75 168.5,-306.75 168.5,-287.5 253.5,-287.5 253.5,-306.75"/>
<text text-anchor="middle" x="211" y="-293.25" font-family="Helvetica,sans-Serif" font-size="10.00">gimo/Config.hpp</text>
</a>
</g>
</g>
<!-- Node2 -->
<g id="Node000002" class="node">
<title>Node2</title>
<g id="a_Node000002"><a xlink:href="../../d4/d5a/gimo_8hpp.html" target="_top" xlink:title=" ">
<polygon fill="white" stroke="#666666" points="368.5,-19.25 313.5,-19.25 313.5,0 368.5,0 368.5,-19.25"/>
<text text-anchor="middle" x="341" y="-5.75" font-family="Helvetica,sans-Serif" font-size="10.00">gimo.hpp</text>
</a>
</g>
</g>
<!-- Node1&#45;&gt;Node2 -->
<g id="edge1_Node000001_Node000002" class="edge">
<title>Node1&#45;&gt;Node2</title>
<g id="a_edge1_Node000001_Node000002"><a xlink:title=" ">
<path fill="none" stroke="#63b8ff" d="M156.77,-291.49C94.26,-282.84 0,-258.1 0,-187.62 0,-187.62 0,-187.62 0,-130.38 0,-91.9 11.24,-76.97 43,-55.25 86.72,-25.35 247.73,-14.83 313.12,-11.74"/>
<polygon fill="#63b8ff" stroke="#63b8ff" points="156.18,-294.95 166.55,-292.74 157.07,-288 156.18,-294.95"/>
</a>
</g>
</g>
<!-- Node3 -->
<g id="Node000003" class="node">
<title>Node3</title>
<g id="a_Node000003"><a xlink:href="../../d3/d58/_common_8hpp.html" target="_top" xlink:title=" ">
<polygon fill="white" stroke="#666666" points="398.5,-251.5 301.5,-251.5 301.5,-232.25 398.5,-232.25 398.5,-251.5"/>
<text text-anchor="middle" x="350" y="-238" font-family="Helvetica,sans-Serif" font-size="10.00">gimo/Common.hpp</text>
</a>
</g>
</g>
<!-- Node1&#45;&gt;Node3 -->
<g id="edge2_Node000001_Node000003" class="edge">
<title>Node1&#45;&gt;Node3</title>
<g id="a_edge2_Node000001_Node000003"><a xlink:title=" ">
<path fill="none" stroke="#63b8ff" d="M245.15,-283.04C270.35,-273.39 304,-260.5 326.3,-251.95"/>
<polygon fill="#63b8ff" stroke="#63b8ff" points="244.08,-279.7 235.99,-286.55 246.58,-286.24 244.08,-279.7"/>
</a>
</g>
</g>
<!-- Node9 -->
<g id="Node000009" class="node">
<title>Node9</title>
<g id="a_Node000009"><a xlink:href="../../de/dca/_basic_algorithm_8hpp.html" target="_top" xlink:title=" ">
<polygon fill="white" stroke="#666666" points="294.38,-196.25 127.62,-196.25 127.62,-177 294.38,-177 294.38,-196.25"/>
<text text-anchor="middle" x="211" y="-182.75" font-family="Helvetica,sans-Serif" font-size="10.00">gimo/algorithm/BasicAlgorithm.hpp</text>
</a>
</g>
</g>
<!-- Node1&#45;&gt;Node9 -->
<g id="edge25_Node000001_Node000009" class="edge">
<title>Node1&#45;&gt;Node9</title>
<g id="a_edge25_Node000001_Node000009"><a xlink:title=" ">
<path fill="none" stroke="#63b8ff" d="M211,-275.78C211,-252.05 211,-213.89 211,-196.63"/>
<polygon fill="#63b8ff" stroke="#63b8ff" points="207.5,-275.73 211,-285.73 214.5,-275.73 207.5,-275.73"/>
</a>
</g>
</g>
<!-- Node3&#45;&gt;Node2 -->
<g id="edge3_Node000003_Node000002" class="edge">
<title>Node3&#45;&gt;Node2</title>
<g id="a_edge3_Node000003_Node000002"><a xlink:title=" ">
<path fill="none" stroke="#63b8ff" d="M410.24,-232.81C535.01,-213.81 802.61,-159.73 710,-55.25 687.39,-29.75 450.83,-15.95 368.81,-11.9"/>
<polygon fill="#63b8ff" stroke="#63b8ff" points="409.86,-229.33 400.49,-234.27 410.89,-236.25 409.86,-229.33"/>
</a>
</g>
</g>
<!-- Node4 -->
<g id="Node000004" class="node">
<title>Node4</title>
<g id="a_Node000004"><a xlink:href="../../d1/da8/_pipeline_8hpp.html" target="_top" xlink:title=" ">
<polygon fill="white" stroke="#666666" points="424.25,-141 331.75,-141 331.75,-121.75 424.25,-121.75 424.25,-141"/>
<text text-anchor="middle" x="378" y="-127.5" font-family="Helvetica,sans-Serif" font-size="10.00">gimo/Pipeline.hpp</text>
</a>
</g>
</g>
<!-- Node3&#45;&gt;Node4 -->
<g id="edge4_Node000003_Node000004" class="edge">
<title>Node3&#45;&gt;Node4</title>
<g id="a_edge4_Node000003_Node000004"><a xlink:title=" ">
<path fill="none" stroke="#63b8ff" d="M355.17,-220.85C361.28,-197.15 371.2,-158.72 375.68,-141.38"/>
<polygon fill="#63b8ff" stroke="#63b8ff" points="351.78,-219.97 352.67,-230.53 358.56,-221.72 351.78,-219.97"/>
</a>
</g>
</g>
<!-- Node5 -->
<g id="Node000005" class="node">
<title>Node5</title>
<g id="a_Node000005"><a xlink:href="../../d6/d3f/_and_then_8hpp.html" target="_top" xlink:title=" ">
<polygon fill="white" stroke="#666666" points="700.88,-80.12 561.12,-80.12 561.12,-60.88 700.88,-60.88 700.88,-80.12"/>
<text text-anchor="middle" x="631" y="-66.62" font-family="Helvetica,sans-Serif" font-size="10.00">gimo/algorithm/AndThen.hpp</text>
</a>
</g>
</g>
<!-- Node3&#45;&gt;Node5 -->
<g id="edge14_Node000003_Node000005" class="edge">
<title>Node3&#45;&gt;Node5</title>
<g id="a_edge14_Node000003_Node000005"><a xlink:title=" ">
<path fill="none" stroke="#63b8ff" d="M376.61,-226.68C392.52,-218.09 413.05,-206.78 431,-196.25 501.94,-154.62 584.78,-101.46 617.1,-80.54"/>
<polygon fill="#63b8ff" stroke="#63b8ff" points="375.38,-223.37 368.24,-231.19 378.7,-229.53 375.38,-223.37"/>
</a>
</g>
</g>
<!-- Node6 -->
<g id="Node000006" class="node">
<title>Node6</title>
<g id="a_Node000006"><a xlink:href="../../d4/d96/_or_else_8hpp.html" target="_top" xlink:title=" ">
<polygon fill="white" stroke="#666666" points="360,-80.12 230,-80.12 230,-60.88 360,-60.88 360,-80.12"/>
<text text-anchor="middle" x="295" y="-66.62" font-family="Helvetica,sans-Serif" font-size="10.00">gimo/algorithm/OrElse.hpp</text>
</a>
</g>
</g>
<!-- Node3&#45;&gt;Node6 -->
<g id="edge22_Node000003_Node000006" class="edge">
<title>Node3&#45;&gt;Node6</title>
<g id="a_edge22_Node000003_Node000006"><a xlink:title=" ">
<path fill="none" stroke="#63b8ff" d="M343.53,-220.94C331.53,-184 306.3,-106.31 297.84,-80.24"/>
<polygon fill="#63b8ff" stroke="#63b8ff" points="340.16,-221.9 346.58,-230.33 346.82,-219.74 340.16,-221.9"/>
</a>
</g>
</g>
<!-- Node7 -->
<g id="Node000007" class="node">
<title>Node7</title>
<g id="a_Node000007"><a xlink:href="../../d9/d8c/_transform_8hpp.html" target="_top" xlink:title=" ">
<polygon fill="white" stroke="#666666" points="211.5,-80.12 66.5,-80.12 66.5,-60.88 211.5,-60.88 211.5,-80.12"/>
<text text-anchor="middle" x="139" y="-66.62" font-family="Helvetica,sans-Serif" font-size="10.00">gimo/algorithm/Transform.hpp</text>
</a>
</g>
</g>
<!-- Node3&#45;&gt;Node7 -->
<g id="edge23_Node000003_Node000007" class="edge">
<title>Node3&#45;&gt;Node7</title>
<g id="a_edge23_Node000003_Node000007"><a xlink:title=" ">
<path fill="none" stroke="#63b8ff" d="M289.6,-237.69C228.55,-233.06 140.25,-222 119,-196.25 90.52,-161.74 120.13,-103.01 133.33,-80.58"/>
<polygon fill="#63b8ff" stroke="#63b8ff" points="289.31,-241.18 299.53,-238.4 289.81,-234.2 289.31,-241.18"/>
</a>
</g>
</g>
<!-- Node8 -->
<g id="Node000008" class="node">
<title>Node8</title>
<g id="a_Node000008"><a xlink:href="../../d9/d45/_transform_error_8hpp.html" target="_top" xlink:title=" ">
<polygon fill="white" stroke="#666666" points="543.5,-85.75 416.5,-85.75 416.5,-55.25 543.5,-55.25 543.5,-85.75"/>
<text text-anchor="start" x="424.5" y="-72.25" font-family="Helvetica,sans-Serif" font-size="10.00">gimo/algorithm/Transform</text>
<text text-anchor="middle" x="480" y="-61" font-family="Helvetica,sans-Serif" font-size="10.00">Error.hpp</text>
</a>
</g>
</g>
<!-- Node3&#45;&gt;Node8 -->
<g id="edge24_Node000003_Node000008" class="edge">
<title>Node3&#45;&gt;Node8</title>
<g id="a_edge24_Node000003_Node000008"><a xlink:title=" ">
<path fill="none" stroke="#63b8ff" d="M372.27,-225.45C396.36,-207.68 434.35,-176.36 457,-141 468.04,-123.77 474.29,-100.72 477.41,-85.99"/>
<polygon fill="#63b8ff" stroke="#63b8ff" points="370.48,-222.42 364.41,-231.11 374.57,-228.1 370.48,-222.42"/>
</a>
</g>
</g>
<!-- Node3&#45;&gt;Node9 -->
<g id="edge15_Node000003_Node000009" class="edge">
<title>Node3&#45;&gt;Node9</title>
<g id="a_edge15_Node000003_Node000009"><a xlink:title=" ">
<path fill="none" stroke="#63b8ff" d="M315.85,-227.79C290.65,-218.14 257,-205.25 234.7,-196.7"/>
<polygon fill="#63b8ff" stroke="#63b8ff" points="314.42,-230.99 325.01,-231.3 316.92,-224.45 314.42,-230.99"/>
</a>
</g>
</g>
<!-- Node4&#45;&gt;Node2 -->
<g id="edge5_Node000004_Node000002" class="edge">
<title>Node4&#45;&gt;Node2</title>
<g id="a_edge5_Node000004_Node000002"><a xlink:title=" ">
<path fill="none" stroke="#63b8ff" d="M377.96,-109.98C377.36,-94.55 375.29,-73.05 369,-55.25 364.24,-41.8 354.89,-28.17 348.3,-19.58"/>
<polygon fill="#63b8ff" stroke="#63b8ff" points="374.45,-109.85 378.15,-119.78 381.45,-109.72 374.45,-109.85"/>
</a>
</g>
</g>
<!-- Node4&#45;&gt;Node5 -->
<g id="edge6_Node000004_Node000005" class="edge">
<title>Node4&#45;&gt;Node5</title>
<g id="a_edge6_Node000004_Node000005"><a xlink:title=" ">
<path fill="none" stroke="#63b8ff" d="M428.07,-118.72C476.2,-107.52 547.95,-90.83 591.98,-80.58"/>
<polygon fill="#63b8ff" stroke="#63b8ff" points="427.4,-115.29 418.45,-120.96 428.98,-122.1 427.4,-115.29"/>
</a>
</g>
</g>
<!-- Node4&#45;&gt;Node6 -->
<g id="edge8_Node000004_Node000006" class="edge">
<title>Node4&#45;&gt;Node6</title>
<g id="a_edge8_Node000004_Node000006"><a xlink:title=" ">
<path fill="none" stroke="#63b8ff" d="M356.06,-114.81C340.65,-103.88 320.57,-89.64 307.72,-80.53"/>
<polygon fill="#63b8ff" stroke="#63b8ff" points="353.98,-117.63 364.16,-120.56 358.03,-111.92 353.98,-117.63"/>
</a>
</g>
</g>
<!-- Node4&#45;&gt;Node7 -->
<g id="edge10_Node000004_Node000007" class="edge">
<title>Node4&#45;&gt;Node7</title>
<g id="a_edge10_Node000004_Node000007"><a xlink:title=" ">
<path fill="none" stroke="#63b8ff" d="M330.12,-118.58C284.66,-107.38 217.28,-90.78 175.86,-80.58"/>
<polygon fill="#63b8ff" stroke="#63b8ff" points="329.16,-121.95 339.71,-120.94 330.84,-115.15 329.16,-121.95"/>
</a>
</g>
</g>
<!-- Node4&#45;&gt;Node8 -->
<g id="edge12_Node000004_Node000008" class="edge">
<title>Node4&#45;&gt;Node8</title>
<g id="a_edge12_Node000004_Node000008"><a xlink:title=" ">
<path fill="none" stroke="#63b8ff" d="M403.1,-115.89C418.84,-106.8 439.07,-95.13 454.82,-86.03"/>
<polygon fill="#63b8ff" stroke="#63b8ff" points="401.71,-112.65 394.8,-120.68 405.21,-118.71 401.71,-112.65"/>
</a>
</g>
</g>
<!-- Node5&#45;&gt;Node2 -->
<g id="edge7_Node000005_Node000002" class="edge">
<title>Node5&#45;&gt;Node2</title>
<g id="a_edge7_Node000005_Node000002"><a xlink:title=" ">
<path fill="none" stroke="#63b8ff" d="M575.2,-58.17C513.32,-45.61 416,-25.85 368.68,-16.24"/>
<polygon fill="#63b8ff" stroke="#63b8ff" points="574.34,-61.57 584.84,-60.13 575.74,-54.71 574.34,-61.57"/>
</a>
</g>
</g>
<!-- Node6&#45;&gt;Node2 -->
<g id="edge9_Node000006_Node000002" class="edge">
<title>Node6&#45;&gt;Node2</title>
<g id="a_edge9_Node000006_Node000002"><a xlink:title=" ">
<path fill="none" stroke="#63b8ff" d="M308.9,-51.71C317.17,-41.13 327.31,-28.15 333.95,-19.65"/>
<polygon fill="#63b8ff" stroke="#63b8ff" points="306.32,-49.33 302.92,-59.37 311.83,-53.64 306.32,-49.33"/>
</a>
</g>
</g>
<!-- Node7&#45;&gt;Node2 -->
<g id="edge11_Node000007_Node000002" class="edge">
<title>Node7&#45;&gt;Node2</title>
<g id="a_edge11_Node000007_Node000002"><a xlink:title=" ">
<path fill="none" stroke="#63b8ff" d="M181.02,-57.25C220.64,-45.71 278.91,-28.72 313.1,-18.76"/>
<polygon fill="#63b8ff" stroke="#63b8ff" points="180.19,-53.85 171.57,-60.01 182.15,-60.57 180.19,-53.85"/>
</a>
</g>
</g>
<!-- Node8&#45;&gt;Node2 -->
<g id="edge13_Node000008_Node000002" class="edge">
<title>Node8&#45;&gt;Node2</title>
<g id="a_edge13_Node000008_Node000002"><a xlink:title=" ">
<path fill="none" stroke="#63b8ff" d="M434.82,-50.36C410.46,-40.05 381.54,-27.8 362.32,-19.65"/>
<polygon fill="#63b8ff" stroke="#63b8ff" points="433.32,-53.53 443.89,-54.2 436.05,-47.08 433.32,-53.53"/>
</a>
</g>
</g>
<!-- Node9&#45;&gt;Node2 -->
<g id="edge16_Node000009_Node000002" class="edge">
<title>Node9&#45;&gt;Node2</title>
<g id="a_edge16_Node000009_Node000002"><a xlink:title=" ">
<path fill="none" stroke="#63b8ff" d="M172.83,-172.66C114.64,-150.93 14.76,-104.65 57,-55.25 89.84,-16.84 248.43,-11.28 313.28,-10.63"/>
<polygon fill="#63b8ff" stroke="#63b8ff" points="171.49,-175.9 182.08,-176.03 173.89,-169.32 171.49,-175.9"/>
</a>
</g>
</g>
<!-- Node9&#45;&gt;Node4 -->
<g id="edge17_Node000009_Node000004" class="edge">
<title>Node9&#45;&gt;Node4</title>
<g id="a_edge17_Node000009_Node000004"><a xlink:title=" ">
<path fill="none" stroke="#63b8ff" d="M250.01,-173.19C280.48,-163.47 322.13,-150.19 349.53,-141.45"/>
<polygon fill="#63b8ff" stroke="#63b8ff" points="249.24,-169.76 240.77,-176.13 251.36,-176.43 249.24,-169.76"/>
</a>
</g>
</g>
<!-- Node9&#45;&gt;Node5 -->
<g id="edge18_Node000009_Node000005" class="edge">
<title>Node9&#45;&gt;Node5</title>
<g id="a_edge18_Node000009_Node000005"><a xlink:title=" ">
<path fill="none" stroke="#63b8ff" d="M293.96,-174.82C342.11,-167.49 403.61,-156.34 457,-141 515,-124.34 580.3,-95.33 611.87,-80.62"/>
<polygon fill="#63b8ff" stroke="#63b8ff" points="293.52,-171.34 284.15,-176.28 294.55,-178.27 293.52,-171.34"/>
</a>
</g>
</g>
<!-- Node9&#45;&gt;Node6 -->
<g id="edge19_Node000009_Node000006" class="edge">
<title>Node9&#45;&gt;Node6</title>
<g id="a_edge19_Node000009_Node000006"><a xlink:title=" ">
<path fill="none" stroke="#63b8ff" d="M224.26,-167.61C242.5,-142.82 274.67,-99.13 288.44,-80.41"/>
<polygon fill="#63b8ff" stroke="#63b8ff" points="221.6,-165.32 218.49,-175.45 227.24,-169.47 221.6,-165.32"/>
</a>
</g>
</g>
<!-- Node9&#45;&gt;Node7 -->
<g id="edge20_Node000009_Node000007" class="edge">
<title>Node9&#45;&gt;Node7</title>
<g id="a_edge20_Node000009_Node000007"><a xlink:title=" ">
<path fill="none" stroke="#63b8ff" d="M199.22,-166.95C183.51,-142.05 156.32,-98.96 144.62,-80.41"/>
<polygon fill="#63b8ff" stroke="#63b8ff" points="196.25,-168.8 204.54,-175.39 202.17,-165.06 196.25,-168.8"/>
</a>
</g>
</g>
<!-- Node9&#45;&gt;Node8 -->
<g id="edge21_Node000009_Node000008" class="edge">
<title>Node9&#45;&gt;Node8</title>
<g id="a_edge21_Node000009_Node000008"><a xlink:title=" ">
<path fill="none" stroke="#63b8ff" d="M306.16,-182.53C347.94,-177.31 395.83,-165.74 433,-141 453.25,-127.52 467.08,-102.05 474.25,-85.97"/>
<polygon fill="#63b8ff" stroke="#63b8ff" points="305.88,-179.04 296.34,-183.64 306.67,-186 305.88,-179.04"/>
</a>
</g>
</g>
</g>
</svg>

<g id="navigator" transform="translate(0 0)" fill="#404254">
  <rect fill="#f2f5e9" fill-opacity="0.5" stroke="#606060" stroke-width=".5" x="0" y="0" width="60" height="60"/>
  <use id="zoomplus" xlink:href="#zoomPlus" x="17" y="9" onmousedown="handleZoom(evt,'in')"/>
  <use id="zoomminus" xlink:href="#zoomMin" x="42" y="9" onmousedown="handleZoom(evt,'out')"/>
  <use id="reset" xlink:href="#resetDef" x="30" y="36" onmousedown="handleReset()"/>
   <use id="arrowup" xlink:href="#arrowUp" x="0" y="0" onmousedown="handlePan(0,-1)"/>
  <use id="arrowright" xlink:href="#arrowRight" x="0" y="0" onmousedown="handlePan(1,0)"/>
  <use id="arrowdown" xlink:href="#arrowDown" x="0" y="0" onmousedown="handlePan(0,1)"/>
  <use id="arrowleft" xlink:href="#arrowLeft" x="0" y="0" onmousedown="handlePan(-1,0)"/>
</g>
<svg viewBox="0 0 15 15" width="100%" height="30px" preserveAspectRatio="xMaxYMin meet">
 <g id="arrow_out" transform="scale(0.3 0.3)">
  <a xlink:href="_config_8hpp__dep__incl_org.svg" target="_base">
   <rect id="button" ry="5" rx="5" y="6" x="6" height="38" width="38"
        fill="#f2f5e9" fill-opacity="0.5" stroke="#606060" stroke-width="1.0"/>
   <path id="arrow"
     d="M 11.500037,31.436501 C 11.940474,20.09759 22.043105,11.32322 32.158766,21.979434 L 37.068811,17.246167 C 37.068811,17.246167 37.088388,32 37.088388,32 L 22.160133,31.978069 C 22.160133,31.978069 26.997745,27.140456 26.997745,27.140456 C 18.528582,18.264221 13.291696,25.230495 11.500037,31.436501 z"
     style="fill:#404040;"/>
  </a>
 </g>
</svg>

<style type='text/css'>
<![CDATA[
[data-mouse-over-selected='false'] { opacity: 0.7; }
[data-mouse-over-selected='true']  { opacity: 1.0; }
]]>
</style>
<script type="application/ecmascript"><![CDATA[
document.addEventListener('DOMContentLoaded', (event) => {
  highlightEdges();
  highlightAdjacentNodes();
});
]]></script>
</svg>
