<?xml version="1.0" encoding="UTF-8" standalone="no"?>
<!DOCTYPE svg PUBLIC "-//W3C//DTD SVG 1.1//EN"
 "http://www.w3.org/Graphics/SVG/1.1/DTD/svg11.dtd">
<!-- Generated by graphviz version 12.2.1 (20241206.2353)
 -->
<!-- Title: gimo/Config.hpp Pages: 1 -->
<!--zoomable 260 -->

<svg id="main" version="1.1" xmlns="http://www.w3.org/2000/svg" xmlns:xlink="http://www.w3.org/1999/xlink" xml:space="preserve" onload="init(evt)">

<style type="text/css"><![CDATA[
.node, .edge {opacity: 0.7;}
.node.selected, .edge.selected {opacity: 1;}
.edge:hover path { stroke: red; }
.edge:hover polygon { stroke: red; fill: red; }
]]></style>

<defs>
  <circle id="rim" cx="0" cy="0" r="7"/>
  <circle id="rim2" cx="0" cy="0" r="3.5"/>
  <g id="zoomPlus">
    <use xlink:href="#rim" fill="#404040"><set attributeName="fill" to="#808080" begin="zoomplus.mouseover" end="zoomplus.mouseout"/></use>
    <path d="M-4,0h8M0,-4v8" fill="none" stroke="white" stroke-width="1.5" pointer-events="none"/>
  </g>
  <g id="zoomMin">
    <use xlink:href="#rim" fill="#404040"><set attributeName="fill" to="#808080" begin="zoomminus.mouseover" end="zoomminus.mouseout"/></use>
    <path d="M-4,0h8" fill="none" stroke="white" stroke-width="1.5" pointer-events="none"/>
  </g>
  <g id="arrowUp" transform="translate(30 24)">
    <use xlink:href="#rim"/>
    <path pointer-events="none" fill="none" stroke="white" stroke-width="1.5" d="M0,-3.0v7 M-2.5,-0.5L0,-3.0L2.5,-0.5"/>
  </g>
  <g id="arrowRight" transform="rotate(90) translate(36 -43)">
    <use xlink:href="#rim"/>
    <path pointer-events="none" fill="none" stroke="white" stroke-width="1.5" d="M0,-3.0v7 M-2.5,-0.5L0,-3.0L2.5,-0.5"/>
  </g>
  <g id="arrowDown" transform="rotate(180) translate(-30 -48)">
    <use xlink:href="#rim"/>
    <path pointer-events="none" fill="none" stroke="white" stroke-width="1.5" d="M0,-3.0v7 M-2.5,-0.5L0,-3.0L2.5,-0.5"/>
  </g>
  <g id="arrowLeft" transform="rotate(270) translate(-36 17)">
    <use xlink:href="#rim"/>
    <path pointer-events="none" fill="none" stroke="white" stroke-width="1.5" d="M0,-3.0v7 M-2.5,-0.5L0,-3.0L2.5,-0.5"/>
  </g>
  <g id="resetDef">
    <use xlink:href="#rim2" fill="#404040"><set attributeName="fill" to="#808080" begin="reset.mouseover" end="reset.mouseout"/></use>
  </g>
</defs>
<script type="application/ecmascript">
var viewWidth = 708;
var viewHeight = 260;
var sectionId = 'dynsection-1';
</script>
<script type="application/ecmascript" xlink:href="../../svg.min.js"/>
<svg id="graph" class="graph">
<g id="viewport">
<title>gimo/Config.hpp</title>
<!-- Node1 -->
<g id="Node000001" class="node">
<title>Node1</title>
<g id="a_Node000001"><a xlink:title=" ">
<polygon fill="#999999" stroke="#666666" points="301.7,-251.5 216.7,-251.5 216.7,-232.25 301.7,-232.25 301.7,-251.5"/>
<text text-anchor="middle" x="259.2" y="-238" font-family="Helvetica,sans-Serif" font-size="10.00">gimo/Config.hpp</text>
</a>
</g>
</g>
<!-- Node2 -->
<g id="Node000002" class="node">
<title>Node2</title>
<g id="a_Node000002"><a xlink:href="../../d4/d5a/gimo_8hpp.html" target="_top" xlink:title=" ">
<polygon fill="white" stroke="#666666" points="255.7,-19.25 200.7,-19.25 200.7,0 255.7,0 255.7,-19.25"/>
<text text-anchor="middle" x="228.2" y="-5.75" font-family="Helvetica,sans-Serif" font-size="10.00">gimo.hpp</text>
</a>
</g>
</g>
<!-- Node1&#45;&gt;Node2 -->
<g id="edge1_Node000001_Node000002" class="edge">
<title>Node1&#45;&gt;Node2</title>
<g id="a_edge1_Node000001_Node000002"><a xlink:title=" ">
<path fill="none" stroke="#63b8ff" d="M205.46,-228.89C140.33,-210.87 35.53,-169.57 5.2,-85.75 0.59,-73 -3.39,-65.73 5.2,-55.25 29.61,-25.48 146.22,-15.17 200.41,-11.95"/>
<polygon fill="#63b8ff" stroke="#63b8ff" points="204.32,-232.2 214.88,-231.4 206.12,-225.44 204.32,-232.2"/>
</a>
</g>
</g>
<!-- Node3 -->
<g id="Node000003" class="node">
<title>Node3</title>
<g id="a_Node000003"><a xlink:href="../../d3/d58/_common_8hpp.html" target="_top" xlink:title=" ">
<polygon fill="white" stroke="#666666" points="307.7,-196.25 210.7,-196.25 210.7,-177 307.7,-177 307.7,-196.25"/>
<text text-anchor="middle" x="259.2" y="-182.75" font-family="Helvetica,sans-Serif" font-size="10.00">gimo/Common.hpp</text>
</a>
</g>
</g>
<!-- Node1&#45;&gt;Node3 -->
<g id="edge2_Node000001_Node000003" class="edge">
<title>Node1&#45;&gt;Node3</title>
<g id="a_edge2_Node000001_Node000003"><a xlink:title=" ">
<path fill="none" stroke="#63b8ff" d="M259.2,-220.63C259.2,-212.34 259.2,-203.17 259.2,-196.61"/>
<polygon fill="#63b8ff" stroke="#63b8ff" points="255.7,-220.57 259.2,-230.57 262.7,-220.57 255.7,-220.57"/>
</a>
</g>
</g>
<!-- Node9 -->
<g id="Node000009" class="node">
<title>Node9</title>
<g id="a_Node000009"><a xlink:href="../../de/dca/_basic_algorithm_8hpp.html" target="_top" xlink:title=" ">
<polygon fill="white" stroke="#666666" points="527.58,-141 360.83,-141 360.83,-121.75 527.58,-121.75 527.58,-141"/>
<text text-anchor="middle" x="444.2" y="-127.5" font-family="Helvetica,sans-Serif" font-size="10.00">gimo/algorithm/BasicAlgorithm.hpp</text>
</a>
</g>
</g>
<!-- Node1&#45;&gt;Node9 -->
<g id="edge24_Node000001_Node000009" class="edge">
<title>Node1&#45;&gt;Node9</title>
<g id="a_edge24_Node000001_Node000009"><a xlink:title=" ">
<path fill="none" stroke="#63b8ff" d="M284.17,-226.23C322.97,-203.47 396.62,-160.28 428.66,-141.49"/>
<polygon fill="#63b8ff" stroke="#63b8ff" points="282.82,-222.97 275.96,-231.05 286.36,-229.01 282.82,-222.97"/>
</a>
</g>
</g>
<!-- Node3&#45;&gt;Node2 -->
<g id="edge3_Node000003_Node000002" class="edge">
<title>Node3&#45;&gt;Node2</title>
<g id="a_edge3_Node000003_Node000002"><a xlink:title=" ">
<path fill="none" stroke="#63b8ff" d="M199.27,-179.45C141.65,-169.98 57.54,-146.04 17.2,-85.75 -27.02,-19.66 134.05,-11.22 200.65,-10.5"/>
<polygon fill="#63b8ff" stroke="#63b8ff" points="198.51,-182.88 208.92,-180.93 199.57,-175.96 198.51,-182.88"/>
</a>
</g>
</g>
<!-- Node4 -->
<g id="Node000004" class="node">
<title>Node4</title>
<g id="a_Node000004"><a xlink:href="../../d1/da8/_pipeline_8hpp.html" target="_top" xlink:title=" ">
<polygon fill="white" stroke="#666666" points="305.45,-141 212.95,-141 212.95,-121.75 305.45,-121.75 305.45,-141"/>
<text text-anchor="middle" x="259.2" y="-127.5" font-family="Helvetica,sans-Serif" font-size="10.00">gimo/Pipeline.hpp</text>
</a>
</g>
</g>
<!-- Node3&#45;&gt;Node4 -->
<g id="edge4_Node000003_Node000004" class="edge">
<title>Node3&#45;&gt;Node4</title>
<g id="a_edge4_Node000003_Node000004"><a xlink:title=" ">
<path fill="none" stroke="#63b8ff" d="M259.2,-165.38C259.2,-157.09 259.2,-147.92 259.2,-141.36"/>
<polygon fill="#63b8ff" stroke="#63b8ff" points="255.7,-165.32 259.2,-175.32 262.7,-165.32 255.7,-165.32"/>
</a>
</g>
</g>
<!-- Node5 -->
<g id="Node000005" class="node">
<title>Node5</title>
<g id="a_Node000005"><a xlink:href="../../d6/d3f/_and_then_8hpp.html" target="_top" xlink:title=" ">
<polygon fill="white" stroke="#666666" points="498.08,-80.12 358.33,-80.12 358.33,-60.88 498.08,-60.88 498.08,-80.12"/>
<text text-anchor="middle" x="428.2" y="-66.62" font-family="Helvetica,sans-Serif" font-size="10.00">gimo/algorithm/AndThen.hpp</text>
</a>
</g>
</g>
<!-- Node3&#45;&gt;Node5 -->
<g id="edge14_Node000003_Node000005" class="edge">
<title>Node3&#45;&gt;Node5</title>
<g id="a_edge14_Node000003_Node000005"><a xlink:title=" ">
<path fill="none" stroke="#63b8ff" d="M281.55,-170.11C300.34,-157.11 327.94,-138.1 352.2,-121.75 373.84,-107.16 399.16,-90.51 414.42,-80.51"/>
<polygon fill="#63b8ff" stroke="#63b8ff" points="279.56,-167.23 273.33,-175.8 283.55,-172.99 279.56,-167.23"/>
</a>
</g>
</g>
<!-- Node6 -->
<g id="Node000006" class="node">
<title>Node6</title>
<g id="a_Node000006"><a xlink:href="../../d4/d96/_or_else_8hpp.html" target="_top" xlink:title=" ">
<polygon fill="white" stroke="#666666" points="340.2,-80.12 210.2,-80.12 210.2,-60.88 340.2,-60.88 340.2,-80.12"/>
<text text-anchor="middle" x="275.2" y="-66.62" font-family="Helvetica,sans-Serif" font-size="10.00">gimo/algorithm/OrElse.hpp</text>
</a>
</g>
</g>
<!-- Node3&#45;&gt;Node6 -->
<g id="edge21_Node000003_Node000006" class="edge">
<title>Node3&#45;&gt;Node6</title>
<g id="a_edge21_Node000003_Node000006"><a xlink:title=" ">
<path fill="none" stroke="#63b8ff" d="M231.63,-170.63C213.38,-158.57 194.45,-140.59 204.2,-121.75 214.33,-102.17 236,-88.58 252.75,-80.51"/>
<polygon fill="#63b8ff" stroke="#63b8ff" points="229.59,-173.49 239.94,-175.73 233.25,-167.52 229.59,-173.49"/>
</a>
</g>
</g>
<!-- Node7 -->
<g id="Node000007" class="node">
<title>Node7</title>
<g id="a_Node000007"><a xlink:href="../../d9/d8c/_transform_8hpp.html" target="_top" xlink:title=" ">
<polygon fill="white" stroke="#666666" points="699.7,-80.12 554.7,-80.12 554.7,-60.88 699.7,-60.88 699.7,-80.12"/>
<text text-anchor="middle" x="627.2" y="-66.62" font-family="Helvetica,sans-Serif" font-size="10.00">gimo/algorithm/Transform.hpp</text>
</a>
</g>
</g>
<!-- Node3&#45;&gt;Node7 -->
<g id="edge22_Node000003_Node000007" class="edge">
<title>Node3&#45;&gt;Node7</title>
<g id="a_edge22_Node000003_Node000007"><a xlink:title=" ">
<path fill="none" stroke="#63b8ff" d="M319.47,-184.34C377.22,-181.19 465.76,-171.28 536.2,-141 570.54,-126.24 603.52,-95.68 618.62,-80.48"/>
<polygon fill="#63b8ff" stroke="#63b8ff" points="319.32,-180.84 309.5,-184.82 319.66,-187.83 319.32,-180.84"/>
</a>
</g>
</g>
<!-- Node8 -->
<g id="Node000008" class="node">
<title>Node8</title>
<g id="a_Node000008"><a xlink:href="../../d9/d45/_transform_error_8hpp.html" target="_top" xlink:title=" ">
<polygon fill="white" stroke="#666666" points="153.7,-85.75 26.7,-85.75 26.7,-55.25 153.7,-55.25 153.7,-85.75"/>
<text text-anchor="start" x="34.7" y="-72.25" font-family="Helvetica,sans-Serif" font-size="10.00">gimo/algorithm/Transform</text>
<text text-anchor="middle" x="90.2" y="-61" font-family="Helvetica,sans-Serif" font-size="10.00">Error.hpp</text>
</a>
</g>
</g>
<!-- Node3&#45;&gt;Node8 -->
<g id="edge23_Node000003_Node000008" class="edge">
<title>Node3&#45;&gt;Node8</title>
<g id="a_edge23_Node000003_Node000008"><a xlink:title=" ">
<path fill="none" stroke="#63b8ff" d="M236.77,-170.48C204.2,-148.48 144.19,-107.96 111.99,-86.21"/>
<polygon fill="#63b8ff" stroke="#63b8ff" points="234.44,-173.13 244.69,-175.82 238.36,-167.33 234.44,-173.13"/>
</a>
</g>
</g>
<!-- Node3&#45;&gt;Node9 -->
<g id="edge15_Node000003_Node000009" class="edge">
<title>Node3&#45;&gt;Node9</title>
<g id="a_edge15_Node000003_Node000009"><a xlink:title=" ">
<path fill="none" stroke="#63b8ff" d="M301.52,-173.44C335.36,-163.7 382.05,-150.27 412.66,-141.45"/>
<polygon fill="#63b8ff" stroke="#63b8ff" points="300.68,-170.04 292.04,-176.17 302.62,-176.77 300.68,-170.04"/>
</a>
</g>
</g>
<!-- Node4&#45;&gt;Node2 -->
<g id="edge5_Node000004_Node000002" class="edge">
<title>Node4&#45;&gt;Node2</title>
<g id="a_edge5_Node000004_Node000002"><a xlink:title=" ">
<path fill="none" stroke="#63b8ff" d="M230.09,-115.59C218.91,-108.26 207.36,-98.27 201.2,-85.75 189.94,-62.87 208.81,-34.07 220.32,-19.68"/>
<polygon fill="#63b8ff" stroke="#63b8ff" points="228.01,-118.42 238.38,-120.56 231.61,-112.41 228.01,-118.42"/>
</a>
</g>
</g>
<!-- Node4&#45;&gt;Node5 -->
<g id="edge6_Node000004_Node000005" class="edge">
<title>Node4&#45;&gt;Node5</title>
<g id="a_edge6_Node000004_Node000005"><a xlink:title=" ">
<path fill="none" stroke="#63b8ff" d="M295.96,-117.57C328.01,-106.4 373.71,-90.48 402.14,-80.58"/>
<polygon fill="#63b8ff" stroke="#63b8ff" points="294.96,-114.21 286.67,-120.81 297.26,-120.82 294.96,-114.21"/>
</a>
</g>
</g>
<!-- Node4&#45;&gt;Node6 -->
<g id="edge8_Node000004_Node000006" class="edge">
<title>Node4&#45;&gt;Node6</title>
<g id="a_edge8_Node000004_Node000006"><a xlink:title=" ">
<path fill="none" stroke="#63b8ff" d="M264.57,-110.62C267.34,-100.43 270.58,-88.51 272.75,-80.53"/>
<polygon fill="#63b8ff" stroke="#63b8ff" points="261.27,-109.4 262.03,-119.97 268.03,-111.24 261.27,-109.4"/>
</a>
</g>
</g>
<!-- Node4&#45;&gt;Node7 -->
<g id="edge10_Node000004_Node000007" class="edge">
<title>Node4&#45;&gt;Node7</title>
<g id="a_edge10_Node000004_Node000007"><a xlink:title=" ">
<path fill="none" stroke="#63b8ff" d="M316.93,-121.14C386.2,-110.06 501.59,-91.6 570.43,-80.58"/>
<polygon fill="#63b8ff" stroke="#63b8ff" points="316.62,-117.64 307.3,-122.68 317.73,-124.56 316.62,-117.64"/>
</a>
</g>
</g>
<!-- Node4&#45;&gt;Node8 -->
<g id="edge12_Node000004_Node000008" class="edge">
<title>Node4&#45;&gt;Node8</title>
<g id="a_edge12_Node000004_Node000008"><a xlink:title=" ">
<path fill="none" stroke="#63b8ff" d="M222.42,-117.56C195.91,-108.32 160.06,-95.84 132.38,-86.19"/>
<polygon fill="#63b8ff" stroke="#63b8ff" points="221.14,-120.82 231.74,-120.81 223.44,-114.21 221.14,-120.82"/>
</a>
</g>
</g>
<!-- Node5&#45;&gt;Node2 -->
<g id="edge7_Node000005_Node000002" class="edge">
<title>Node5&#45;&gt;Node2</title>
<g id="a_edge7_Node000005_Node000002"><a xlink:title=" ">
<path fill="none" stroke="#63b8ff" d="M386.38,-57.19C347.28,-45.68 289.98,-28.81 256.14,-18.85"/>
<polygon fill="#63b8ff" stroke="#63b8ff" points="385.36,-60.54 395.94,-60 387.33,-53.82 385.36,-60.54"/>
</a>
</g>
</g>
<!-- Node6&#45;&gt;Node2 -->
<g id="edge9_Node000006_Node000002" class="edge">
<title>Node6&#45;&gt;Node2</title>
<g id="a_edge9_Node000006_Node000002"><a xlink:title=" ">
<path fill="none" stroke="#63b8ff" d="M261,-51.71C252.55,-41.13 242.19,-28.15 235.41,-19.65"/>
<polygon fill="#63b8ff" stroke="#63b8ff" points="258.14,-53.74 267.12,-59.38 263.61,-49.38 258.14,-53.74"/>
</a>
</g>
</g>
<!-- Node7&#45;&gt;Node2 -->
<g id="edge11_Node000007_Node000002" class="edge">
<title>Node7&#45;&gt;Node2</title>
<g id="a_edge11_Node000007_Node000002"><a xlink:title=" ">
<path fill="none" stroke="#63b8ff" d="M561.64,-58.62C554.41,-57.46 547.15,-56.32 540.2,-55.25 435.55,-39.2 310.85,-21.92 256.2,-14.44"/>
<polygon fill="#63b8ff" stroke="#63b8ff" points="561.01,-62.06 571.43,-60.2 562.12,-55.15 561.01,-62.06"/>
</a>
</g>
</g>
<!-- Node8&#45;&gt;Node2 -->
<g id="edge13_Node000008_Node000002" class="edge">
<title>Node8&#45;&gt;Node2</title>
<g id="a_edge13_Node000008_Node000002"><a xlink:title=" ">
<path fill="none" stroke="#63b8ff" d="M135.06,-50.36C159.24,-40.05 187.95,-27.8 207.04,-19.65"/>
<polygon fill="#63b8ff" stroke="#63b8ff" points="133.88,-47.06 126.06,-54.2 136.63,-53.5 133.88,-47.06"/>
</a>
</g>
</g>
<!-- Node9&#45;&gt;Node2 -->
<g id="edge16_Node000009_Node000002" class="edge">
<title>Node9&#45;&gt;Node2</title>
<g id="a_edge16_Node000009_Node000002"><a xlink:title=" ">
<path fill="none" stroke="#63b8ff" d="M476.16,-115.89C488.17,-108.67 500.52,-98.68 507.2,-85.75 513.43,-73.71 516,-65.56 507.2,-55.25 475.05,-17.55 319.93,-11.56 255.91,-10.71"/>
<polygon fill="#63b8ff" stroke="#63b8ff" points="474.7,-112.7 467.61,-120.57 478.07,-118.83 474.7,-112.7"/>
</a>
</g>
</g>
<!-- Node9&#45;&gt;Node5 -->
<g id="edge17_Node000009_Node000005" class="edge">
<title>Node9&#45;&gt;Node5</title>
<g id="a_edge17_Node000009_Node000005"><a xlink:title=" ">
<path fill="none" stroke="#63b8ff" d="M438.83,-110.62C436.06,-100.43 432.82,-88.51 430.65,-80.53"/>
<polygon fill="#63b8ff" stroke="#63b8ff" points="435.37,-111.24 441.37,-119.97 442.13,-109.4 435.37,-111.24"/>
</a>
</g>
</g>
<!-- Node9&#45;&gt;Node6 -->
<g id="edge18_Node000009_Node000006" class="edge">
<title>Node9&#45;&gt;Node6</title>
<g id="a_edge18_Node000009_Node000006"><a xlink:title=" ">
<path fill="none" stroke="#63b8ff" d="M407.45,-117.57C375.39,-106.4 329.69,-90.48 301.27,-80.58"/>
<polygon fill="#63b8ff" stroke="#63b8ff" points="406.14,-120.82 416.74,-120.81 408.44,-114.21 406.14,-120.82"/>
</a>
</g>
</g>
<!-- Node9&#45;&gt;Node7 -->
<g id="edge19_Node000009_Node000007" class="edge">
<title>Node9&#45;&gt;Node7</title>
<g id="a_edge19_Node000009_Node000007"><a xlink:title=" ">
<path fill="none" stroke="#63b8ff" d="M483.09,-117.86C517.85,-106.68 567.93,-90.57 598.98,-80.58"/>
<polygon fill="#63b8ff" stroke="#63b8ff" points="482.28,-114.45 473.83,-120.84 484.43,-121.11 482.28,-114.45"/>
</a>
</g>
</g>
<!-- Node9&#45;&gt;Node8 -->
<g id="edge20_Node000009_Node000008" class="edge">
<title>Node9&#45;&gt;Node8</title>
<g id="a_edge20_Node000009_Node000008"><a xlink:title=" ">
<path fill="none" stroke="#63b8ff" d="M378.49,-119.45C314.4,-108.79 217.55,-92.68 154.09,-82.13"/>
<polygon fill="#63b8ff" stroke="#63b8ff" points="377.73,-122.87 388.17,-121.06 378.88,-115.96 377.73,-122.87"/>
</a>
</g>
</g>
</g>
</svg>

<g id="navigator" transform="translate(0 0)" fill="#404254">
  <rect fill="#f2f5e9" fill-opacity="0.5" stroke="#606060" stroke-width=".5" x="0" y="0" width="60" height="60"/>
  <use id="zoomplus" xlink:href="#zoomPlus" x="17" y="9" onmousedown="handleZoom(evt,'in')"/>
  <use id="zoomminus" xlink:href="#zoomMin" x="42" y="9" onmousedown="handleZoom(evt,'out')"/>
  <use id="reset" xlink:href="#resetDef" x="30" y="36" onmousedown="handleReset()"/>
   <use id="arrowup" xlink:href="#arrowUp" x="0" y="0" onmousedown="handlePan(0,-1)"/>
  <use id="arrowright" xlink:href="#arrowRight" x="0" y="0" onmousedown="handlePan(1,0)"/>
  <use id="arrowdown" xlink:href="#arrowDown" x="0" y="0" onmousedown="handlePan(0,1)"/>
  <use id="arrowleft" xlink:href="#arrowLeft" x="0" y="0" onmousedown="handlePan(-1,0)"/>
</g>
<svg viewBox="0 0 15 15" width="100%" height="30px" preserveAspectRatio="xMaxYMin meet">
 <g id="arrow_out" transform="scale(0.3 0.3)">
  <a xlink:href="_config_8hpp__dep__incl_org.svg" target="_base">
   <rect id="button" ry="5" rx="5" y="6" x="6" height="38" width="38"
        fill="#f2f5e9" fill-opacity="0.5" stroke="#606060" stroke-width="1.0"/>
   <path id="arrow"
     d="M 11.500037,31.436501 C 11.940474,20.09759 22.043105,11.32322 32.158766,21.979434 L 37.068811,17.246167 C 37.068811,17.246167 37.088388,32 37.088388,32 L 22.160133,31.978069 C 22.160133,31.978069 26.997745,27.140456 26.997745,27.140456 C 18.528582,18.264221 13.291696,25.230495 11.500037,31.436501 z"
     style="fill:#404040;"/>
  </a>
 </g>
</svg>

<style type='text/css'>
<![CDATA[
[data-mouse-over-selected='false'] { opacity: 0.7; }
[data-mouse-over-selected='true']  { opacity: 1.0; }
]]>
</style>
<script type="application/ecmascript"><![CDATA[
document.addEventListener('DOMContentLoaded', (event) => {
  highlightEdges();
  highlightAdjacentNodes();
});
]]></script>
</svg>
