<?xml version="1.0" encoding="UTF-8" standalone="no"?>
<!DOCTYPE svg PUBLIC "-//W3C//DTD SVG 1.1//EN"
 "http://www.w3.org/Graphics/SVG/1.1/DTD/svg11.dtd">
<!-- Generated by graphviz version 12.2.1 (20241206.2353)
 -->
<!-- Title: gimo/Config.hpp Pages: 1 -->
<!--zoomable 315 -->

<svg id="main" version="1.1" xmlns="http://www.w3.org/2000/svg" xmlns:xlink="http://www.w3.org/1999/xlink" xml:space="preserve" onload="init(evt)">

<style type="text/css"><![CDATA[
.node, .edge {opacity: 0.7;}
.node.selected, .edge.selected {opacity: 1;}
.edge:hover path { stroke: red; }
.edge:hover polygon { stroke: red; fill: red; }
]]></style>

<defs>
  <circle id="rim" cx="0" cy="0" r="7"/>
  <circle id="rim2" cx="0" cy="0" r="3.5"/>
  <g id="zoomPlus">
    <use xlink:href="#rim" fill="#404040"><set attributeName="fill" to="#808080" begin="zoomplus.mouseover" end="zoomplus.mouseout"/></use>
    <path d="M-4,0h8M0,-4v8" fill="none" stroke="white" stroke-width="1.5" pointer-events="none"/>
  </g>
  <g id="zoomMin">
    <use xlink:href="#rim" fill="#404040"><set attributeName="fill" to="#808080" begin="zoomminus.mouseover" end="zoomminus.mouseout"/></use>
    <path d="M-4,0h8" fill="none" stroke="white" stroke-width="1.5" pointer-events="none"/>
  </g>
  <g id="arrowUp" transform="translate(30 24)">
    <use xlink:href="#rim"/>
    <path pointer-events="none" fill="none" stroke="white" stroke-width="1.5" d="M0,-3.0v7 M-2.5,-0.5L0,-3.0L2.5,-0.5"/>
  </g>
  <g id="arrowRight" transform="rotate(90) translate(36 -43)">
    <use xlink:href="#rim"/>
    <path pointer-events="none" fill="none" stroke="white" stroke-width="1.5" d="M0,-3.0v7 M-2.5,-0.5L0,-3.0L2.5,-0.5"/>
  </g>
  <g id="arrowDown" transform="rotate(180) translate(-30 -48)">
    <use xlink:href="#rim"/>
    <path pointer-events="none" fill="none" stroke="white" stroke-width="1.5" d="M0,-3.0v7 M-2.5,-0.5L0,-3.0L2.5,-0.5"/>
  </g>
  <g id="arrowLeft" transform="rotate(270) translate(-36 17)">
    <use xlink:href="#rim"/>
    <path pointer-events="none" fill="none" stroke="white" stroke-width="1.5" d="M0,-3.0v7 M-2.5,-0.5L0,-3.0L2.5,-0.5"/>
  </g>
  <g id="resetDef">
    <use xlink:href="#rim2" fill="#404040"><set attributeName="fill" to="#808080" begin="reset.mouseover" end="reset.mouseout"/></use>
  </g>
</defs>
<script type="application/ecmascript">
var viewWidth = 910;
var viewHeight = 315;
var sectionId = 'dynsection-1';
</script>
<script type="application/ecmascript" xlink:href="../../svg.min.js"/>
<svg id="graph" class="graph">
<g id="viewport">
<title>gimo/Config.hpp</title>
<!-- Node1 -->
<g id="Node000001" class="node">
<title>Node1</title>
<g id="a_Node000001"><a xlink:title=" ">
<polygon fill="#999999" stroke="#666666" points="405.5,-306.75 320.5,-306.75 320.5,-287.5 405.5,-287.5 405.5,-306.75"/>
<text text-anchor="middle" x="363" y="-293.25" font-family="Helvetica,sans-Serif" font-size="10.00">gimo/Config.hpp</text>
</a>
</g>
</g>
<!-- Node2 -->
<g id="Node000002" class="node">
<title>Node2</title>
<g id="a_Node000002"><a xlink:href="../../d4/d5a/gimo_8hpp.html" target="_top" xlink:title=" ">
<polygon fill="white" stroke="#666666" points="421.5,-19.25 366.5,-19.25 366.5,0 421.5,0 421.5,-19.25"/>
<text text-anchor="middle" x="394" y="-5.75" font-family="Helvetica,sans-Serif" font-size="10.00">gimo.hpp</text>
</a>
</g>
</g>
<!-- Node1&#45;&gt;Node2 -->
<g id="edge1_Node000001_Node000002" class="edge">
<title>Node1&#45;&gt;Node2</title>
<g id="a_edge1_Node000001_Node000002"><a xlink:title=" ">
<path fill="none" stroke="#63b8ff" d="M309.1,-291.31C207.99,-280.77 0,-251.36 0,-187.62 0,-187.62 0,-187.62 0,-130.38 0,-93.16 6.68,-76.84 37,-55.25 89.79,-17.66 291.55,-11.69 366.1,-10.78"/>
<polygon fill="#63b8ff" stroke="#63b8ff" points="308.48,-294.76 318.79,-292.29 309.19,-287.8 308.48,-294.76"/>
</a>
</g>
</g>
<!-- Node3 -->
<g id="Node000003" class="node">
<title>Node3</title>
<g id="a_Node000003"><a xlink:href="../../d3/d58/_common_8hpp.html" target="_top" xlink:title=" ">
<polygon fill="white" stroke="#666666" points="411.5,-251.5 314.5,-251.5 314.5,-232.25 411.5,-232.25 411.5,-251.5"/>
<text text-anchor="middle" x="363" y="-238" font-family="Helvetica,sans-Serif" font-size="10.00">gimo/Common.hpp</text>
</a>
</g>
</g>
<!-- Node1&#45;&gt;Node3 -->
<g id="edge2_Node000001_Node000003" class="edge">
<title>Node1&#45;&gt;Node3</title>
<g id="a_edge2_Node000001_Node000003"><a xlink:title=" ">
<path fill="none" stroke="#63b8ff" d="M363,-275.88C363,-267.59 363,-258.42 363,-251.86"/>
<polygon fill="#63b8ff" stroke="#63b8ff" points="359.5,-275.82 363,-285.82 366.5,-275.82 359.5,-275.82"/>
</a>
</g>
</g>
<!-- Node10 -->
<g id="Node000010" class="node">
<title>Node10</title>
<g id="a_Node000010"><a xlink:href="../../de/dca/_basic_algorithm_8hpp.html" target="_top" xlink:title=" ">
<polygon fill="white" stroke="#666666" points="577.38,-196.25 410.62,-196.25 410.62,-177 577.38,-177 577.38,-196.25"/>
<text text-anchor="middle" x="494" y="-182.75" font-family="Helvetica,sans-Serif" font-size="10.00">gimo/algorithm/BasicAlgorithm.hpp</text>
</a>
</g>
</g>
<!-- Node1&#45;&gt;Node10 -->
<g id="edge29_Node000001_Node000010" class="edge">
<title>Node1&#45;&gt;Node10</title>
<g id="a_edge29_Node000001_Node000010"><a xlink:title=" ">
<path fill="none" stroke="#63b8ff" d="M384.13,-280.37C395.24,-271.97 409,-261.35 421,-251.5 444.17,-232.48 470.41,-209.03 484.25,-196.5"/>
<polygon fill="#63b8ff" stroke="#63b8ff" points="382.27,-277.39 376.38,-286.2 386.48,-282.99 382.27,-277.39"/>
</a>
</g>
</g>
<!-- Node3&#45;&gt;Node2 -->
<g id="edge3_Node000003_Node000002" class="edge">
<title>Node3&#45;&gt;Node2</title>
<g id="a_edge3_Node000003_Node000002"><a xlink:title=" ">
<path fill="none" stroke="#63b8ff" d="M303.68,-229.4C194,-205.69 -22.4,-145.86 57,-55.25 77.32,-32.06 289.08,-16.99 366.15,-12.24"/>
<polygon fill="#63b8ff" stroke="#63b8ff" points="302.92,-232.81 313.43,-231.46 304.37,-225.97 302.92,-232.81"/>
</a>
</g>
</g>
<!-- Node4 -->
<g id="Node000004" class="node">
<title>Node4</title>
<g id="a_Node000004"><a xlink:href="../../d1/da8/_pipeline_8hpp.html" target="_top" xlink:title=" ">
<polygon fill="white" stroke="#666666" points="503.25,-141 410.75,-141 410.75,-121.75 503.25,-121.75 503.25,-141"/>
<text text-anchor="middle" x="457" y="-127.5" font-family="Helvetica,sans-Serif" font-size="10.00">gimo/Pipeline.hpp</text>
</a>
</g>
</g>
<!-- Node3&#45;&gt;Node4 -->
<g id="edge4_Node000003_Node000004" class="edge">
<title>Node3&#45;&gt;Node4</title>
<g id="a_edge4_Node000003_Node000004"><a xlink:title=" ">
<path fill="none" stroke="#63b8ff" d="M372.29,-222.03C379.39,-208.67 389.97,-190.75 402,-177 414.47,-162.75 431.84,-149.49 443.7,-141.19"/>
<polygon fill="#63b8ff" stroke="#63b8ff" points="369.33,-220.14 367.89,-230.64 375.56,-223.33 369.33,-220.14"/>
</a>
</g>
</g>
<!-- Node5 -->
<g id="Node000005" class="node">
<title>Node5</title>
<g id="a_Node000005"><a xlink:href="../../d6/d3f/_and_then_8hpp.html" target="_top" xlink:title=" ">
<polygon fill="white" stroke="#666666" points="561.88,-80.12 422.12,-80.12 422.12,-60.88 561.88,-60.88 561.88,-80.12"/>
<text text-anchor="middle" x="492" y="-66.62" font-family="Helvetica,sans-Serif" font-size="10.00">gimo/algorithm/AndThen.hpp</text>
</a>
</g>
</g>
<!-- Node3&#45;&gt;Node5 -->
<g id="edge16_Node000003_Node000005" class="edge">
<title>Node3&#45;&gt;Node5</title>
<g id="a_edge16_Node000003_Node000005"><a xlink:title=" ">
<path fill="none" stroke="#63b8ff" d="M365.05,-220.88C368.6,-195.33 377.97,-150.92 402,-121.75 418.38,-101.86 444.81,-88.45 464.8,-80.52"/>
<polygon fill="#63b8ff" stroke="#63b8ff" points="361.61,-220.21 363.89,-230.55 368.56,-221.04 361.61,-220.21"/>
</a>
</g>
</g>
<!-- Node6 -->
<g id="Node000006" class="node">
<title>Node6</title>
<g id="a_Node000006"><a xlink:href="../../d4/d96/_or_else_8hpp.html" target="_top" xlink:title=" ">
<polygon fill="white" stroke="#666666" points="710,-80.12 580,-80.12 580,-60.88 710,-60.88 710,-80.12"/>
<text text-anchor="middle" x="645" y="-66.62" font-family="Helvetica,sans-Serif" font-size="10.00">gimo/algorithm/OrElse.hpp</text>
</a>
</g>
</g>
<!-- Node3&#45;&gt;Node6 -->
<g id="edge25_Node000003_Node000006" class="edge">
<title>Node3&#45;&gt;Node6</title>
<g id="a_edge25_Node000003_Node000006"><a xlink:title=" ">
<path fill="none" stroke="#63b8ff" d="M422.97,-234.97C480.14,-228.28 561.1,-215.71 586,-196.25 624.89,-165.86 639.4,-103.6 643.58,-80.44"/>
<polygon fill="#63b8ff" stroke="#63b8ff" points="422.93,-231.45 413.39,-236.06 423.72,-238.41 422.93,-231.45"/>
</a>
</g>
</g>
<!-- Node7 -->
<g id="Node000007" class="node">
<title>Node7</title>
<g id="a_Node000007"><a xlink:href="../../d9/d8c/_transform_8hpp.html" target="_top" xlink:title=" ">
<polygon fill="white" stroke="#666666" points="873.5,-80.12 728.5,-80.12 728.5,-60.88 873.5,-60.88 873.5,-80.12"/>
<text text-anchor="middle" x="801" y="-66.62" font-family="Helvetica,sans-Serif" font-size="10.00">gimo/algorithm/Transform.hpp</text>
</a>
</g>
</g>
<!-- Node3&#45;&gt;Node7 -->
<g id="edge26_Node000003_Node000007" class="edge">
<title>Node3&#45;&gt;Node7</title>
<g id="a_edge26_Node000003_Node000007"><a xlink:title=" ">
<path fill="none" stroke="#63b8ff" d="M422.86,-236.67C473.83,-231.55 548.24,-220.37 609,-196.25 685.11,-166.04 763.06,-103.67 790.6,-80.46"/>
<polygon fill="#63b8ff" stroke="#63b8ff" points="422.84,-233.16 413.22,-237.59 423.5,-240.13 422.84,-233.16"/>
</a>
</g>
</g>
<!-- Node8 -->
<g id="Node000008" class="node">
<title>Node8</title>
<g id="a_Node000008"><a xlink:href="../../d9/d45/_transform_error_8hpp.html" target="_top" xlink:title=" ">
<polygon fill="white" stroke="#666666" points="193.5,-85.75 66.5,-85.75 66.5,-55.25 193.5,-55.25 193.5,-85.75"/>
<text text-anchor="start" x="74.5" y="-72.25" font-family="Helvetica,sans-Serif" font-size="10.00">gimo/algorithm/Transform</text>
<text text-anchor="middle" x="130" y="-61" font-family="Helvetica,sans-Serif" font-size="10.00">Error.hpp</text>
</a>
</g>
</g>
<!-- Node3&#45;&gt;Node8 -->
<g id="edge27_Node000003_Node000008" class="edge">
<title>Node3&#45;&gt;Node8</title>
<g id="a_edge27_Node000003_Node000008"><a xlink:title=" ">
<path fill="none" stroke="#63b8ff" d="M341.33,-225.12C296.42,-192.48 193.79,-117.87 150.19,-86.18"/>
<polygon fill="#63b8ff" stroke="#63b8ff" points="339.1,-227.83 349.25,-230.88 343.22,-222.17 339.1,-227.83"/>
</a>
</g>
</g>
<!-- Node9 -->
<g id="Node000009" class="node">
<title>Node9</title>
<g id="a_Node000009"><a xlink:href="../../d2/d0b/_value_or_else_8hpp.html" target="_top" xlink:title=" ">
<polygon fill="white" stroke="#666666" points="366.38,-80.12 211.62,-80.12 211.62,-60.88 366.38,-60.88 366.38,-80.12"/>
<text text-anchor="middle" x="289" y="-66.62" font-family="Helvetica,sans-Serif" font-size="10.00">gimo/algorithm/ValueOrElse.hpp</text>
</a>
</g>
</g>
<!-- Node3&#45;&gt;Node9 -->
<g id="edge28_Node000003_Node000009" class="edge">
<title>Node3&#45;&gt;Node9</title>
<g id="a_edge28_Node000003_Node000009"><a xlink:title=" ">
<path fill="none" stroke="#63b8ff" d="M348.26,-222.93C342.32,-215.08 335.77,-205.56 331,-196.25 309.95,-155.17 295.97,-101.25 291.01,-80.33"/>
<polygon fill="#63b8ff" stroke="#63b8ff" points="345.4,-224.95 354.33,-230.64 350.9,-220.62 345.4,-224.95"/>
</a>
</g>
</g>
<!-- Node3&#45;&gt;Node10 -->
<g id="edge17_Node000003_Node000010" class="edge">
<title>Node3&#45;&gt;Node10</title>
<g id="a_edge17_Node000003_Node000010"><a xlink:title=" ">
<path fill="none" stroke="#63b8ff" d="M395.82,-227.53C419.5,-217.91 450.84,-205.17 471.67,-196.7"/>
<polygon fill="#63b8ff" stroke="#63b8ff" points="394.57,-224.26 386.62,-231.27 397.21,-230.75 394.57,-224.26"/>
</a>
</g>
</g>
<!-- Node4&#45;&gt;Node2 -->
<g id="edge5_Node000004_Node000002" class="edge">
<title>Node4&#45;&gt;Node2</title>
<g id="a_edge5_Node000004_Node000002"><a xlink:title=" ">
<path fill="none" stroke="#63b8ff" d="M436.49,-113.9C428.09,-106.17 418.96,-96.33 413,-85.75 400.72,-63.95 396.25,-34.17 394.73,-19.51"/>
<polygon fill="#63b8ff" stroke="#63b8ff" points="434.14,-116.5 443.99,-120.41 438.73,-111.21 434.14,-116.5"/>
</a>
</g>
</g>
<!-- Node4&#45;&gt;Node5 -->
<g id="edge6_Node000004_Node000005" class="edge">
<title>Node4&#45;&gt;Node5</title>
<g id="a_edge6_Node000004_Node000005"><a xlink:title=" ">
<path fill="none" stroke="#63b8ff" d="M468.16,-111.61C474.34,-101.21 481.73,-88.77 486.63,-80.53"/>
<polygon fill="#63b8ff" stroke="#63b8ff" points="465.19,-109.75 463.09,-120.13 471.21,-113.32 465.19,-109.75"/>
</a>
</g>
</g>
<!-- Node4&#45;&gt;Node6 -->
<g id="edge8_Node000004_Node000006" class="edge">
<title>Node4&#45;&gt;Node6</title>
<g id="a_edge8_Node000004_Node000006"><a xlink:title=" ">
<path fill="none" stroke="#63b8ff" d="M496.49,-118.01C532.21,-106.82 583.97,-90.61 616,-80.58"/>
<polygon fill="#63b8ff" stroke="#63b8ff" points="495.9,-114.52 487.41,-120.85 498,-121.2 495.9,-114.52"/>
</a>
</g>
</g>
<!-- Node4&#45;&gt;Node7 -->
<g id="edge10_Node000004_Node000007" class="edge">
<title>Node4&#45;&gt;Node7</title>
<g id="a_edge10_Node000004_Node000007"><a xlink:title=" ">
<path fill="none" stroke="#63b8ff" d="M514.61,-120.62C567.7,-111.62 648.67,-97.85 719,-85.75 728.68,-84.08 739.01,-82.3 748.95,-80.57"/>
<polygon fill="#63b8ff" stroke="#63b8ff" points="514.16,-117.15 504.88,-122.27 515.33,-124.05 514.16,-117.15"/>
</a>
</g>
</g>
<!-- Node4&#45;&gt;Node8 -->
<g id="edge12_Node000004_Node000008" class="edge">
<title>Node4&#45;&gt;Node8</title>
<g id="a_edge12_Node000004_Node000008"><a xlink:title=" ">
<path fill="none" stroke="#63b8ff" d="M399.38,-120.57C347.86,-111.73 270.32,-98.23 203,-85.75 199.95,-85.18 196.84,-84.6 193.69,-84.01"/>
<polygon fill="#63b8ff" stroke="#63b8ff" points="398.66,-124 409.11,-122.24 399.85,-117.1 398.66,-124"/>
</a>
</g>
</g>
<!-- Node4&#45;&gt;Node9 -->
<g id="edge14_Node000004_Node000009" class="edge">
<title>Node4&#45;&gt;Node9</title>
<g id="a_edge14_Node000004_Node000009"><a xlink:title=" ">
<path fill="none" stroke="#63b8ff" d="M420.46,-117.57C388.6,-106.4 343.16,-90.48 314.91,-80.58"/>
<polygon fill="#63b8ff" stroke="#63b8ff" points="419.09,-120.8 429.69,-120.8 421.41,-114.19 419.09,-120.8"/>
</a>
</g>
</g>
<!-- Node5&#45;&gt;Node2 -->
<g id="edge7_Node000005_Node000002" class="edge">
<title>Node5&#45;&gt;Node2</title>
<g id="a_edge7_Node000005_Node000002"><a xlink:title=" ">
<path fill="none" stroke="#63b8ff" d="M467.39,-54.71C449.03,-43.69 424.55,-28.98 409.02,-19.65"/>
<polygon fill="#63b8ff" stroke="#63b8ff" points="465.44,-57.63 475.82,-59.78 469.05,-51.63 465.44,-57.63"/>
</a>
</g>
</g>
<!-- Node6&#45;&gt;Node2 -->
<g id="edge9_Node000006_Node000002" class="edge">
<title>Node6&#45;&gt;Node2</title>
<g id="a_edge9_Node000006_Node000002"><a xlink:title=" ">
<path fill="none" stroke="#63b8ff" d="M595.37,-57.86C543.41,-45.67 463.67,-26.97 421.83,-17.15"/>
<polygon fill="#63b8ff" stroke="#63b8ff" points="594.32,-61.21 604.86,-60.08 595.92,-54.39 594.32,-61.21"/>
</a>
</g>
</g>
<!-- Node7&#45;&gt;Node2 -->
<g id="edge11_Node000007_Node000002" class="edge">
<title>Node7&#45;&gt;Node2</title>
<g id="a_edge11_Node000007_Node000002"><a xlink:title=" ">
<path fill="none" stroke="#63b8ff" d="M739.02,-58.49C732.27,-57.36 725.49,-56.26 719,-55.25 609.26,-38.19 478.13,-21.23 421.87,-14.11"/>
<polygon fill="#63b8ff" stroke="#63b8ff" points="738.37,-61.93 748.81,-60.15 739.54,-55.03 738.37,-61.93"/>
</a>
</g>
</g>
<!-- Node8&#45;&gt;Node2 -->
<g id="edge13_Node000008_Node000002" class="edge">
<title>Node8&#45;&gt;Node2</title>
<g id="a_edge13_Node000008_Node000002"><a xlink:title=" ">
<path fill="none" stroke="#63b8ff" d="M205.12,-52.75C258.86,-40.76 328.15,-25.31 366.09,-16.85"/>
<polygon fill="#63b8ff" stroke="#63b8ff" points="204.38,-49.33 195.38,-54.92 205.91,-56.16 204.38,-49.33"/>
</a>
</g>
</g>
<!-- Node9&#45;&gt;Node2 -->
<g id="edge15_Node000009_Node000002" class="edge">
<title>Node9&#45;&gt;Node2</title>
<g id="a_edge15_Node000009_Node000002"><a xlink:title=" ">
<path fill="none" stroke="#63b8ff" d="M314.82,-55.02C334.55,-43.96 361.12,-29.06 377.9,-19.65"/>
<polygon fill="#63b8ff" stroke="#63b8ff" points="313.28,-51.87 306.27,-59.82 316.7,-57.98 313.28,-51.87"/>
</a>
</g>
</g>
<!-- Node10&#45;&gt;Node2 -->
<g id="edge18_Node000010_Node000002" class="edge">
<title>Node10&#45;&gt;Node2</title>
<g id="a_edge18_Node000010_Node000002"><a xlink:title=" ">
<path fill="none" stroke="#63b8ff" d="M589.09,-183.5C730.75,-177.15 971.54,-152.24 883,-55.25 851.75,-21.02 520.62,-12.74 421.73,-11.03"/>
<polygon fill="#63b8ff" stroke="#63b8ff" points="589.16,-179.99 579.32,-183.91 589.46,-186.98 589.16,-179.99"/>
</a>
</g>
</g>
<!-- Node10&#45;&gt;Node4 -->
<g id="edge19_Node000010_Node000004" class="edge">
<title>Node10&#45;&gt;Node4</title>
<g id="a_edge19_Node000010_Node000004"><a xlink:title=" ">
<path fill="none" stroke="#63b8ff" d="M481.34,-167.4C475.23,-158.61 468.18,-148.46 463.24,-141.36"/>
<polygon fill="#63b8ff" stroke="#63b8ff" points="478.45,-169.37 487.03,-175.59 484.19,-165.38 478.45,-169.37"/>
</a>
</g>
</g>
<!-- Node10&#45;&gt;Node5 -->
<g id="edge20_Node000010_Node000005" class="edge">
<title>Node10&#45;&gt;Node5</title>
<g id="a_edge20_Node000010_Node000005"><a xlink:title=" ">
<path fill="none" stroke="#63b8ff" d="M503.66,-166.33C507.01,-158.65 510.33,-149.6 512,-141 516.31,-118.81 504.67,-93.47 497.38,-80.37"/>
<polygon fill="#63b8ff" stroke="#63b8ff" points="500.52,-164.8 499.43,-175.34 506.85,-167.78 500.52,-164.8"/>
</a>
</g>
</g>
<!-- Node10&#45;&gt;Node6 -->
<g id="edge21_Node000010_Node000006" class="edge">
<title>Node10&#45;&gt;Node6</title>
<g id="a_edge21_Node000010_Node000006"><a xlink:title=" ">
<path fill="none" stroke="#63b8ff" d="M514.84,-169.87C547,-145.56 607.68,-99.71 633.21,-80.41"/>
<polygon fill="#63b8ff" stroke="#63b8ff" points="512.92,-166.94 507.06,-175.76 517.14,-172.52 512.92,-166.94"/>
</a>
</g>
</g>
<!-- Node10&#45;&gt;Node7 -->
<g id="edge22_Node000010_Node000007" class="edge">
<title>Node10&#45;&gt;Node7</title>
<g id="a_edge22_Node000010_Node000007"><a xlink:title=" ">
<path fill="none" stroke="#63b8ff" d="M528.9,-172.65C591.76,-149.29 722.46,-100.69 776.65,-80.55"/>
<polygon fill="#63b8ff" stroke="#63b8ff" points="527.92,-169.28 519.77,-176.05 530.36,-175.84 527.92,-169.28"/>
</a>
</g>
</g>
<!-- Node10&#45;&gt;Node8 -->
<g id="edge23_Node000010_Node000008" class="edge">
<title>Node10&#45;&gt;Node8</title>
<g id="a_edge23_Node000010_Node000008"><a xlink:title=" ">
<path fill="none" stroke="#63b8ff" d="M454.51,-173.24C386.88,-152.04 249.18,-108.87 176.82,-86.18"/>
<polygon fill="#63b8ff" stroke="#63b8ff" points="453.1,-176.47 463.69,-176.12 455.19,-169.79 453.1,-176.47"/>
</a>
</g>
</g>
<!-- Node10&#45;&gt;Node9 -->
<g id="edge24_Node000010_Node000009" class="edge">
<title>Node10&#45;&gt;Node9</title>
<g id="a_edge24_Node000010_Node000009"><a xlink:title=" ">
<path fill="none" stroke="#63b8ff" d="M463.7,-171.86C445.57,-163.39 422.2,-152.08 402,-141 365.24,-120.85 323.64,-94.22 302.65,-80.51"/>
<polygon fill="#63b8ff" stroke="#63b8ff" points="462.05,-174.95 472.6,-175.98 464.99,-168.6 462.05,-174.95"/>
</a>
</g>
</g>
</g>
</svg>

<g id="navigator" transform="translate(0 0)" fill="#404254">
  <rect fill="#f2f5e9" fill-opacity="0.5" stroke="#606060" stroke-width=".5" x="0" y="0" width="60" height="60"/>
  <use id="zoomplus" xlink:href="#zoomPlus" x="17" y="9" onmousedown="handleZoom(evt,'in')"/>
  <use id="zoomminus" xlink:href="#zoomMin" x="42" y="9" onmousedown="handleZoom(evt,'out')"/>
  <use id="reset" xlink:href="#resetDef" x="30" y="36" onmousedown="handleReset()"/>
   <use id="arrowup" xlink:href="#arrowUp" x="0" y="0" onmousedown="handlePan(0,-1)"/>
  <use id="arrowright" xlink:href="#arrowRight" x="0" y="0" onmousedown="handlePan(1,0)"/>
  <use id="arrowdown" xlink:href="#arrowDown" x="0" y="0" onmousedown="handlePan(0,1)"/>
  <use id="arrowleft" xlink:href="#arrowLeft" x="0" y="0" onmousedown="handlePan(-1,0)"/>
</g>
<svg viewBox="0 0 15 15" width="100%" height="30px" preserveAspectRatio="xMaxYMin meet">
 <g id="arrow_out" transform="scale(0.3 0.3)">
  <a xlink:href="_config_8hpp__dep__incl_org.svg" target="_base">
   <rect id="button" ry="5" rx="5" y="6" x="6" height="38" width="38"
        fill="#f2f5e9" fill-opacity="0.5" stroke="#606060" stroke-width="1.0"/>
   <path id="arrow"
     d="M 11.500037,31.436501 C 11.940474,20.09759 22.043105,11.32322 32.158766,21.979434 L 37.068811,17.246167 C 37.068811,17.246167 37.088388,32 37.088388,32 L 22.160133,31.978069 C 22.160133,31.978069 26.997745,27.140456 26.997745,27.140456 C 18.528582,18.264221 13.291696,25.230495 11.500037,31.436501 z"
     style="fill:#404040;"/>
  </a>
 </g>
</svg>

<style type='text/css'>
<![CDATA[
[data-mouse-over-selected='false'] { opacity: 0.7; }
[data-mouse-over-selected='true']  { opacity: 1.0; }
]]>
</style>
<script type="application/ecmascript"><![CDATA[
document.addEventListener('DOMContentLoaded', (event) => {
  highlightEdges();
  highlightAdjacentNodes();
});
]]></script>
</svg>
