<?xml version="1.0" encoding="UTF-8" standalone="no"?>
<!DOCTYPE svg PUBLIC "-//W3C//DTD SVG 1.1//EN"
 "http://www.w3.org/Graphics/SVG/1.1/DTD/svg11.dtd">
<!-- Generated by graphviz version 12.2.1 (20241206.2353)
 -->
<!-- Title: gimo.hpp Pages: 1 -->
<!--zoomable 315 -->

<svg id="main" version="1.1" xmlns="http://www.w3.org/2000/svg" xmlns:xlink="http://www.w3.org/1999/xlink" xml:space="preserve" onload="init(evt)">

<style type="text/css"><![CDATA[
.node, .edge {opacity: 0.7;}
.node.selected, .edge.selected {opacity: 1;}
.edge:hover path { stroke: red; }
.edge:hover polygon { stroke: red; fill: red; }
]]></style>

<defs>
  <circle id="rim" cx="0" cy="0" r="7"/>
  <circle id="rim2" cx="0" cy="0" r="3.5"/>
  <g id="zoomPlus">
    <use xlink:href="#rim" fill="#404040"><set attributeName="fill" to="#808080" begin="zoomplus.mouseover" end="zoomplus.mouseout"/></use>
    <path d="M-4,0h8M0,-4v8" fill="none" stroke="white" stroke-width="1.5" pointer-events="none"/>
  </g>
  <g id="zoomMin">
    <use xlink:href="#rim" fill="#404040"><set attributeName="fill" to="#808080" begin="zoomminus.mouseover" end="zoomminus.mouseout"/></use>
    <path d="M-4,0h8" fill="none" stroke="white" stroke-width="1.5" pointer-events="none"/>
  </g>
  <g id="arrowUp" transform="translate(30 24)">
    <use xlink:href="#rim"/>
    <path pointer-events="none" fill="none" stroke="white" stroke-width="1.5" d="M0,-3.0v7 M-2.5,-0.5L0,-3.0L2.5,-0.5"/>
  </g>
  <g id="arrowRight" transform="rotate(90) translate(36 -43)">
    <use xlink:href="#rim"/>
    <path pointer-events="none" fill="none" stroke="white" stroke-width="1.5" d="M0,-3.0v7 M-2.5,-0.5L0,-3.0L2.5,-0.5"/>
  </g>
  <g id="arrowDown" transform="rotate(180) translate(-30 -48)">
    <use xlink:href="#rim"/>
    <path pointer-events="none" fill="none" stroke="white" stroke-width="1.5" d="M0,-3.0v7 M-2.5,-0.5L0,-3.0L2.5,-0.5"/>
  </g>
  <g id="arrowLeft" transform="rotate(270) translate(-36 17)">
    <use xlink:href="#rim"/>
    <path pointer-events="none" fill="none" stroke="white" stroke-width="1.5" d="M0,-3.0v7 M-2.5,-0.5L0,-3.0L2.5,-0.5"/>
  </g>
  <g id="resetDef">
    <use xlink:href="#rim2" fill="#404040"><set attributeName="fill" to="#808080" begin="reset.mouseover" end="reset.mouseout"/></use>
  </g>
</defs>
<script type="application/ecmascript">
var viewWidth = 1241;
var viewHeight = 315;
var sectionId = 'dynsection-0';
</script>
<script type="application/ecmascript" xlink:href="../../svg.min.js"/>
<svg id="graph" class="graph">
<g id="viewport">
<title>gimo.hpp</title>
<!-- Node1 -->
<g id="Node000001" class="node">
<title>Node1</title>
<g id="a_Node000001"><a xlink:title=" ">
<polygon fill="#999999" stroke="#666666" points="494,-306.75 439,-306.75 439,-287.5 494,-287.5 494,-306.75"/>
<text text-anchor="middle" x="466.5" y="-293.25" font-family="Helvetica,sans-Serif" font-size="10.00">gimo.hpp</text>
</a>
</g>
</g>
<!-- Node2 -->
<g id="Node000002" class="node">
<title>Node2</title>
<g id="a_Node000002"><a xlink:href="../../d7/d67/_version_8hpp.html" target="_top" xlink:title=" ">
<polygon fill="white" stroke="#666666" points="91,-245.88 0,-245.88 0,-226.62 91,-226.62 91,-245.88"/>
<text text-anchor="middle" x="45.5" y="-232.38" font-family="Helvetica,sans-Serif" font-size="10.00">gimo/Version.hpp</text>
</a>
</g>
</g>
<!-- Node1&#45;&gt;Node2 -->
<g id="edge1_Node000001_Node000002" class="edge">
<title>Node1&#45;&gt;Node2</title>
<g id="a_edge1_Node000001_Node000002"><a xlink:title=" ">
<path fill="none" stroke="#63b8ff" d="M438.72,-293.74C377.97,-288.31 228.87,-273.71 105.5,-251.5 101.12,-250.71 96.58,-249.8 92.05,-248.84"/>
<polygon fill="#63b8ff" stroke="#63b8ff" points="92.9,-245.44 82.38,-246.67 91.37,-252.27 92.9,-245.44"/>
</a>
</g>
</g>
<!-- Node3 -->
<g id="Node000003" class="node">
<title>Node3</title>
<g id="a_Node000003"><a xlink:href="../../d8/dd2/_config_8hpp.html" target="_top" xlink:title=" ">
<polygon fill="white" stroke="#666666" points="430,-74.5 345,-74.5 345,-55.25 430,-55.25 430,-74.5"/>
<text text-anchor="middle" x="387.5" y="-61" font-family="Helvetica,sans-Serif" font-size="10.00">gimo/Config.hpp</text>
</a>
</g>
</g>
<!-- Node1&#45;&gt;Node3 -->
<g id="edge2_Node000001_Node000003" class="edge">
<title>Node1&#45;&gt;Node3</title>
<g id="a_edge2_Node000001_Node000003"><a xlink:title=" ">
<path fill="none" stroke="#63b8ff" d="M438.61,-295.01C380.56,-290.94 248.53,-272.08 204.5,-185 189.56,-155.45 183.03,-136.53 203.5,-110.5 219.44,-90.23 284.98,-78.04 333.31,-71.64"/>
<polygon fill="#63b8ff" stroke="#63b8ff" points="333.59,-75.14 343.07,-70.41 332.71,-68.19 333.59,-75.14"/>
</a>
</g>
</g>
<!-- Node5 -->
<g id="Node000005" class="node">
<title>Node5</title>
<g id="a_Node000005"><a xlink:href="../../d3/d58/_common_8hpp.html" target="_top" xlink:title=" ">
<polygon fill="white" stroke="#666666" points="617,-129.75 520,-129.75 520,-110.5 617,-110.5 617,-129.75"/>
<text text-anchor="middle" x="568.5" y="-116.25" font-family="Helvetica,sans-Serif" font-size="10.00">gimo/Common.hpp</text>
</a>
</g>
</g>
<!-- Node1&#45;&gt;Node5 -->
<g id="edge4_Node000001_Node000005" class="edge">
<title>Node1&#45;&gt;Node5</title>
<g id="a_edge4_Node000001_Node000005"><a xlink:title=" ">
<path fill="none" stroke="#63b8ff" d="M438.64,-292.76C395.66,-286.94 316.36,-273.46 299.5,-251.5 282.9,-229.88 318.8,-166.34 319.5,-165.75 347.42,-142.22 444.1,-130.43 508.46,-125.06"/>
<polygon fill="#63b8ff" stroke="#63b8ff" points="508.48,-128.57 518.17,-124.28 507.92,-121.59 508.48,-128.57"/>
</a>
</g>
</g>
<!-- Node10 -->
<g id="Node000010" class="node">
<title>Node10</title>
<g id="a_Node000010"><a xlink:href="../../d1/da8/_pipeline_8hpp.html" target="_top" xlink:title=" ">
<polygon fill="white" stroke="#666666" points="993.75,-185 901.25,-185 901.25,-165.75 993.75,-165.75 993.75,-185"/>
<text text-anchor="middle" x="947.5" y="-171.5" font-family="Helvetica,sans-Serif" font-size="10.00">gimo/Pipeline.hpp</text>
</a>
</g>
</g>
<!-- Node1&#45;&gt;Node10 -->
<g id="edge10_Node000001_Node000010" class="edge">
<title>Node1&#45;&gt;Node10</title>
<g id="a_edge10_Node000001_Node000010"><a xlink:title=" ">
<path fill="none" stroke="#63b8ff" d="M494.39,-294.88C586.37,-290.58 876.29,-275.24 910.5,-251.5 928.95,-238.7 938.6,-214 943.36,-196.42"/>
<polygon fill="#63b8ff" stroke="#63b8ff" points="946.73,-197.39 945.62,-186.86 939.91,-195.78 946.73,-197.39"/>
</a>
</g>
</g>
<!-- Node13 -->
<g id="Node000013" class="node">
<title>Node13</title>
<g id="a_Node000013"><a xlink:href="../../de/dca/_basic_algorithm_8hpp.html" target="_top" xlink:title=" ">
<polygon fill="white" stroke="#666666" points="503.88,-185 337.12,-185 337.12,-165.75 503.88,-165.75 503.88,-185"/>
<text text-anchor="middle" x="420.5" y="-171.5" font-family="Helvetica,sans-Serif" font-size="10.00">gimo/algorithm/BasicAlgorithm.hpp</text>
</a>
</g>
</g>
<!-- Node1&#45;&gt;Node13 -->
<g id="edge16_Node000001_Node000013" class="edge">
<title>Node1&#45;&gt;Node13</title>
<g id="a_edge16_Node000001_Node000013"><a xlink:title=" ">
<path fill="none" stroke="#63b8ff" d="M465.1,-287.06C462.69,-272.66 457.05,-243.84 447.5,-221 443.71,-211.92 438.27,-202.52 433.27,-194.69"/>
<polygon fill="#63b8ff" stroke="#63b8ff" points="436.22,-192.81 427.76,-186.44 430.4,-196.7 436.22,-192.81"/>
</a>
</g>
</g>
<!-- Node14 -->
<g id="Node000014" class="node">
<title>Node14</title>
<g id="a_Node000014"><a xlink:href="../../d6/d3f/_and_then_8hpp.html" target="_top" xlink:title=" ">
<polygon fill="white" stroke="#666666" points="1097.38,-245.88 957.62,-245.88 957.62,-226.62 1097.38,-226.62 1097.38,-245.88"/>
<text text-anchor="middle" x="1027.5" y="-232.38" font-family="Helvetica,sans-Serif" font-size="10.00">gimo/algorithm/AndThen.hpp</text>
</a>
</g>
</g>
<!-- Node1&#45;&gt;Node14 -->
<g id="edge22_Node000001_Node000014" class="edge">
<title>Node1&#45;&gt;Node14</title>
<g id="a_edge22_Node000001_Node000014"><a xlink:title=" ">
<path fill="none" stroke="#63b8ff" d="M494.27,-294.26C567.77,-289.15 773.42,-273.85 943.5,-251.5 950.99,-250.52 958.83,-249.36 966.59,-248.13"/>
<polygon fill="#63b8ff" stroke="#63b8ff" points="967.04,-251.61 976.35,-246.55 965.92,-244.7 967.04,-251.61"/>
</a>
</g>
</g>
<!-- Node15 -->
<g id="Node000015" class="node">
<title>Node15</title>
<g id="a_Node000015"><a xlink:href="../../d4/d96/_or_else_8hpp.html" target="_top" xlink:title=" ">
<polygon fill="white" stroke="#666666" points="438.5,-245.88 308.5,-245.88 308.5,-226.62 438.5,-226.62 438.5,-245.88"/>
<text text-anchor="middle" x="373.5" y="-232.38" font-family="Helvetica,sans-Serif" font-size="10.00">gimo/algorithm/OrElse.hpp</text>
</a>
</g>
</g>
<!-- Node1&#45;&gt;Node15 -->
<g id="edge30_Node000001_Node000015" class="edge">
<title>Node1&#45;&gt;Node15</title>
<g id="a_edge30_Node000001_Node000015"><a xlink:title=" ">
<path fill="none" stroke="#63b8ff" d="M452.38,-287.18C437.76,-277.93 414.68,-263.32 397.26,-252.29"/>
<polygon fill="#63b8ff" stroke="#63b8ff" points="399.36,-249.48 389.04,-247.09 395.61,-255.39 399.36,-249.48"/>
</a>
</g>
</g>
<!-- Node16 -->
<g id="Node000016" class="node">
<title>Node16</title>
<g id="a_Node000016"><a xlink:href="../../d9/d8c/_transform_8hpp.html" target="_top" xlink:title=" ">
<polygon fill="white" stroke="#666666" points="901,-245.88 756,-245.88 756,-226.62 901,-226.62 901,-245.88"/>
<text text-anchor="middle" x="828.5" y="-232.38" font-family="Helvetica,sans-Serif" font-size="10.00">gimo/algorithm/Transform.hpp</text>
</a>
</g>
</g>
<!-- Node1&#45;&gt;Node16 -->
<g id="edge39_Node000001_Node000016" class="edge">
<title>Node1&#45;&gt;Node16</title>
<g id="a_edge39_Node000001_Node000016"><a xlink:title=" ">
<path fill="none" stroke="#63b8ff" d="M494.44,-291.85C544.98,-284.07 654.93,-266.99 747.5,-251.5 753.57,-250.48 759.9,-249.41 766.22,-248.31"/>
<polygon fill="#63b8ff" stroke="#63b8ff" points="766.79,-251.77 776.04,-246.61 765.59,-244.87 766.79,-251.77"/>
</a>
</g>
</g>
<!-- Node17 -->
<g id="Node000017" class="node">
<title>Node17</title>
<g id="a_Node000017"><a xlink:href="../../d9/d45/_transform_error_8hpp.html" target="_top" xlink:title=" ">
<polygon fill="white" stroke="#666666" points="738,-251.5 611,-251.5 611,-221 738,-221 738,-251.5"/>
<text text-anchor="start" x="619" y="-238" font-family="Helvetica,sans-Serif" font-size="10.00">gimo/algorithm/Transform</text>
<text text-anchor="middle" x="674.5" y="-226.75" font-family="Helvetica,sans-Serif" font-size="10.00">Error.hpp</text>
</a>
</g>
</g>
<!-- Node1&#45;&gt;Node17 -->
<g id="edge47_Node000001_Node000017" class="edge">
<title>Node1&#45;&gt;Node17</title>
<g id="a_edge47_Node000001_Node000017"><a xlink:title=" ">
<path fill="none" stroke="#63b8ff" d="M494.12,-288.31C523.96,-279.86 572.48,-266.13 611.69,-255.03"/>
<polygon fill="#63b8ff" stroke="#63b8ff" points="612.62,-258.4 621.29,-252.31 610.71,-251.67 612.62,-258.4"/>
</a>
</g>
</g>
<!-- Node4 -->
<g id="Node000004" class="node">
<title>Node4</title>
<g id="a_Node000004"><a xlink:title=" ">
<polygon fill="#e0e0e0" stroke="#999999" points="411.62,-19.25 363.38,-19.25 363.38,0 411.62,0 411.62,-19.25"/>
<text text-anchor="middle" x="387.5" y="-5.75" font-family="Helvetica,sans-Serif" font-size="10.00">cassert</text>
</a>
</g>
</g>
<!-- Node3&#45;&gt;Node4 -->
<g id="edge3_Node000003_Node000004" class="edge">
<title>Node3&#45;&gt;Node4</title>
<g id="a_edge3_Node000003_Node000004"><a xlink:title=" ">
<path fill="none" stroke="#63b8ff" d="M387.5,-55.08C387.5,-48.57 387.5,-39.42 387.5,-31.12"/>
<polygon fill="#63b8ff" stroke="#63b8ff" points="391,-31.12 387.5,-21.12 384,-31.12 391,-31.12"/>
</a>
</g>
</g>
<!-- Node5&#45;&gt;Node3 -->
<g id="edge5_Node000005_Node000003" class="edge">
<title>Node5&#45;&gt;Node3</title>
<g id="a_edge5_Node000005_Node000003"><a xlink:title=" ">
<path fill="none" stroke="#63b8ff" d="M537.8,-110.09C507.89,-101.29 462.22,-87.86 429.08,-78.11"/>
<polygon fill="#63b8ff" stroke="#63b8ff" points="430.39,-74.84 419.81,-75.38 428.41,-81.56 430.39,-74.84"/>
</a>
</g>
</g>
<!-- Node6 -->
<g id="Node000006" class="node">
<title>Node6</title>
<g id="a_Node000006"><a xlink:title=" ">
<polygon fill="#e0e0e0" stroke="#999999" points="503.38,-74.5 447.62,-74.5 447.62,-55.25 503.38,-55.25 503.38,-74.5"/>
<text text-anchor="middle" x="475.5" y="-61" font-family="Helvetica,sans-Serif" font-size="10.00">concepts</text>
</a>
</g>
</g>
<!-- Node5&#45;&gt;Node6 -->
<g id="edge6_Node000005_Node000006" class="edge">
<title>Node5&#45;&gt;Node6</title>
<g id="a_edge6_Node000005_Node000006"><a xlink:title=" ">
<path fill="none" stroke="#63b8ff" d="M552.72,-110.09C538.56,-101.98 517.52,-89.93 500.97,-80.46"/>
<polygon fill="#63b8ff" stroke="#63b8ff" points="503.08,-77.64 492.67,-75.7 499.61,-83.71 503.08,-77.64"/>
</a>
</g>
</g>
<!-- Node7 -->
<g id="Node000007" class="node">
<title>Node7</title>
<g id="a_Node000007"><a xlink:title=" ">
<polygon fill="#e0e0e0" stroke="#999999" points="592.62,-74.5 544.38,-74.5 544.38,-55.25 592.62,-55.25 592.62,-74.5"/>
<text text-anchor="middle" x="568.5" y="-61" font-family="Helvetica,sans-Serif" font-size="10.00">cstddef</text>
</a>
</g>
</g>
<!-- Node5&#45;&gt;Node7 -->
<g id="edge7_Node000005_Node000007" class="edge">
<title>Node5&#45;&gt;Node7</title>
<g id="a_edge7_Node000005_Node000007"><a xlink:title=" ">
<path fill="none" stroke="#63b8ff" d="M568.5,-110.33C568.5,-103.82 568.5,-94.67 568.5,-86.37"/>
<polygon fill="#63b8ff" stroke="#63b8ff" points="572,-86.37 568.5,-76.37 565,-86.37 572,-86.37"/>
</a>
</g>
</g>
<!-- Node8 -->
<g id="Node000008" class="node">
<title>Node8</title>
<g id="a_Node000008"><a xlink:title=" ">
<polygon fill="#e0e0e0" stroke="#999999" points="767,-74.5 706,-74.5 706,-55.25 767,-55.25 767,-74.5"/>
<text text-anchor="middle" x="736.5" y="-61" font-family="Helvetica,sans-Serif" font-size="10.00">type_traits</text>
</a>
</g>
</g>
<!-- Node5&#45;&gt;Node8 -->
<g id="edge8_Node000005_Node000008" class="edge">
<title>Node5&#45;&gt;Node8</title>
<g id="a_edge8_Node000005_Node000008"><a xlink:title=" ">
<path fill="none" stroke="#63b8ff" d="M597,-110.09C624.51,-101.37 666.41,-88.09 697.11,-78.36"/>
<polygon fill="#63b8ff" stroke="#63b8ff" points="697.94,-81.77 706.42,-75.41 695.83,-75.09 697.94,-81.77"/>
</a>
</g>
</g>
<!-- Node9 -->
<g id="Node000009" class="node">
<title>Node9</title>
<g id="a_Node000009"><a xlink:title=" ">
<polygon fill="#e0e0e0" stroke="#999999" points="687.75,-74.5 649.25,-74.5 649.25,-55.25 687.75,-55.25 687.75,-74.5"/>
<text text-anchor="middle" x="668.5" y="-61" font-family="Helvetica,sans-Serif" font-size="10.00">utility</text>
</a>
</g>
</g>
<!-- Node5&#45;&gt;Node9 -->
<g id="edge9_Node000005_Node000009" class="edge">
<title>Node5&#45;&gt;Node9</title>
<g id="a_edge9_Node000005_Node000009"><a xlink:title=" ">
<path fill="none" stroke="#63b8ff" d="M585.46,-110.09C600.76,-101.94 623.53,-89.82 641.36,-80.33"/>
<polygon fill="#63b8ff" stroke="#63b8ff" points="642.94,-83.45 650.12,-75.66 639.65,-77.27 642.94,-83.45"/>
</a>
</g>
</g>
<!-- Node10&#45;&gt;Node5 -->
<g id="edge11_Node000010_Node000005" class="edge">
<title>Node10&#45;&gt;Node5</title>
<g id="a_edge11_Node000010_Node000005"><a xlink:title=" ">
<path fill="none" stroke="#63b8ff" d="M900.99,-167.67C896.43,-167.02 891.88,-166.37 887.5,-165.75 797.27,-152.95 692.65,-138.37 628.52,-129.45"/>
<polygon fill="#63b8ff" stroke="#63b8ff" points="629.3,-126.03 618.92,-128.12 628.34,-132.96 629.3,-126.03"/>
</a>
</g>
</g>
<!-- Node10&#45;&gt;Node8 -->
<g id="edge14_Node000010_Node000008" class="edge">
<title>Node10&#45;&gt;Node8</title>
<g id="a_edge14_Node000010_Node000008"><a xlink:title=" ">
<path fill="none" stroke="#63b8ff" d="M943.82,-165.45C937.62,-151.53 923.75,-124.78 903.5,-110.5 866.21,-84.2 814.31,-73.4 778.3,-68.96"/>
<polygon fill="#63b8ff" stroke="#63b8ff" points="779.04,-65.52 768.72,-67.9 778.27,-72.48 779.04,-65.52"/>
</a>
</g>
</g>
<!-- Node10&#45;&gt;Node9 -->
<g id="edge15_Node000010_Node000009" class="edge">
<title>Node10&#45;&gt;Node9</title>
<g id="a_edge15_Node000010_Node000009"><a xlink:title=" ">
<path fill="none" stroke="#63b8ff" d="M938.57,-165.41C924.12,-151.43 894.12,-124.61 863.5,-110.5 798.02,-80.32 772.9,-92.08 698.88,-74.59"/>
<polygon fill="#63b8ff" stroke="#63b8ff" points="700.12,-71.29 689.57,-72.29 698.43,-78.09 700.12,-71.29"/>
</a>
</g>
</g>
<!-- Node11 -->
<g id="Node000011" class="node">
<title>Node11</title>
<g id="a_Node000011"><a xlink:title=" ">
<polygon fill="#e0e0e0" stroke="#999999" points="1069.5,-129.75 1011.5,-129.75 1011.5,-110.5 1069.5,-110.5 1069.5,-129.75"/>
<text text-anchor="middle" x="1040.5" y="-116.25" font-family="Helvetica,sans-Serif" font-size="10.00">functional</text>
</a>
</g>
</g>
<!-- Node10&#45;&gt;Node11 -->
<g id="edge12_Node000010_Node000011" class="edge">
<title>Node10&#45;&gt;Node11</title>
<g id="a_edge12_Node000010_Node000011"><a xlink:title=" ">
<path fill="none" stroke="#63b8ff" d="M963.28,-165.34C977.44,-157.23 998.48,-145.18 1015.03,-135.71"/>
<polygon fill="#63b8ff" stroke="#63b8ff" points="1016.39,-138.96 1023.33,-130.95 1012.92,-132.89 1016.39,-138.96"/>
</a>
</g>
</g>
<!-- Node12 -->
<g id="Node000012" class="node">
<title>Node12</title>
<g id="a_Node000012"><a xlink:title=" ">
<polygon fill="#e0e0e0" stroke="#999999" points="854,-129.75 817,-129.75 817,-110.5 854,-110.5 854,-129.75"/>
<text text-anchor="middle" x="835.5" y="-116.25" font-family="Helvetica,sans-Serif" font-size="10.00">tuple</text>
</a>
</g>
</g>
<!-- Node10&#45;&gt;Node12 -->
<g id="edge13_Node000010_Node000012" class="edge">
<title>Node10&#45;&gt;Node12</title>
<g id="a_edge13_Node000010_Node000012"><a xlink:title=" ">
<path fill="none" stroke="#63b8ff" d="M928.5,-165.34C910.94,-156.99 884.58,-144.46 864.41,-134.87"/>
<polygon fill="#63b8ff" stroke="#63b8ff" points="866.12,-131.81 855.59,-130.67 863.11,-138.13 866.12,-131.81"/>
</a>
</g>
</g>
<!-- Node13&#45;&gt;Node3 -->
<g id="edge18_Node000013_Node000003" class="edge">
<title>Node13&#45;&gt;Node3</title>
<g id="a_edge18_Node000013_Node000003"><a xlink:title=" ">
<path fill="none" stroke="#63b8ff" d="M417.8,-165.5C412.53,-148.17 400.76,-109.48 393.54,-85.74"/>
<polygon fill="#63b8ff" stroke="#63b8ff" points="396.94,-84.87 390.68,-76.32 390.24,-86.91 396.94,-84.87"/>
</a>
</g>
</g>
<!-- Node13&#45;&gt;Node5 -->
<g id="edge17_Node000013_Node000005" class="edge">
<title>Node13&#45;&gt;Node5</title>
<g id="a_edge17_Node000013_Node000005"><a xlink:title=" ">
<path fill="none" stroke="#63b8ff" d="M445.61,-165.34C469.53,-156.74 505.78,-143.69 532.72,-134"/>
<polygon fill="#63b8ff" stroke="#63b8ff" points="533.62,-137.39 541.85,-130.71 531.25,-130.81 533.62,-137.39"/>
</a>
</g>
</g>
<!-- Node13&#45;&gt;Node6 -->
<g id="edge19_Node000013_Node000006" class="edge">
<title>Node13&#45;&gt;Node6</title>
<g id="a_edge19_Node000013_Node000006"><a xlink:title=" ">
<path fill="none" stroke="#63b8ff" d="M425,-165.5C433.86,-148.01 453.76,-108.77 465.76,-85.09"/>
<polygon fill="#63b8ff" stroke="#63b8ff" points="468.85,-86.73 470.25,-76.23 462.61,-83.56 468.85,-86.73"/>
</a>
</g>
</g>
<!-- Node13&#45;&gt;Node8 -->
<g id="edge20_Node000013_Node000008" class="edge">
<title>Node13&#45;&gt;Node8</title>
<g id="a_edge20_Node000013_Node000008"><a xlink:title=" ">
<path fill="none" stroke="#63b8ff" d="M487.44,-165.32C528.5,-158.44 581.63,-147.14 626.5,-129.75 658.88,-117.2 692.99,-95.96 714.48,-81.45"/>
<polygon fill="#63b8ff" stroke="#63b8ff" points="716.46,-84.34 722.71,-75.79 712.49,-78.57 716.46,-84.34"/>
</a>
</g>
</g>
<!-- Node13&#45;&gt;Node9 -->
<g id="edge21_Node000013_Node000009" class="edge">
<title>Node13&#45;&gt;Node9</title>
<g id="a_edge21_Node000013_Node000009"><a xlink:title=" ">
<path fill="none" stroke="#63b8ff" d="M430.7,-165.46C446.81,-151.8 479.61,-125.69 511.5,-110.5 553.2,-90.64 605.44,-77.98 637.9,-71.4"/>
<polygon fill="#63b8ff" stroke="#63b8ff" points="638.27,-74.9 647.42,-69.54 636.93,-68.03 638.27,-74.9"/>
</a>
</g>
</g>
<!-- Node14&#45;&gt;Node5 -->
<g id="edge23_Node000014_Node000005" class="edge">
<title>Node14&#45;&gt;Node5</title>
<g id="a_edge23_Node000014_Node000005"><a xlink:title=" ">
<path fill="none" stroke="#63b8ff" d="M991.1,-226.2C908.66,-205.7 707.75,-155.75 615.82,-132.89"/>
<polygon fill="#63b8ff" stroke="#63b8ff" points="616.92,-129.56 606.37,-130.54 615.23,-136.35 616.92,-129.56"/>
</a>
</g>
</g>
<!-- Node14&#45;&gt;Node8 -->
<g id="edge28_Node000014_Node000008" class="edge">
<title>Node14&#45;&gt;Node8</title>
<g id="a_edge28_Node000014_Node000008"><a xlink:title=" ">
<path fill="none" stroke="#63b8ff" d="M1097.58,-234.19C1166.95,-230.32 1258.4,-215.95 1225.5,-165.75 1176.4,-90.85 887.75,-71.79 778.43,-67.23"/>
<polygon fill="#63b8ff" stroke="#63b8ff" points="778.86,-63.74 768.73,-66.84 778.58,-70.74 778.86,-63.74"/>
</a>
</g>
</g>
<!-- Node14&#45;&gt;Node9 -->
<g id="edge29_Node000014_Node000009" class="edge">
<title>Node14&#45;&gt;Node9</title>
<g id="a_edge29_Node000014_Node000009"><a xlink:title=" ">
<path fill="none" stroke="#63b8ff" d="M1067.2,-226.17C1089.05,-218.93 1114.34,-206.33 1127.5,-185 1149.58,-149.19 1092.19,-117.45 1078.5,-110.5 1005.56,-73.47 797.66,-89.36 699.19,-74.2"/>
<polygon fill="#63b8ff" stroke="#63b8ff" points="699.97,-70.78 689.52,-72.51 698.77,-77.68 699.97,-70.78"/>
</a>
</g>
</g>
<!-- Node14&#45;&gt;Node10 -->
<g id="edge24_Node000014_Node000010" class="edge">
<title>Node14&#45;&gt;Node10</title>
<g id="a_edge24_Node000014_Node000010"><a xlink:title=" ">
<path fill="none" stroke="#63b8ff" d="M1015.35,-226.31C1003.02,-217.23 983.67,-202.99 968.78,-192.04"/>
<polygon fill="#63b8ff" stroke="#63b8ff" points="971.11,-189.41 960.98,-186.3 966.96,-195.04 971.11,-189.41"/>
</a>
</g>
</g>
<!-- Node14&#45;&gt;Node11 -->
<g id="edge26_Node000014_Node000011" class="edge">
<title>Node14&#45;&gt;Node11</title>
<g id="a_edge26_Node000014_Node000011"><a xlink:title=" ">
<path fill="none" stroke="#63b8ff" d="M1056.8,-226.23C1076.09,-218.6 1099.85,-205.55 1111.5,-185 1123.4,-164.02 1098.85,-146.26 1075.43,-134.83"/>
<polygon fill="#63b8ff" stroke="#63b8ff" points="1077.16,-131.77 1066.61,-130.81 1074.26,-138.14 1077.16,-131.77"/>
</a>
</g>
</g>
<!-- Node14&#45;&gt;Node12 -->
<g id="edge27_Node000014_Node000012" class="edge">
<title>Node14&#45;&gt;Node12</title>
<g id="a_edge27_Node000014_Node000012"><a xlink:title=" ">
<path fill="none" stroke="#63b8ff" d="M1026.9,-226.6C1025.41,-211.9 1020.25,-182.06 1002.5,-165.75 964.68,-130.99 902.79,-122.76 865.91,-121.13"/>
<polygon fill="#63b8ff" stroke="#63b8ff" points="866.05,-117.63 855.95,-120.84 865.84,-124.63 866.05,-117.63"/>
</a>
</g>
</g>
<!-- Node14&#45;&gt;Node13 -->
<g id="edge25_Node000014_Node000013" class="edge">
<title>Node14&#45;&gt;Node13</title>
<g id="a_edge25_Node000014_Node000013"><a xlink:title=" ">
<path fill="none" stroke="#63b8ff" d="M957.32,-226.35C941.9,-224.49 925.66,-222.61 910.5,-221 773.44,-206.42 614.48,-192.49 515.69,-184.18"/>
<polygon fill="#63b8ff" stroke="#63b8ff" points="516.01,-180.7 505.75,-183.35 515.42,-187.67 516.01,-180.7"/>
</a>
</g>
</g>
<!-- Node15&#45;&gt;Node5 -->
<g id="edge31_Node000015_Node000005" class="edge">
<title>Node15&#45;&gt;Node5</title>
<g id="a_edge31_Node000015_Node000005"><a xlink:title=" ">
<path fill="none" stroke="#63b8ff" d="M360.2,-226.23C341.58,-212.51 311.78,-185.87 328.5,-165.75 350.91,-138.79 444.6,-128.04 508.08,-123.8"/>
<polygon fill="#63b8ff" stroke="#63b8ff" points="508.28,-127.3 518.04,-123.18 507.84,-120.31 508.28,-127.3"/>
</a>
</g>
</g>
<!-- Node15&#45;&gt;Node6 -->
<g id="edge34_Node000015_Node000006" class="edge">
<title>Node15&#45;&gt;Node6</title>
<g id="a_edge34_Node000015_Node000006"><a xlink:title=" ">
<path fill="none" stroke="#63b8ff" d="M308.05,-231.26C275.86,-225.59 239.73,-212.88 219.5,-185 200.05,-158.2 198.06,-135.73 219.5,-110.5 249.63,-75.03 374.45,-83.06 436.15,-74.69"/>
<polygon fill="#63b8ff" stroke="#63b8ff" points="436.46,-78.19 445.75,-73.1 435.31,-71.28 436.46,-78.19"/>
</a>
</g>
</g>
<!-- Node15&#45;&gt;Node8 -->
<g id="edge37_Node000015_Node000008" class="edge">
<title>Node15&#45;&gt;Node8</title>
<g id="a_edge37_Node000015_Node000008"><a xlink:title=" ">
<path fill="none" stroke="#63b8ff" d="M357.67,-226.32C336.37,-213.16 302.96,-187.72 319.5,-165.75 421.01,-30.91 523.24,-105.83 694.4,-74.77"/>
<polygon fill="#63b8ff" stroke="#63b8ff" points="694.86,-78.24 704.02,-72.91 693.54,-71.37 694.86,-78.24"/>
</a>
</g>
</g>
<!-- Node15&#45;&gt;Node9 -->
<g id="edge38_Node000015_Node000009" class="edge">
<title>Node15&#45;&gt;Node9</title>
<g id="a_edge38_Node000015_Node000009"><a xlink:title=" ">
<path fill="none" stroke="#63b8ff" d="M321.41,-226.15C297.69,-219.12 271.77,-206.74 257.5,-185 239.33,-157.32 235.34,-135.1 257.5,-110.5 283.22,-81.95 563.33,-78.95 601.5,-74.5 613.34,-73.12 626.35,-71.47 637.73,-69.99"/>
<polygon fill="#63b8ff" stroke="#63b8ff" points="637.91,-73.5 647.37,-68.72 637,-66.56 637.91,-73.5"/>
</a>
</g>
</g>
<!-- Node15&#45;&gt;Node10 -->
<g id="edge32_Node000015_Node000010" class="edge">
<title>Node15&#45;&gt;Node10</title>
<g id="a_edge32_Node000015_Node000010"><a xlink:title=" ">
<path fill="none" stroke="#63b8ff" d="M438.79,-228.55C551.76,-216.97 781.94,-193.36 889.58,-182.32"/>
<polygon fill="#63b8ff" stroke="#63b8ff" points="889.75,-185.82 899.34,-181.31 889.04,-178.85 889.75,-185.82"/>
</a>
</g>
</g>
<!-- Node15&#45;&gt;Node11 -->
<g id="edge35_Node000015_Node000011" class="edge">
<title>Node15&#45;&gt;Node11</title>
<g id="a_edge35_Node000015_Node000011"><a xlink:title=" ">
<path fill="none" stroke="#63b8ff" d="M426.68,-226.15C556.02,-204.02 884.91,-147.75 999.99,-128.06"/>
<polygon fill="#63b8ff" stroke="#63b8ff" points="1000.31,-131.55 1009.58,-126.42 999.13,-124.65 1000.31,-131.55"/>
</a>
</g>
</g>
<!-- Node15&#45;&gt;Node12 -->
<g id="edge36_Node000015_Node000012" class="edge">
<title>Node15&#45;&gt;Node12</title>
<g id="a_edge36_Node000015_Node000012"><a xlink:title=" ">
<path fill="none" stroke="#63b8ff" d="M400.37,-226.2C428.53,-216.56 473.96,-200.57 512.5,-185 531.91,-177.16 535.43,-171.73 555.5,-165.75 644.16,-139.34 753.55,-127.66 805.45,-123.31"/>
<polygon fill="#63b8ff" stroke="#63b8ff" points="805.58,-126.81 815.27,-122.52 805.02,-119.83 805.58,-126.81"/>
</a>
</g>
</g>
<!-- Node15&#45;&gt;Node13 -->
<g id="edge33_Node000015_Node000013" class="edge">
<title>Node15&#45;&gt;Node13</title>
<g id="a_edge33_Node000015_Node000013"><a xlink:title=" ">
<path fill="none" stroke="#63b8ff" d="M380.64,-226.31C387.4,-217.84 397.75,-204.87 406.21,-194.27"/>
<polygon fill="#63b8ff" stroke="#63b8ff" points="408.85,-196.58 412.35,-186.58 403.38,-192.22 408.85,-196.58"/>
</a>
</g>
</g>
<!-- Node16&#45;&gt;Node5 -->
<g id="edge40_Node000016_Node000005" class="edge">
<title>Node16&#45;&gt;Node5</title>
<g id="a_edge40_Node000016_Node000005"><a xlink:title=" ">
<path fill="none" stroke="#63b8ff" d="M808.1,-226.29C762.74,-206.39 653.3,-158.35 599.46,-134.72"/>
<polygon fill="#63b8ff" stroke="#63b8ff" points="601.12,-131.62 590.55,-130.8 598.3,-138.03 601.12,-131.62"/>
</a>
</g>
</g>
<!-- Node16&#45;&gt;Node8 -->
<g id="edge45_Node000016_Node000008" class="edge">
<title>Node16&#45;&gt;Node8</title>
<g id="a_edge45_Node000016_Node000008"><a xlink:title=" ">
<path fill="none" stroke="#63b8ff" d="M900.4,-226.14C973.41,-216.16 1077.43,-199.61 1089.5,-185 1102.49,-169.27 1100.19,-130.78 1078.5,-110.5 1035.93,-70.69 860.33,-65.62 778.65,-65.48"/>
<polygon fill="#63b8ff" stroke="#63b8ff" points="778.81,-61.98 768.81,-65.49 778.82,-68.98 778.81,-61.98"/>
</a>
</g>
</g>
<!-- Node16&#45;&gt;Node9 -->
<g id="edge46_Node000016_Node000009" class="edge">
<title>Node16&#45;&gt;Node9</title>
<g id="a_edge46_Node000016_Node000009"><a xlink:title=" ">
<path fill="none" stroke="#63b8ff" d="M819.9,-226.14C794.28,-199.02 718.18,-118.46 684.66,-82.98"/>
<polygon fill="#63b8ff" stroke="#63b8ff" points="687.21,-80.58 677.8,-75.72 682.12,-85.39 687.21,-80.58"/>
</a>
</g>
</g>
<!-- Node16&#45;&gt;Node10 -->
<g id="edge41_Node000016_Node000010" class="edge">
<title>Node16&#45;&gt;Node10</title>
<g id="a_edge41_Node000016_Node000010"><a xlink:title=" ">
<path fill="none" stroke="#63b8ff" d="M846.83,-226.18C866.11,-216.64 896.68,-201.52 919.09,-190.43"/>
<polygon fill="#63b8ff" stroke="#63b8ff" points="920.57,-193.6 927.98,-186.03 917.47,-187.33 920.57,-193.6"/>
</a>
</g>
</g>
<!-- Node16&#45;&gt;Node11 -->
<g id="edge43_Node000016_Node000011" class="edge">
<title>Node16&#45;&gt;Node11</title>
<g id="a_edge43_Node000016_Node000011"><a xlink:title=" ">
<path fill="none" stroke="#63b8ff" d="M893.83,-226.16C962.48,-215.95 1062.11,-198.96 1073.5,-185 1085.15,-170.72 1072.38,-151.66 1059.49,-138.09"/>
<polygon fill="#63b8ff" stroke="#63b8ff" points="1061.94,-135.59 1052.34,-131.12 1057.06,-140.61 1061.94,-135.59"/>
</a>
</g>
</g>
<!-- Node16&#45;&gt;Node12 -->
<g id="edge44_Node000016_Node000012" class="edge">
<title>Node16&#45;&gt;Node12</title>
<g id="a_edge44_Node000016_Node000012"><a xlink:title=" ">
<path fill="none" stroke="#63b8ff" d="M829.05,-226.29C830.16,-208.13 832.71,-166.54 834.25,-141.45"/>
<polygon fill="#63b8ff" stroke="#63b8ff" points="837.74,-141.74 834.86,-131.55 830.75,-141.32 837.74,-141.74"/>
</a>
</g>
</g>
<!-- Node16&#45;&gt;Node13 -->
<g id="edge42_Node000016_Node000013" class="edge">
<title>Node16&#45;&gt;Node13</title>
<g id="a_edge42_Node000016_Node000013"><a xlink:title=" ">
<path fill="none" stroke="#63b8ff" d="M778.43,-226.13C768.21,-224.36 757.52,-222.56 747.5,-221 665.09,-208.13 570.66,-195.47 504.53,-186.94"/>
<polygon fill="#63b8ff" stroke="#63b8ff" points="505.21,-183.5 494.85,-185.69 504.32,-190.44 505.21,-183.5"/>
</a>
</g>
</g>
<!-- Node17&#45;&gt;Node5 -->
<g id="edge48_Node000017_Node000005" class="edge">
<title>Node17&#45;&gt;Node5</title>
<g id="a_edge48_Node000017_Node000005"><a xlink:title=" ">
<path fill="none" stroke="#63b8ff" d="M661.08,-220.8C641.59,-199.81 605.52,-160.98 584.62,-138.48"/>
<polygon fill="#63b8ff" stroke="#63b8ff" points="587.33,-136.25 577.96,-131.31 582.2,-141.02 587.33,-136.25"/>
</a>
</g>
</g>
<!-- Node17&#45;&gt;Node8 -->
<g id="edge53_Node000017_Node000008" class="edge">
<title>Node17&#45;&gt;Node8</title>
<g id="a_edge53_Node000017_Node000008"><a xlink:title=" ">
<path fill="none" stroke="#63b8ff" d="M679.89,-220.52C691.07,-189.99 716.75,-119.83 729.31,-85.51"/>
<polygon fill="#63b8ff" stroke="#63b8ff" points="732.49,-87 732.64,-76.41 725.92,-84.59 732.49,-87"/>
</a>
</g>
</g>
<!-- Node17&#45;&gt;Node9 -->
<g id="edge54_Node000017_Node000009" class="edge">
<title>Node17&#45;&gt;Node9</title>
<g id="a_edge54_Node000017_Node000009"><a xlink:title=" ">
<path fill="none" stroke="#63b8ff" d="M673.98,-220.52C672.91,-190.26 670.45,-121.05 669.23,-86.41"/>
<polygon fill="#63b8ff" stroke="#63b8ff" points="672.73,-86.37 668.88,-76.5 665.73,-86.62 672.73,-86.37"/>
</a>
</g>
</g>
<!-- Node17&#45;&gt;Node10 -->
<g id="edge49_Node000017_Node000010" class="edge">
<title>Node17&#45;&gt;Node10</title>
<g id="a_edge49_Node000017_Node000010"><a xlink:title=" ">
<path fill="none" stroke="#63b8ff" d="M738.16,-221.52C785.56,-211.3 849.52,-197.5 894.23,-187.86"/>
<polygon fill="#63b8ff" stroke="#63b8ff" points="894.92,-191.29 903.96,-185.77 893.45,-184.45 894.92,-191.29"/>
</a>
</g>
</g>
<!-- Node17&#45;&gt;Node11 -->
<g id="edge51_Node000017_Node000011" class="edge">
<title>Node17&#45;&gt;Node11</title>
<g id="a_edge51_Node000017_Node000011"><a xlink:title=" ">
<path fill="none" stroke="#63b8ff" d="M738.17,-222.62C741.32,-222.06 744.44,-221.51 747.5,-221 860.37,-202.03 907.21,-248.41 1002.5,-185 1018.27,-174.51 1028.44,-155.05 1034.26,-140.36"/>
<polygon fill="#63b8ff" stroke="#63b8ff" points="1037.43,-141.88 1037.5,-131.28 1030.84,-139.52 1037.43,-141.88"/>
</a>
</g>
</g>
<!-- Node17&#45;&gt;Node12 -->
<g id="edge52_Node000017_Node000012" class="edge">
<title>Node17&#45;&gt;Node12</title>
<g id="a_edge52_Node000017_Node000012"><a xlink:title=" ">
<path fill="none" stroke="#63b8ff" d="M695.22,-220.56C725.72,-198.94 782.45,-158.73 813.61,-136.64"/>
<polygon fill="#63b8ff" stroke="#63b8ff" points="815.39,-139.67 821.53,-131.03 811.34,-133.96 815.39,-139.67"/>
</a>
</g>
</g>
<!-- Node17&#45;&gt;Node13 -->
<g id="edge50_Node000017_Node000013" class="edge">
<title>Node17&#45;&gt;Node13</title>
<g id="a_edge50_Node000017_Node000013"><a xlink:title=" ">
<path fill="none" stroke="#63b8ff" d="M611.06,-220.55C567.77,-210.51 511.21,-197.4 470.98,-188.07"/>
<polygon fill="#63b8ff" stroke="#63b8ff" points="471.83,-184.68 461.3,-185.83 470.25,-191.5 471.83,-184.68"/>
</a>
</g>
</g>
</g>
</svg>

<g id="navigator" transform="translate(0 0)" fill="#404254">
  <rect fill="#f2f5e9" fill-opacity="0.5" stroke="#606060" stroke-width=".5" x="0" y="0" width="60" height="60"/>
  <use id="zoomplus" xlink:href="#zoomPlus" x="17" y="9" onmousedown="handleZoom(evt,'in')"/>
  <use id="zoomminus" xlink:href="#zoomMin" x="42" y="9" onmousedown="handleZoom(evt,'out')"/>
  <use id="reset" xlink:href="#resetDef" x="30" y="36" onmousedown="handleReset()"/>
   <use id="arrowup" xlink:href="#arrowUp" x="0" y="0" onmousedown="handlePan(0,-1)"/>
  <use id="arrowright" xlink:href="#arrowRight" x="0" y="0" onmousedown="handlePan(1,0)"/>
  <use id="arrowdown" xlink:href="#arrowDown" x="0" y="0" onmousedown="handlePan(0,1)"/>
  <use id="arrowleft" xlink:href="#arrowLeft" x="0" y="0" onmousedown="handlePan(-1,0)"/>
</g>
<svg viewBox="0 0 15 15" width="100%" height="30px" preserveAspectRatio="xMaxYMin meet">
 <g id="arrow_out" transform="scale(0.3 0.3)">
  <a xlink:href="gimo_8hpp__incl_org.svg" target="_base">
   <rect id="button" ry="5" rx="5" y="6" x="6" height="38" width="38"
        fill="#f2f5e9" fill-opacity="0.5" stroke="#606060" stroke-width="1.0"/>
   <path id="arrow"
     d="M 11.500037,31.436501 C 11.940474,20.09759 22.043105,11.32322 32.158766,21.979434 L 37.068811,17.246167 C 37.068811,17.246167 37.088388,32 37.088388,32 L 22.160133,31.978069 C 22.160133,31.978069 26.997745,27.140456 26.997745,27.140456 C 18.528582,18.264221 13.291696,25.230495 11.500037,31.436501 z"
     style="fill:#404040;"/>
  </a>
 </g>
</svg>

<style type='text/css'>
<![CDATA[
[data-mouse-over-selected='false'] { opacity: 0.7; }
[data-mouse-over-selected='true']  { opacity: 1.0; }
]]>
</style>
<script type="application/ecmascript"><![CDATA[
document.addEventListener('DOMContentLoaded', (event) => {
  highlightEdges();
  highlightAdjacentNodes();
});
]]></script>
</svg>
