<?xml version="1.0" encoding="UTF-8" standalone="no"?>
<!DOCTYPE svg PUBLIC "-//W3C//DTD SVG 1.1//EN"
 "http://www.w3.org/Graphics/SVG/1.1/DTD/svg11.dtd">
<!-- Generated by graphviz version 12.2.1 (20241206.2353)
 -->
<!-- Title: gimo.hpp Pages: 1 -->
<!--zoomable 370 -->

<svg id="main" version="1.1" xmlns="http://www.w3.org/2000/svg" xmlns:xlink="http://www.w3.org/1999/xlink" xml:space="preserve" onload="init(evt)">

<style type="text/css"><![CDATA[
.node, .edge {opacity: 0.7;}
.node.selected, .edge.selected {opacity: 1;}
.edge:hover path { stroke: red; }
.edge:hover polygon { stroke: red; fill: red; }
]]></style>

<defs>
  <circle id="rim" cx="0" cy="0" r="7"/>
  <circle id="rim2" cx="0" cy="0" r="3.5"/>
  <g id="zoomPlus">
    <use xlink:href="#rim" fill="#404040"><set attributeName="fill" to="#808080" begin="zoomplus.mouseover" end="zoomplus.mouseout"/></use>
    <path d="M-4,0h8M0,-4v8" fill="none" stroke="white" stroke-width="1.5" pointer-events="none"/>
  </g>
  <g id="zoomMin">
    <use xlink:href="#rim" fill="#404040"><set attributeName="fill" to="#808080" begin="zoomminus.mouseover" end="zoomminus.mouseout"/></use>
    <path d="M-4,0h8" fill="none" stroke="white" stroke-width="1.5" pointer-events="none"/>
  </g>
  <g id="arrowUp" transform="translate(30 24)">
    <use xlink:href="#rim"/>
    <path pointer-events="none" fill="none" stroke="white" stroke-width="1.5" d="M0,-3.0v7 M-2.5,-0.5L0,-3.0L2.5,-0.5"/>
  </g>
  <g id="arrowRight" transform="rotate(90) translate(36 -43)">
    <use xlink:href="#rim"/>
    <path pointer-events="none" fill="none" stroke="white" stroke-width="1.5" d="M0,-3.0v7 M-2.5,-0.5L0,-3.0L2.5,-0.5"/>
  </g>
  <g id="arrowDown" transform="rotate(180) translate(-30 -48)">
    <use xlink:href="#rim"/>
    <path pointer-events="none" fill="none" stroke="white" stroke-width="1.5" d="M0,-3.0v7 M-2.5,-0.5L0,-3.0L2.5,-0.5"/>
  </g>
  <g id="arrowLeft" transform="rotate(270) translate(-36 17)">
    <use xlink:href="#rim"/>
    <path pointer-events="none" fill="none" stroke="white" stroke-width="1.5" d="M0,-3.0v7 M-2.5,-0.5L0,-3.0L2.5,-0.5"/>
  </g>
  <g id="resetDef">
    <use xlink:href="#rim2" fill="#404040"><set attributeName="fill" to="#808080" begin="reset.mouseover" end="reset.mouseout"/></use>
  </g>
</defs>
<script type="application/ecmascript">
var viewWidth = 1710;
var viewHeight = 370;
var sectionId = 'dynsection-0';
</script>
<script type="application/ecmascript" xlink:href="../../svg.min.js"/>
<svg id="graph" class="graph">
<g id="viewport">
<title>gimo.hpp</title>
<!-- Node1 -->
<g id="Node000001" class="node">
<title>Node1</title>
<g id="a_Node000001"><a xlink:title=" ">
<polygon fill="#999999" stroke="#666666" points="659,-362 604,-362 604,-342.75 659,-342.75 659,-362"/>
<text text-anchor="middle" x="631.5" y="-348.5" font-family="Helvetica,sans-Serif" font-size="10.00">gimo.hpp</text>
</a>
</g>
</g>
<!-- Node2 -->
<g id="Node000002" class="node">
<title>Node2</title>
<g id="a_Node000002"><a xlink:href="../../d7/d67/_version_8hpp.html" target="_top" xlink:title=" ">
<polygon fill="white" stroke="#666666" points="91,-301.12 0,-301.12 0,-281.88 91,-281.88 91,-301.12"/>
<text text-anchor="middle" x="45.5" y="-287.62" font-family="Helvetica,sans-Serif" font-size="10.00">gimo/Version.hpp</text>
</a>
</g>
</g>
<!-- Node1&#45;&gt;Node2 -->
<g id="edge1_Node000001_Node000002" class="edge">
<title>Node1&#45;&gt;Node2</title>
<g id="a_edge1_Node000001_Node000002"><a xlink:title=" ">
<path fill="none" stroke="#63b8ff" d="M603.66,-350.47C524.98,-347.6 294.4,-337.02 105.5,-306.75 100.8,-306 95.93,-305.08 91.08,-304.07"/>
<polygon fill="#63b8ff" stroke="#63b8ff" points="91.91,-300.67 81.39,-301.92 90.39,-307.5 91.91,-300.67"/>
</a>
</g>
</g>
<!-- Node3 -->
<g id="Node000003" class="node">
<title>Node3</title>
<g id="a_Node000003"><a xlink:href="../../d8/dd2/_config_8hpp.html" target="_top" xlink:title=" ">
<polygon fill="white" stroke="#666666" points="580,-74.5 495,-74.5 495,-55.25 580,-55.25 580,-74.5"/>
<text text-anchor="middle" x="537.5" y="-61" font-family="Helvetica,sans-Serif" font-size="10.00">gimo/Config.hpp</text>
</a>
</g>
</g>
<!-- Node1&#45;&gt;Node3 -->
<g id="edge2_Node000001_Node000003" class="edge">
<title>Node1&#45;&gt;Node3</title>
<g id="a_edge2_Node000001_Node000003"><a xlink:title=" ">
<path fill="none" stroke="#63b8ff" d="M603.64,-351.65C535.94,-351.66 365.7,-347.55 330.5,-306.75 256.18,-220.6 436.17,-116.83 508.78,-79.82"/>
<polygon fill="#63b8ff" stroke="#63b8ff" points="509.95,-83.15 517.31,-75.53 506.81,-76.89 509.95,-83.15"/>
</a>
</g>
</g>
<!-- Node5 -->
<g id="Node000005" class="node">
<title>Node5</title>
<g id="a_Node000005"><a xlink:href="../../d3/d58/_common_8hpp.html" target="_top" xlink:title=" ">
<polygon fill="white" stroke="#666666" points="776,-129.75 679,-129.75 679,-110.5 776,-110.5 776,-129.75"/>
<text text-anchor="middle" x="727.5" y="-116.25" font-family="Helvetica,sans-Serif" font-size="10.00">gimo/Common.hpp</text>
</a>
</g>
</g>
<!-- Node1&#45;&gt;Node5 -->
<g id="edge4_Node000001_Node000005" class="edge">
<title>Node1&#45;&gt;Node5</title>
<g id="a_edge4_Node000001_Node000005"><a xlink:title=" ">
<path fill="none" stroke="#63b8ff" d="M603.98,-351.51C537.96,-351.19 373.5,-346.34 339.5,-306.75 330.67,-296.47 335.48,-289.2 339.5,-276.25 379.82,-146.47 568.9,-123.56 667.43,-120.61"/>
<polygon fill="#63b8ff" stroke="#63b8ff" points="667.27,-124.11 677.18,-120.38 667.1,-117.11 667.27,-124.11"/>
</a>
</g>
</g>
<!-- Node10 -->
<g id="Node000010" class="node">
<title>Node10</title>
<g id="a_Node000010"><a xlink:href="../../d1/da8/_pipeline_8hpp.html" target="_top" xlink:title=" ">
<polygon fill="white" stroke="#666666" points="1227.75,-240.25 1135.25,-240.25 1135.25,-221 1227.75,-221 1227.75,-240.25"/>
<text text-anchor="middle" x="1181.5" y="-226.75" font-family="Helvetica,sans-Serif" font-size="10.00">gimo/Pipeline.hpp</text>
</a>
</g>
</g>
<!-- Node1&#45;&gt;Node10 -->
<g id="edge10_Node000001_Node000010" class="edge">
<title>Node1&#45;&gt;Node10</title>
<g id="a_edge10_Node000001_Node000010"><a xlink:title=" ">
<path fill="none" stroke="#63b8ff" d="M659.37,-350.91C747.06,-349.12 1016.26,-340.9 1095.5,-306.75 1125.27,-293.92 1152.09,-266.84 1167.59,-248.94"/>
<polygon fill="#63b8ff" stroke="#63b8ff" points="1169.91,-251.61 1173.65,-241.7 1164.54,-247.12 1169.91,-251.61"/>
</a>
</g>
</g>
<!-- Node11 -->
<g id="Node000011" class="node">
<title>Node11</title>
<g id="a_Node000011"><a xlink:href="../../de/dca/_basic_algorithm_8hpp.html" target="_top" xlink:title=" ">
<polygon fill="white" stroke="#666666" points="810.88,-185 644.12,-185 644.12,-165.75 810.88,-165.75 810.88,-185"/>
<text text-anchor="middle" x="727.5" y="-171.5" font-family="Helvetica,sans-Serif" font-size="10.00">gimo/algorithm/BasicAlgorithm.hpp</text>
</a>
</g>
</g>
<!-- Node1&#45;&gt;Node11 -->
<g id="edge22_Node000001_Node000011" class="edge">
<title>Node1&#45;&gt;Node11</title>
<g id="a_edge22_Node000001_Node000011"><a xlink:title=" ">
<path fill="none" stroke="#63b8ff" d="M603.97,-351.34C539.57,-350.62 382.1,-344.91 349.5,-306.75 340.7,-296.44 343.2,-288.25 349.5,-276.25 369.58,-237.99 389.32,-236.89 429.5,-221 494.4,-195.34 572.58,-184.31 632.58,-179.62"/>
<polygon fill="#63b8ff" stroke="#63b8ff" points="632.72,-183.12 642.44,-178.9 632.21,-176.14 632.72,-183.12"/>
</a>
</g>
</g>
<!-- Node14 -->
<g id="Node000014" class="node">
<title>Node14</title>
<g id="a_Node000014"><a xlink:href="../../d5/d86/_and_forward_8hpp.html" target="_top" xlink:title=" ">
<polygon fill="white" stroke="#666666" points="880.12,-301.12 726.88,-301.12 726.88,-281.88 880.12,-281.88 880.12,-301.12"/>
<text text-anchor="middle" x="803.5" y="-287.62" font-family="Helvetica,sans-Serif" font-size="10.00">gimo/algorithm/AndForward.hpp</text>
</a>
</g>
</g>
<!-- Node1&#45;&gt;Node14 -->
<g id="edge23_Node000001_Node000014" class="edge">
<title>Node1&#45;&gt;Node14</title>
<g id="a_edge23_Node000001_Node000014"><a xlink:title=" ">
<path fill="none" stroke="#63b8ff" d="M658,-342.3C687.04,-332.36 733.83,-316.35 766.49,-305.17"/>
<polygon fill="#63b8ff" stroke="#63b8ff" points="767.21,-308.62 775.54,-302.07 764.95,-302 767.21,-308.62"/>
</a>
</g>
</g>
<!-- Node15 -->
<g id="Node000015" class="node">
<title>Node15</title>
<g id="a_Node000015"><a xlink:href="../../d6/d3f/_and_then_8hpp.html" target="_top" xlink:title=" ">
<polygon fill="white" stroke="#666666" points="1086.38,-301.12 946.62,-301.12 946.62,-281.88 1086.38,-281.88 1086.38,-301.12"/>
<text text-anchor="middle" x="1016.5" y="-287.62" font-family="Helvetica,sans-Serif" font-size="10.00">gimo/algorithm/AndThen.hpp</text>
</a>
</g>
</g>
<!-- Node1&#45;&gt;Node15 -->
<g id="edge31_Node000001_Node000015" class="edge">
<title>Node1&#45;&gt;Node15</title>
<g id="a_edge31_Node000001_Node000015"><a xlink:title=" ">
<path fill="none" stroke="#63b8ff" d="M659.5,-347.09C719.03,-337.99 859.76,-316.47 945.68,-303.33"/>
<polygon fill="#63b8ff" stroke="#63b8ff" points="946.06,-306.81 955.41,-301.84 945,-299.89 946.06,-306.81"/>
</a>
</g>
</g>
<!-- Node16 -->
<g id="Node000016" class="node">
<title>Node16</title>
<g id="a_Node000016"><a xlink:href="../../d4/d96/_or_else_8hpp.html" target="_top" xlink:title=" ">
<polygon fill="white" stroke="#666666" points="488.5,-301.12 358.5,-301.12 358.5,-281.88 488.5,-281.88 488.5,-301.12"/>
<text text-anchor="middle" x="423.5" y="-287.62" font-family="Helvetica,sans-Serif" font-size="10.00">gimo/algorithm/OrElse.hpp</text>
</a>
</g>
</g>
<!-- Node1&#45;&gt;Node16 -->
<g id="edge39_Node000001_Node000016" class="edge">
<title>Node1&#45;&gt;Node16</title>
<g id="a_edge39_Node000001_Node000016"><a xlink:title=" ">
<path fill="none" stroke="#63b8ff" d="M603.88,-343.56C568.83,-333.64 507.98,-316.41 466.75,-304.74"/>
<polygon fill="#63b8ff" stroke="#63b8ff" points="467.71,-301.38 457.13,-302.02 465.8,-308.11 467.71,-301.38"/>
</a>
</g>
</g>
<!-- Node17 -->
<g id="Node000017" class="node">
<title>Node17</title>
<g id="a_Node000017"><a xlink:href="../../d9/d8c/_transform_8hpp.html" target="_top" xlink:title=" ">
<polygon fill="white" stroke="#666666" points="1597,-301.12 1452,-301.12 1452,-281.88 1597,-281.88 1597,-301.12"/>
<text text-anchor="middle" x="1524.5" y="-287.62" font-family="Helvetica,sans-Serif" font-size="10.00">gimo/algorithm/Transform.hpp</text>
</a>
</g>
</g>
<!-- Node1&#45;&gt;Node17 -->
<g id="edge48_Node000001_Node000017" class="edge">
<title>Node1&#45;&gt;Node17</title>
<g id="a_edge48_Node000001_Node000017"><a xlink:title=" ">
<path fill="none" stroke="#63b8ff" d="M659.23,-349.84C755.01,-344.51 1080.73,-326.04 1349.5,-306.75 1379.16,-304.62 1411.63,-302.05 1440.45,-299.67"/>
<polygon fill="#63b8ff" stroke="#63b8ff" points="1440.54,-303.18 1450.22,-298.86 1439.96,-296.2 1440.54,-303.18"/>
</a>
</g>
</g>
<!-- Node18 -->
<g id="Node000018" class="node">
<title>Node18</title>
<g id="a_Node000018"><a xlink:href="../../d9/d45/_transform_error_8hpp.html" target="_top" xlink:title=" ">
<polygon fill="white" stroke="#666666" points="1340,-306.75 1213,-306.75 1213,-276.25 1340,-276.25 1340,-306.75"/>
<text text-anchor="start" x="1221" y="-293.25" font-family="Helvetica,sans-Serif" font-size="10.00">gimo/algorithm/Transform</text>
<text text-anchor="middle" x="1276.5" y="-282" font-family="Helvetica,sans-Serif" font-size="10.00">Error.hpp</text>
</a>
</g>
</g>
<!-- Node1&#45;&gt;Node18 -->
<g id="edge56_Node000001_Node000018" class="edge">
<title>Node1&#45;&gt;Node18</title>
<g id="a_edge56_Node000001_Node000018"><a xlink:title=" ">
<path fill="none" stroke="#63b8ff" d="M659.24,-349.65C739.3,-344.57 977.54,-328.58 1174.5,-306.75 1183.18,-305.79 1192.27,-304.67 1201.29,-303.5"/>
<polygon fill="#63b8ff" stroke="#63b8ff" points="1201.69,-306.98 1211.14,-302.19 1200.76,-300.04 1201.69,-306.98"/>
</a>
</g>
</g>
<!-- Node19 -->
<g id="Node000019" class="node">
<title>Node19</title>
<g id="a_Node000019"><a xlink:href="../../d2/d0b/_value_or_else_8hpp.html" target="_top" xlink:title=" ">
<polygon fill="white" stroke="#666666" points="708.88,-301.12 554.12,-301.12 554.12,-281.88 708.88,-281.88 708.88,-301.12"/>
<text text-anchor="middle" x="631.5" y="-287.62" font-family="Helvetica,sans-Serif" font-size="10.00">gimo/algorithm/ValueOrElse.hpp</text>
</a>
</g>
</g>
<!-- Node1&#45;&gt;Node19 -->
<g id="edge64_Node000001_Node000019" class="edge">
<title>Node1&#45;&gt;Node19</title>
<g id="a_edge64_Node000001_Node000019"><a xlink:title=" ">
<path fill="none" stroke="#63b8ff" d="M631.5,-342.43C631.5,-334.65 631.5,-323.08 631.5,-313.03"/>
<polygon fill="#63b8ff" stroke="#63b8ff" points="635,-313.04 631.5,-303.04 628,-313.04 635,-313.04"/>
</a>
</g>
</g>
<!-- Node4 -->
<g id="Node000004" class="node">
<title>Node4</title>
<g id="a_Node000004"><a xlink:title=" ">
<polygon fill="#e0e0e0" stroke="#999999" points="561.62,-19.25 513.38,-19.25 513.38,0 561.62,0 561.62,-19.25"/>
<text text-anchor="middle" x="537.5" y="-5.75" font-family="Helvetica,sans-Serif" font-size="10.00">cassert</text>
</a>
</g>
</g>
<!-- Node3&#45;&gt;Node4 -->
<g id="edge3_Node000003_Node000004" class="edge">
<title>Node3&#45;&gt;Node4</title>
<g id="a_edge3_Node000003_Node000004"><a xlink:title=" ">
<path fill="none" stroke="#63b8ff" d="M537.5,-55.08C537.5,-48.57 537.5,-39.42 537.5,-31.12"/>
<polygon fill="#63b8ff" stroke="#63b8ff" points="541,-31.12 537.5,-21.12 534,-31.12 541,-31.12"/>
</a>
</g>
</g>
<!-- Node5&#45;&gt;Node3 -->
<g id="edge5_Node000005_Node000003" class="edge">
<title>Node5&#45;&gt;Node3</title>
<g id="a_edge5_Node000005_Node000003"><a xlink:title=" ">
<path fill="none" stroke="#63b8ff" d="M695.27,-110.09C663.74,-101.26 615.52,-87.74 580.69,-77.98"/>
<polygon fill="#63b8ff" stroke="#63b8ff" points="581.92,-74.69 571.35,-75.36 580.03,-81.43 581.92,-74.69"/>
</a>
</g>
</g>
<!-- Node6 -->
<g id="Node000006" class="node">
<title>Node6</title>
<g id="a_Node000006"><a xlink:title=" ">
<polygon fill="#e0e0e0" stroke="#999999" points="318.38,-74.5 262.62,-74.5 262.62,-55.25 318.38,-55.25 318.38,-74.5"/>
<text text-anchor="middle" x="290.5" y="-61" font-family="Helvetica,sans-Serif" font-size="10.00">concepts</text>
</a>
</g>
</g>
<!-- Node5&#45;&gt;Node6 -->
<g id="edge6_Node000005_Node000006" class="edge">
<title>Node5&#45;&gt;Node6</title>
<g id="a_edge6_Node000005_Node000006"><a xlink:title=" ">
<path fill="none" stroke="#63b8ff" d="M678.64,-113.17C591.18,-102.51 409.56,-80.38 329.66,-70.65"/>
<polygon fill="#63b8ff" stroke="#63b8ff" points="330.49,-67.22 320.14,-69.49 329.64,-74.17 330.49,-67.22"/>
</a>
</g>
</g>
<!-- Node7 -->
<g id="Node000007" class="node">
<title>Node7</title>
<g id="a_Node000007"><a xlink:title=" ">
<polygon fill="#e0e0e0" stroke="#999999" points="751.62,-74.5 703.38,-74.5 703.38,-55.25 751.62,-55.25 751.62,-74.5"/>
<text text-anchor="middle" x="727.5" y="-61" font-family="Helvetica,sans-Serif" font-size="10.00">cstddef</text>
</a>
</g>
</g>
<!-- Node5&#45;&gt;Node7 -->
<g id="edge7_Node000005_Node000007" class="edge">
<title>Node5&#45;&gt;Node7</title>
<g id="a_edge7_Node000005_Node000007"><a xlink:title=" ">
<path fill="none" stroke="#63b8ff" d="M727.5,-110.33C727.5,-103.82 727.5,-94.67 727.5,-86.37"/>
<polygon fill="#63b8ff" stroke="#63b8ff" points="731,-86.37 727.5,-76.37 724,-86.37 731,-86.37"/>
</a>
</g>
</g>
<!-- Node8 -->
<g id="Node000008" class="node">
<title>Node8</title>
<g id="a_Node000008"><a xlink:title=" ">
<polygon fill="#e0e0e0" stroke="#999999" points="1235,-74.5 1174,-74.5 1174,-55.25 1235,-55.25 1235,-74.5"/>
<text text-anchor="middle" x="1204.5" y="-61" font-family="Helvetica,sans-Serif" font-size="10.00">type_traits</text>
</a>
</g>
</g>
<!-- Node5&#45;&gt;Node8 -->
<g id="edge8_Node000005_Node000008" class="edge">
<title>Node5&#45;&gt;Node8</title>
<g id="a_edge8_Node000005_Node000008"><a xlink:title=" ">
<path fill="none" stroke="#63b8ff" d="M776.31,-113.68C870.06,-103.21 1073.87,-80.46 1162.23,-70.59"/>
<polygon fill="#63b8ff" stroke="#63b8ff" points="1162.61,-74.07 1172.16,-69.49 1161.83,-67.12 1162.61,-74.07"/>
</a>
</g>
</g>
<!-- Node9 -->
<g id="Node000009" class="node">
<title>Node9</title>
<g id="a_Node000009"><a xlink:title=" ">
<polygon fill="#e0e0e0" stroke="#999999" points="895.75,-74.5 857.25,-74.5 857.25,-55.25 895.75,-55.25 895.75,-74.5"/>
<text text-anchor="middle" x="876.5" y="-61" font-family="Helvetica,sans-Serif" font-size="10.00">utility</text>
</a>
</g>
</g>
<!-- Node5&#45;&gt;Node9 -->
<g id="edge9_Node000005_Node000009" class="edge">
<title>Node5&#45;&gt;Node9</title>
<g id="a_edge9_Node000005_Node000009"><a xlink:title=" ">
<path fill="none" stroke="#63b8ff" d="M752.78,-110.09C778.61,-100.86 818.73,-86.52 846.24,-76.69"/>
<polygon fill="#63b8ff" stroke="#63b8ff" points="847.16,-80.08 855.4,-73.42 844.8,-73.49 847.16,-80.08"/>
</a>
</g>
</g>
<!-- Node10&#45;&gt;Node5 -->
<g id="edge11_Node000010_Node000005" class="edge">
<title>Node10&#45;&gt;Node5</title>
<g id="a_edge11_Node000010_Node000005"><a xlink:title=" ">
<path fill="none" stroke="#63b8ff" d="M1174.66,-220.76C1163.02,-206.42 1137.87,-178.45 1109.5,-165.75 1053.4,-140.63 880.39,-128.56 787.66,-123.76"/>
<polygon fill="#63b8ff" stroke="#63b8ff" points="787.89,-120.27 777.73,-123.26 787.54,-127.26 787.89,-120.27"/>
</a>
</g>
</g>
<!-- Node10&#45;&gt;Node8 -->
<g id="edge20_Node000010_Node000008" class="edge">
<title>Node10&#45;&gt;Node8</title>
<g id="a_edge20_Node000010_Node000008"><a xlink:title=" ">
<path fill="none" stroke="#63b8ff" d="M1182.74,-220.82C1186.29,-195.5 1196.62,-122 1201.66,-86.09"/>
<polygon fill="#63b8ff" stroke="#63b8ff" points="1205.12,-86.61 1203.05,-76.22 1198.19,-85.64 1205.12,-86.61"/>
</a>
</g>
</g>
<!-- Node10&#45;&gt;Node9 -->
<g id="edge21_Node000010_Node000009" class="edge">
<title>Node10&#45;&gt;Node9</title>
<g id="a_edge21_Node000010_Node000009"><a xlink:title=" ">
<path fill="none" stroke="#63b8ff" d="M1177.64,-220.94C1171.18,-207.36 1156.97,-181.07 1137.5,-165.75 1066.04,-109.54 959.34,-82.1 907.28,-71.44"/>
<polygon fill="#63b8ff" stroke="#63b8ff" points="908.13,-68.04 897.64,-69.54 906.78,-74.9 908.13,-68.04"/>
</a>
</g>
</g>
<!-- Node10&#45;&gt;Node11 -->
<g id="edge12_Node000010_Node000011" class="edge">
<title>Node10&#45;&gt;Node11</title>
<g id="a_edge12_Node000010_Node000011"><a xlink:title=" ">
<path fill="none" stroke="#63b8ff" d="M1135.05,-224.18C1060.34,-215.41 912.22,-198.04 816.62,-186.83"/>
<polygon fill="#63b8ff" stroke="#63b8ff" points="817.07,-183.36 806.73,-185.67 816.26,-190.31 817.07,-183.36"/>
</a>
</g>
</g>
<!-- Node12 -->
<g id="Node000012" class="node">
<title>Node12</title>
<g id="a_Node000012"><a xlink:title=" ">
<polygon fill="#e0e0e0" stroke="#999999" points="984.5,-185 926.5,-185 926.5,-165.75 984.5,-165.75 984.5,-185"/>
<text text-anchor="middle" x="955.5" y="-171.5" font-family="Helvetica,sans-Serif" font-size="10.00">functional</text>
</a>
</g>
</g>
<!-- Node10&#45;&gt;Node12 -->
<g id="edge18_Node000010_Node000012" class="edge">
<title>Node10&#45;&gt;Node12</title>
<g id="a_edge18_Node000010_Node000012"><a xlink:title=" ">
<path fill="none" stroke="#63b8ff" d="M1142.91,-220.53C1102,-210.89 1037.67,-195.74 996.03,-185.93"/>
<polygon fill="#63b8ff" stroke="#63b8ff" points="996.94,-182.54 986.41,-183.66 995.34,-189.36 996.94,-182.54"/>
</a>
</g>
</g>
<!-- Node13 -->
<g id="Node000013" class="node">
<title>Node13</title>
<g id="a_Node000013"><a xlink:title=" ">
<polygon fill="#e0e0e0" stroke="#999999" points="1100,-185 1063,-185 1063,-165.75 1100,-165.75 1100,-185"/>
<text text-anchor="middle" x="1081.5" y="-171.5" font-family="Helvetica,sans-Serif" font-size="10.00">tuple</text>
</a>
</g>
</g>
<!-- Node10&#45;&gt;Node13 -->
<g id="edge19_Node000010_Node000013" class="edge">
<title>Node10&#45;&gt;Node13</title>
<g id="a_edge19_Node000010_Node000013"><a xlink:title=" ">
<path fill="none" stroke="#63b8ff" d="M1164.54,-220.59C1149.24,-212.44 1126.47,-200.32 1108.64,-190.83"/>
<polygon fill="#63b8ff" stroke="#63b8ff" points="1110.35,-187.77 1099.88,-186.16 1107.06,-193.95 1110.35,-187.77"/>
</a>
</g>
</g>
<!-- Node11&#45;&gt;Node3 -->
<g id="edge14_Node000011_Node000003" class="edge">
<title>Node11&#45;&gt;Node3</title>
<g id="a_edge14_Node000011_Node000003"><a xlink:title=" ">
<path fill="none" stroke="#63b8ff" d="M711.63,-165.31C678.8,-146.56 603.17,-103.37 563.25,-80.58"/>
<polygon fill="#63b8ff" stroke="#63b8ff" points="565.19,-77.66 554.78,-75.74 561.72,-83.74 565.19,-77.66"/>
</a>
</g>
</g>
<!-- Node11&#45;&gt;Node5 -->
<g id="edge13_Node000011_Node000005" class="edge">
<title>Node11&#45;&gt;Node5</title>
<g id="a_edge13_Node000011_Node000005"><a xlink:title=" ">
<path fill="none" stroke="#63b8ff" d="M727.5,-165.58C727.5,-159.07 727.5,-149.92 727.5,-141.62"/>
<polygon fill="#63b8ff" stroke="#63b8ff" points="731,-141.62 727.5,-131.62 724,-141.62 731,-141.62"/>
</a>
</g>
</g>
<!-- Node11&#45;&gt;Node6 -->
<g id="edge15_Node000011_Node000006" class="edge">
<title>Node11&#45;&gt;Node6</title>
<g id="a_edge15_Node000011_Node000006"><a xlink:title=" ">
<path fill="none" stroke="#63b8ff" d="M690.99,-165.31C609.59,-145.1 413.78,-96.48 329.82,-75.64"/>
<polygon fill="#63b8ff" stroke="#63b8ff" points="330.75,-72.26 320.2,-73.25 329.07,-79.06 330.75,-72.26"/>
</a>
</g>
</g>
<!-- Node11&#45;&gt;Node8 -->
<g id="edge16_Node000011_Node000008" class="edge">
<title>Node11&#45;&gt;Node8</title>
<g id="a_edge16_Node000011_Node000008"><a xlink:title=" ">
<path fill="none" stroke="#63b8ff" d="M767.35,-165.31C856.57,-145.02 1071.68,-96.09 1162.7,-75.38"/>
<polygon fill="#63b8ff" stroke="#63b8ff" points="1163.23,-78.85 1172.21,-73.22 1161.68,-72.03 1163.23,-78.85"/>
</a>
</g>
</g>
<!-- Node11&#45;&gt;Node9 -->
<g id="edge17_Node000011_Node000009" class="edge">
<title>Node11&#45;&gt;Node9</title>
<g id="a_edge17_Node000011_Node000009"><a xlink:title=" ">
<path fill="none" stroke="#63b8ff" d="M739.95,-165.31C765.32,-146.84 823.28,-104.63 854.92,-81.59"/>
<polygon fill="#63b8ff" stroke="#63b8ff" points="856.95,-84.44 862.97,-75.73 852.83,-78.79 856.95,-84.44"/>
</a>
</g>
</g>
<!-- Node14&#45;&gt;Node5 -->
<g id="edge24_Node000014_Node000005" class="edge">
<title>Node14&#45;&gt;Node5</title>
<g id="a_edge24_Node000014_Node000005"><a xlink:title=" ">
<path fill="none" stroke="#63b8ff" d="M772.79,-281.46C732.85,-267.85 664.74,-237.9 635.5,-185 622.26,-161.05 651.37,-144.13 680.28,-133.75"/>
<polygon fill="#63b8ff" stroke="#63b8ff" points="681.03,-137.19 689.41,-130.7 678.81,-130.55 681.03,-137.19"/>
</a>
</g>
</g>
<!-- Node14&#45;&gt;Node6 -->
<g id="edge27_Node000014_Node000006" class="edge">
<title>Node14&#45;&gt;Node6</title>
<g id="a_edge27_Node000014_Node000006"><a xlink:title=" ">
<path fill="none" stroke="#63b8ff" d="M775.64,-281.45C746.99,-271.94 701.19,-256.17 662.5,-240.25 531.2,-186.23 379.19,-110.79 318.05,-79.9"/>
<polygon fill="#63b8ff" stroke="#63b8ff" points="319.89,-76.92 309.39,-75.52 316.73,-83.16 319.89,-76.92"/>
</a>
</g>
</g>
<!-- Node14&#45;&gt;Node9 -->
<g id="edge30_Node000014_Node000009" class="edge">
<title>Node14&#45;&gt;Node9</title>
<g id="a_edge30_Node000014_Node000009"><a xlink:title=" ">
<path fill="none" stroke="#63b8ff" d="M806.45,-281.42C817.27,-248.11 854.93,-132.23 870.1,-85.57"/>
<polygon fill="#63b8ff" stroke="#63b8ff" points="873.36,-86.86 873.12,-76.27 866.7,-84.69 873.36,-86.86"/>
</a>
</g>
</g>
<!-- Node14&#45;&gt;Node10 -->
<g id="edge25_Node000014_Node000010" class="edge">
<title>Node14&#45;&gt;Node10</title>
<g id="a_edge25_Node000014_Node000010"><a xlink:title=" ">
<path fill="none" stroke="#63b8ff" d="M861.73,-281.43C932.99,-270.33 1052.9,-251.66 1123.88,-240.6"/>
<polygon fill="#63b8ff" stroke="#63b8ff" points="1124,-244.12 1133.34,-239.13 1122.92,-237.21 1124,-244.12"/>
</a>
</g>
</g>
<!-- Node14&#45;&gt;Node11 -->
<g id="edge26_Node000014_Node000011" class="edge">
<title>Node14&#45;&gt;Node11</title>
<g id="a_edge26_Node000014_Node000011"><a xlink:title=" ">
<path fill="none" stroke="#63b8ff" d="M791.7,-281.68C780.08,-272.47 762.52,-257.04 751.5,-240.25 742.54,-226.6 736.27,-209.14 732.39,-195.92"/>
<polygon fill="#63b8ff" stroke="#63b8ff" points="735.88,-195.41 729.89,-186.67 729.12,-197.24 735.88,-195.41"/>
</a>
</g>
</g>
<!-- Node14&#45;&gt;Node12 -->
<g id="edge28_Node000014_Node000012" class="edge">
<title>Node14&#45;&gt;Node12</title>
<g id="a_edge28_Node000014_Node000012"><a xlink:title=" ">
<path fill="none" stroke="#63b8ff" d="M815.43,-281.54C841.18,-262.21 902.26,-216.35 934.59,-192.08"/>
<polygon fill="#63b8ff" stroke="#63b8ff" points="936.52,-195 942.42,-186.2 932.32,-189.4 936.52,-195"/>
</a>
</g>
</g>
<!-- Node14&#45;&gt;Node13 -->
<g id="edge29_Node000014_Node000013" class="edge">
<title>Node14&#45;&gt;Node13</title>
<g id="a_edge29_Node000014_Node000013"><a xlink:title=" ">
<path fill="none" stroke="#63b8ff" d="M874.39,-281.45C915.02,-274.24 966.02,-261.68 1007.5,-240.25 1030.48,-228.38 1052.32,-208.01 1066.23,-193.47"/>
<polygon fill="#63b8ff" stroke="#63b8ff" points="1068.55,-196.11 1072.79,-186.4 1063.42,-191.35 1068.55,-196.11"/>
</a>
</g>
</g>
<!-- Node15&#45;&gt;Node5 -->
<g id="edge32_Node000015_Node000005" class="edge">
<title>Node15&#45;&gt;Node5</title>
<g id="a_edge32_Node000015_Node000005"><a xlink:title=" ">
<path fill="none" stroke="#63b8ff" d="M1003.44,-281.5C972.3,-260.2 890.94,-205.53 819.5,-165.75 799.5,-154.61 776.3,-143.37 758.2,-134.96"/>
<polygon fill="#63b8ff" stroke="#63b8ff" points="759.86,-131.87 749.31,-130.86 756.93,-138.22 759.86,-131.87"/>
</a>
</g>
</g>
<!-- Node15&#45;&gt;Node8 -->
<g id="edge37_Node000015_Node000008" class="edge">
<title>Node15&#45;&gt;Node8</title>
<g id="a_edge37_Node000015_Node000008"><a xlink:title=" ">
<path fill="none" stroke="#63b8ff" d="M1086.69,-285.14C1148.54,-278.79 1231.91,-265.69 1252.5,-240.25 1290.62,-193.16 1244.01,-117.99 1218.74,-83.83"/>
<polygon fill="#63b8ff" stroke="#63b8ff" points="1221.75,-82 1212.9,-76.18 1216.18,-86.25 1221.75,-82"/>
</a>
</g>
</g>
<!-- Node15&#45;&gt;Node9 -->
<g id="edge38_Node000015_Node000009" class="edge">
<title>Node15&#45;&gt;Node9</title>
<g id="a_edge38_Node000015_Node000009"><a xlink:title=" ">
<path fill="none" stroke="#63b8ff" d="M1086.73,-283.89C1143.86,-276.88 1217.94,-263.53 1236.5,-240.25 1241.83,-233.56 1240.38,-228.62 1236.5,-221 1173.59,-97.49 982.93,-72.32 907.6,-67.19"/>
<polygon fill="#63b8ff" stroke="#63b8ff" points="907.84,-63.7 897.64,-66.59 907.42,-70.68 907.84,-63.7"/>
</a>
</g>
</g>
<!-- Node15&#45;&gt;Node10 -->
<g id="edge33_Node000015_Node000010" class="edge">
<title>Node15&#45;&gt;Node10</title>
<g id="a_edge33_Node000015_Node000010"><a xlink:title=" ">
<path fill="none" stroke="#63b8ff" d="M1041.92,-281.43C1069.66,-271.53 1114.28,-255.61 1145.58,-244.44"/>
<polygon fill="#63b8ff" stroke="#63b8ff" points="1146.38,-247.87 1154.63,-241.21 1144.03,-241.28 1146.38,-247.87"/>
</a>
</g>
</g>
<!-- Node15&#45;&gt;Node11 -->
<g id="edge34_Node000015_Node000011" class="edge">
<title>Node15&#45;&gt;Node11</title>
<g id="a_edge34_Node000015_Node000011"><a xlink:title=" ">
<path fill="none" stroke="#63b8ff" d="M993.82,-281.54C943.19,-261.55 820.74,-213.2 761.17,-189.67"/>
<polygon fill="#63b8ff" stroke="#63b8ff" points="762.47,-186.42 751.88,-186 759.9,-192.93 762.47,-186.42"/>
</a>
</g>
</g>
<!-- Node15&#45;&gt;Node12 -->
<g id="edge35_Node000015_Node000012" class="edge">
<title>Node15&#45;&gt;Node12</title>
<g id="a_edge35_Node000015_Node000012"><a xlink:title=" ">
<path fill="none" stroke="#63b8ff" d="M1011.71,-281.54C1001.82,-263.04 978.95,-220.26 965.63,-195.33"/>
<polygon fill="#63b8ff" stroke="#63b8ff" points="968.78,-193.79 960.98,-186.62 962.61,-197.09 968.78,-193.79"/>
</a>
</g>
</g>
<!-- Node15&#45;&gt;Node13 -->
<g id="edge36_Node000015_Node000013" class="edge">
<title>Node15&#45;&gt;Node13</title>
<g id="a_edge36_Node000015_Node000013"><a xlink:title=" ">
<path fill="none" stroke="#63b8ff" d="M1037.07,-281.49C1052.99,-273.28 1073.88,-259.5 1083.5,-240.25 1090.27,-226.71 1089.26,-209.47 1086.83,-196.31"/>
<polygon fill="#63b8ff" stroke="#63b8ff" points="1090.27,-195.64 1084.62,-186.67 1083.45,-197.2 1090.27,-195.64"/>
</a>
</g>
</g>
<!-- Node16&#45;&gt;Node5 -->
<g id="edge40_Node000016_Node000005" class="edge">
<title>Node16&#45;&gt;Node5</title>
<g id="a_edge40_Node000016_Node000005"><a xlink:title=" ">
<path fill="none" stroke="#63b8ff" d="M421.48,-281.72C418.71,-267.37 415.57,-238.7 429.5,-221 486.56,-148.5 598.25,-128.2 667.51,-122.77"/>
<polygon fill="#63b8ff" stroke="#63b8ff" points="667.42,-126.29 677.15,-122.1 666.94,-119.31 667.42,-126.29"/>
</a>
</g>
</g>
<!-- Node16&#45;&gt;Node6 -->
<g id="edge43_Node000016_Node000006" class="edge">
<title>Node16&#45;&gt;Node6</title>
<g id="a_edge43_Node000016_Node000006"><a xlink:title=" ">
<path fill="none" stroke="#63b8ff" d="M358.4,-286.85C323.55,-281.4 282.72,-268.8 257.5,-240.25 218.91,-196.57 214.16,-163.46 238.5,-110.5 243.96,-98.62 254.31,-88.72 264.35,-81.28"/>
<polygon fill="#63b8ff" stroke="#63b8ff" points="266.15,-84.29 272.46,-75.78 262.22,-78.5 266.15,-84.29"/>
</a>
</g>
</g>
<!-- Node16&#45;&gt;Node8 -->
<g id="edge46_Node000016_Node000008" class="edge">
<title>Node16&#45;&gt;Node8</title>
<g id="a_edge46_Node000016_Node000008"><a xlink:title=" ">
<path fill="none" stroke="#63b8ff" d="M420.15,-281.62C415.57,-268.08 408.77,-241.67 416.5,-221 427.89,-190.53 436.92,-182.99 464.5,-165.75 582.52,-91.96 1023.24,-71.69 1162.23,-67.07"/>
<polygon fill="#63b8ff" stroke="#63b8ff" points="1162.2,-70.57 1172.08,-66.76 1161.98,-63.58 1162.2,-70.57"/>
</a>
</g>
</g>
<!-- Node16&#45;&gt;Node9 -->
<g id="edge47_Node000016_Node000009" class="edge">
<title>Node16&#45;&gt;Node9</title>
<g id="a_edge47_Node000016_Node000009"><a xlink:title=" ">
<path fill="none" stroke="#63b8ff" d="M420.15,-281.62C415.57,-268.08 408.77,-241.67 416.5,-221 427.89,-190.53 437.26,-183.53 464.5,-165.75 528.68,-123.86 761.1,-84.03 845.55,-70.63"/>
<polygon fill="#63b8ff" stroke="#63b8ff" points="846.07,-74.09 855.41,-69.08 844.99,-67.18 846.07,-74.09"/>
</a>
</g>
</g>
<!-- Node16&#45;&gt;Node10 -->
<g id="edge41_Node000016_Node000010" class="edge">
<title>Node16&#45;&gt;Node10</title>
<g id="a_edge41_Node000016_Node000010"><a xlink:title=" ">
<path fill="none" stroke="#63b8ff" d="M488.97,-282.29C507.25,-280.15 527.13,-277.97 545.5,-276.25 758.12,-256.38 1011.47,-241.12 1123.42,-234.8"/>
<polygon fill="#63b8ff" stroke="#63b8ff" points="1123.46,-238.3 1133.25,-234.25 1123.07,-231.31 1123.46,-238.3"/>
</a>
</g>
</g>
<!-- Node16&#45;&gt;Node11 -->
<g id="edge42_Node000016_Node000011" class="edge">
<title>Node16&#45;&gt;Node11</title>
<g id="a_edge42_Node000016_Node000011"><a xlink:title=" ">
<path fill="none" stroke="#63b8ff" d="M423.79,-281.66C424.79,-266.68 429.12,-236.43 447.5,-221 475.1,-197.84 562.73,-186.57 632.68,-181.17"/>
<polygon fill="#63b8ff" stroke="#63b8ff" points="632.52,-184.69 642.24,-180.47 632.01,-177.71 632.52,-184.69"/>
</a>
</g>
</g>
<!-- Node16&#45;&gt;Node12 -->
<g id="edge44_Node000016_Node000012" class="edge">
<title>Node16&#45;&gt;Node12</title>
<g id="a_edge44_Node000016_Node000012"><a xlink:title=" ">
<path fill="none" stroke="#63b8ff" d="M465.69,-281.45C565.82,-259.97 816.77,-206.14 915.09,-185.04"/>
<polygon fill="#63b8ff" stroke="#63b8ff" points="915.78,-188.48 924.82,-182.96 914.31,-181.63 915.78,-188.48"/>
</a>
</g>
</g>
<!-- Node16&#45;&gt;Node13 -->
<g id="edge45_Node000016_Node000013" class="edge">
<title>Node16&#45;&gt;Node13</title>
<g id="a_edge45_Node000016_Node000013"><a xlink:title=" ">
<path fill="none" stroke="#63b8ff" d="M477.8,-281.39C537.18,-271.4 635.14,-254.85 719.5,-240.25 842.71,-218.92 989.38,-192.82 1051.42,-181.75"/>
<polygon fill="#63b8ff" stroke="#63b8ff" points="1051.95,-185.21 1061.17,-180.01 1050.72,-178.32 1051.95,-185.21"/>
</a>
</g>
</g>
<!-- Node17&#45;&gt;Node5 -->
<g id="edge49_Node000017_Node000005" class="edge">
<title>Node17&#45;&gt;Node5</title>
<g id="a_edge49_Node000017_Node000005"><a xlink:title=" ">
<path fill="none" stroke="#63b8ff" d="M1506.79,-281.49C1459.49,-257.87 1325.64,-194.07 1206.5,-165.75 1058.64,-130.6 878.97,-122.88 787.41,-121.34"/>
<polygon fill="#63b8ff" stroke="#63b8ff" points="787.72,-117.85 777.67,-121.2 787.62,-124.85 787.72,-117.85"/>
</a>
</g>
</g>
<!-- Node17&#45;&gt;Node8 -->
<g id="edge54_Node000017_Node000008" class="edge">
<title>Node17&#45;&gt;Node8</title>
<g id="a_edge54_Node000017_Node000008"><a xlink:title=" ">
<path fill="none" stroke="#63b8ff" d="M1597.44,-286.95C1630.5,-281.24 1666.75,-268.36 1687.5,-240.25 1707.16,-213.61 1705.81,-193.34 1687.5,-165.75 1638.73,-92.25 1355.63,-72.37 1246.95,-67.4"/>
<polygon fill="#63b8ff" stroke="#63b8ff" points="1247.15,-63.91 1237,-66.97 1246.84,-70.9 1247.15,-63.91"/>
</a>
</g>
</g>
<!-- Node17&#45;&gt;Node9 -->
<g id="edge55_Node000017_Node000009" class="edge">
<title>Node17&#45;&gt;Node9</title>
<g id="a_edge55_Node000017_Node000009"><a xlink:title=" ">
<path fill="none" stroke="#63b8ff" d="M1510.74,-281.46C1489.58,-267.72 1447.62,-241.05 1410.5,-221 1309.65,-166.54 1287.16,-143.82 1177.5,-110.5 1081.64,-81.37 962.61,-70.91 907.35,-67.44"/>
<polygon fill="#63b8ff" stroke="#63b8ff" points="907.65,-63.95 897.46,-66.86 907.24,-70.94 907.65,-63.95"/>
</a>
</g>
</g>
<!-- Node17&#45;&gt;Node10 -->
<g id="edge50_Node000017_Node000010" class="edge">
<title>Node17&#45;&gt;Node10</title>
<g id="a_edge50_Node000017_Node000010"><a xlink:title=" ">
<path fill="none" stroke="#63b8ff" d="M1471.66,-281.43C1408.81,-270.64 1304.28,-252.7 1239.32,-241.55"/>
<polygon fill="#63b8ff" stroke="#63b8ff" points="1240.01,-238.12 1229.56,-239.87 1238.82,-245.02 1240.01,-238.12"/>
</a>
</g>
</g>
<!-- Node17&#45;&gt;Node11 -->
<g id="edge51_Node000017_Node000011" class="edge">
<title>Node17&#45;&gt;Node11</title>
<g id="a_edge51_Node000017_Node000011"><a xlink:title=" ">
<path fill="none" stroke="#63b8ff" d="M1493.7,-281.46C1441.34,-266.45 1331.42,-236.53 1236.5,-221 1093.26,-197.57 925.2,-185.86 822.56,-180.46"/>
<polygon fill="#63b8ff" stroke="#63b8ff" points="822.97,-176.98 812.81,-179.96 822.61,-183.97 822.97,-176.98"/>
</a>
</g>
</g>
<!-- Node17&#45;&gt;Node12 -->
<g id="edge52_Node000017_Node000012" class="edge">
<title>Node17&#45;&gt;Node12</title>
<g id="a_edge52_Node000017_Node000012"><a xlink:title=" ">
<path fill="none" stroke="#63b8ff" d="M1505.94,-281.45C1474,-266.3 1406.18,-235.99 1345.5,-221 1312.11,-212.75 1088.88,-189.76 995.96,-180.41"/>
<polygon fill="#63b8ff" stroke="#63b8ff" points="996.59,-176.96 986.29,-179.44 995.89,-183.92 996.59,-176.96"/>
</a>
</g>
</g>
<!-- Node17&#45;&gt;Node13 -->
<g id="edge53_Node000017_Node000013" class="edge">
<title>Node17&#45;&gt;Node13</title>
<g id="a_edge53_Node000017_Node000013"><a xlink:title=" ">
<path fill="none" stroke="#63b8ff" d="M1496.35,-281.47C1452.29,-267.52 1364.25,-240.29 1288.5,-221 1226.05,-205.1 1152.08,-190.05 1111.64,-182.14"/>
<polygon fill="#63b8ff" stroke="#63b8ff" points="1112.42,-178.73 1101.93,-180.26 1111.08,-185.6 1112.42,-178.73"/>
</a>
</g>
</g>
<!-- Node18&#45;&gt;Node5 -->
<g id="edge57_Node000018_Node000005" class="edge">
<title>Node18&#45;&gt;Node5</title>
<g id="a_edge57_Node000018_Node000005"><a xlink:title=" ">
<path fill="none" stroke="#63b8ff" d="M1284.76,-275.85C1292.04,-260.77 1299.86,-237.26 1288.5,-221 1247.56,-162.43 1207.09,-182.01 1137.5,-165.75 1015.39,-137.21 868.47,-126.84 787.83,-123.13"/>
<polygon fill="#63b8ff" stroke="#63b8ff" points="788.08,-119.64 777.94,-122.69 787.77,-126.63 788.08,-119.64"/>
</a>
</g>
</g>
<!-- Node18&#45;&gt;Node8 -->
<g id="edge62_Node000018_Node000008" class="edge">
<title>Node18&#45;&gt;Node8</title>
<g id="a_edge62_Node000018_Node000008"><a xlink:title=" ">
<path fill="none" stroke="#63b8ff" d="M1340.44,-287.16C1408.98,-282.08 1511.24,-269.67 1535.5,-240.25 1572.19,-195.76 1573.45,-153.92 1535.5,-110.5 1498.44,-68.11 1327.13,-64.35 1246.58,-65.01"/>
<polygon fill="#63b8ff" stroke="#63b8ff" points="1246.85,-61.51 1236.89,-65.12 1246.93,-68.51 1246.85,-61.51"/>
</a>
</g>
</g>
<!-- Node18&#45;&gt;Node9 -->
<g id="edge63_Node000018_Node000009" class="edge">
<title>Node18&#45;&gt;Node9</title>
<g id="a_edge63_Node000018_Node000009"><a xlink:title=" ">
<path fill="none" stroke="#63b8ff" d="M1290.08,-276.01C1301.79,-261.68 1315.37,-239.3 1305.5,-221 1263.09,-142.34 1220.64,-143.28 1137.5,-110.5 1058.48,-79.35 957.57,-69.92 907.53,-67.08"/>
<polygon fill="#63b8ff" stroke="#63b8ff" points="907.9,-63.6 897.74,-66.58 907.55,-70.59 907.9,-63.6"/>
</a>
</g>
</g>
<!-- Node18&#45;&gt;Node10 -->
<g id="edge58_Node000018_Node000010" class="edge">
<title>Node18&#45;&gt;Node10</title>
<g id="a_edge58_Node000018_Node000010"><a xlink:title=" ">
<path fill="none" stroke="#63b8ff" d="M1253.02,-275.95C1238.69,-267.07 1220.41,-255.74 1205.92,-246.76"/>
<polygon fill="#63b8ff" stroke="#63b8ff" points="1207.78,-243.79 1197.43,-241.5 1204.09,-249.74 1207.78,-243.79"/>
</a>
</g>
</g>
<!-- Node18&#45;&gt;Node11 -->
<g id="edge59_Node000018_Node000011" class="edge">
<title>Node18&#45;&gt;Node11</title>
<g id="a_edge59_Node000018_Node000011"><a xlink:title=" ">
<path fill="none" stroke="#63b8ff" d="M1212.72,-277.24C1103.92,-254.62 884.32,-208.97 782.12,-187.73"/>
<polygon fill="#63b8ff" stroke="#63b8ff" points="783.12,-184.36 772.62,-185.75 781.69,-191.22 783.12,-184.36"/>
</a>
</g>
</g>
<!-- Node18&#45;&gt;Node12 -->
<g id="edge60_Node000018_Node000012" class="edge">
<title>Node18&#45;&gt;Node12</title>
<g id="a_edge60_Node000018_Node000012"><a xlink:title=" ">
<path fill="none" stroke="#63b8ff" d="M1272.3,-275.92C1266.84,-259.74 1255.65,-234.19 1236.5,-221 1217,-207.57 1069.07,-189.22 996.04,-180.86"/>
<polygon fill="#63b8ff" stroke="#63b8ff" points="996.83,-177.43 986.5,-179.78 996.04,-184.38 996.83,-177.43"/>
</a>
</g>
</g>
<!-- Node18&#45;&gt;Node13 -->
<g id="edge61_Node000018_Node000013" class="edge">
<title>Node18&#45;&gt;Node13</title>
<g id="a_edge61_Node000018_Node000013"><a xlink:title=" ">
<path fill="none" stroke="#63b8ff" d="M1279.51,-275.82C1281.79,-260.28 1282.6,-235.96 1269.5,-221 1248.98,-197.56 1159.25,-184.64 1111.56,-179.32"/>
<polygon fill="#63b8ff" stroke="#63b8ff" points="1112.23,-175.87 1101.91,-178.28 1111.48,-182.83 1112.23,-175.87"/>
</a>
</g>
</g>
<!-- Node19&#45;&gt;Node5 -->
<g id="edge65_Node000019_Node000005" class="edge">
<title>Node19&#45;&gt;Node5</title>
<g id="a_edge65_Node000019_Node000005"><a xlink:title=" ">
<path fill="none" stroke="#63b8ff" d="M628.1,-281.42C620.5,-259.49 604.63,-202.69 628.5,-165.75 638.19,-150.75 654.27,-140.74 670.68,-134.08"/>
<polygon fill="#63b8ff" stroke="#63b8ff" points="671.82,-137.39 680.03,-130.69 669.43,-130.81 671.82,-137.39"/>
</a>
</g>
</g>
<!-- Node19&#45;&gt;Node6 -->
<g id="edge68_Node000019_Node000006" class="edge">
<title>Node19&#45;&gt;Node6</title>
<g id="a_edge68_Node000019_Node000006"><a xlink:title=" ">
<path fill="none" stroke="#63b8ff" d="M561.55,-281.39C477.34,-266.27 339.39,-227.26 276.5,-129.75 267.85,-116.33 272.93,-98.38 279.26,-84.93"/>
<polygon fill="#63b8ff" stroke="#63b8ff" points="282.29,-86.69 283.89,-76.22 276.11,-83.4 282.29,-86.69"/>
</a>
</g>
</g>
<!-- Node19&#45;&gt;Node9 -->
<g id="edge71_Node000019_Node000009" class="edge">
<title>Node19&#45;&gt;Node9</title>
<g id="a_edge71_Node000019_Node000009"><a xlink:title=" ">
<path fill="none" stroke="#63b8ff" d="M629.22,-281.41C624.38,-260.39 614.6,-207.02 628.5,-165.75 638.35,-136.52 644.48,-127.07 670.5,-110.5 725.26,-75.63 803.05,-67.66 845.66,-66.05"/>
<polygon fill="#63b8ff" stroke="#63b8ff" points="845.53,-69.56 855.43,-65.79 845.34,-62.56 845.53,-69.56"/>
</a>
</g>
</g>
<!-- Node19&#45;&gt;Node10 -->
<g id="edge66_Node000019_Node000010" class="edge">
<title>Node19&#45;&gt;Node10</title>
<g id="a_edge66_Node000019_Node000010"><a xlink:title=" ">
<path fill="none" stroke="#63b8ff" d="M682.8,-281.41C694.2,-279.55 706.25,-277.72 717.5,-276.25 863.22,-257.19 1035.69,-242.72 1123.63,-235.91"/>
<polygon fill="#63b8ff" stroke="#63b8ff" points="1123.74,-239.41 1133.44,-235.16 1123.2,-232.44 1123.74,-239.41"/>
</a>
</g>
</g>
<!-- Node19&#45;&gt;Node11 -->
<g id="edge67_Node000019_Node000011" class="edge">
<title>Node19&#45;&gt;Node11</title>
<g id="a_edge67_Node000019_Node000011"><a xlink:title=" ">
<path fill="none" stroke="#63b8ff" d="M635.9,-281.82C643.1,-268.08 658.31,-240.88 675.5,-221 684.58,-210.5 696.19,-200.3 706.13,-192.31"/>
<polygon fill="#63b8ff" stroke="#63b8ff" points="708.09,-195.22 713.83,-186.31 703.79,-189.7 708.09,-195.22"/>
</a>
</g>
</g>
<!-- Node19&#45;&gt;Node12 -->
<g id="edge69_Node000019_Node000012" class="edge">
<title>Node19&#45;&gt;Node12</title>
<g id="a_edge69_Node000019_Node000012"><a xlink:title=" ">
<path fill="none" stroke="#63b8ff" d="M657.19,-281.45C714.5,-261.27 852.9,-212.52 919.07,-189.21"/>
<polygon fill="#63b8ff" stroke="#63b8ff" points="920.11,-192.55 928.38,-185.93 917.78,-185.95 920.11,-192.55"/>
</a>
</g>
</g>
<!-- Node19&#45;&gt;Node13 -->
<g id="edge70_Node000019_Node000013" class="edge">
<title>Node19&#45;&gt;Node13</title>
<g id="a_edge70_Node000019_Node000013"><a xlink:title=" ">
<path fill="none" stroke="#63b8ff" d="M683.49,-281.41C748.12,-269.95 854.66,-250.52 893.5,-240.25 950.58,-225.16 1015.44,-201.67 1052.11,-187.77"/>
<polygon fill="#63b8ff" stroke="#63b8ff" points="1053.04,-191.16 1061.14,-184.33 1050.55,-184.62 1053.04,-191.16"/>
</a>
</g>
</g>
</g>
</svg>

<g id="navigator" transform="translate(0 0)" fill="#404254">
  <rect fill="#f2f5e9" fill-opacity="0.5" stroke="#606060" stroke-width=".5" x="0" y="0" width="60" height="60"/>
  <use id="zoomplus" xlink:href="#zoomPlus" x="17" y="9" onmousedown="handleZoom(evt,'in')"/>
  <use id="zoomminus" xlink:href="#zoomMin" x="42" y="9" onmousedown="handleZoom(evt,'out')"/>
  <use id="reset" xlink:href="#resetDef" x="30" y="36" onmousedown="handleReset()"/>
   <use id="arrowup" xlink:href="#arrowUp" x="0" y="0" onmousedown="handlePan(0,-1)"/>
  <use id="arrowright" xlink:href="#arrowRight" x="0" y="0" onmousedown="handlePan(1,0)"/>
  <use id="arrowdown" xlink:href="#arrowDown" x="0" y="0" onmousedown="handlePan(0,1)"/>
  <use id="arrowleft" xlink:href="#arrowLeft" x="0" y="0" onmousedown="handlePan(-1,0)"/>
</g>
<svg viewBox="0 0 15 15" width="100%" height="30px" preserveAspectRatio="xMaxYMin meet">
 <g id="arrow_out" transform="scale(0.3 0.3)">
  <a xlink:href="gimo_8hpp__incl_org.svg" target="_base">
   <rect id="button" ry="5" rx="5" y="6" x="6" height="38" width="38"
        fill="#f2f5e9" fill-opacity="0.5" stroke="#606060" stroke-width="1.0"/>
   <path id="arrow"
     d="M 11.500037,31.436501 C 11.940474,20.09759 22.043105,11.32322 32.158766,21.979434 L 37.068811,17.246167 C 37.068811,17.246167 37.088388,32 37.088388,32 L 22.160133,31.978069 C 22.160133,31.978069 26.997745,27.140456 26.997745,27.140456 C 18.528582,18.264221 13.291696,25.230495 11.500037,31.436501 z"
     style="fill:#404040;"/>
  </a>
 </g>
</svg>

<style type='text/css'>
<![CDATA[
[data-mouse-over-selected='false'] { opacity: 0.7; }
[data-mouse-over-selected='true']  { opacity: 1.0; }
]]>
</style>
<script type="application/ecmascript"><![CDATA[
document.addEventListener('DOMContentLoaded', (event) => {
  highlightEdges();
  highlightAdjacentNodes();
});
]]></script>
</svg>
