<?xml version="1.0" encoding="UTF-8" standalone="no"?>
<!DOCTYPE svg PUBLIC "-//W3C//DTD SVG 1.1//EN"
 "http://www.w3.org/Graphics/SVG/1.1/DTD/svg11.dtd">
<!-- Generated by graphviz version 12.2.1 (20241206.2353)
 -->
<!-- Title: gimo.hpp Pages: 1 -->
<svg width="1267pt" height="370pt"
 viewBox="0.00 0.00 1267.09 370.00" xmlns="http://www.w3.org/2000/svg" xmlns:xlink="http://www.w3.org/1999/xlink">
<g id="graph0" class="graph" transform="scale(1 1) rotate(0) translate(4 366)">
<title>gimo.hpp</title>
<!-- Node1 -->
<g id="Node000001" class="node">
<title>Node1</title>
<g id="a_Node000001"><a xlink:title=" ">
<polygon fill="#999999" stroke="#666666" points="399,-362 344,-362 344,-342.75 399,-342.75 399,-362"/>
<text text-anchor="middle" x="371.5" y="-348.5" font-family="Helvetica,sans-Serif" font-size="10.00">gimo.hpp</text>
</a>
</g>
</g>
<!-- Node2 -->
<g id="Node000002" class="node">
<title>Node2</title>
<g id="a_Node000002"><a xlink:href="../../d7/d67/_version_8hpp.html" target="_top" xlink:title=" ">
<polygon fill="white" stroke="#666666" points="91,-301.12 0,-301.12 0,-281.88 91,-281.88 91,-301.12"/>
<text text-anchor="middle" x="45.5" y="-287.62" font-family="Helvetica,sans-Serif" font-size="10.00">gimo/Version.hpp</text>
</a>
</g>
</g>
<!-- Node1&#45;&gt;Node2 -->
<g id="edge1_Node000001_Node000002" class="edge">
<title>Node1&#45;&gt;Node2</title>
<g id="a_edge1_Node000001_Node000002"><a xlink:title=" ">
<path fill="none" stroke="#63b8ff" d="M343.82,-347.36C295.34,-340.18 192.01,-324.26 105.5,-306.75 101.43,-305.93 97.22,-305.03 93,-304.09"/>
<polygon fill="#63b8ff" stroke="#63b8ff" points="93.91,-300.71 83.38,-301.89 92.35,-307.53 93.91,-300.71"/>
</a>
</g>
</g>
<!-- Node3 -->
<g id="Node000003" class="node">
<title>Node3</title>
<g id="a_Node000003"><a xlink:href="../../d8/dd2/_config_8hpp.html" target="_top" xlink:title=" ">
<polygon fill="white" stroke="#666666" points="298,-74.5 213,-74.5 213,-55.25 298,-55.25 298,-74.5"/>
<text text-anchor="middle" x="255.5" y="-61" font-family="Helvetica,sans-Serif" font-size="10.00">gimo/Config.hpp</text>
</a>
</g>
</g>
<!-- Node1&#45;&gt;Node3 -->
<g id="edge2_Node000001_Node000003" class="edge">
<title>Node1&#45;&gt;Node3</title>
<g id="a_edge2_Node000001_Node000003"><a xlink:title=" ">
<path fill="none" stroke="#63b8ff" d="M343.57,-350.75C277.96,-347.64 119.5,-329.96 119.5,-231.62 119.5,-231.62 119.5,-231.62 119.5,-174.38 119.5,-125.13 174.67,-94.6 214.73,-78.92"/>
<polygon fill="#63b8ff" stroke="#63b8ff" points="215.75,-82.28 223.9,-75.51 213.31,-75.72 215.75,-82.28"/>
</a>
</g>
</g>
<!-- Node5 -->
<g id="Node000005" class="node">
<title>Node5</title>
<g id="a_Node000005"><a xlink:href="../../d3/d58/_common_8hpp.html" target="_top" xlink:title=" ">
<polygon fill="white" stroke="#666666" points="466,-129.75 369,-129.75 369,-110.5 466,-110.5 466,-129.75"/>
<text text-anchor="middle" x="417.5" y="-116.25" font-family="Helvetica,sans-Serif" font-size="10.00">gimo/Common.hpp</text>
</a>
</g>
</g>
<!-- Node1&#45;&gt;Node5 -->
<g id="edge4_Node000001_Node000005" class="edge">
<title>Node1&#45;&gt;Node5</title>
<g id="a_edge4_Node000001_Node000005"><a xlink:title=" ">
<path fill="none" stroke="#63b8ff" d="M343.87,-344.57C324.65,-338.24 300.42,-326.69 288.5,-306.75 281.55,-295.11 285.59,-289.49 288.5,-276.25 300.1,-223.42 302.96,-205.63 339.5,-165.75 351.46,-152.7 368.14,-142.45 383.01,-135.08"/>
<polygon fill="#63b8ff" stroke="#63b8ff" points="384.46,-138.27 392.05,-130.87 381.5,-131.92 384.46,-138.27"/>
</a>
</g>
</g>
<!-- Node10 -->
<g id="Node000010" class="node">
<title>Node10</title>
<g id="a_Node000010"><a xlink:href="../../d1/da8/_pipeline_8hpp.html" target="_top" xlink:title=" ">
<polygon fill="white" stroke="#666666" points="619.75,-240.25 527.25,-240.25 527.25,-221 619.75,-221 619.75,-240.25"/>
<text text-anchor="middle" x="573.5" y="-226.75" font-family="Helvetica,sans-Serif" font-size="10.00">gimo/Pipeline.hpp</text>
</a>
</g>
</g>
<!-- Node1&#45;&gt;Node10 -->
<g id="edge10_Node000001_Node000010" class="edge">
<title>Node1&#45;&gt;Node10</title>
<g id="a_edge10_Node000001_Node000010"><a xlink:title=" ">
<path fill="none" stroke="#63b8ff" d="M386.68,-342.37C421.19,-321.92 505.82,-271.75 548.3,-246.56"/>
<polygon fill="#63b8ff" stroke="#63b8ff" points="550.02,-249.61 556.84,-241.5 546.45,-243.59 550.02,-249.61"/>
</a>
</g>
</g>
<!-- Node11 -->
<g id="Node000011" class="node">
<title>Node11</title>
<g id="a_Node000011"><a xlink:href="../../de/dca/_basic_algorithm_8hpp.html" target="_top" xlink:title=" ">
<polygon fill="white" stroke="#666666" points="601.88,-185 435.12,-185 435.12,-165.75 601.88,-165.75 601.88,-185"/>
<text text-anchor="middle" x="518.5" y="-171.5" font-family="Helvetica,sans-Serif" font-size="10.00">gimo/algorithm/BasicAlgorithm.hpp</text>
</a>
</g>
</g>
<!-- Node1&#45;&gt;Node11 -->
<g id="edge22_Node000001_Node000011" class="edge">
<title>Node1&#45;&gt;Node11</title>
<g id="a_edge22_Node000001_Node000011"><a xlink:title=" ">
<path fill="none" stroke="#63b8ff" d="M343.83,-342.56C327.2,-335.66 307.39,-324.25 297.5,-306.75 290.83,-294.95 290.8,-288.03 297.5,-276.25 326.5,-225.28 389.37,-200.21 440.66,-187.94"/>
<polygon fill="#63b8ff" stroke="#63b8ff" points="441.28,-191.39 450.27,-185.78 439.74,-184.56 441.28,-191.39"/>
</a>
</g>
</g>
<!-- Node14 -->
<g id="Node000014" class="node">
<title>Node14</title>
<g id="a_Node000014"><a xlink:href="../../d6/d3f/_and_then_8hpp.html" target="_top" xlink:title=" ">
<polygon fill="white" stroke="#666666" points="1078.38,-301.12 938.62,-301.12 938.62,-281.88 1078.38,-281.88 1078.38,-301.12"/>
<text text-anchor="middle" x="1008.5" y="-287.62" font-family="Helvetica,sans-Serif" font-size="10.00">gimo/algorithm/AndThen.hpp</text>
</a>
</g>
</g>
<!-- Node1&#45;&gt;Node14 -->
<g id="edge23_Node000001_Node000014" class="edge">
<title>Node1&#45;&gt;Node14</title>
<g id="a_edge23_Node000001_Node000014"><a xlink:title=" ">
<path fill="none" stroke="#63b8ff" d="M399.49,-349.04C475.54,-342.65 692.37,-324.21 872.5,-306.75 890.13,-305.04 909.03,-303.12 926.96,-301.25"/>
<polygon fill="#63b8ff" stroke="#63b8ff" points="927.2,-304.75 936.78,-300.23 926.47,-297.78 927.2,-304.75"/>
</a>
</g>
</g>
<!-- Node15 -->
<g id="Node000015" class="node">
<title>Node15</title>
<g id="a_Node000015"><a xlink:href="../../d4/d96/_or_else_8hpp.html" target="_top" xlink:title=" ">
<polygon fill="white" stroke="#666666" points="436.5,-301.12 306.5,-301.12 306.5,-281.88 436.5,-281.88 436.5,-301.12"/>
<text text-anchor="middle" x="371.5" y="-287.62" font-family="Helvetica,sans-Serif" font-size="10.00">gimo/algorithm/OrElse.hpp</text>
</a>
</g>
</g>
<!-- Node1&#45;&gt;Node15 -->
<g id="edge31_Node000001_Node000015" class="edge">
<title>Node1&#45;&gt;Node15</title>
<g id="a_edge31_Node000001_Node000015"><a xlink:title=" ">
<path fill="none" stroke="#63b8ff" d="M371.5,-342.43C371.5,-334.65 371.5,-323.08 371.5,-313.03"/>
<polygon fill="#63b8ff" stroke="#63b8ff" points="375,-313.04 371.5,-303.04 368,-313.04 375,-313.04"/>
</a>
</g>
</g>
<!-- Node16 -->
<g id="Node000016" class="node">
<title>Node16</title>
<g id="a_Node000016"><a xlink:href="../../d9/d8c/_transform_8hpp.html" target="_top" xlink:title=" ">
<polygon fill="white" stroke="#666666" points="663,-301.12 518,-301.12 518,-281.88 663,-281.88 663,-301.12"/>
<text text-anchor="middle" x="590.5" y="-287.62" font-family="Helvetica,sans-Serif" font-size="10.00">gimo/algorithm/Transform.hpp</text>
</a>
</g>
</g>
<!-- Node1&#45;&gt;Node16 -->
<g id="edge40_Node000001_Node000016" class="edge">
<title>Node1&#45;&gt;Node16</title>
<g id="a_edge40_Node000001_Node000016"><a xlink:title=" ">
<path fill="none" stroke="#63b8ff" d="M399.24,-343.92C436.19,-333.98 502,-316.29 545.95,-304.48"/>
<polygon fill="#63b8ff" stroke="#63b8ff" points="546.69,-307.9 555.44,-301.93 544.87,-301.14 546.69,-307.9"/>
</a>
</g>
</g>
<!-- Node17 -->
<g id="Node000017" class="node">
<title>Node17</title>
<g id="a_Node000017"><a xlink:href="../../d9/d45/_transform_error_8hpp.html" target="_top" xlink:title=" ">
<polygon fill="white" stroke="#666666" points="863,-306.75 736,-306.75 736,-276.25 863,-276.25 863,-306.75"/>
<text text-anchor="start" x="744" y="-293.25" font-family="Helvetica,sans-Serif" font-size="10.00">gimo/algorithm/Transform</text>
<text text-anchor="middle" x="799.5" y="-282" font-family="Helvetica,sans-Serif" font-size="10.00">Error.hpp</text>
</a>
</g>
</g>
<!-- Node1&#45;&gt;Node17 -->
<g id="edge48_Node000001_Node000017" class="edge">
<title>Node1&#45;&gt;Node17</title>
<g id="a_edge48_Node000001_Node000017"><a xlink:title=" ">
<path fill="none" stroke="#63b8ff" d="M399.25,-347.56C464.2,-338.62 627.89,-316.11 724.63,-302.8"/>
<polygon fill="#63b8ff" stroke="#63b8ff" points="724.87,-306.3 734.3,-301.47 723.91,-299.36 724.87,-306.3"/>
</a>
</g>
</g>
<!-- Node4 -->
<g id="Node000004" class="node">
<title>Node4</title>
<g id="a_Node000004"><a xlink:title=" ">
<polygon fill="#e0e0e0" stroke="#999999" points="279.62,-19.25 231.38,-19.25 231.38,0 279.62,0 279.62,-19.25"/>
<text text-anchor="middle" x="255.5" y="-5.75" font-family="Helvetica,sans-Serif" font-size="10.00">cassert</text>
</a>
</g>
</g>
<!-- Node3&#45;&gt;Node4 -->
<g id="edge3_Node000003_Node000004" class="edge">
<title>Node3&#45;&gt;Node4</title>
<g id="a_edge3_Node000003_Node000004"><a xlink:title=" ">
<path fill="none" stroke="#63b8ff" d="M255.5,-55.08C255.5,-48.57 255.5,-39.42 255.5,-31.12"/>
<polygon fill="#63b8ff" stroke="#63b8ff" points="259,-31.12 255.5,-21.12 252,-31.12 259,-31.12"/>
</a>
</g>
</g>
<!-- Node5&#45;&gt;Node3 -->
<g id="edge5_Node000005_Node000003" class="edge">
<title>Node5&#45;&gt;Node3</title>
<g id="a_edge5_Node000005_Node000003"><a xlink:title=" ">
<path fill="none" stroke="#63b8ff" d="M390.02,-110.09C363.6,-101.41 323.44,-88.21 293.88,-78.49"/>
<polygon fill="#63b8ff" stroke="#63b8ff" points="295.15,-75.22 284.55,-75.43 292.96,-81.87 295.15,-75.22"/>
</a>
</g>
</g>
<!-- Node6 -->
<g id="Node000006" class="node">
<title>Node6</title>
<g id="a_Node000006"><a xlink:title=" ">
<polygon fill="#e0e0e0" stroke="#999999" points="371.38,-74.5 315.62,-74.5 315.62,-55.25 371.38,-55.25 371.38,-74.5"/>
<text text-anchor="middle" x="343.5" y="-61" font-family="Helvetica,sans-Serif" font-size="10.00">concepts</text>
</a>
</g>
</g>
<!-- Node5&#45;&gt;Node6 -->
<g id="edge6_Node000005_Node000006" class="edge">
<title>Node5&#45;&gt;Node6</title>
<g id="a_edge6_Node000005_Node000006"><a xlink:title=" ">
<path fill="none" stroke="#63b8ff" d="M404.95,-110.09C394.04,-102.24 378,-90.7 365.04,-81.37"/>
<polygon fill="#63b8ff" stroke="#63b8ff" points="367.26,-78.66 357.1,-75.66 363.17,-84.34 367.26,-78.66"/>
</a>
</g>
</g>
<!-- Node7 -->
<g id="Node000007" class="node">
<title>Node7</title>
<g id="a_Node000007"><a xlink:title=" ">
<polygon fill="#e0e0e0" stroke="#999999" points="441.62,-74.5 393.38,-74.5 393.38,-55.25 441.62,-55.25 441.62,-74.5"/>
<text text-anchor="middle" x="417.5" y="-61" font-family="Helvetica,sans-Serif" font-size="10.00">cstddef</text>
</a>
</g>
</g>
<!-- Node5&#45;&gt;Node7 -->
<g id="edge7_Node000005_Node000007" class="edge">
<title>Node5&#45;&gt;Node7</title>
<g id="a_edge7_Node000005_Node000007"><a xlink:title=" ">
<path fill="none" stroke="#63b8ff" d="M417.5,-110.33C417.5,-103.82 417.5,-94.67 417.5,-86.37"/>
<polygon fill="#63b8ff" stroke="#63b8ff" points="421,-86.37 417.5,-76.37 414,-86.37 421,-86.37"/>
</a>
</g>
</g>
<!-- Node8 -->
<g id="Node000008" class="node">
<title>Node8</title>
<g id="a_Node000008"><a xlink:title=" ">
<polygon fill="#e0e0e0" stroke="#999999" points="698,-74.5 637,-74.5 637,-55.25 698,-55.25 698,-74.5"/>
<text text-anchor="middle" x="667.5" y="-61" font-family="Helvetica,sans-Serif" font-size="10.00">type_traits</text>
</a>
</g>
</g>
<!-- Node5&#45;&gt;Node8 -->
<g id="edge8_Node000005_Node000008" class="edge">
<title>Node5&#45;&gt;Node8</title>
<g id="a_edge8_Node000005_Node000008"><a xlink:title=" ">
<path fill="none" stroke="#63b8ff" d="M460.19,-110.03C506.48,-100.17 579.86,-84.54 625.76,-74.76"/>
<polygon fill="#63b8ff" stroke="#63b8ff" points="626.28,-78.23 635.33,-72.73 624.82,-71.39 626.28,-78.23"/>
</a>
</g>
</g>
<!-- Node9 -->
<g id="Node000009" class="node">
<title>Node9</title>
<g id="a_Node000009"><a xlink:title=" ">
<polygon fill="#e0e0e0" stroke="#999999" points="970.75,-74.5 932.25,-74.5 932.25,-55.25 970.75,-55.25 970.75,-74.5"/>
<text text-anchor="middle" x="951.5" y="-61" font-family="Helvetica,sans-Serif" font-size="10.00">utility</text>
</a>
</g>
</g>
<!-- Node5&#45;&gt;Node9 -->
<g id="edge9_Node000005_Node000009" class="edge">
<title>Node5&#45;&gt;Node9</title>
<g id="a_edge9_Node000005_Node000009"><a xlink:title=" ">
<path fill="none" stroke="#63b8ff" d="M466.31,-112.24C471.1,-111.62 475.89,-111.03 480.5,-110.5 646.29,-91.31 845.62,-74.47 920.8,-68.34"/>
<polygon fill="#63b8ff" stroke="#63b8ff" points="920.99,-71.84 930.67,-67.54 920.42,-64.86 920.99,-71.84"/>
</a>
</g>
</g>
<!-- Node10&#45;&gt;Node5 -->
<g id="edge11_Node000010_Node000005" class="edge">
<title>Node10&#45;&gt;Node5</title>
<g id="a_edge11_Node000010_Node000005"><a xlink:title=" ">
<path fill="none" stroke="#63b8ff" d="M585.4,-220.64C601,-207.78 624.78,-183.71 610.5,-165.75 594.03,-145.04 527.64,-133.11 477.29,-126.88"/>
<polygon fill="#63b8ff" stroke="#63b8ff" points="478.01,-123.44 467.67,-125.74 477.19,-130.39 478.01,-123.44"/>
</a>
</g>
</g>
<!-- Node10&#45;&gt;Node8 -->
<g id="edge20_Node000010_Node000008" class="edge">
<title>Node10&#45;&gt;Node8</title>
<g id="a_edge20_Node000010_Node000008"><a xlink:title=" ">
<path fill="none" stroke="#63b8ff" d="M587.99,-220.66C599.85,-212.64 616.29,-199.88 626.5,-185 647.68,-154.13 658.86,-111.28 663.95,-86.28"/>
<polygon fill="#63b8ff" stroke="#63b8ff" points="667.39,-86.95 665.8,-76.48 660.51,-85.65 667.39,-86.95"/>
</a>
</g>
</g>
<!-- Node10&#45;&gt;Node9 -->
<g id="edge21_Node000010_Node000009" class="edge">
<title>Node10&#45;&gt;Node9</title>
<g id="a_edge21_Node000010_Node000009"><a xlink:title=" ">
<path fill="none" stroke="#63b8ff" d="M594.36,-220.59C657.66,-193.17 847.73,-110.83 921.64,-78.81"/>
<polygon fill="#63b8ff" stroke="#63b8ff" points="922.9,-82.08 930.68,-74.89 920.12,-75.66 922.9,-82.08"/>
</a>
</g>
</g>
<!-- Node10&#45;&gt;Node11 -->
<g id="edge12_Node000010_Node000011" class="edge">
<title>Node10&#45;&gt;Node11</title>
<g id="a_edge12_Node000010_Node000011"><a xlink:title=" ">
<path fill="none" stroke="#63b8ff" d="M564.42,-220.83C556.66,-213.32 545.29,-202.31 535.8,-193.13"/>
<polygon fill="#63b8ff" stroke="#63b8ff" points="538.49,-190.85 528.87,-186.41 533.62,-195.88 538.49,-190.85"/>
</a>
</g>
</g>
<!-- Node12 -->
<g id="Node000012" class="node">
<title>Node12</title>
<g id="a_Node000012"><a xlink:title=" ">
<polygon fill="#e0e0e0" stroke="#999999" points="791.5,-185 733.5,-185 733.5,-165.75 791.5,-165.75 791.5,-185"/>
<text text-anchor="middle" x="762.5" y="-171.5" font-family="Helvetica,sans-Serif" font-size="10.00">functional</text>
</a>
</g>
</g>
<!-- Node10&#45;&gt;Node12 -->
<g id="edge18_Node000010_Node000012" class="edge">
<title>Node10&#45;&gt;Node12</title>
<g id="a_edge18_Node000010_Node000012"><a xlink:title=" ">
<path fill="none" stroke="#63b8ff" d="M605.56,-220.59C637.78,-211.52 687.52,-197.5 722.34,-187.69"/>
<polygon fill="#63b8ff" stroke="#63b8ff" points="722.95,-191.15 731.63,-185.07 721.05,-184.42 722.95,-191.15"/>
</a>
</g>
</g>
<!-- Node13 -->
<g id="Node000013" class="node">
<title>Node13</title>
<g id="a_Node000013"><a xlink:title=" ">
<polygon fill="#e0e0e0" stroke="#999999" points="847,-185 810,-185 810,-165.75 847,-165.75 847,-185"/>
<text text-anchor="middle" x="828.5" y="-171.5" font-family="Helvetica,sans-Serif" font-size="10.00">tuple</text>
</a>
</g>
</g>
<!-- Node10&#45;&gt;Node13 -->
<g id="edge19_Node000010_Node000013" class="edge">
<title>Node10&#45;&gt;Node13</title>
<g id="a_edge19_Node000010_Node000013"><a xlink:title=" ">
<path fill="none" stroke="#63b8ff" d="M619.9,-221.97C663.66,-214.43 731.27,-201.93 798.77,-185.21"/>
<polygon fill="#63b8ff" stroke="#63b8ff" points="799.28,-188.69 808.13,-182.86 797.58,-181.9 799.28,-188.69"/>
</a>
</g>
</g>
<!-- Node11&#45;&gt;Node3 -->
<g id="edge14_Node000011_Node000003" class="edge">
<title>Node11&#45;&gt;Node3</title>
<g id="a_edge14_Node000011_Node000003"><a xlink:title=" ">
<path fill="none" stroke="#63b8ff" d="M462.58,-165.33C427.81,-158.41 382.77,-147.06 345.5,-129.75 318.67,-117.29 291.46,-96.62 274.1,-82.18"/>
<polygon fill="#63b8ff" stroke="#63b8ff" points="276.56,-79.68 266.68,-75.87 272.03,-85.02 276.56,-79.68"/>
</a>
</g>
</g>
<!-- Node11&#45;&gt;Node5 -->
<g id="edge13_Node000011_Node000005" class="edge">
<title>Node11&#45;&gt;Node5</title>
<g id="a_edge13_Node000011_Node000005"><a xlink:title=" ">
<path fill="none" stroke="#63b8ff" d="M501.37,-165.34C485.84,-157.16 462.7,-144.96 444.66,-135.44"/>
<polygon fill="#63b8ff" stroke="#63b8ff" points="446.53,-132.48 436.06,-130.91 443.27,-138.67 446.53,-132.48"/>
</a>
</g>
</g>
<!-- Node11&#45;&gt;Node6 -->
<g id="edge15_Node000011_Node000006" class="edge">
<title>Node11&#45;&gt;Node6</title>
<g id="a_edge15_Node000011_Node000006"><a xlink:title=" ">
<path fill="none" stroke="#63b8ff" d="M434.64,-167.1C407.85,-160.85 380.1,-149.65 360.5,-129.75 349.16,-118.23 345.15,-100.05 343.84,-86.02"/>
<polygon fill="#63b8ff" stroke="#63b8ff" points="347.34,-85.94 343.34,-76.13 340.35,-86.3 347.34,-85.94"/>
</a>
</g>
</g>
<!-- Node11&#45;&gt;Node8 -->
<g id="edge16_Node000011_Node000008" class="edge">
<title>Node11&#45;&gt;Node8</title>
<g id="a_edge16_Node000011_Node000008"><a xlink:title=" ">
<path fill="none" stroke="#63b8ff" d="M525.23,-165.62C535.72,-152.41 557.1,-127.14 579.5,-110.5 596.35,-97.98 617.24,-87.22 634.44,-79.4"/>
<polygon fill="#63b8ff" stroke="#63b8ff" points="635.47,-82.77 643.21,-75.54 632.65,-76.37 635.47,-82.77"/>
</a>
</g>
</g>
<!-- Node11&#45;&gt;Node9 -->
<g id="edge17_Node000011_Node000009" class="edge">
<title>Node11&#45;&gt;Node9</title>
<g id="a_edge17_Node000011_Node000009"><a xlink:title=" ">
<path fill="none" stroke="#63b8ff" d="M554.67,-165.31C638.19,-144.38 843.25,-93 920.97,-73.53"/>
<polygon fill="#63b8ff" stroke="#63b8ff" points="921.58,-76.98 930.43,-71.16 919.88,-70.19 921.58,-76.98"/>
</a>
</g>
</g>
<!-- Node14&#45;&gt;Node5 -->
<g id="edge24_Node000014_Node000005" class="edge">
<title>Node14&#45;&gt;Node5</title>
<g id="a_edge24_Node000014_Node000005"><a xlink:title=" ">
<path fill="none" stroke="#63b8ff" d="M1014.05,-281.51C1022.01,-267.36 1034.34,-239.58 1021.5,-221 982.07,-163.92 943.06,-181.53 875.5,-165.75 735.53,-133.06 566.07,-124.28 477.72,-121.94"/>
<polygon fill="#63b8ff" stroke="#63b8ff" points="477.91,-118.45 467.83,-121.7 477.74,-125.45 477.91,-118.45"/>
</a>
</g>
</g>
<!-- Node14&#45;&gt;Node8 -->
<g id="edge29_Node000014_Node000008" class="edge">
<title>Node14&#45;&gt;Node8</title>
<g id="a_edge29_Node000014_Node000008"><a xlink:title=" ">
<path fill="none" stroke="#63b8ff" d="M1021.19,-281.44C1037.92,-268.32 1063.87,-243.18 1051.5,-221 1005.95,-139.35 959.2,-145.5 872.5,-110.5 818.47,-88.69 751.92,-76.71 709.6,-70.8"/>
<polygon fill="#63b8ff" stroke="#63b8ff" points="710.21,-67.35 699.83,-69.49 709.28,-74.28 710.21,-67.35"/>
</a>
</g>
</g>
<!-- Node14&#45;&gt;Node9 -->
<g id="edge30_Node000014_Node000009" class="edge">
<title>Node14&#45;&gt;Node9</title>
<g id="a_edge30_Node000014_Node000009"><a xlink:title=" ">
<path fill="none" stroke="#63b8ff" d="M1078.83,-284.12C1136.84,-277.23 1212.57,-263.92 1231.5,-240.25 1267.52,-195.21 1268.93,-154.37 1231.5,-110.5 1199.69,-73.22 1047.99,-66.94 982.13,-65.98"/>
<polygon fill="#63b8ff" stroke="#63b8ff" points="982.43,-62.49 972.39,-65.88 982.35,-69.49 982.43,-62.49"/>
</a>
</g>
</g>
<!-- Node14&#45;&gt;Node10 -->
<g id="edge25_Node000014_Node000010" class="edge">
<title>Node14&#45;&gt;Node10</title>
<g id="a_edge25_Node000014_Node000010"><a xlink:title=" ">
<path fill="none" stroke="#63b8ff" d="M941.48,-281.43C856.64,-269.95 711.88,-250.35 631.54,-239.48"/>
<polygon fill="#63b8ff" stroke="#63b8ff" points="632.05,-236.02 621.67,-238.14 631.11,-242.95 632.05,-236.02"/>
</a>
</g>
</g>
<!-- Node14&#45;&gt;Node11 -->
<g id="edge26_Node000014_Node000011" class="edge">
<title>Node14&#45;&gt;Node11</title>
<g id="a_edge26_Node000014_Node000011"><a xlink:title=" ">
<path fill="none" stroke="#63b8ff" d="M969.64,-281.45C881.46,-260.91 666.28,-210.79 568.42,-188"/>
<polygon fill="#63b8ff" stroke="#63b8ff" points="569.37,-184.63 558.84,-185.77 567.78,-191.45 569.37,-184.63"/>
</a>
</g>
</g>
<!-- Node14&#45;&gt;Node12 -->
<g id="edge27_Node000014_Node000012" class="edge">
<title>Node14&#45;&gt;Node12</title>
<g id="a_edge27_Node000014_Node000012"><a xlink:title=" ">
<path fill="none" stroke="#63b8ff" d="M1005.62,-281.66C1000.25,-266.67 987.27,-236.42 965.5,-221 907.46,-179.88 877.28,-199.03 803.15,-185.17"/>
<polygon fill="#63b8ff" stroke="#63b8ff" points="803.87,-181.75 793.37,-183.18 802.47,-188.61 803.87,-181.75"/>
</a>
</g>
</g>
<!-- Node14&#45;&gt;Node13 -->
<g id="edge28_Node000014_Node000013" class="edge">
<title>Node14&#45;&gt;Node13</title>
<g id="a_edge28_Node000014_Node000013"><a xlink:title=" ">
<path fill="none" stroke="#63b8ff" d="M1010.82,-281.62C1014.03,-267.13 1017.93,-238.26 1003.5,-221 985.12,-199.02 903.81,-185.68 858.77,-179.85"/>
<polygon fill="#63b8ff" stroke="#63b8ff" points="859.24,-176.38 848.88,-178.62 858.37,-183.32 859.24,-176.38"/>
</a>
</g>
</g>
<!-- Node15&#45;&gt;Node5 -->
<g id="edge32_Node000015_Node000005" class="edge">
<title>Node15&#45;&gt;Node5</title>
<g id="a_edge32_Node000015_Node000005"><a xlink:title=" ">
<path fill="none" stroke="#63b8ff" d="M361.83,-281.6C352.52,-272.32 339.07,-256.84 333.5,-240.25 330.78,-232.14 331.89,-229.4 333.5,-221 338.48,-195.04 339.23,-186.58 355.5,-165.75 364.87,-153.75 378.31,-143.53 390.29,-135.92"/>
<polygon fill="#63b8ff" stroke="#63b8ff" points="391.81,-139.08 398.58,-130.93 388.21,-133.08 391.81,-139.08"/>
</a>
</g>
</g>
<!-- Node15&#45;&gt;Node6 -->
<g id="edge35_Node000015_Node000006" class="edge">
<title>Node15&#45;&gt;Node6</title>
<g id="a_edge35_Node000015_Node000006"><a xlink:title=" ">
<path fill="none" stroke="#63b8ff" d="M306.1,-286.13C274.52,-280.33 239.28,-267.62 219.5,-240.25 185.72,-193.51 186.34,-157.68 219.5,-110.5 224.66,-103.15 270.14,-88.03 304.53,-77.44"/>
<polygon fill="#63b8ff" stroke="#63b8ff" points="305.25,-80.88 313.8,-74.61 303.21,-74.18 305.25,-80.88"/>
</a>
</g>
</g>
<!-- Node15&#45;&gt;Node8 -->
<g id="edge38_Node000015_Node000008" class="edge">
<title>Node15&#45;&gt;Node8</title>
<g id="a_edge38_Node000015_Node000008"><a xlink:title=" ">
<path fill="none" stroke="#63b8ff" d="M359.93,-281.59C349.2,-272.52 333.95,-257.4 327.5,-240.25 306.56,-184.55 314.08,-147.73 360.5,-110.5 400.53,-78.39 551.07,-69.36 625.42,-66.84"/>
<polygon fill="#63b8ff" stroke="#63b8ff" points="625.27,-70.34 635.15,-66.53 625.05,-63.35 625.27,-70.34"/>
</a>
</g>
</g>
<!-- Node15&#45;&gt;Node9 -->
<g id="edge39_Node000015_Node000009" class="edge">
<title>Node15&#45;&gt;Node9</title>
<g id="a_edge39_Node000015_Node000009"><a xlink:title=" ">
<path fill="none" stroke="#63b8ff" d="M372.31,-281.55C375,-257.82 385.91,-193.19 426.5,-165.75 508.78,-110.14 820.56,-77.69 920.48,-68.56"/>
<polygon fill="#63b8ff" stroke="#63b8ff" points="920.7,-72.05 930.34,-67.67 920.07,-65.08 920.7,-72.05"/>
</a>
</g>
</g>
<!-- Node15&#45;&gt;Node10 -->
<g id="edge33_Node000015_Node000010" class="edge">
<title>Node15&#45;&gt;Node10</title>
<g id="a_edge33_Node000015_Node000010"><a xlink:title=" ">
<path fill="none" stroke="#63b8ff" d="M402.62,-281.43C437.17,-271.36 493.12,-255.05 531.52,-243.86"/>
<polygon fill="#63b8ff" stroke="#63b8ff" points="532.27,-247.29 540.89,-241.13 530.31,-240.57 532.27,-247.29"/>
</a>
</g>
</g>
<!-- Node15&#45;&gt;Node11 -->
<g id="edge34_Node000015_Node000011" class="edge">
<title>Node15&#45;&gt;Node11</title>
<g id="a_edge34_Node000015_Node000011"><a xlink:title=" ">
<path fill="none" stroke="#63b8ff" d="M374.19,-281.58C379.01,-267.01 390.43,-238.05 409.5,-221 426.09,-206.17 448.28,-195.88 468.3,-188.95"/>
<polygon fill="#63b8ff" stroke="#63b8ff" points="469.28,-192.32 477.72,-185.91 467.13,-185.66 469.28,-192.32"/>
</a>
</g>
</g>
<!-- Node15&#45;&gt;Node12 -->
<g id="edge36_Node000015_Node000012" class="edge">
<title>Node15&#45;&gt;Node12</title>
<g id="a_edge36_Node000015_Node000012"><a xlink:title=" ">
<path fill="none" stroke="#63b8ff" d="M386.83,-281.6C412.97,-266.8 468.25,-237.17 518.5,-221 588.18,-198.58 672.91,-186.26 721.97,-180.51"/>
<polygon fill="#63b8ff" stroke="#63b8ff" points="722.31,-183.99 731.85,-179.39 721.52,-177.04 722.31,-183.99"/>
</a>
</g>
</g>
<!-- Node15&#45;&gt;Node13 -->
<g id="edge37_Node000015_Node000013" class="edge">
<title>Node15&#45;&gt;Node13</title>
<g id="a_edge37_Node000015_Node000013"><a xlink:title=" ">
<path fill="none" stroke="#63b8ff" d="M428.07,-281.38C480.43,-272.49 560.24,-257.76 628.5,-240.25 645.28,-235.95 747.45,-202.8 798.92,-186.03"/>
<polygon fill="#63b8ff" stroke="#63b8ff" points="799.8,-189.42 808.23,-183 797.63,-182.77 799.8,-189.42"/>
</a>
</g>
</g>
<!-- Node16&#45;&gt;Node5 -->
<g id="edge41_Node000016_Node000005" class="edge">
<title>Node16&#45;&gt;Node5</title>
<g id="a_edge41_Node000016_Node000005"><a xlink:title=" ">
<path fill="none" stroke="#63b8ff" d="M563.36,-281.41C525.72,-267.26 458.69,-236.14 426.5,-185 418.36,-172.07 416.34,-154.79 416.23,-141.46"/>
<polygon fill="#63b8ff" stroke="#63b8ff" points="419.72,-141.77 416.52,-131.67 412.73,-141.56 419.72,-141.77"/>
</a>
</g>
</g>
<!-- Node16&#45;&gt;Node8 -->
<g id="edge46_Node000016_Node000008" class="edge">
<title>Node16&#45;&gt;Node8</title>
<g id="a_edge46_Node000016_Node000008"><a xlink:title=" ">
<path fill="none" stroke="#63b8ff" d="M663.47,-284.02C726.67,-274.07 814.38,-248.87 856.5,-185 896.57,-124.24 776.36,-88.55 709.3,-73.82"/>
<polygon fill="#63b8ff" stroke="#63b8ff" points="710.23,-70.44 699.72,-71.79 708.77,-77.29 710.23,-70.44"/>
</a>
</g>
</g>
<!-- Node16&#45;&gt;Node9 -->
<g id="edge47_Node000016_Node000009" class="edge">
<title>Node16&#45;&gt;Node9</title>
<g id="a_edge47_Node000016_Node000009"><a xlink:title=" ">
<path fill="none" stroke="#63b8ff" d="M663.48,-286.43C711.88,-281.05 775.29,-268.65 824.5,-240.25 887.43,-203.93 927.92,-122.52 943.84,-85.21"/>
<polygon fill="#63b8ff" stroke="#63b8ff" points="946.99,-86.74 947.56,-76.16 940.52,-84.08 946.99,-86.74"/>
</a>
</g>
</g>
<!-- Node16&#45;&gt;Node10 -->
<g id="edge42_Node000016_Node000010" class="edge">
<title>Node16&#45;&gt;Node10</title>
<g id="a_edge42_Node000016_Node000010"><a xlink:title=" ">
<path fill="none" stroke="#63b8ff" d="M587.92,-281.56C585.62,-273.6 582.18,-261.69 579.24,-251.49"/>
<polygon fill="#63b8ff" stroke="#63b8ff" points="582.66,-250.74 576.53,-242.11 575.94,-252.68 582.66,-250.74"/>
</a>
</g>
</g>
<!-- Node16&#45;&gt;Node11 -->
<g id="edge43_Node000016_Node000011" class="edge">
<title>Node16&#45;&gt;Node11</title>
<g id="a_edge43_Node000016_Node000011"><a xlink:title=" ">
<path fill="none" stroke="#63b8ff" d="M567.39,-281.4C550.46,-273.37 528.72,-259.85 518.5,-240.25 511.5,-226.84 511.96,-209.58 513.92,-196.39"/>
<polygon fill="#63b8ff" stroke="#63b8ff" points="517.33,-197.21 515.77,-186.73 510.45,-195.89 517.33,-197.21"/>
</a>
</g>
</g>
<!-- Node16&#45;&gt;Node12 -->
<g id="edge44_Node000016_Node000012" class="edge">
<title>Node16&#45;&gt;Node12</title>
<g id="a_edge44_Node000016_Node000012"><a xlink:title=" ">
<path fill="none" stroke="#63b8ff" d="M604,-281.54C633.39,-262.04 703.44,-215.56 739.78,-191.45"/>
<polygon fill="#63b8ff" stroke="#63b8ff" points="741.41,-194.57 747.8,-186.13 737.54,-188.74 741.41,-194.57"/>
</a>
</g>
</g>
<!-- Node16&#45;&gt;Node13 -->
<g id="edge45_Node000016_Node000013" class="edge">
<title>Node16&#45;&gt;Node13</title>
<g id="a_edge45_Node000016_Node000013"><a xlink:title=" ">
<path fill="none" stroke="#63b8ff" d="M609.47,-281.43C630.5,-271.37 665.43,-254.67 695.5,-240.25 731.23,-223.12 772.34,-203.37 799.28,-190.42"/>
<polygon fill="#63b8ff" stroke="#63b8ff" points="800.7,-193.62 808.2,-186.14 797.67,-187.31 800.7,-193.62"/>
</a>
</g>
</g>
<!-- Node17&#45;&gt;Node5 -->
<g id="edge49_Node000017_Node000005" class="edge">
<title>Node17&#45;&gt;Node5</title>
<g id="a_edge49_Node000017_Node000005"><a xlink:title=" ">
<path fill="none" stroke="#63b8ff" d="M815.78,-275.8C841.7,-250.67 886.51,-198.97 856.5,-165.75 831.58,-138.17 592.12,-126.76 477.74,-122.85"/>
<polygon fill="#63b8ff" stroke="#63b8ff" points="478.04,-119.36 467.93,-122.53 477.81,-126.36 478.04,-119.36"/>
</a>
</g>
</g>
<!-- Node17&#45;&gt;Node8 -->
<g id="edge54_Node000017_Node000008" class="edge">
<title>Node17&#45;&gt;Node8</title>
<g id="a_edge54_Node000017_Node000008"><a xlink:title=" ">
<path fill="none" stroke="#63b8ff" d="M829.03,-275.82C842.95,-267.35 858.46,-255.37 867.5,-240.25 897.42,-190.23 893.86,-147.1 848.5,-110.5 808.81,-78.47 749.41,-68.97 709.59,-66.39"/>
<polygon fill="#63b8ff" stroke="#63b8ff" points="709.84,-62.9 699.67,-65.88 709.48,-69.89 709.84,-62.9"/>
</a>
</g>
</g>
<!-- Node17&#45;&gt;Node9 -->
<g id="edge55_Node000017_Node000009" class="edge">
<title>Node17&#45;&gt;Node9</title>
<g id="a_edge55_Node000017_Node000009"><a xlink:title=" ">
<path fill="none" stroke="#63b8ff" d="M863.41,-278.41C947.28,-261.1 1087.41,-226.68 1117.5,-185 1136.88,-158.15 1137.65,-136.78 1117.5,-110.5 1101.15,-89.18 1025.67,-75.77 982.33,-69.7"/>
<polygon fill="#63b8ff" stroke="#63b8ff" points="982.92,-66.24 972.54,-68.38 981.98,-73.18 982.92,-66.24"/>
</a>
</g>
</g>
<!-- Node17&#45;&gt;Node10 -->
<g id="edge50_Node000017_Node000010" class="edge">
<title>Node17&#45;&gt;Node10</title>
<g id="a_edge50_Node000017_Node000010"><a xlink:title=" ">
<path fill="none" stroke="#63b8ff" d="M743.05,-275.8C704.95,-265.87 655.28,-252.93 619.57,-243.63"/>
<polygon fill="#63b8ff" stroke="#63b8ff" points="620.52,-240.26 609.96,-241.12 618.75,-247.03 620.52,-240.26"/>
</a>
</g>
</g>
<!-- Node17&#45;&gt;Node11 -->
<g id="edge51_Node000017_Node000011" class="edge">
<title>Node17&#45;&gt;Node11</title>
<g id="a_edge51_Node000017_Node000011"><a xlink:title=" ">
<path fill="none" stroke="#63b8ff" d="M763.47,-275.85C728.87,-261.78 675.12,-239.93 628.5,-221 602.53,-210.45 573.1,-198.52 551.22,-189.64"/>
<polygon fill="#63b8ff" stroke="#63b8ff" points="552.82,-186.51 542.24,-186 550.19,-193 552.82,-186.51"/>
</a>
</g>
</g>
<!-- Node17&#45;&gt;Node12 -->
<g id="edge52_Node000017_Node000012" class="edge">
<title>Node17&#45;&gt;Node12</title>
<g id="a_edge52_Node000017_Node000012"><a xlink:title=" ">
<path fill="none" stroke="#63b8ff" d="M794.81,-276.05C788.25,-255.81 776.31,-218.97 768.92,-196.19"/>
<polygon fill="#63b8ff" stroke="#63b8ff" points="772.32,-195.32 765.91,-186.89 765.66,-197.48 772.32,-195.32"/>
</a>
</g>
</g>
<!-- Node17&#45;&gt;Node13 -->
<g id="edge53_Node000017_Node000013" class="edge">
<title>Node17&#45;&gt;Node13</title>
<g id="a_edge53_Node000017_Node000013"><a xlink:title=" ">
<path fill="none" stroke="#63b8ff" d="M803.7,-276.03C806.57,-266.01 810.39,-252.36 813.5,-240.25 817.28,-225.52 821.2,-208.78 824.08,-196.14"/>
<polygon fill="#63b8ff" stroke="#63b8ff" points="827.45,-197.08 826.24,-186.56 820.63,-195.54 827.45,-197.08"/>
</a>
</g>
</g>
</g>
</svg>
