<?xml version="1.0" encoding="UTF-8" standalone="no"?>
<!DOCTYPE svg PUBLIC "-//W3C//DTD SVG 1.1//EN"
 "http://www.w3.org/Graphics/SVG/1.1/DTD/svg11.dtd">
<!-- Generated by graphviz version 12.2.1 (20241206.2353)
 -->
<!-- Title: gimo.hpp Pages: 1 -->
<!--zoomable 370 -->

<svg id="main" version="1.1" xmlns="http://www.w3.org/2000/svg" xmlns:xlink="http://www.w3.org/1999/xlink" xml:space="preserve" onload="init(evt)">

<style type="text/css"><![CDATA[
.node, .edge {opacity: 0.7;}
.node.selected, .edge.selected {opacity: 1;}
.edge:hover path { stroke: red; }
.edge:hover polygon { stroke: red; fill: red; }
]]></style>

<defs>
  <circle id="rim" cx="0" cy="0" r="7"/>
  <circle id="rim2" cx="0" cy="0" r="3.5"/>
  <g id="zoomPlus">
    <use xlink:href="#rim" fill="#404040"><set attributeName="fill" to="#808080" begin="zoomplus.mouseover" end="zoomplus.mouseout"/></use>
    <path d="M-4,0h8M0,-4v8" fill="none" stroke="white" stroke-width="1.5" pointer-events="none"/>
  </g>
  <g id="zoomMin">
    <use xlink:href="#rim" fill="#404040"><set attributeName="fill" to="#808080" begin="zoomminus.mouseover" end="zoomminus.mouseout"/></use>
    <path d="M-4,0h8" fill="none" stroke="white" stroke-width="1.5" pointer-events="none"/>
  </g>
  <g id="arrowUp" transform="translate(30 24)">
    <use xlink:href="#rim"/>
    <path pointer-events="none" fill="none" stroke="white" stroke-width="1.5" d="M0,-3.0v7 M-2.5,-0.5L0,-3.0L2.5,-0.5"/>
  </g>
  <g id="arrowRight" transform="rotate(90) translate(36 -43)">
    <use xlink:href="#rim"/>
    <path pointer-events="none" fill="none" stroke="white" stroke-width="1.5" d="M0,-3.0v7 M-2.5,-0.5L0,-3.0L2.5,-0.5"/>
  </g>
  <g id="arrowDown" transform="rotate(180) translate(-30 -48)">
    <use xlink:href="#rim"/>
    <path pointer-events="none" fill="none" stroke="white" stroke-width="1.5" d="M0,-3.0v7 M-2.5,-0.5L0,-3.0L2.5,-0.5"/>
  </g>
  <g id="arrowLeft" transform="rotate(270) translate(-36 17)">
    <use xlink:href="#rim"/>
    <path pointer-events="none" fill="none" stroke="white" stroke-width="1.5" d="M0,-3.0v7 M-2.5,-0.5L0,-3.0L2.5,-0.5"/>
  </g>
  <g id="resetDef">
    <use xlink:href="#rim2" fill="#404040"><set attributeName="fill" to="#808080" begin="reset.mouseover" end="reset.mouseout"/></use>
  </g>
</defs>
<script type="application/ecmascript">
var viewWidth = 1474;
var viewHeight = 370;
var sectionId = 'dynsection-0';
</script>
<script type="application/ecmascript" xlink:href="../../svg.min.js"/>
<svg id="graph" class="graph">
<g id="viewport">
<title>gimo.hpp</title>
<!-- Node1 -->
<g id="Node000001" class="node">
<title>Node1</title>
<g id="a_Node000001"><a xlink:title=" ">
<polygon fill="#999999" stroke="#666666" points="489,-362 434,-362 434,-342.75 489,-342.75 489,-362"/>
<text text-anchor="middle" x="461.5" y="-348.5" font-family="Helvetica,sans-Serif" font-size="10.00">gimo.hpp</text>
</a>
</g>
</g>
<!-- Node2 -->
<g id="Node000002" class="node">
<title>Node2</title>
<g id="a_Node000002"><a xlink:href="../../d7/d67/_version_8hpp.html" target="_top" xlink:title=" ">
<polygon fill="white" stroke="#666666" points="91,-301.12 0,-301.12 0,-281.88 91,-281.88 91,-301.12"/>
<text text-anchor="middle" x="45.5" y="-287.62" font-family="Helvetica,sans-Serif" font-size="10.00">gimo/Version.hpp</text>
</a>
</g>
</g>
<!-- Node1&#45;&gt;Node2 -->
<g id="edge1_Node000001_Node000002" class="edge">
<title>Node1&#45;&gt;Node2</title>
<g id="a_edge1_Node000001_Node000002"><a xlink:title=" ">
<path fill="none" stroke="#63b8ff" d="M433.65,-348.92C373.45,-343.39 226.86,-328.7 105.5,-306.75 101.12,-305.96 96.58,-305.05 92.05,-304.08"/>
<polygon fill="#63b8ff" stroke="#63b8ff" points="92.9,-300.68 82.38,-301.91 91.37,-307.51 92.9,-300.68"/>
</a>
</g>
</g>
<!-- Node3 -->
<g id="Node000003" class="node">
<title>Node3</title>
<g id="a_Node000003"><a xlink:href="../../d8/dd2/_config_8hpp.html" target="_top" xlink:title=" ">
<polygon fill="white" stroke="#666666" points="200,-74.5 115,-74.5 115,-55.25 200,-55.25 200,-74.5"/>
<text text-anchor="middle" x="157.5" y="-61" font-family="Helvetica,sans-Serif" font-size="10.00">gimo/Config.hpp</text>
</a>
</g>
</g>
<!-- Node1&#45;&gt;Node3 -->
<g id="edge2_Node000001_Node000003" class="edge">
<title>Node1&#45;&gt;Node3</title>
<g id="a_edge2_Node000001_Node000003"><a xlink:title=" ">
<path fill="none" stroke="#63b8ff" d="M433.51,-347.73C351.83,-336.31 119.5,-297.99 119.5,-231.62 119.5,-231.62 119.5,-231.62 119.5,-174.38 119.5,-141.38 135.34,-105.76 146.57,-84.66"/>
<polygon fill="#63b8ff" stroke="#63b8ff" points="149.52,-86.55 151.32,-76.11 143.4,-83.15 149.52,-86.55"/>
</a>
</g>
</g>
<!-- Node5 -->
<g id="Node000005" class="node">
<title>Node5</title>
<g id="a_Node000005"><a xlink:href="../../d3/d58/_common_8hpp.html" target="_top" xlink:title=" ">
<polygon fill="white" stroke="#666666" points="699,-129.75 602,-129.75 602,-110.5 699,-110.5 699,-129.75"/>
<text text-anchor="middle" x="650.5" y="-116.25" font-family="Helvetica,sans-Serif" font-size="10.00">gimo/Common.hpp</text>
</a>
</g>
</g>
<!-- Node1&#45;&gt;Node5 -->
<g id="edge4_Node000001_Node000005" class="edge">
<title>Node1&#45;&gt;Node5</title>
<g id="a_edge4_Node000001_Node000005"><a xlink:title=" ">
<path fill="none" stroke="#63b8ff" d="M433.64,-347.4C393.31,-341 321.78,-327.05 306.5,-306.75 298.35,-295.92 301.38,-288.8 306.5,-276.25 332.42,-212.66 353.97,-198.18 414.5,-165.75 469.4,-136.34 540.58,-126.05 590.35,-122.59"/>
<polygon fill="#63b8ff" stroke="#63b8ff" points="590.29,-126.1 600.06,-121.99 589.86,-119.12 590.29,-126.1"/>
</a>
</g>
</g>
<!-- Node10 -->
<g id="Node000010" class="node">
<title>Node10</title>
<g id="a_Node000010"><a xlink:href="../../d1/da8/_pipeline_8hpp.html" target="_top" xlink:title=" ">
<polygon fill="white" stroke="#666666" points="695.75,-240.25 603.25,-240.25 603.25,-221 695.75,-221 695.75,-240.25"/>
<text text-anchor="middle" x="649.5" y="-226.75" font-family="Helvetica,sans-Serif" font-size="10.00">gimo/Pipeline.hpp</text>
</a>
</g>
</g>
<!-- Node1&#45;&gt;Node10 -->
<g id="edge10_Node000001_Node000010" class="edge">
<title>Node1&#45;&gt;Node10</title>
<g id="a_edge10_Node000001_Node000010"><a xlink:title=" ">
<path fill="none" stroke="#63b8ff" d="M489.25,-349.5C521.67,-345.98 575.35,-335.85 610.5,-306.75 627.72,-292.5 638.24,-268.67 643.95,-251.67"/>
<polygon fill="#63b8ff" stroke="#63b8ff" points="647.27,-252.76 646.84,-242.18 640.58,-250.72 647.27,-252.76"/>
</a>
</g>
</g>
<!-- Node11 -->
<g id="Node000011" class="node">
<title>Node11</title>
<g id="a_Node000011"><a xlink:href="../../de/dca/_basic_algorithm_8hpp.html" target="_top" xlink:title=" ">
<polygon fill="white" stroke="#666666" points="622.88,-185 456.12,-185 456.12,-165.75 622.88,-165.75 622.88,-185"/>
<text text-anchor="middle" x="539.5" y="-171.5" font-family="Helvetica,sans-Serif" font-size="10.00">gimo/algorithm/BasicAlgorithm.hpp</text>
</a>
</g>
</g>
<!-- Node1&#45;&gt;Node11 -->
<g id="edge22_Node000001_Node000011" class="edge">
<title>Node1&#45;&gt;Node11</title>
<g id="a_edge22_Node000001_Node000011"><a xlink:title=" ">
<path fill="none" stroke="#63b8ff" d="M433.71,-349.24C381.98,-344.02 278.56,-327.09 306.5,-276.25 334.7,-224.94 396.51,-199.98 449.39,-187.85"/>
<polygon fill="#63b8ff" stroke="#63b8ff" points="450.01,-191.3 459.04,-185.77 448.53,-184.46 450.01,-191.3"/>
</a>
</g>
</g>
<!-- Node14 -->
<g id="Node000014" class="node">
<title>Node14</title>
<g id="a_Node000014"><a xlink:href="../../d6/d3f/_and_then_8hpp.html" target="_top" xlink:title=" ">
<polygon fill="white" stroke="#666666" points="455.38,-301.12 315.62,-301.12 315.62,-281.88 455.38,-281.88 455.38,-301.12"/>
<text text-anchor="middle" x="385.5" y="-287.62" font-family="Helvetica,sans-Serif" font-size="10.00">gimo/algorithm/AndThen.hpp</text>
</a>
</g>
</g>
<!-- Node1&#45;&gt;Node14 -->
<g id="edge23_Node000001_Node000014" class="edge">
<title>Node1&#45;&gt;Node14</title>
<g id="a_edge23_Node000001_Node000014"><a xlink:title=" ">
<path fill="none" stroke="#63b8ff" d="M449.96,-342.43C438.35,-333.44 420.21,-319.39 406.12,-308.48"/>
<polygon fill="#63b8ff" stroke="#63b8ff" points="408.4,-305.81 398.35,-302.45 404.11,-311.34 408.4,-305.81"/>
</a>
</g>
</g>
<!-- Node15 -->
<g id="Node000015" class="node">
<title>Node15</title>
<g id="a_Node000015"><a xlink:href="../../d4/d96/_or_else_8hpp.html" target="_top" xlink:title=" ">
<polygon fill="white" stroke="#666666" points="1320.5,-301.12 1190.5,-301.12 1190.5,-281.88 1320.5,-281.88 1320.5,-301.12"/>
<text text-anchor="middle" x="1255.5" y="-287.62" font-family="Helvetica,sans-Serif" font-size="10.00">gimo/algorithm/OrElse.hpp</text>
</a>
</g>
</g>
<!-- Node1&#45;&gt;Node15 -->
<g id="edge31_Node000001_Node000015" class="edge">
<title>Node1&#45;&gt;Node15</title>
<g id="a_edge31_Node000001_Node000015"><a xlink:title=" ">
<path fill="none" stroke="#63b8ff" d="M489.46,-349.62C578.45,-344 863.12,-325.67 1098.5,-306.75 1124.76,-304.64 1153.47,-302.1 1179.07,-299.75"/>
<polygon fill="#63b8ff" stroke="#63b8ff" points="1179.07,-303.27 1188.71,-298.87 1178.43,-296.3 1179.07,-303.27"/>
</a>
</g>
</g>
<!-- Node16 -->
<g id="Node000016" class="node">
<title>Node16</title>
<g id="a_Node000016"><a xlink:href="../../d9/d8c/_transform_8hpp.html" target="_top" xlink:title=" ">
<polygon fill="white" stroke="#666666" points="875,-301.12 730,-301.12 730,-281.88 875,-281.88 875,-301.12"/>
<text text-anchor="middle" x="802.5" y="-287.62" font-family="Helvetica,sans-Serif" font-size="10.00">gimo/algorithm/Transform.hpp</text>
</a>
</g>
</g>
<!-- Node1&#45;&gt;Node16 -->
<g id="edge40_Node000001_Node000016" class="edge">
<title>Node1&#45;&gt;Node16</title>
<g id="a_edge40_Node000001_Node000016"><a xlink:title=" ">
<path fill="none" stroke="#63b8ff" d="M489.41,-346.56C543.49,-337.22 663.84,-316.44 738.58,-303.54"/>
<polygon fill="#63b8ff" stroke="#63b8ff" points="738.96,-307.02 748.22,-301.87 737.77,-300.12 738.96,-307.02"/>
</a>
</g>
</g>
<!-- Node17 -->
<g id="Node000017" class="node">
<title>Node17</title>
<g id="a_Node000017"><a xlink:href="../../d9/d45/_transform_error_8hpp.html" target="_top" xlink:title=" ">
<polygon fill="white" stroke="#666666" points="601,-306.75 474,-306.75 474,-276.25 601,-276.25 601,-306.75"/>
<text text-anchor="start" x="482" y="-293.25" font-family="Helvetica,sans-Serif" font-size="10.00">gimo/algorithm/Transform</text>
<text text-anchor="middle" x="537.5" y="-282" font-family="Helvetica,sans-Serif" font-size="10.00">Error.hpp</text>
</a>
</g>
</g>
<!-- Node1&#45;&gt;Node17 -->
<g id="edge48_Node000001_Node000017" class="edge">
<title>Node1&#45;&gt;Node17</title>
<g id="a_edge48_Node000001_Node000017"><a xlink:title=" ">
<path fill="none" stroke="#63b8ff" d="M473.04,-342.43C482.8,-334.87 497.18,-323.74 509.88,-313.9"/>
<polygon fill="#63b8ff" stroke="#63b8ff" points="511.78,-316.85 517.54,-307.96 507.5,-311.32 511.78,-316.85"/>
</a>
</g>
</g>
<!-- Node18 -->
<g id="Node000018" class="node">
<title>Node18</title>
<g id="a_Node000018"><a xlink:href="../../d2/d0b/_value_or_else_8hpp.html" target="_top" xlink:title=" ">
<polygon fill="white" stroke="#666666" points="1089.88,-301.12 935.12,-301.12 935.12,-281.88 1089.88,-281.88 1089.88,-301.12"/>
<text text-anchor="middle" x="1012.5" y="-287.62" font-family="Helvetica,sans-Serif" font-size="10.00">gimo/algorithm/ValueOrElse.hpp</text>
</a>
</g>
</g>
<!-- Node1&#45;&gt;Node18 -->
<g id="edge56_Node000001_Node000018" class="edge">
<title>Node1&#45;&gt;Node18</title>
<g id="a_edge56_Node000001_Node000018"><a xlink:title=" ">
<path fill="none" stroke="#63b8ff" d="M489.47,-348.48C557.25,-341.45 735.65,-322.89 884.5,-306.75 897.05,-305.39 910.29,-303.94 923.31,-302.5"/>
<polygon fill="#63b8ff" stroke="#63b8ff" points="923.61,-305.98 933.16,-301.4 922.84,-299.03 923.61,-305.98"/>
</a>
</g>
</g>
<!-- Node4 -->
<g id="Node000004" class="node">
<title>Node4</title>
<g id="a_Node000004"><a xlink:title=" ">
<polygon fill="#e0e0e0" stroke="#999999" points="181.62,-19.25 133.38,-19.25 133.38,0 181.62,0 181.62,-19.25"/>
<text text-anchor="middle" x="157.5" y="-5.75" font-family="Helvetica,sans-Serif" font-size="10.00">cassert</text>
</a>
</g>
</g>
<!-- Node3&#45;&gt;Node4 -->
<g id="edge3_Node000003_Node000004" class="edge">
<title>Node3&#45;&gt;Node4</title>
<g id="a_edge3_Node000003_Node000004"><a xlink:title=" ">
<path fill="none" stroke="#63b8ff" d="M157.5,-55.08C157.5,-48.57 157.5,-39.42 157.5,-31.12"/>
<polygon fill="#63b8ff" stroke="#63b8ff" points="161,-31.12 157.5,-21.12 154,-31.12 161,-31.12"/>
</a>
</g>
</g>
<!-- Node5&#45;&gt;Node3 -->
<g id="edge5_Node000005_Node000003" class="edge">
<title>Node5&#45;&gt;Node3</title>
<g id="a_edge5_Node000005_Node000003"><a xlink:title=" ">
<path fill="none" stroke="#63b8ff" d="M601.88,-113.87C509.32,-103.88 308.43,-82.18 211.7,-71.73"/>
<polygon fill="#63b8ff" stroke="#63b8ff" points="212.26,-68.27 201.94,-70.68 211.51,-75.23 212.26,-68.27"/>
</a>
</g>
</g>
<!-- Node6 -->
<g id="Node000006" class="node">
<title>Node6</title>
<g id="a_Node000006"><a xlink:title=" ">
<polygon fill="#e0e0e0" stroke="#999999" points="1142.38,-74.5 1086.62,-74.5 1086.62,-55.25 1142.38,-55.25 1142.38,-74.5"/>
<text text-anchor="middle" x="1114.5" y="-61" font-family="Helvetica,sans-Serif" font-size="10.00">concepts</text>
</a>
</g>
</g>
<!-- Node5&#45;&gt;Node6 -->
<g id="edge6_Node000005_Node000006" class="edge">
<title>Node5&#45;&gt;Node6</title>
<g id="a_edge6_Node000005_Node000006"><a xlink:title=" ">
<path fill="none" stroke="#63b8ff" d="M699.32,-112.32C704.11,-111.69 708.9,-111.07 713.5,-110.5 845.86,-94.08 1003.15,-77.4 1075.07,-69.93"/>
<polygon fill="#63b8ff" stroke="#63b8ff" points="1075.18,-73.44 1084.77,-68.92 1074.46,-66.47 1075.18,-73.44"/>
</a>
</g>
</g>
<!-- Node7 -->
<g id="Node000007" class="node">
<title>Node7</title>
<g id="a_Node000007"><a xlink:title=" ">
<polygon fill="#e0e0e0" stroke="#999999" points="674.62,-74.5 626.38,-74.5 626.38,-55.25 674.62,-55.25 674.62,-74.5"/>
<text text-anchor="middle" x="650.5" y="-61" font-family="Helvetica,sans-Serif" font-size="10.00">cstddef</text>
</a>
</g>
</g>
<!-- Node5&#45;&gt;Node7 -->
<g id="edge7_Node000005_Node000007" class="edge">
<title>Node5&#45;&gt;Node7</title>
<g id="a_edge7_Node000005_Node000007"><a xlink:title=" ">
<path fill="none" stroke="#63b8ff" d="M650.5,-110.33C650.5,-103.82 650.5,-94.67 650.5,-86.37"/>
<polygon fill="#63b8ff" stroke="#63b8ff" points="654,-86.37 650.5,-76.37 647,-86.37 654,-86.37"/>
</a>
</g>
</g>
<!-- Node8 -->
<g id="Node000008" class="node">
<title>Node8</title>
<g id="a_Node000008"><a xlink:title=" ">
<polygon fill="#e0e0e0" stroke="#999999" points="439,-74.5 378,-74.5 378,-55.25 439,-55.25 439,-74.5"/>
<text text-anchor="middle" x="408.5" y="-61" font-family="Helvetica,sans-Serif" font-size="10.00">type_traits</text>
</a>
</g>
</g>
<!-- Node5&#45;&gt;Node8 -->
<g id="edge8_Node000005_Node000008" class="edge">
<title>Node5&#45;&gt;Node8</title>
<g id="a_edge8_Node000005_Node000008"><a xlink:title=" ">
<path fill="none" stroke="#63b8ff" d="M609.17,-110.03C564.84,-100.28 494.82,-84.87 450.3,-75.07"/>
<polygon fill="#63b8ff" stroke="#63b8ff" points="451.28,-71.71 440.77,-72.97 449.78,-78.54 451.28,-71.71"/>
</a>
</g>
</g>
<!-- Node9 -->
<g id="Node000009" class="node">
<title>Node9</title>
<g id="a_Node000009"><a xlink:title=" ">
<polygon fill="#e0e0e0" stroke="#999999" points="776.75,-74.5 738.25,-74.5 738.25,-55.25 776.75,-55.25 776.75,-74.5"/>
<text text-anchor="middle" x="757.5" y="-61" font-family="Helvetica,sans-Serif" font-size="10.00">utility</text>
</a>
</g>
</g>
<!-- Node5&#45;&gt;Node9 -->
<g id="edge9_Node000005_Node000009" class="edge">
<title>Node5&#45;&gt;Node9</title>
<g id="a_edge9_Node000005_Node000009"><a xlink:title=" ">
<path fill="none" stroke="#63b8ff" d="M668.65,-110.09C685.18,-101.87 709.84,-89.59 729,-80.06"/>
<polygon fill="#63b8ff" stroke="#63b8ff" points="730.51,-83.22 737.9,-75.63 727.39,-76.95 730.51,-83.22"/>
</a>
</g>
</g>
<!-- Node10&#45;&gt;Node5 -->
<g id="edge11_Node000010_Node000005" class="edge">
<title>Node10&#45;&gt;Node5</title>
<g id="a_edge11_Node000010_Node000005"><a xlink:title=" ">
<path fill="none" stroke="#63b8ff" d="M653.5,-220.62C657.19,-211.76 662.42,-197.74 664.5,-185 666.94,-170.06 663.04,-153.35 658.74,-140.77"/>
<polygon fill="#63b8ff" stroke="#63b8ff" points="662.07,-139.67 655.23,-131.58 655.53,-142.17 662.07,-139.67"/>
</a>
</g>
</g>
<!-- Node10&#45;&gt;Node8 -->
<g id="edge20_Node000010_Node000008" class="edge">
<title>Node10&#45;&gt;Node8</title>
<g id="a_edge20_Node000010_Node000008"><a xlink:title=" ">
<path fill="none" stroke="#63b8ff" d="M603.16,-224.72C550.82,-218.29 469.99,-205.37 447.5,-185 419.22,-159.39 411.38,-112.99 409.25,-86.29"/>
<polygon fill="#63b8ff" stroke="#63b8ff" points="412.76,-86.23 408.69,-76.45 405.77,-86.63 412.76,-86.23"/>
</a>
</g>
</g>
<!-- Node10&#45;&gt;Node9 -->
<g id="edge21_Node000010_Node000009" class="edge">
<title>Node10&#45;&gt;Node9</title>
<g id="a_edge21_Node000010_Node000009"><a xlink:title=" ">
<path fill="none" stroke="#63b8ff" d="M655.31,-220.82C672.3,-195.05 722.2,-119.4 745.39,-84.24"/>
<polygon fill="#63b8ff" stroke="#63b8ff" points="748.25,-86.26 750.83,-75.99 742.4,-82.41 748.25,-86.26"/>
</a>
</g>
</g>
<!-- Node10&#45;&gt;Node11 -->
<g id="edge12_Node000010_Node000011" class="edge">
<title>Node10&#45;&gt;Node11</title>
<g id="a_edge12_Node000010_Node000011"><a xlink:title=" ">
<path fill="none" stroke="#63b8ff" d="M630.84,-220.59C613.77,-212.33 588.26,-199.98 568.53,-190.43"/>
<polygon fill="#63b8ff" stroke="#63b8ff" points="570.14,-187.32 559.61,-186.11 567.09,-193.62 570.14,-187.32"/>
</a>
</g>
</g>
<!-- Node12 -->
<g id="Node000012" class="node">
<title>Node12</title>
<g id="a_Node000012"><a xlink:title=" ">
<polygon fill="#e0e0e0" stroke="#999999" points="889.5,-185 831.5,-185 831.5,-165.75 889.5,-165.75 889.5,-185"/>
<text text-anchor="middle" x="860.5" y="-171.5" font-family="Helvetica,sans-Serif" font-size="10.00">functional</text>
</a>
</g>
</g>
<!-- Node10&#45;&gt;Node12 -->
<g id="edge18_Node000010_Node000012" class="edge">
<title>Node10&#45;&gt;Node12</title>
<g id="a_edge18_Node000010_Node000012"><a xlink:title=" ">
<path fill="none" stroke="#63b8ff" d="M685.29,-220.59C722.64,-211.17 781.08,-196.42 820.07,-186.58"/>
<polygon fill="#63b8ff" stroke="#63b8ff" points="820.7,-190.03 829.54,-184.19 818.99,-183.24 820.7,-190.03"/>
</a>
</g>
</g>
<!-- Node13 -->
<g id="Node000013" class="node">
<title>Node13</title>
<g id="a_Node000013"><a xlink:title=" ">
<polygon fill="#e0e0e0" stroke="#999999" points="951,-185 914,-185 914,-165.75 951,-165.75 951,-185"/>
<text text-anchor="middle" x="932.5" y="-171.5" font-family="Helvetica,sans-Serif" font-size="10.00">tuple</text>
</a>
</g>
</g>
<!-- Node10&#45;&gt;Node13 -->
<g id="edge19_Node000010_Node000013" class="edge">
<title>Node10&#45;&gt;Node13</title>
<g id="a_edge19_Node000010_Node000013"><a xlink:title=" ">
<path fill="none" stroke="#63b8ff" d="M696.04,-222.3C746.21,-214.17 828.32,-200.17 898.5,-185 899.91,-184.7 901.34,-184.37 902.79,-184.04"/>
<polygon fill="#63b8ff" stroke="#63b8ff" points="903.49,-187.47 912.38,-181.72 901.84,-180.67 903.49,-187.47"/>
</a>
</g>
</g>
<!-- Node11&#45;&gt;Node3 -->
<g id="edge14_Node000011_Node000003" class="edge">
<title>Node11&#45;&gt;Node3</title>
<g id="a_edge14_Node000011_Node000003"><a xlink:title=" ">
<path fill="none" stroke="#63b8ff" d="M507.59,-165.31C439.05,-145.84 277.75,-100.03 200.38,-78.05"/>
<polygon fill="#63b8ff" stroke="#63b8ff" points="201.62,-74.77 191.05,-75.4 199.71,-81.5 201.62,-74.77"/>
</a>
</g>
</g>
<!-- Node11&#45;&gt;Node5 -->
<g id="edge13_Node000011_Node000005" class="edge">
<title>Node11&#45;&gt;Node5</title>
<g id="a_edge13_Node000011_Node000005"><a xlink:title=" ">
<path fill="none" stroke="#63b8ff" d="M558.33,-165.34C575.55,-157.08 601.3,-144.73 621.21,-135.18"/>
<polygon fill="#63b8ff" stroke="#63b8ff" points="622.71,-138.34 630.21,-130.86 619.68,-132.03 622.71,-138.34"/>
</a>
</g>
</g>
<!-- Node11&#45;&gt;Node6 -->
<g id="edge15_Node000011_Node000006" class="edge">
<title>Node11&#45;&gt;Node6</title>
<g id="a_edge15_Node000011_Node000006"><a xlink:title=" ">
<path fill="none" stroke="#63b8ff" d="M587.54,-165.31C698.9,-144.3 972.99,-92.58 1075.22,-73.29"/>
<polygon fill="#63b8ff" stroke="#63b8ff" points="1075.59,-76.78 1084.77,-71.49 1074.29,-69.9 1075.59,-76.78"/>
</a>
</g>
</g>
<!-- Node11&#45;&gt;Node8 -->
<g id="edge16_Node000011_Node000008" class="edge">
<title>Node11&#45;&gt;Node8</title>
<g id="a_edge16_Node000011_Node000008"><a xlink:title=" ">
<path fill="none" stroke="#63b8ff" d="M528.78,-165.5C506.71,-147.22 455.92,-105.15 427.92,-81.96"/>
<polygon fill="#63b8ff" stroke="#63b8ff" points="430.47,-79.53 420.53,-75.84 426,-84.92 430.47,-79.53"/>
</a>
</g>
</g>
<!-- Node11&#45;&gt;Node9 -->
<g id="edge17_Node000011_Node000009" class="edge">
<title>Node11&#45;&gt;Node9</title>
<g id="a_edge17_Node000011_Node000009"><a xlink:title=" ">
<path fill="none" stroke="#63b8ff" d="M544.56,-165.47C552.93,-151.57 570.97,-124.86 593.5,-110.5 634.9,-84.12 691.76,-73.18 726.5,-68.75"/>
<polygon fill="#63b8ff" stroke="#63b8ff" points="726.77,-72.25 736.3,-67.62 725.96,-65.29 726.77,-72.25"/>
</a>
</g>
</g>
<!-- Node14&#45;&gt;Node5 -->
<g id="edge24_Node000014_Node000005" class="edge">
<title>Node14&#45;&gt;Node5</title>
<g id="a_edge24_Node000014_Node000005"><a xlink:title=" ">
<path fill="none" stroke="#63b8ff" d="M384.74,-281.44C383.96,-267.67 384,-240.96 393.5,-221 408.26,-190 417.48,-182.41 447.5,-165.75 491.72,-141.21 548.36,-130.17 590.58,-125.19"/>
<polygon fill="#63b8ff" stroke="#63b8ff" points="590.73,-128.7 600.3,-124.14 589.98,-121.74 590.73,-128.7"/>
</a>
</g>
</g>
<!-- Node14&#45;&gt;Node8 -->
<g id="edge29_Node000014_Node000008" class="edge">
<title>Node14&#45;&gt;Node8</title>
<g id="a_edge29_Node000014_Node000008"><a xlink:title=" ">
<path fill="none" stroke="#63b8ff" d="M343.22,-281.4C316.33,-273.93 282.08,-261.09 257.5,-240.25 212.11,-201.77 187.72,-157.27 224.5,-110.5 241.85,-88.43 317.96,-75.95 366.7,-70.08"/>
<polygon fill="#63b8ff" stroke="#63b8ff" points="366.81,-73.59 376.34,-68.97 366.01,-66.64 366.81,-73.59"/>
</a>
</g>
</g>
<!-- Node14&#45;&gt;Node9 -->
<g id="edge30_Node000014_Node000009" class="edge">
<title>Node14&#45;&gt;Node9</title>
<g id="a_edge30_Node000014_Node000009"><a xlink:title=" ">
<path fill="none" stroke="#63b8ff" d="M383.02,-281.54C379.72,-267.89 375.21,-241.34 383.5,-221 410.25,-155.36 434.78,-141.54 498.5,-110.5 518.78,-100.62 662.28,-79.38 726.53,-70.22"/>
<polygon fill="#63b8ff" stroke="#63b8ff" points="727,-73.69 736.41,-68.82 726.02,-66.76 727,-73.69"/>
</a>
</g>
</g>
<!-- Node14&#45;&gt;Node10 -->
<g id="edge25_Node000014_Node000010" class="edge">
<title>Node14&#45;&gt;Node10</title>
<g id="a_edge25_Node000014_Node000010"><a xlink:title=" ">
<path fill="none" stroke="#63b8ff" d="M426.17,-281.43C472.29,-271.14 547.59,-254.35 597.84,-243.15"/>
<polygon fill="#63b8ff" stroke="#63b8ff" points="598.31,-246.63 607.31,-241.03 596.78,-239.8 598.31,-246.63"/>
</a>
</g>
</g>
<!-- Node14&#45;&gt;Node11 -->
<g id="edge26_Node000014_Node000011" class="edge">
<title>Node14&#45;&gt;Node11</title>
<g id="a_edge26_Node000014_Node000011"><a xlink:title=" ">
<path fill="none" stroke="#63b8ff" d="M386.13,-281.52C387.64,-266.86 392.7,-237.77 409.5,-221 425.18,-205.35 446.57,-195.19 467.49,-188.58"/>
<polygon fill="#63b8ff" stroke="#63b8ff" points="468.25,-192 476.89,-185.86 466.31,-185.28 468.25,-192"/>
</a>
</g>
</g>
<!-- Node14&#45;&gt;Node12 -->
<g id="edge27_Node000014_Node000012" class="edge">
<title>Node14&#45;&gt;Node12</title>
<g id="a_edge27_Node000014_Node000012"><a xlink:title=" ">
<path fill="none" stroke="#63b8ff" d="M408.66,-281.48C446.85,-266.92 525.66,-238.11 594.5,-221 673.29,-201.42 767.37,-187.89 819.89,-181.2"/>
<polygon fill="#63b8ff" stroke="#63b8ff" points="820.08,-184.7 829.57,-179.99 819.21,-177.76 820.08,-184.7"/>
</a>
</g>
</g>
<!-- Node14&#45;&gt;Node13 -->
<g id="edge28_Node000014_Node000013" class="edge">
<title>Node14&#45;&gt;Node13</title>
<g id="a_edge28_Node000014_Node000013"><a xlink:title=" ">
<path fill="none" stroke="#63b8ff" d="M435.39,-281.4C445.36,-279.64 455.76,-277.85 465.5,-276.25 571.5,-258.83 599.47,-262.78 704.5,-240.25 776.66,-224.77 859.75,-199.59 902.94,-185.92"/>
<polygon fill="#63b8ff" stroke="#63b8ff" points="903.87,-189.3 912.34,-182.93 901.75,-182.63 903.87,-189.3"/>
</a>
</g>
</g>
<!-- Node15&#45;&gt;Node5 -->
<g id="edge32_Node000015_Node000005" class="edge">
<title>Node15&#45;&gt;Node5</title>
<g id="a_edge32_Node000015_Node000005"><a xlink:title=" ">
<path fill="none" stroke="#63b8ff" d="M1241.31,-281.41C1203.84,-257.89 1098.44,-194.84 1001.5,-165.75 902.29,-135.98 781.5,-126.07 710.6,-122.77"/>
<polygon fill="#63b8ff" stroke="#63b8ff" points="710.88,-119.28 700.74,-122.34 710.58,-126.27 710.88,-119.28"/>
</a>
</g>
</g>
<!-- Node15&#45;&gt;Node6 -->
<g id="edge35_Node000015_Node000006" class="edge">
<title>Node15&#45;&gt;Node6</title>
<g id="a_edge35_Node000015_Node000006"><a xlink:title=" ">
<path fill="none" stroke="#63b8ff" d="M1320.94,-283.13C1373.92,-275.65 1442.43,-262.03 1459.5,-240.25 1469.93,-226.94 1467.46,-191.91 1450.5,-165.75 1426.19,-128.26 1408.02,-127.01 1366.5,-110.5 1295.03,-82.07 1204.98,-71.69 1154.16,-67.94"/>
<polygon fill="#63b8ff" stroke="#63b8ff" points="1154.45,-64.45 1144.24,-67.26 1153.98,-71.44 1154.45,-64.45"/>
</a>
</g>
</g>
<!-- Node15&#45;&gt;Node8 -->
<g id="edge38_Node000015_Node000008" class="edge">
<title>Node15&#45;&gt;Node8</title>
<g id="a_edge38_Node000015_Node000008"><a xlink:title=" ">
<path fill="none" stroke="#63b8ff" d="M1245.82,-281.48C1230.23,-267.28 1198.21,-239.44 1167.5,-221 1115.08,-189.52 1097.74,-189.76 1041.5,-165.75 982.63,-140.62 970.65,-125.8 908.5,-110.5 822.03,-89.21 554.95,-73.47 450.75,-67.99"/>
<polygon fill="#63b8ff" stroke="#63b8ff" points="451.13,-64.51 440.96,-67.48 450.77,-71.5 451.13,-64.51"/>
</a>
</g>
</g>
<!-- Node15&#45;&gt;Node9 -->
<g id="edge39_Node000015_Node000009" class="edge">
<title>Node15&#45;&gt;Node9</title>
<g id="a_edge39_Node000015_Node000009"><a xlink:title=" ">
<path fill="none" stroke="#63b8ff" d="M1320.99,-285.32C1379.45,-278.03 1451.55,-260.85 1421.5,-221 1343.04,-116.93 908.33,-77.12 788.24,-68.02"/>
<polygon fill="#63b8ff" stroke="#63b8ff" points="788.75,-64.55 778.52,-67.3 788.23,-71.53 788.75,-64.55"/>
</a>
</g>
</g>
<!-- Node15&#45;&gt;Node10 -->
<g id="edge33_Node000015_Node000010" class="edge">
<title>Node15&#45;&gt;Node10</title>
<g id="a_edge33_Node000015_Node000010"><a xlink:title=" ">
<path fill="none" stroke="#63b8ff" d="M1190.07,-284.14C1070.98,-272.57 820.65,-248.25 707.37,-237.25"/>
<polygon fill="#63b8ff" stroke="#63b8ff" points="707.99,-233.79 697.7,-236.31 707.32,-240.76 707.99,-233.79"/>
</a>
</g>
</g>
<!-- Node15&#45;&gt;Node11 -->
<g id="edge34_Node000015_Node000011" class="edge">
<title>Node15&#45;&gt;Node11</title>
<g id="a_edge34_Node000015_Node000011"><a xlink:title=" ">
<path fill="none" stroke="#63b8ff" d="M1198.42,-281.4C1067.94,-260.6 748.32,-209.66 607.74,-187.25"/>
<polygon fill="#63b8ff" stroke="#63b8ff" points="608.64,-183.85 598.22,-185.73 607.54,-190.76 608.64,-183.85"/>
</a>
</g>
</g>
<!-- Node15&#45;&gt;Node12 -->
<g id="edge36_Node000015_Node000012" class="edge">
<title>Node15&#45;&gt;Node12</title>
<g id="a_edge36_Node000015_Node000012"><a xlink:title=" ">
<path fill="none" stroke="#63b8ff" d="M1237.43,-281.44C1217.39,-271.39 1184.12,-254.69 1155.5,-240.25 1138.6,-231.72 1135.48,-226.93 1117.5,-221 1026.74,-191.07 999.55,-202 905.5,-185 903.89,-184.71 902.24,-184.41 900.58,-184.1"/>
<polygon fill="#63b8ff" stroke="#63b8ff" points="901.49,-180.71 891.02,-182.31 900.2,-187.59 901.49,-180.71"/>
</a>
</g>
</g>
<!-- Node15&#45;&gt;Node13 -->
<g id="edge37_Node000015_Node000013" class="edge">
<title>Node15&#45;&gt;Node13</title>
<g id="a_edge37_Node000015_Node000013"><a xlink:title=" ">
<path fill="none" stroke="#63b8ff" d="M1229.88,-281.45C1170.75,-260.55 1024.97,-209.05 962.12,-186.84"/>
<polygon fill="#63b8ff" stroke="#63b8ff" points="963.41,-183.59 952.82,-183.55 961.08,-190.19 963.41,-183.59"/>
</a>
</g>
</g>
<!-- Node16&#45;&gt;Node5 -->
<g id="edge41_Node000016_Node000005" class="edge">
<title>Node16&#45;&gt;Node5</title>
<g id="a_edge41_Node000016_Node000005"><a xlink:title=" ">
<path fill="none" stroke="#63b8ff" d="M832.74,-281.4C890.09,-262.68 1005.13,-217.26 960.5,-165.75 952.39,-156.38 798.6,-137.73 710.75,-127.76"/>
<polygon fill="#63b8ff" stroke="#63b8ff" points="711.17,-124.29 700.84,-126.64 710.38,-131.24 711.17,-124.29"/>
</a>
</g>
</g>
<!-- Node16&#45;&gt;Node8 -->
<g id="edge46_Node000016_Node000008" class="edge">
<title>Node16&#45;&gt;Node8</title>
<g id="a_edge46_Node000016_Node000008"><a xlink:title=" ">
<path fill="none" stroke="#63b8ff" d="M868.22,-281.45C897.87,-274.46 931.53,-262.1 955.5,-240.25 981.21,-216.82 1001.5,-192.69 979.5,-165.75 912.66,-83.9 571.22,-69.13 450.7,-66.46"/>
<polygon fill="#63b8ff" stroke="#63b8ff" points="450.99,-62.97 440.92,-66.26 450.85,-69.97 450.99,-62.97"/>
</a>
</g>
</g>
<!-- Node16&#45;&gt;Node9 -->
<g id="edge47_Node000016_Node000009" class="edge">
<title>Node16&#45;&gt;Node9</title>
<g id="a_edge47_Node000016_Node000009"><a xlink:title=" ">
<path fill="none" stroke="#63b8ff" d="M865.63,-281.39C932.62,-271.09 1030.38,-253.95 1041.5,-240.25 1062.37,-214.54 1060.64,-192.77 1041.5,-165.75 982.71,-82.76 849.2,-68.23 788.53,-66.03"/>
<polygon fill="#63b8ff" stroke="#63b8ff" points="788.68,-62.53 778.59,-65.77 788.5,-69.53 788.68,-62.53"/>
</a>
</g>
</g>
<!-- Node16&#45;&gt;Node10 -->
<g id="edge42_Node000016_Node000010" class="edge">
<title>Node16&#45;&gt;Node10</title>
<g id="a_edge42_Node000016_Node000010"><a xlink:title=" ">
<path fill="none" stroke="#63b8ff" d="M778.93,-281.43C753.43,-271.62 712.56,-255.89 683.57,-244.73"/>
<polygon fill="#63b8ff" stroke="#63b8ff" points="685.1,-241.57 674.51,-241.25 682.59,-248.11 685.1,-241.57"/>
</a>
</g>
</g>
<!-- Node16&#45;&gt;Node11 -->
<g id="edge43_Node000016_Node000011" class="edge">
<title>Node16&#45;&gt;Node11</title>
<g id="a_edge43_Node000016_Node000011"><a xlink:title=" ">
<path fill="none" stroke="#63b8ff" d="M729.91,-284.12C687.89,-277.8 635.39,-265.24 594.5,-240.25 576.01,-228.95 560.51,-209.36 550.73,-194.84"/>
<polygon fill="#63b8ff" stroke="#63b8ff" points="553.81,-193.17 545.47,-186.63 547.92,-196.94 553.81,-193.17"/>
</a>
</g>
</g>
<!-- Node16&#45;&gt;Node12 -->
<g id="edge44_Node000016_Node000012" class="edge">
<title>Node16&#45;&gt;Node12</title>
<g id="a_edge44_Node000016_Node000012"><a xlink:title=" ">
<path fill="none" stroke="#63b8ff" d="M807.05,-281.54C816.45,-263.04 838.2,-220.26 850.87,-195.33"/>
<polygon fill="#63b8ff" stroke="#63b8ff" points="853.87,-197.14 855.28,-186.64 847.63,-193.97 853.87,-197.14"/>
</a>
</g>
</g>
<!-- Node16&#45;&gt;Node13 -->
<g id="edge45_Node000016_Node000013" class="edge">
<title>Node16&#45;&gt;Node13</title>
<g id="a_edge45_Node000016_Node000013"><a xlink:title=" ">
<path fill="none" stroke="#63b8ff" d="M823.94,-281.49C842.73,-272.85 869.99,-258.46 889.5,-240.25 903.53,-227.15 915.35,-208.65 923.03,-194.92"/>
<polygon fill="#63b8ff" stroke="#63b8ff" points="925.92,-196.94 927.54,-186.47 919.74,-193.64 925.92,-196.94"/>
</a>
</g>
</g>
<!-- Node17&#45;&gt;Node5 -->
<g id="edge49_Node000017_Node000005" class="edge">
<title>Node17&#45;&gt;Node5</title>
<g id="a_edge49_Node000017_Node000005"><a xlink:title=" ">
<path fill="none" stroke="#63b8ff" d="M548.62,-276C559.79,-261.66 577.71,-239.27 594.5,-221 610.02,-204.1 619.62,-204.63 631.5,-185 639.67,-171.5 644.53,-154.25 647.28,-141.08"/>
<polygon fill="#63b8ff" stroke="#63b8ff" points="650.69,-141.92 649.05,-131.45 643.8,-140.65 650.69,-141.92"/>
</a>
</g>
</g>
<!-- Node17&#45;&gt;Node8 -->
<g id="edge54_Node000017_Node000008" class="edge">
<title>Node17&#45;&gt;Node8</title>
<g id="a_edge54_Node000017_Node000008"><a xlink:title=" ">
<path fill="none" stroke="#63b8ff" d="M475.15,-275.9C428.52,-261.35 367.93,-233.92 338.5,-185 316.39,-148.25 359.31,-104.73 387.2,-81.82"/>
<polygon fill="#63b8ff" stroke="#63b8ff" points="389.12,-84.77 394.79,-75.82 384.77,-79.28 389.12,-84.77"/>
</a>
</g>
</g>
<!-- Node17&#45;&gt;Node9 -->
<g id="edge55_Node000017_Node000009" class="edge">
<title>Node17&#45;&gt;Node9</title>
<g id="a_edge55_Node000017_Node000009"><a xlink:title=" ">
<path fill="none" stroke="#63b8ff" d="M513.29,-275.89C478.46,-252.97 421.14,-206.9 447.5,-165.75 478.41,-117.49 654.75,-83.03 726.82,-70.78"/>
<polygon fill="#63b8ff" stroke="#63b8ff" points="727.06,-74.29 736.35,-69.19 725.91,-67.39 727.06,-74.29"/>
</a>
</g>
</g>
<!-- Node17&#45;&gt;Node10 -->
<g id="edge50_Node000017_Node000010" class="edge">
<title>Node17&#45;&gt;Node10</title>
<g id="a_edge50_Node000017_Node000010"><a xlink:title=" ">
<path fill="none" stroke="#63b8ff" d="M565.47,-275.8C582.86,-266.66 605.1,-254.97 622.33,-245.91"/>
<polygon fill="#63b8ff" stroke="#63b8ff" points="623.76,-249.11 630.98,-241.36 620.5,-242.91 623.76,-249.11"/>
</a>
</g>
</g>
<!-- Node17&#45;&gt;Node11 -->
<g id="edge51_Node000017_Node000011" class="edge">
<title>Node17&#45;&gt;Node11</title>
<g id="a_edge51_Node000017_Node000011"><a xlink:title=" ">
<path fill="none" stroke="#63b8ff" d="M531.35,-275.9C526.21,-261.87 520.19,-240.04 523.5,-221 524.98,-212.49 527.93,-203.46 530.91,-195.77"/>
<polygon fill="#63b8ff" stroke="#63b8ff" points="534.05,-197.33 534.66,-186.75 527.58,-194.64 534.05,-197.33"/>
</a>
</g>
</g>
<!-- Node17&#45;&gt;Node12 -->
<g id="edge52_Node000017_Node000012" class="edge">
<title>Node17&#45;&gt;Node12</title>
<g id="a_edge52_Node000017_Node000012"><a xlink:title=" ">
<path fill="none" stroke="#63b8ff" d="M590.95,-275.84C623.93,-266.44 666.97,-253.54 704.5,-240.25 748.67,-224.6 798.62,-203.54 829.83,-189.96"/>
<polygon fill="#63b8ff" stroke="#63b8ff" points="830.91,-193.31 838.67,-186.09 828.1,-186.9 830.91,-193.31"/>
</a>
</g>
</g>
<!-- Node17&#45;&gt;Node13 -->
<g id="edge53_Node000017_Node000013" class="edge">
<title>Node17&#45;&gt;Node13</title>
<g id="a_edge53_Node000017_Node000013"><a xlink:title=" ">
<path fill="none" stroke="#63b8ff" d="M601.42,-284.59C658.31,-277.99 743.16,-264.84 813.5,-240.25 848.82,-227.9 886.34,-206.13 909.6,-191.48"/>
<polygon fill="#63b8ff" stroke="#63b8ff" points="911.42,-194.47 917.95,-186.13 907.64,-188.58 911.42,-194.47"/>
</a>
</g>
</g>
<!-- Node18&#45;&gt;Node5 -->
<g id="edge57_Node000018_Node000005" class="edge">
<title>Node18&#45;&gt;Node5</title>
<g id="a_edge57_Node000018_Node000005"><a xlink:title=" ">
<path fill="none" stroke="#63b8ff" d="M1013.17,-281.58C1014.38,-258.46 1014.09,-196.3 979.5,-165.75 940.71,-131.49 794.49,-123.34 710.61,-121.52"/>
<polygon fill="#63b8ff" stroke="#63b8ff" points="710.79,-118.02 700.72,-121.33 710.66,-125.02 710.79,-118.02"/>
</a>
</g>
</g>
<!-- Node18&#45;&gt;Node6 -->
<g id="edge60_Node000018_Node000006" class="edge">
<title>Node18&#45;&gt;Node6</title>
<g id="a_edge60_Node000018_Node000006"><a xlink:title=" ">
<path fill="none" stroke="#63b8ff" d="M1090.02,-284.09C1183.15,-275.58 1329.03,-259.39 1345.5,-240.25 1383.11,-196.54 1382.21,-154.98 1345.5,-110.5 1321.67,-81.63 1213.56,-71.23 1154.06,-67.64"/>
<polygon fill="#63b8ff" stroke="#63b8ff" points="1154.54,-64.16 1144.36,-67.1 1154.15,-71.15 1154.54,-64.16"/>
</a>
</g>
</g>
<!-- Node18&#45;&gt;Node9 -->
<g id="edge63_Node000018_Node000009" class="edge">
<title>Node18&#45;&gt;Node9</title>
<g id="a_edge63_Node000018_Node000009"><a xlink:title=" ">
<path fill="none" stroke="#63b8ff" d="M1018.13,-281.65C1028.93,-264.07 1052.23,-223.15 1060.5,-185 1069.22,-144.78 1041.95,-129.61 1005.5,-110.5 934.24,-73.14 837.37,-66.43 788.47,-65.61"/>
<polygon fill="#63b8ff" stroke="#63b8ff" points="788.66,-62.11 778.63,-65.53 788.6,-69.11 788.66,-62.11"/>
</a>
</g>
</g>
<!-- Node18&#45;&gt;Node10 -->
<g id="edge58_Node000018_Node000010" class="edge">
<title>Node18&#45;&gt;Node10</title>
<g id="a_edge58_Node000018_Node000010"><a xlink:title=" ">
<path fill="none" stroke="#63b8ff" d="M956.58,-281.43C888.95,-270.46 775.69,-252.09 707.25,-240.99"/>
<polygon fill="#63b8ff" stroke="#63b8ff" points="708.17,-237.6 697.74,-239.45 707.05,-244.51 708.17,-237.6"/>
</a>
</g>
</g>
<!-- Node18&#45;&gt;Node11 -->
<g id="edge59_Node000018_Node000011" class="edge">
<title>Node18&#45;&gt;Node11</title>
<g id="a_edge59_Node000018_Node000011"><a xlink:title=" ">
<path fill="none" stroke="#63b8ff" d="M974.99,-281.45C889.95,-260.93 682.58,-210.9 587.98,-188.07"/>
<polygon fill="#63b8ff" stroke="#63b8ff" points="589.03,-184.72 578.49,-185.78 587.39,-191.53 589.03,-184.72"/>
</a>
</g>
</g>
<!-- Node18&#45;&gt;Node12 -->
<g id="edge61_Node000018_Node000012" class="edge">
<title>Node18&#45;&gt;Node12</title>
<g id="a_edge61_Node000018_Node000012"><a xlink:title=" ">
<path fill="none" stroke="#63b8ff" d="M1000.57,-281.54C974.82,-262.21 913.74,-216.35 881.41,-192.08"/>
<polygon fill="#63b8ff" stroke="#63b8ff" points="883.68,-189.4 873.58,-186.2 879.48,-195 883.68,-189.4"/>
</a>
</g>
</g>
<!-- Node18&#45;&gt;Node13 -->
<g id="edge62_Node000018_Node000013" class="edge">
<title>Node18&#45;&gt;Node13</title>
<g id="a_edge62_Node000018_Node000013"><a xlink:title=" ">
<path fill="none" stroke="#63b8ff" d="M1006.54,-281.42C997.73,-268.07 980.64,-242.4 965.5,-221 959.24,-212.15 952.11,-202.46 946.08,-194.38"/>
<polygon fill="#63b8ff" stroke="#63b8ff" points="948.89,-192.3 940.09,-186.4 943.29,-196.5 948.89,-192.3"/>
</a>
</g>
</g>
</g>
</svg>

<g id="navigator" transform="translate(0 0)" fill="#404254">
  <rect fill="#f2f5e9" fill-opacity="0.5" stroke="#606060" stroke-width=".5" x="0" y="0" width="60" height="60"/>
  <use id="zoomplus" xlink:href="#zoomPlus" x="17" y="9" onmousedown="handleZoom(evt,'in')"/>
  <use id="zoomminus" xlink:href="#zoomMin" x="42" y="9" onmousedown="handleZoom(evt,'out')"/>
  <use id="reset" xlink:href="#resetDef" x="30" y="36" onmousedown="handleReset()"/>
   <use id="arrowup" xlink:href="#arrowUp" x="0" y="0" onmousedown="handlePan(0,-1)"/>
  <use id="arrowright" xlink:href="#arrowRight" x="0" y="0" onmousedown="handlePan(1,0)"/>
  <use id="arrowdown" xlink:href="#arrowDown" x="0" y="0" onmousedown="handlePan(0,1)"/>
  <use id="arrowleft" xlink:href="#arrowLeft" x="0" y="0" onmousedown="handlePan(-1,0)"/>
</g>
<svg viewBox="0 0 15 15" width="100%" height="30px" preserveAspectRatio="xMaxYMin meet">
 <g id="arrow_out" transform="scale(0.3 0.3)">
  <a xlink:href="gimo_8hpp__incl_org.svg" target="_base">
   <rect id="button" ry="5" rx="5" y="6" x="6" height="38" width="38"
        fill="#f2f5e9" fill-opacity="0.5" stroke="#606060" stroke-width="1.0"/>
   <path id="arrow"
     d="M 11.500037,31.436501 C 11.940474,20.09759 22.043105,11.32322 32.158766,21.979434 L 37.068811,17.246167 C 37.068811,17.246167 37.088388,32 37.088388,32 L 22.160133,31.978069 C 22.160133,31.978069 26.997745,27.140456 26.997745,27.140456 C 18.528582,18.264221 13.291696,25.230495 11.500037,31.436501 z"
     style="fill:#404040;"/>
  </a>
 </g>
</svg>

<style type='text/css'>
<![CDATA[
[data-mouse-over-selected='false'] { opacity: 0.7; }
[data-mouse-over-selected='true']  { opacity: 1.0; }
]]>
</style>
<script type="application/ecmascript"><![CDATA[
document.addEventListener('DOMContentLoaded', (event) => {
  highlightEdges();
  highlightAdjacentNodes();
});
]]></script>
</svg>
