<?xml version="1.0" encoding="UTF-8" standalone="no"?>
<!DOCTYPE svg PUBLIC "-//W3C//DTD SVG 1.1//EN"
 "http://www.w3.org/Graphics/SVG/1.1/DTD/svg11.dtd">
<!-- Generated by graphviz version 12.2.1 (20241206.2353)
 -->
<!-- Title: gimo::traits&lt; Nullable &gt; Pages: 1 -->
<svg width="393pt" height="285pt"
 viewBox="0.00 0.00 392.50 285.12" xmlns="http://www.w3.org/2000/svg" xmlns:xlink="http://www.w3.org/1999/xlink">
<g id="graph0" class="graph" transform="scale(1 1) rotate(0) translate(4 281.12)">
<title>gimo::traits&lt; Nullable &gt;</title>
<!-- Node1 -->
<g id="Node000001" class="node">
<title>Node1</title>
<g id="a_Node000001"><a xlink:title="The central customization point for the library.">
<polygon fill="#999999" stroke="#666666" points="115,-149.88 0,-149.88 0,-130.62 115,-130.62 115,-149.88"/>
<text text-anchor="middle" x="57.5" y="-136.38" font-family="Helvetica,sans-Serif" font-size="10.00">gimo::traits&lt; Nullable &gt;</text>
</a>
</g>
</g>
<!-- Node2 -->
<g id="Node000002" class="node">
<title>Node2</title>
<g id="a_Node000002"><a xlink:href="../../db/d87/structgimo_1_1traits_3_01_t_01_5_01_4.html" target="_top" xlink:title=" ">
<polygon fill="white" stroke="#666666" points="365.38,-274.88 273.62,-274.88 273.62,-255.62 365.38,-255.62 365.38,-274.88"/>
<text text-anchor="middle" x="319.5" y="-261.38" font-family="Helvetica,sans-Serif" font-size="10.00">gimo::traits&lt; T * &gt;</text>
</a>
</g>
</g>
<!-- Node1&#45;&gt;Node2 -->
<g id="edge1_Node000001_Node000002" class="edge">
<title>Node1&#45;&gt;Node2</title>
<g id="a_edge1_Node000001_Node000002"><a xlink:title=" ">
<path fill="none" stroke="orange" stroke-dasharray="5,2" d="M68.03,-160.46C79.88,-183.16 102.33,-219.16 133,-237.25 175.92,-262.56 233.8,-267.62 273.42,-267.59"/>
<polygon fill="orange" stroke="orange" points="71.22,-159 63.63,-151.61 64.95,-162.12 71.22,-159"/>
</a>
</g>
<text text-anchor="middle" x="184.75" y="-267.62" font-family="Helvetica,sans-Serif" font-size="10.00" fill="grey"> &lt; T * &gt;</text>
</g>
<!-- Node3 -->
<g id="Node000003" class="node">
<title>Node3</title>
<g id="a_Node000003"><a xlink:href="../../da/d78/structgimo_1_1traits_3_01std_1_1expected_3_01_value_00_01_error_01_4_01_4.html" target="_top" xlink:title=" ">
<polygon fill="white" stroke="#666666" points="384.5,-236.5 254.5,-236.5 254.5,-206 384.5,-206 384.5,-236.5"/>
<text text-anchor="start" x="262.5" y="-223" font-family="Helvetica,sans-Serif" font-size="10.00">gimo::traits&lt; std::</text>
<text text-anchor="middle" x="319.5" y="-211.75" font-family="Helvetica,sans-Serif" font-size="10.00">expected&lt; Value, Error &gt; &gt;</text>
</a>
</g>
</g>
<!-- Node1&#45;&gt;Node3 -->
<g id="edge2_Node000001_Node000003" class="edge">
<title>Node1&#45;&gt;Node3</title>
<g id="a_edge2_Node000001_Node000003"><a xlink:title=" ">
<path fill="none" stroke="orange" stroke-dasharray="5,2" d="M81.17,-156.84C95.4,-166.49 114.5,-178.13 133,-185.25 171.88,-200.22 217.84,-209.2 254.28,-214.44"/>
<polygon fill="orange" stroke="orange" points="83.19,-153.98 72.99,-151.11 79.18,-159.71 83.19,-153.98"/>
</a>
</g>
<text text-anchor="start" x="133" y="-223.96" font-family="Helvetica,sans-Serif" font-size="10.00" fill="grey"> &lt; std::expected&lt; Value,</text>
<text text-anchor="middle" x="184.75" y="-212.71" font-family="Helvetica,sans-Serif" font-size="10.00" fill="grey"> Error &gt; &gt;</text>
</g>
<!-- Node4 -->
<g id="Node000004" class="node">
<title>Node4</title>
<g id="a_Node000004"><a xlink:href="../../d1/d8a/structgimo_1_1traits_3_01std_1_1expected_3_01_value_00_01_error_01_4_01_4_1_1null__t.html" target="_top" xlink:title=" ">
<polygon fill="white" stroke="#666666" points="376.25,-188.12 262.75,-188.12 262.75,-146.38 376.25,-146.38 376.25,-188.12"/>
<text text-anchor="start" x="270.75" y="-174.62" font-family="Helvetica,sans-Serif" font-size="10.00">gimo::traits&lt; std::</text>
<text text-anchor="start" x="270.75" y="-163.38" font-family="Helvetica,sans-Serif" font-size="10.00">expected&lt; Value, Error</text>
<text text-anchor="middle" x="319.5" y="-152.12" font-family="Helvetica,sans-Serif" font-size="10.00"> &gt; &gt;::null_t</text>
</a>
</g>
</g>
<!-- Node1&#45;&gt;Node4 -->
<g id="edge3_Node000001_Node000004" class="edge">
<title>Node1&#45;&gt;Node4</title>
<g id="a_edge3_Node000001_Node000004"><a xlink:title=" ">
<path fill="none" stroke="orange" stroke-dasharray="5,2" d="M126.56,-147.32C168.82,-151.71 222.5,-157.28 262.33,-161.42"/>
<polygon fill="orange" stroke="orange" points="127.05,-143.85 116.74,-146.3 126.33,-150.81 127.05,-143.85"/>
</a>
</g>
<text text-anchor="start" x="133" y="-171.52" font-family="Helvetica,sans-Serif" font-size="10.00" fill="grey"> &lt; std::expected&lt; Value,</text>
<text text-anchor="middle" x="184.75" y="-160.27" font-family="Helvetica,sans-Serif" font-size="10.00" fill="grey"> Error &gt; &gt;::null_t</text>
</g>
<!-- Node5 -->
<g id="Node000005" class="node">
<title>Node5</title>
<g id="a_Node000005"><a xlink:href="../../da/dee/structgimo_1_1traits_3_01std_1_1optional_3_01_t_01_4_01_4.html" target="_top" xlink:title=" ">
<polygon fill="white" stroke="#666666" points="364.25,-128.5 274.75,-128.5 274.75,-98 364.25,-98 364.25,-128.5"/>
<text text-anchor="start" x="282.75" y="-115" font-family="Helvetica,sans-Serif" font-size="10.00">gimo::traits&lt; std::</text>
<text text-anchor="middle" x="319.5" y="-103.75" font-family="Helvetica,sans-Serif" font-size="10.00">optional&lt; T &gt; &gt;</text>
</a>
</g>
</g>
<!-- Node1&#45;&gt;Node5 -->
<g id="edge4_Node000001_Node000005" class="edge">
<title>Node1&#45;&gt;Node5</title>
<g id="a_edge4_Node000001_Node000005"><a xlink:title=" ">
<path fill="none" stroke="orange" stroke-dasharray="5,2" d="M126.49,-133.19C173.19,-128.34 233.84,-122.04 274.36,-117.83"/>
<polygon fill="orange" stroke="orange" points="126.33,-129.69 116.74,-134.2 127.05,-136.65 126.33,-129.69"/>
</a>
</g>
<text text-anchor="middle" x="184.75" y="-134.02" font-family="Helvetica,sans-Serif" font-size="10.00" fill="grey"> &lt; std::optional&lt; T &gt; &gt;</text>
</g>
<!-- Node6 -->
<g id="Node000006" class="node">
<title>Node6</title>
<g id="a_Node000006"><a xlink:href="../../d6/d98/structgimo_1_1traits_3_01std_1_1shared__ptr_3_01_t_01_4_01_4.html" target="_top" xlink:title=" ">
<polygon fill="white" stroke="#666666" points="365.75,-79.5 273.25,-79.5 273.25,-49 365.75,-49 365.75,-79.5"/>
<text text-anchor="start" x="281.25" y="-66" font-family="Helvetica,sans-Serif" font-size="10.00">gimo::traits&lt; std::</text>
<text text-anchor="middle" x="319.5" y="-54.75" font-family="Helvetica,sans-Serif" font-size="10.00">shared_ptr&lt; T &gt; &gt;</text>
</a>
</g>
</g>
<!-- Node1&#45;&gt;Node6 -->
<g id="edge5_Node000001_Node000006" class="edge">
<title>Node1&#45;&gt;Node6</title>
<g id="a_edge5_Node000001_Node000006"><a xlink:title=" ">
<path fill="none" stroke="orange" stroke-dasharray="5,2" d="M81.14,-123.7C95.36,-114.1 114.46,-102.59 133,-95.75 178.97,-78.8 234.76,-70.89 273.07,-67.26"/>
<polygon fill="orange" stroke="orange" points="79.17,-120.81 72.97,-129.4 83.18,-126.55 79.17,-120.81"/>
</a>
</g>
<text text-anchor="start" x="144.62" y="-108.75" font-family="Helvetica,sans-Serif" font-size="10.00" fill="grey"> &lt; std::shared_ptr&lt;</text>
<text text-anchor="middle" x="184.75" y="-97.5" font-family="Helvetica,sans-Serif" font-size="10.00" fill="grey"> T &gt; &gt;</text>
</g>
<!-- Node7 -->
<g id="Node000007" class="node">
<title>Node7</title>
<g id="a_Node000007"><a xlink:href="../../db/d7b/structgimo_1_1traits_3_01std_1_1unique__ptr_3_01_t_00_01_deleter_01_4_01_4.html" target="_top" xlink:title=" ">
<polygon fill="white" stroke="#666666" points="383.38,-30.5 255.62,-30.5 255.62,0 383.38,0 383.38,-30.5"/>
<text text-anchor="start" x="263.62" y="-17" font-family="Helvetica,sans-Serif" font-size="10.00">gimo::traits&lt; std::</text>
<text text-anchor="middle" x="319.5" y="-5.75" font-family="Helvetica,sans-Serif" font-size="10.00">unique_ptr&lt; T, Deleter &gt; &gt;</text>
</a>
</g>
</g>
<!-- Node1&#45;&gt;Node7 -->
<g id="edge6_Node000001_Node000007" class="edge">
<title>Node1&#45;&gt;Node7</title>
<g id="a_edge6_Node000001_Node000007"><a xlink:title=" ">
<path fill="none" stroke="orange" stroke-dasharray="5,2" d="M68.4,-120.28C80.45,-98.22 102.99,-63.46 133,-45.75 169.82,-24.02 217.53,-16.55 255.35,-14.42"/>
<polygon fill="orange" stroke="orange" points="65.43,-118.41 63.9,-128.9 71.63,-121.65 65.43,-118.41"/>
</a>
</g>
<text text-anchor="start" x="145" y="-58.75" font-family="Helvetica,sans-Serif" font-size="10.00" fill="grey"> &lt; std::unique_ptr&lt;</text>
<text text-anchor="middle" x="184.75" y="-47.5" font-family="Helvetica,sans-Serif" font-size="10.00" fill="grey"> T, Deleter &gt; &gt;</text>
</g>
</g>
</svg>
