<?xml version="1.0" encoding="UTF-8" standalone="no"?>
<!DOCTYPE svg PUBLIC "-//W3C//DTD SVG 1.1//EN"
 "http://www.w3.org/Graphics/SVG/1.1/DTD/svg11.dtd">
<!-- Generated by graphviz version 12.2.1 (20241206.2353)
 -->
<!-- Title: gimo::traits&lt; Nullable &gt; Pages: 1 -->
<svg width="396pt" height="252pt"
 viewBox="0.00 0.00 396.25 252.36" xmlns="http://www.w3.org/2000/svg" xmlns:xlink="http://www.w3.org/1999/xlink">

<svg id="main" version="1.1" xmlns="http://www.w3.org/2000/svg" xmlns:xlink="http://www.w3.org/1999/xlink" xml:space="preserve">

<style type="text/css"><![CDATA[
.node, .edge {opacity: 0.7;}
.node.selected, .edge.selected {opacity: 1;}
.edge:hover path { stroke: red; }
.edge:hover polygon { stroke: red; fill: red; }
]]></style>
<script type="application/ecmascript" xlink:href="../../svg.min.js"/>
<svg id="graph" class="graph">
<g id="graph0" class="graph" transform="scale(1 1) rotate(0) translate(4 248.36)">
<title>gimo::traits&lt; Nullable &gt;</title>
<!-- Node1 -->
<g id="Node000001" class="node">
<title>Node1</title>
<g id="a_Node000001"><a xlink:title="The central customization point for the library.">
<polygon fill="#999999" stroke="#666666" points="115,-136.88 0,-136.88 0,-117.62 115,-117.62 115,-136.88"/>
<text text-anchor="middle" x="57.5" y="-123.38" font-family="Helvetica,sans-Serif" font-size="10.00">gimo::traits&lt; Nullable &gt;</text>
</a>
</g>
</g>
<!-- Node2 -->
<g id="Node000002" class="node">
<title>Node2</title>
<g id="a_Node000002"><a xlink:href="../../db/d87/structgimo_1_1traits_3_01_t_01_5_01_4.html" target="_top" xlink:title=" ">
<polygon fill="white" stroke="#666666" points="369.12,-236.88 277.38,-236.88 277.38,-217.62 369.12,-217.62 369.12,-236.88"/>
<text text-anchor="middle" x="323.25" y="-223.38" font-family="Helvetica,sans-Serif" font-size="10.00">gimo::traits&lt; T * &gt;</text>
</a>
</g>
</g>
<!-- Node1&#45;&gt;Node2 -->
<g id="edge1_Node000001_Node000002" class="edge">
<title>Node1&#45;&gt;Node2</title>
<g id="a_edge1_Node000001_Node000002"><a xlink:title=" ">
<path fill="none" stroke="orange" stroke-dasharray="5,2" d="M71.97,-146.42C85.33,-163.82 107.46,-188.62 133,-201.25 178.48,-223.74 237.2,-228.64 277.08,-228.93"/>
<polygon fill="orange" stroke="orange" points="74.81,-144.38 66.06,-138.4 69.17,-148.53 74.81,-144.38"/>
</a>
</g>
<text text-anchor="start" x="172.38" y="-231.86" font-family="Helvetica,sans-Serif" font-size="10.00" fill="grey">&lt; T * &gt;</text>
</g>
<!-- Node3 -->
<g id="Node000003" class="node">
<title>Node3</title>
<g id="a_Node000003"><a xlink:href="../../da/d78/structgimo_1_1traits_3_01std_1_1expected_3_01_value_00_01_error_01_4_01_4.html" target="_top" xlink:title=" ">
<polygon fill="white" stroke="#666666" points="388.25,-189.5 258.25,-189.5 258.25,-159 388.25,-159 388.25,-189.5"/>
<text text-anchor="start" x="266.25" y="-176" font-family="Helvetica,sans-Serif" font-size="10.00">gimo::traits&lt; std::</text>
<text text-anchor="middle" x="323.25" y="-164.75" font-family="Helvetica,sans-Serif" font-size="10.00">expected&lt; Value, Error &gt; &gt;</text>
</a>
</g>
</g>
<!-- Node1&#45;&gt;Node3 -->
<g id="edge2_Node000001_Node000003" class="edge">
<title>Node1&#45;&gt;Node3</title>
<g id="a_edge2_Node000001_Node000003"><a xlink:title=" ">
<path fill="none" stroke="orange" stroke-dasharray="5,2" d="M101.36,-140.42C111.65,-143.28 122.66,-146.09 133,-148.25 174.23,-156.85 221.13,-163.32 257.92,-167.65"/>
<polygon fill="orange" stroke="orange" points="102.56,-137.13 91.99,-137.74 100.64,-143.86 102.56,-137.13"/>
</a>
</g>
<text text-anchor="start" x="136" y="-184.89" font-family="Helvetica,sans-Serif" font-size="10.00" fill="grey">&lt; std::expected&lt; Value,</text>
<text text-anchor="start" x="136" y="-169.64" font-family="Helvetica,sans-Serif" font-size="10.00" fill="grey">   Error &gt; &gt;</text>
</g>
<!-- Node4 -->
<g id="Node000004" class="node">
<title>Node4</title>
<g id="a_Node000004"><a xlink:href="../../da/dee/structgimo_1_1traits_3_01std_1_1optional_3_01_t_01_4_01_4.html" target="_top" xlink:title=" ">
<polygon fill="white" stroke="#666666" points="368,-140.5 278.5,-140.5 278.5,-110 368,-110 368,-140.5"/>
<text text-anchor="start" x="286.5" y="-127" font-family="Helvetica,sans-Serif" font-size="10.00">gimo::traits&lt; std::</text>
<text text-anchor="middle" x="323.25" y="-115.75" font-family="Helvetica,sans-Serif" font-size="10.00">optional&lt; T &gt; &gt;</text>
</a>
</g>
</g>
<!-- Node1&#45;&gt;Node4 -->
<g id="edge3_Node000001_Node000004" class="edge">
<title>Node1&#45;&gt;Node4</title>
<g id="a_edge3_Node000001_Node000004"><a xlink:title=" ">
<path fill="none" stroke="orange" stroke-dasharray="5,2" d="M126.88,-126.73C174.57,-126.37 236.81,-125.9 278.08,-125.58"/>
<polygon fill="orange" stroke="orange" points="126.89,-123.23 116.92,-126.81 126.94,-130.23 126.89,-123.23"/>
</a>
</g>
<text text-anchor="start" x="141.25" y="-131.41" font-family="Helvetica,sans-Serif" font-size="10.00" fill="grey">&lt; std::optional&lt; T &gt; &gt;</text>
</g>
<!-- Node5 -->
<g id="Node000005" class="node">
<title>Node5</title>
<g id="a_Node000005"><a xlink:href="../../d6/d98/structgimo_1_1traits_3_01std_1_1shared__ptr_3_01_t_01_4_01_4.html" target="_top" xlink:title=" ">
<polygon fill="white" stroke="#666666" points="369.5,-86.5 277,-86.5 277,-56 369.5,-56 369.5,-86.5"/>
<text text-anchor="start" x="285" y="-73" font-family="Helvetica,sans-Serif" font-size="10.00">gimo::traits&lt; std::</text>
<text text-anchor="middle" x="323.25" y="-61.75" font-family="Helvetica,sans-Serif" font-size="10.00">shared_ptr&lt; T &gt; &gt;</text>
</a>
</g>
</g>
<!-- Node1&#45;&gt;Node5 -->
<g id="edge4_Node000001_Node000005" class="edge">
<title>Node1&#45;&gt;Node5</title>
<g id="a_edge4_Node000001_Node000005"><a xlink:title=" ">
<path fill="none" stroke="orange" stroke-dasharray="5,2" d="M83.9,-111.51C97.88,-103.63 115.82,-94.73 133,-89.75 180.72,-75.93 237.74,-71.97 276.63,-71.04"/>
<polygon fill="orange" stroke="orange" points="82.25,-108.43 75.38,-116.5 85.78,-114.47 82.25,-108.43"/>
</a>
</g>
<text text-anchor="start" x="147.62" y="-109.75" font-family="Helvetica,sans-Serif" font-size="10.00" fill="grey">&lt; std::shared_ptr&lt;</text>
<text text-anchor="start" x="147.62" y="-94.5" font-family="Helvetica,sans-Serif" font-size="10.00" fill="grey">   T &gt; &gt;</text>
</g>
<!-- Node6 -->
<g id="Node000006" class="node">
<title>Node6</title>
<g id="a_Node000006"><a xlink:href="../../db/d7b/structgimo_1_1traits_3_01std_1_1unique__ptr_3_01_t_00_01_deleter_01_4_01_4.html" target="_top" xlink:title=" ">
<polygon fill="white" stroke="#666666" points="387.12,-30.5 259.38,-30.5 259.38,0 387.12,0 387.12,-30.5"/>
<text text-anchor="start" x="267.38" y="-17" font-family="Helvetica,sans-Serif" font-size="10.00">gimo::traits&lt; std::</text>
<text text-anchor="middle" x="323.25" y="-5.75" font-family="Helvetica,sans-Serif" font-size="10.00">unique_ptr&lt; T, Deleter &gt; &gt;</text>
</a>
</g>
</g>
<!-- Node1&#45;&gt;Node6 -->
<g id="edge5_Node000001_Node000006" class="edge">
<title>Node1&#45;&gt;Node6</title>
<g id="a_edge5_Node000001_Node000006"><a xlink:title=" ">
<path fill="none" stroke="orange" stroke-dasharray="5,2" d="M68.56,-107.32C80.65,-85.66 103.11,-51.99 133,-35.75 171.33,-14.92 220.45,-10.13 259.04,-10.36"/>
<polygon fill="orange" stroke="orange" points="65.52,-105.58 63.91,-116.05 71.7,-108.87 65.52,-105.58"/>
</a>
</g>
<text text-anchor="start" x="148" y="-55.75" font-family="Helvetica,sans-Serif" font-size="10.00" fill="grey">&lt; std::unique_ptr&lt;</text>
<text text-anchor="start" x="148" y="-40.5" font-family="Helvetica,sans-Serif" font-size="10.00" fill="grey">   T, Deleter &gt; &gt;</text>
</g>
</g>
</svg>
</svg>

<style type='text/css'>
<![CDATA[
[data-mouse-over-selected='false'] { opacity: 0.7; }
[data-mouse-over-selected='true']  { opacity: 1.0; }
]]>
</style>
<script type="application/ecmascript"><![CDATA[
document.addEventListener('DOMContentLoaded', (event) => {
  highlightEdges();
  highlightAdjacentNodes();
});
]]></script>
</svg>
