<?xml version="1.0" encoding="UTF-8" standalone="no"?>
<!DOCTYPE svg PUBLIC "-//W3C//DTD SVG 1.1//EN"
 "http://www.w3.org/Graphics/SVG/1.1/DTD/svg11.dtd">
<!-- Generated by graphviz version 12.2.1 (20241206.2353)
 -->
<!-- Title: gimo::Pipeline::apply Pages: 1 -->
<svg width="262pt" height="45pt"
 viewBox="0.00 0.00 262.00 45.25" xmlns="http://www.w3.org/2000/svg" xmlns:xlink="http://www.w3.org/1999/xlink">
<g id="graph0" class="graph" transform="scale(1 1) rotate(0) translate(4 41.25)">
<title>gimo::Pipeline::apply</title>
<!-- Node1 -->
<g id="Node000001" class="node">
<title>Node1</title>
<g id="a_Node000001"><a xlink:title="Applies nullable input on the pipeline.">
<polygon fill="#999999" stroke="#666666" points="103,-19.25 0,-19.25 0,0 103,0 103,-19.25"/>
<text text-anchor="middle" x="51.5" y="-5.75" font-family="Helvetica,sans-Serif" font-size="10.00">gimo::Pipeline::apply</text>
</a>
</g>
</g>
<!-- Node2 -->
<g id="Node000002" class="node">
<title>Node2</title>
<g id="a_Node000002"><a xlink:href="../../d5/d89/classgimo_1_1_pipeline.html#af65467c6cb27f4ef42522207f03ab9cf" target="_top" xlink:title=" ">
<polygon fill="white" stroke="#666666" points="254,-19.25 139,-19.25 139,0 254,0 254,-19.25"/>
<text text-anchor="middle" x="196.5" y="-5.75" font-family="Helvetica,sans-Serif" font-size="10.00">gimo::Pipeline::Pipeline</text>
</a>
</g>
</g>
<!-- Node1&#45;&gt;Node2 -->
<g id="edge1_Node000001_Node000002" class="edge">
<title>Node1&#45;&gt;Node2</title>
<g id="a_edge1_Node000001_Node000002"><a xlink:title=" ">
<path fill="none" stroke="#63b8ff" d="M103.32,-9.62C111.07,-9.62 119.17,-9.62 127.22,-9.62"/>
<polygon fill="#63b8ff" stroke="#63b8ff" points="127,-13.13 137,-9.63 127,-6.13 127,-13.13"/>
</a>
</g>
</g>
<!-- Node2&#45;&gt;Node2 -->
<g id="edge2_Node000002_Node000002" class="edge">
<title>Node2&#45;&gt;Node2</title>
<g id="a_edge2_Node000002_Node000002"><a xlink:title=" ">
<path fill="none" stroke="#63b8ff" d="M173.8,-19.54C163.44,-28.15 171.01,-37.25 196.5,-37.25 210.84,-37.25 219.5,-34.37 222.5,-30.32"/>
<polygon fill="#63b8ff" stroke="#63b8ff" points="225.92,-29.52 219.64,-20.99 219.22,-31.57 225.92,-29.52"/>
</a>
</g>
</g>
</g>
</svg>
