<?xml version="1.0" encoding="UTF-8" standalone="no"?>
<!DOCTYPE svg PUBLIC "-//W3C//DTD SVG 1.1//EN"
 "http://www.w3.org/Graphics/SVG/1.1/DTD/svg11.dtd">
<!-- Generated by graphviz version 12.2.1 (20241206.2353)
 -->
<!-- Title: gimo::Pipeline::append Pages: 1 -->
<svg width="274pt" height="64pt"
 viewBox="0.00 0.00 274.00 64.25" xmlns="http://www.w3.org/2000/svg" xmlns:xlink="http://www.w3.org/1999/xlink">
<g id="graph0" class="graph" transform="scale(1 1) rotate(0) translate(4 60.25)">
<title>gimo::Pipeline::append</title>
<!-- Node1 -->
<g id="Node000001" class="node">
<title>Node1</title>
<g id="a_Node000001"><a xlink:title="Appends another pipeline to the end of this one.">
<polygon fill="#999999" stroke="#666666" points="266,-37.25 154,-37.25 154,-18 266,-18 266,-37.25"/>
<text text-anchor="middle" x="210" y="-23.75" font-family="Helvetica,sans-Serif" font-size="10.00">gimo::Pipeline::append</text>
</a>
</g>
</g>
<!-- Node1&#45;&gt;Node1 -->
<g id="edge2_Node000001_Node000001" class="edge">
<title>Node1&#45;&gt;Node1</title>
<g id="a_edge2_Node000001_Node000001"><a xlink:title=" ">
<path fill="none" stroke="#63b8ff" d="M237.08,-48.32C233.96,-52.37 224.93,-55.25 210,-55.25 183.46,-55.25 175.58,-46.15 186.36,-37.54"/>
<polygon fill="#63b8ff" stroke="#63b8ff" points="240.47,-47.44 234.1,-38.98 233.8,-49.57 240.47,-47.44"/>
</a>
</g>
</g>
<!-- Node2 -->
<g id="Node000002" class="node">
<title>Node2</title>
<g id="a_Node000002"><a xlink:href="../../d5/d89/classgimo_1_1_pipeline.html#adec1008407828c36e99090c024484276" target="_top" xlink:title="Appends another pipeline to the end of this one.">
<polygon fill="white" stroke="#666666" points="115,-56.25 3,-56.25 3,-37 115,-37 115,-56.25"/>
<text text-anchor="middle" x="59" y="-42.75" font-family="Helvetica,sans-Serif" font-size="10.00">gimo::Pipeline::append</text>
</a>
</g>
</g>
<!-- Node1&#45;&gt;Node2 -->
<g id="edge1_Node000001_Node000002" class="edge">
<title>Node1&#45;&gt;Node2</title>
<g id="a_edge1_Node000001_Node000002"><a xlink:title=" ">
<path fill="none" stroke="#63b8ff" d="M142.15,-36.15C133.08,-37.31 123.86,-38.48 115.03,-39.61"/>
<polygon fill="#63b8ff" stroke="#63b8ff" points="142.54,-39.63 152.02,-34.89 141.65,-32.68 142.54,-39.63"/>
</a>
</g>
</g>
<!-- Node3 -->
<g id="Node000003" class="node">
<title>Node3</title>
<g id="a_Node000003"><a xlink:href="../../d5/d89/classgimo_1_1_pipeline.html#a6c52a1ec0d5cd578f88c525c29f62da7" target="_top" xlink:title="Appends the right&#45;hand&#45;side pipeline to the end of the left&#45;hand&#45;side pipeline.">
<polygon fill="white" stroke="#666666" points="118,-19.25 0,-19.25 0,0 118,0 118,-19.25"/>
<text text-anchor="middle" x="59" y="-5.75" font-family="Helvetica,sans-Serif" font-size="10.00">gimo::Pipeline::operator|</text>
</a>
</g>
</g>
<!-- Node1&#45;&gt;Node3 -->
<g id="edge3_Node000001_Node000003" class="edge">
<title>Node1&#45;&gt;Node3</title>
<g id="a_edge3_Node000001_Node000003"><a xlink:title=" ">
<path fill="none" stroke="#63b8ff" d="M142.31,-19.57C134.29,-18.6 126.15,-17.62 118.27,-16.66"/>
<polygon fill="#63b8ff" stroke="#63b8ff" points="141.67,-23.02 152.02,-20.74 142.51,-16.07 141.67,-23.02"/>
</a>
</g>
</g>
</g>
</svg>
