<?xml version="1.0" encoding="UTF-8" standalone="no"?>
<!DOCTYPE svg PUBLIC "-//W3C//DTD SVG 1.1//EN"
 "http://www.w3.org/Graphics/SVG/1.1/DTD/svg11.dtd">
<!-- Generated by graphviz version 12.2.1 (20241206.2353)
 -->
<!-- Title: gimo::Pipeline::append Pages: 1 -->
<svg width="271pt" height="45pt"
 viewBox="0.00 0.00 271.00 45.25" xmlns="http://www.w3.org/2000/svg" xmlns:xlink="http://www.w3.org/1999/xlink">

<svg id="main" version="1.1" xmlns="http://www.w3.org/2000/svg" xmlns:xlink="http://www.w3.org/1999/xlink" xml:space="preserve">

<style type="text/css"><![CDATA[
.node, .edge {opacity: 0.7;}
.node.selected, .edge.selected {opacity: 1;}
.edge:hover path { stroke: red; }
.edge:hover polygon { stroke: red; fill: red; }
]]></style>
<script type="application/ecmascript" xlink:href="../../svg.min.js"/>
<svg id="graph" class="graph">
<g id="graph0" class="graph" transform="scale(1 1) rotate(0) translate(4 41.25)">
<title>gimo::Pipeline::append</title>
<!-- Node1 -->
<g id="Node000001" class="node">
<title>Node1</title>
<g id="a_Node000001"><a xlink:title="Appends another pipeline to the end of this one.">
<polygon fill="#999999" stroke="#666666" points="112,-19.25 0,-19.25 0,0 112,0 112,-19.25"/>
<text text-anchor="middle" x="56" y="-5.75" font-family="Helvetica,sans-Serif" font-size="10.00">gimo::Pipeline::append</text>
</a>
</g>
</g>
<!-- Node1&#45;&gt;Node1 -->
<g id="edge3_Node000001_Node000001" class="edge">
<title>Node1&#45;&gt;Node1</title>
<g id="a_edge3_Node000001_Node000001"><a xlink:title=" ">
<path fill="none" stroke="#63b8ff" d="M32.6,-19.54C21.92,-28.15 29.72,-37.25 56,-37.25 70.78,-37.25 79.72,-34.37 82.81,-30.32"/>
<polygon fill="#63b8ff" stroke="#63b8ff" points="86.21,-29.46 79.86,-20.98 79.53,-31.57 86.21,-29.46"/>
</a>
</g>
</g>
<!-- Node2 -->
<g id="Node000002" class="node">
<title>Node2</title>
<g id="a_Node000002"><a xlink:href="../../d5/d89/classgimo_1_1_pipeline.html#af65467c6cb27f4ef42522207f03ab9cf" target="_top" xlink:title=" ">
<polygon fill="white" stroke="#666666" points="263,-19.25 148,-19.25 148,0 263,0 263,-19.25"/>
<text text-anchor="middle" x="205.5" y="-5.75" font-family="Helvetica,sans-Serif" font-size="10.00">gimo::Pipeline::Pipeline</text>
</a>
</g>
</g>
<!-- Node1&#45;&gt;Node2 -->
<g id="edge1_Node000001_Node000002" class="edge">
<title>Node1&#45;&gt;Node2</title>
<g id="a_edge1_Node000001_Node000002"><a xlink:title=" ">
<path fill="none" stroke="#63b8ff" d="M112.34,-9.62C120.23,-9.62 128.42,-9.62 136.52,-9.62"/>
<polygon fill="#63b8ff" stroke="#63b8ff" points="136.35,-13.13 146.35,-9.63 136.35,-6.13 136.35,-13.13"/>
</a>
</g>
</g>
<!-- Node2&#45;&gt;Node2 -->
<g id="edge2_Node000002_Node000002" class="edge">
<title>Node2&#45;&gt;Node2</title>
<g id="a_edge2_Node000002_Node000002"><a xlink:title=" ">
<path fill="none" stroke="#63b8ff" d="M182.1,-19.54C171.42,-28.15 179.22,-37.25 205.5,-37.25 220.28,-37.25 229.22,-34.37 232.31,-30.32"/>
<polygon fill="#63b8ff" stroke="#63b8ff" points="235.71,-29.46 229.36,-20.98 229.03,-31.57 235.71,-29.46"/>
</a>
</g>
</g>
</g>
</svg>
</svg>

<style type='text/css'>
<![CDATA[
[data-mouse-over-selected='false'] { opacity: 0.7; }
[data-mouse-over-selected='true']  { opacity: 1.0; }
]]>
</style>
<script type="application/ecmascript"><![CDATA[
document.addEventListener('DOMContentLoaded', (event) => {
  highlightEdges();
  highlightAdjacentNodes();
});
]]></script>
</svg>
