<?xml version="1.0" encoding="UTF-8" standalone="no"?>
<!DOCTYPE svg PUBLIC "-//W3C//DTD SVG 1.1//EN"
 "http://www.w3.org/Graphics/SVG/1.1/DTD/svg11.dtd">
<!-- Generated by graphviz version 12.2.1 (20241206.2353)
 -->
<!-- Title: gimo::Pipeline::append Pages: 1 -->
<svg width="419pt" height="73pt"
 viewBox="0.00 0.00 419.00 73.25" xmlns="http://www.w3.org/2000/svg" xmlns:xlink="http://www.w3.org/1999/xlink">

<svg id="main" version="1.1" xmlns="http://www.w3.org/2000/svg" xmlns:xlink="http://www.w3.org/1999/xlink" xml:space="preserve">

<style type="text/css"><![CDATA[
.node, .edge {opacity: 0.7;}
.node.selected, .edge.selected {opacity: 1;}
.edge:hover path { stroke: red; }
.edge:hover polygon { stroke: red; fill: red; }
]]></style>
<script type="application/ecmascript" xlink:href="../../svg.min.js"/>
<svg id="graph" class="graph">
<g id="graph0" class="graph" transform="scale(1 1) rotate(0) translate(4 69.25)">
<title>gimo::Pipeline::append</title>
<!-- Node1 -->
<g id="Node000001" class="node">
<title>Node1</title>
<g id="a_Node000001"><a xlink:title="Appends another pipeline to the end of this one.">
<polygon fill="#999999" stroke="#666666" points="112,-47.25 0,-47.25 0,-28 112,-28 112,-47.25"/>
<text text-anchor="middle" x="56" y="-33.75" font-family="Helvetica,sans-Serif" font-size="10.00">gimo::Pipeline::append</text>
</a>
</g>
</g>
<!-- Node2 -->
<g id="Node000002" class="node">
<title>Node2</title>
<g id="a_Node000002"><a xlink:href="../../d5/d89/classgimo_1_1_pipeline.html#af65467c6cb27f4ef42522207f03ab9cf" target="_top" xlink:title=" ">
<polygon fill="white" stroke="#666666" points="411,-47.25 296,-47.25 296,-28 411,-28 411,-47.25"/>
<text text-anchor="middle" x="353.5" y="-33.75" font-family="Helvetica,sans-Serif" font-size="10.00">gimo::Pipeline::Pipeline</text>
</a>
</g>
</g>
<!-- Node1&#45;&gt;Node2 -->
<g id="edge1_Node000001_Node000002" class="edge">
<title>Node1&#45;&gt;Node2</title>
<g id="a_edge1_Node000001_Node000002"><a xlink:title=" ">
<path fill="none" stroke="#63b8ff" d="M112.28,-43.97C124.05,-45.08 136.42,-46.05 148,-46.62 197.72,-49.08 210.28,-49.04 260,-46.62 267.98,-46.24 276.33,-45.66 284.61,-44.99"/>
<polygon fill="#63b8ff" stroke="#63b8ff" points="284.65,-48.5 294.31,-44.15 284.04,-41.53 284.65,-48.5"/>
</a>
</g>
</g>
<!-- Node3 -->
<g id="Node000003" class="node">
<title>Node3</title>
<g id="a_Node000003"><a xlink:href="../../d5/d89/classgimo_1_1_pipeline.html#a648302a642f31053ed6749bbaa977159" target="_top" xlink:title="Appends another pipeline to the end of this one.">
<polygon fill="white" stroke="#666666" points="260,-19.25 148,-19.25 148,0 260,0 260,-19.25"/>
<text text-anchor="middle" x="204" y="-5.75" font-family="Helvetica,sans-Serif" font-size="10.00">gimo::Pipeline::append</text>
</a>
</g>
</g>
<!-- Node1&#45;&gt;Node3 -->
<g id="edge3_Node000001_Node000003" class="edge">
<title>Node1&#45;&gt;Node3</title>
<g id="a_edge3_Node000001_Node000003"><a xlink:title=" ">
<path fill="none" stroke="#63b8ff" d="M109.71,-27.52C119.32,-25.67 129.45,-23.73 139.34,-21.83"/>
<polygon fill="#63b8ff" stroke="#63b8ff" points="139.72,-25.32 148.88,-20 138.4,-18.45 139.72,-25.32"/>
</a>
</g>
</g>
<!-- Node2&#45;&gt;Node2 -->
<g id="edge2_Node000002_Node000002" class="edge">
<title>Node2&#45;&gt;Node2</title>
<g id="a_edge2_Node000002_Node000002"><a xlink:title=" ">
<path fill="none" stroke="#63b8ff" d="M330.1,-47.54C319.42,-56.15 327.22,-65.25 353.5,-65.25 368.28,-65.25 377.22,-62.37 380.31,-58.32"/>
<polygon fill="#63b8ff" stroke="#63b8ff" points="383.71,-57.46 377.36,-48.98 377.03,-59.57 383.71,-57.46"/>
</a>
</g>
</g>
<!-- Node3&#45;&gt;Node2 -->
<g id="edge4_Node000003_Node000002" class="edge">
<title>Node3&#45;&gt;Node2</title>
<g id="a_edge4_Node000003_Node000002"><a xlink:title=" ">
<path fill="none" stroke="#63b8ff" d="M258.25,-19.73C267.96,-21.58 278.19,-23.52 288.18,-25.42"/>
<polygon fill="#63b8ff" stroke="#63b8ff" points="287.36,-28.82 297.84,-27.25 288.67,-21.95 287.36,-28.82"/>
</a>
</g>
</g>
<!-- Node3&#45;&gt;Node3 -->
<g id="edge5_Node000003_Node000003" class="edge">
<title>Node3&#45;&gt;Node3</title>
<g id="a_edge5_Node000003_Node000003"><a xlink:title=" ">
<path fill="none" stroke="#63b8ff" d="M180.83,-19.54C170.26,-28.15 177.98,-37.25 204,-37.25 218.63,-37.25 227.48,-34.37 230.54,-30.32"/>
<polygon fill="#63b8ff" stroke="#63b8ff" points="233.94,-29.48 227.62,-20.98 227.26,-31.57 233.94,-29.48"/>
</a>
</g>
</g>
</g>
</svg>
</svg>

<style type='text/css'>
<![CDATA[
[data-mouse-over-selected='false'] { opacity: 0.7; }
[data-mouse-over-selected='true']  { opacity: 1.0; }
]]>
</style>
<script type="application/ecmascript"><![CDATA[
document.addEventListener('DOMContentLoaded', (event) => {
  highlightEdges();
  highlightAdjacentNodes();
});
]]></script>
</svg>
